<?xml version="1.0" encoding="utf-8"?>
<svg xmlns="http://www.w3.org/2000/svg" width="450" height="450" class="segno"><g transform="scale(10)"><path fill="#fff" d="M0 0h45v45h-45z"/><path class="qrline" stroke="#174f73" d="M2 2.5h7m1 0h4m1 0h1m1 0h1m1 0h1m1 0h1m5 0h3m1 0h1m4 0h7m-41 1h1m5 0h1m1 0h1m4 0h2m1 0h1m1 0h2m2 0h1m2 0h1m2 0h1m1 0h2m2 0h1m5 0h1m-41 1h1m1 0h3m1 0h1m1 0h2m2 0h1m6 0h1m1 0h1m2 0h3m1 0h1m2 0h2m1 0h1m1 0h3m1 0h1m-41 1h1m1 0h3m1 0h1m5 0h1m1 0h1m3 0h3m1 0h4m2 0h2m2 0h1m1 0h1m1 0h3m1 0h1m-41 1h1m1 0h3m1 0h1m1 0h1m2 0h3m1 0h1m5 0h1m5 0h4m3 0h1m1 0h3m1 0h1m-41 1h1m5 0h1m4 0h2m1 0h3m3 0h1m2 0h4m2 0h1m2 0h1m1 0h1m5 0h1m-41 1h7m1 0h1m1 0h1m1 0h1m1 0h1m1 0h1m1 0h1m1 0h1m1 0h1m1 0h1m1 0h1m1 0h1m1 0h1m1 0h1m1 0h7m-29 1h1m2 0h1m4 0h1m1 0h4m4 0h3m-33 1h1m2 0h6m1 0h8m1 0h1m2 0h1m1 0h1m1 0h4m1 0h1m1 0h1m2 0h1m1 0h3m-40 1h3m1 0h1m1 0h1m3 0h1m1 0h1m2 0h1m1 0h6m1 0h3m2 0h2m1 0h1m1 0h2m2 0h2m-41 1h4m2 0h1m2 0h2m1 0h1m1 0h1m7 0h3m2 0h1m8 0h1m1 0h1m-39 1h1m2 0h2m2 0h2m1 0h1m1 0h1m1 0h1m1 0h2m2 0h1m2 0h1m3 0h1m1 0h4m1 0h1m2 0h1m2 0h1m-41 1h1m2 0h2m1 0h1m2 0h1m1 0h1m1 0h1m1 0h2m3 0h1m1 0h1m1 0h2m2 0h2m2 0h1m1 0h2m4 0h1m-41 1h2m1 0h2m2 0h2m6 0h1m3 0h1m2 0h2m3 0h2m1 0h1m3 0h1m1 0h1m2 0h2m-41 1h1m4 0h3m1 0h3m1 0h1m2 0h3m3 0h1m1 0h1m1 0h2m3 0h1m1 0h2m1 0h1m2 0h2m-39 1h4m1 0h1m1 0h2m3 0h1m1 0h1m2 0h1m3 0h2m1 0h1m1 0h1m1 0h1m2 0h1m1 0h6m-41 1h1m4 0h7m1 0h1m2 0h1m2 0h1m1 0h3m4 0h1m3 0h2m3 0h1m1 0h1m-40 1h3m2 0h1m1 0h1m3 0h1m1 0h4m2 0h2m1 0h2m2 0h8m2 0h1m1 0h1m-37 1h2m2 0h1m3 0h1m1 0h1m2 0h2m2 0h1m1 0h3m3 0h1m3 0h1m3 0h4m1 0h1m-40 1h1m1 0h1m3 0h1m2 0h1m4 0h4m1 0h1m3 0h2m1 0h1m4 0h3m1 0h1m1 0h1m1 0h1m-39 1h6m2 0h2m3 0h2m2 0h4m1 0h1m1 0h1m2 0h4m1 0h1m2 0h4m-39 1h3m2 0h1m1 0h2m4 0h1m2 0h1m2 0h3m1 0h2m2 0h4m2 0h4m-39 1h1m1 0h2m2 0h1m2 0h1m1 0h1m1 0h4m3 0h1m1 0h4m1 0h1m7 0h1m-27 1h1m3 0h1m1 0h4m3 0h1m1 0h1m1 0h1m1 0h2m1 0h4m1 0h2m1 0h1m-36 1h3m1 0h1m2 0h1m1 0h2m1 0h1m2 0h2m2 0h2m2 0h2m3 0h4m1 0h4m-41 1h1m1 0h1m1 0h1m2 0h2m5 0h5m4 0h1m1 0h3m2 0h1m1 0h3m1 0h1m1 0h2m-40 1h2m1 0h10m2 0h1m2 0h5m4 0h1m2 0h4m2 0h2m2 0h1m-40 1h5m5 0h1m2 0h1m3 0h2m2 0h2m3 0h2m2 0h1m5 0h2m1 0h1m-37 1h1m1 0h6m1 0h1m1 0h2m1 0h2m1 0h3m1 0h1m1 0h1m1 0h1m1 0h2m2 0h1m1 0h1m1 0h2m-41 1h1m4 0h1m1 0h1m1 0h2m3 0h1m1 0h1m4 0h2m4 0h1m2 0h5m1 0h1m-37 1h3m1 0h3m2 0h2m1 0h8m1 0h1m1 0h1m3 0h2m2 0h3m6 0h1m-41 1h2m1 0h1m1 0h1m2 0h1m1 0h1m1 0h1m1 0h1m3 0h3m2 0h1m1 0h1m1 0h2m2 0h2m1 0h2m1 0h3m-40 1h8m3 0h1m3 0h1m1 0h3m1 0h1m1 0h1m2 0h15m-33 1h2m3 0h2m4 0h1m1 0h2m6 0h1m1 0h2m3 0h2m1 0h1m-40 1h7m1 0h1m1 0h1m1 0h2m1 0h1m1 0h2m1 0h1m1 0h2m1 0h1m1 0h2m3 0h1m1 0h1m1 0h3m-39 1h1m5 0h1m1 0h1m4 0h3m1 0h1m3 0h4m3 0h2m1 0h2m3 0h2m1 0h1m-40 1h1m1 0h3m1 0h1m1 0h4m1 0h6m2 0h1m2 0h1m6 0h7m-38 1h1m1 0h3m1 0h1m1 0h3m3 0h1m2 0h1m2 0h1m5 0h3m3 0h1m2 0h1m4 0h1m-41 1h1m1 0h3m1 0h1m2 0h1m4 0h1m4 0h2m1 0h1m3 0h2m1 0h2m2 0h1m1 0h2m1 0h1m1 0h1m-41 1h1m5 0h1m2 0h1m1 0h2m2 0h4m9 0h1m4 0h2m1 0h1m1 0h1m1 0h1m-41 1h7m1 0h1m1 0h2m2 0h2m1 0h4m1 0h4m2 0h1m3 0h1m3 0h2"/></g></svg>
