<?xml version="1.0" encoding="utf-8" standalone="no"?>
<!DOCTYPE svg PUBLIC "-//W3C//DTD SVG 1.1//EN"
  "http://www.w3.org/Graphics/SVG/1.1/DTD/svg11.dtd">
<svg xmlns:xlink="http://www.w3.org/1999/xlink" width="820.7925pt" height="230.557031pt" viewBox="0 0 820.7925 230.557031" xmlns="http://www.w3.org/2000/svg" version="1.1">
 <metadata>
  <rdf:RDF xmlns:dc="http://purl.org/dc/elements/1.1/" xmlns:cc="http://creativecommons.org/ns#" xmlns:rdf="http://www.w3.org/1999/02/22-rdf-syntax-ns#">
   <cc:Work>
    <dc:type rdf:resource="http://purl.org/dc/dcmitype/StillImage"/>
    <dc:date>2026-07-19T11:40:55.368107</dc:date>
    <dc:format>image/svg+xml</dc:format>
    <dc:creator>
     <cc:Agent>
      <dc:title>Matplotlib v3.10.8, https://matplotlib.org/</dc:title>
     </cc:Agent>
    </dc:creator>
   </cc:Work>
  </rdf:RDF>
 </metadata>
 <defs>
  <style type="text/css">*{stroke-linejoin: round; stroke-linecap: butt}</style>
 </defs>
 <g id="figure_1">
  <g id="patch_1">
   <path d="M 0 230.557031 
L 820.7925 230.557031 
L 820.7925 0 
L 0 0 
L 0 230.557031 
z
" style="fill: none"/>
  </g>
  <g id="axes_1">
   <g id="patch_2">
    <path d="M 37.4225 166.6575 
L 285.975833 166.6575 
L 285.975833 27.3575 
L 37.4225 27.3575 
L 37.4225 166.6575 
z
" style="fill: none"/>
   </g>
   <g id="matplotlib.axis_1">
    <g id="xtick_1">
     <g id="line2d_1"/>
     <g id="text_1">
      <!-- 0 -->
      <g style="fill: #5a6b76" transform="translate(32.96875 180.795312) scale(0.14 -0.14)">
       <defs>
        <path id="DejaVuSans-30" d="M 2034 4250 
Q 1547 4250 1301 3770 
Q 1056 3291 1056 2328 
Q 1056 1369 1301 889 
Q 1547 409 2034 409 
Q 2525 409 2770 889 
Q 3016 1369 3016 2328 
Q 3016 3291 2770 3770 
Q 2525 4250 2034 4250 
z
M 2034 4750 
Q 2819 4750 3233 4129 
Q 3647 3509 3647 2328 
Q 3647 1150 3233 529 
Q 2819 -91 2034 -91 
Q 1250 -91 836 529 
Q 422 1150 422 2328 
Q 422 3509 836 4129 
Q 1250 4750 2034 4750 
z
" transform="scale(0.015625)"/>
       </defs>
       <use xlink:href="#DejaVuSans-30"/>
      </g>
     </g>
    </g>
    <g id="xtick_2">
     <g id="line2d_2"/>
     <g id="text_2">
      <!-- 1 -->
      <g style="fill: #5a6b76" transform="translate(154.214278 180.795312) scale(0.14 -0.14)">
       <defs>
        <path id="DejaVuSans-31" d="M 794 531 
L 1825 531 
L 1825 4091 
L 703 3866 
L 703 4441 
L 1819 4666 
L 2450 4666 
L 2450 531 
L 3481 531 
L 3481 0 
L 794 0 
L 794 531 
z
" transform="scale(0.015625)"/>
       </defs>
       <use xlink:href="#DejaVuSans-31"/>
      </g>
     </g>
    </g>
    <g id="xtick_3">
     <g id="line2d_3"/>
     <g id="text_3">
      <!-- 2 -->
      <g style="fill: #5a6b76" transform="translate(275.459807 180.795312) scale(0.14 -0.14)">
       <defs>
        <path id="DejaVuSans-32" d="M 1228 531 
L 3431 531 
L 3431 0 
L 469 0 
L 469 531 
Q 828 903 1448 1529 
Q 2069 2156 2228 2338 
Q 2531 2678 2651 2914 
Q 2772 3150 2772 3378 
Q 2772 3750 2511 3984 
Q 2250 4219 1831 4219 
Q 1534 4219 1204 4116 
Q 875 4013 500 3803 
L 500 4441 
Q 881 4594 1212 4672 
Q 1544 4750 1819 4750 
Q 2544 4750 2975 4387 
Q 3406 4025 3406 3419 
Q 3406 3131 3298 2873 
Q 3191 2616 2906 2266 
Q 2828 2175 2409 1742 
Q 1991 1309 1228 531 
z
" transform="scale(0.015625)"/>
       </defs>
       <use xlink:href="#DejaVuSans-32"/>
      </g>
     </g>
    </g>
    <g id="text_4">
     <!-- time (s) -->
     <g style="fill: #5a6b76" transform="translate(136.490339 197.584844) scale(0.13 -0.13)">
      <defs>
       <path id="DejaVuSans-74" d="M 1172 4494 
L 1172 3500 
L 2356 3500 
L 2356 3053 
L 1172 3053 
L 1172 1153 
Q 1172 725 1289 603 
Q 1406 481 1766 481 
L 2356 481 
L 2356 0 
L 1766 0 
Q 1100 0 847 248 
Q 594 497 594 1153 
L 594 3053 
L 172 3053 
L 172 3500 
L 594 3500 
L 594 4494 
L 1172 4494 
z
" transform="scale(0.015625)"/>
       <path id="DejaVuSans-69" d="M 603 3500 
L 1178 3500 
L 1178 0 
L 603 0 
L 603 3500 
z
M 603 4863 
L 1178 4863 
L 1178 4134 
L 603 4134 
L 603 4863 
z
" transform="scale(0.015625)"/>
       <path id="DejaVuSans-6d" d="M 3328 2828 
Q 3544 3216 3844 3400 
Q 4144 3584 4550 3584 
Q 5097 3584 5394 3201 
Q 5691 2819 5691 2113 
L 5691 0 
L 5113 0 
L 5113 2094 
Q 5113 2597 4934 2840 
Q 4756 3084 4391 3084 
Q 3944 3084 3684 2787 
Q 3425 2491 3425 1978 
L 3425 0 
L 2847 0 
L 2847 2094 
Q 2847 2600 2669 2842 
Q 2491 3084 2119 3084 
Q 1678 3084 1418 2786 
Q 1159 2488 1159 1978 
L 1159 0 
L 581 0 
L 581 3500 
L 1159 3500 
L 1159 2956 
Q 1356 3278 1631 3431 
Q 1906 3584 2284 3584 
Q 2666 3584 2933 3390 
Q 3200 3197 3328 2828 
z
" transform="scale(0.015625)"/>
       <path id="DejaVuSans-65" d="M 3597 1894 
L 3597 1613 
L 953 1613 
Q 991 1019 1311 708 
Q 1631 397 2203 397 
Q 2534 397 2845 478 
Q 3156 559 3463 722 
L 3463 178 
Q 3153 47 2828 -22 
Q 2503 -91 2169 -91 
Q 1331 -91 842 396 
Q 353 884 353 1716 
Q 353 2575 817 3079 
Q 1281 3584 2069 3584 
Q 2775 3584 3186 3129 
Q 3597 2675 3597 1894 
z
M 3022 2063 
Q 3016 2534 2758 2815 
Q 2500 3097 2075 3097 
Q 1594 3097 1305 2825 
Q 1016 2553 972 2059 
L 3022 2063 
z
" transform="scale(0.015625)"/>
       <path id="DejaVuSans-20" transform="scale(0.015625)"/>
       <path id="DejaVuSans-28" d="M 1984 4856 
Q 1566 4138 1362 3434 
Q 1159 2731 1159 2009 
Q 1159 1288 1364 580 
Q 1569 -128 1984 -844 
L 1484 -844 
Q 1016 -109 783 600 
Q 550 1309 550 2009 
Q 550 2706 781 3412 
Q 1013 4119 1484 4856 
L 1984 4856 
z
" transform="scale(0.015625)"/>
       <path id="DejaVuSans-73" d="M 2834 3397 
L 2834 2853 
Q 2591 2978 2328 3040 
Q 2066 3103 1784 3103 
Q 1356 3103 1142 2972 
Q 928 2841 928 2578 
Q 928 2378 1081 2264 
Q 1234 2150 1697 2047 
L 1894 2003 
Q 2506 1872 2764 1633 
Q 3022 1394 3022 966 
Q 3022 478 2636 193 
Q 2250 -91 1575 -91 
Q 1294 -91 989 -36 
Q 684 19 347 128 
L 347 722 
Q 666 556 975 473 
Q 1284 391 1588 391 
Q 1994 391 2212 530 
Q 2431 669 2431 922 
Q 2431 1156 2273 1281 
Q 2116 1406 1581 1522 
L 1381 1569 
Q 847 1681 609 1914 
Q 372 2147 372 2553 
Q 372 3047 722 3315 
Q 1072 3584 1716 3584 
Q 2034 3584 2315 3537 
Q 2597 3491 2834 3397 
z
" transform="scale(0.015625)"/>
       <path id="DejaVuSans-29" d="M 513 4856 
L 1013 4856 
Q 1481 4119 1714 3412 
Q 1947 2706 1947 2009 
Q 1947 1309 1714 600 
Q 1481 -109 1013 -844 
L 513 -844 
Q 928 -128 1133 580 
Q 1338 1288 1338 2009 
Q 1338 2731 1133 3434 
Q 928 4138 513 4856 
z
" transform="scale(0.015625)"/>
      </defs>
      <use xlink:href="#DejaVuSans-74"/>
      <use xlink:href="#DejaVuSans-69" transform="translate(39.208984 0)"/>
      <use xlink:href="#DejaVuSans-6d" transform="translate(66.992188 0)"/>
      <use xlink:href="#DejaVuSans-65" transform="translate(164.404297 0)"/>
      <use xlink:href="#DejaVuSans-20" transform="translate(225.927734 0)"/>
      <use xlink:href="#DejaVuSans-28" transform="translate(257.714844 0)"/>
      <use xlink:href="#DejaVuSans-73" transform="translate(296.728516 0)"/>
      <use xlink:href="#DejaVuSans-29" transform="translate(348.828125 0)"/>
     </g>
    </g>
   </g>
   <g id="matplotlib.axis_2">
    <g id="ytick_1">
     <g id="line2d_4"/>
     <g id="text_5">
      <!-- 0 -->
      <g style="fill: #5a6b76" transform="translate(25.015 171.976406) scale(0.14 -0.14)">
       <use xlink:href="#DejaVuSans-30"/>
      </g>
     </g>
    </g>
    <g id="ytick_2">
     <g id="line2d_5"/>
     <g id="text_6">
      <!-- 500 -->
      <g style="fill: #5a6b76" transform="translate(7.2 109.788906) scale(0.14 -0.14)">
       <defs>
        <path id="DejaVuSans-35" d="M 691 4666 
L 3169 4666 
L 3169 4134 
L 1269 4134 
L 1269 2991 
Q 1406 3038 1543 3061 
Q 1681 3084 1819 3084 
Q 2600 3084 3056 2656 
Q 3513 2228 3513 1497 
Q 3513 744 3044 326 
Q 2575 -91 1722 -91 
Q 1428 -91 1123 -41 
Q 819 9 494 109 
L 494 744 
Q 775 591 1075 516 
Q 1375 441 1709 441 
Q 2250 441 2565 725 
Q 2881 1009 2881 1497 
Q 2881 1984 2565 2268 
Q 2250 2553 1709 2553 
Q 1456 2553 1204 2497 
Q 953 2441 691 2322 
L 691 4666 
z
" transform="scale(0.015625)"/>
       </defs>
       <use xlink:href="#DejaVuSans-35"/>
       <use xlink:href="#DejaVuSans-30" transform="translate(63.623047 0)"/>
       <use xlink:href="#DejaVuSans-30" transform="translate(127.246094 0)"/>
      </g>
     </g>
    </g>
    <g id="ytick_3">
     <g id="line2d_6"/>
     <g id="text_7">
      <!-- 999 -->
      <g style="fill: #5a6b76" transform="translate(7.2 47.725781) scale(0.14 -0.14)">
       <defs>
        <path id="DejaVuSans-39" d="M 703 97 
L 703 672 
Q 941 559 1184 500 
Q 1428 441 1663 441 
Q 2288 441 2617 861 
Q 2947 1281 2994 2138 
Q 2813 1869 2534 1725 
Q 2256 1581 1919 1581 
Q 1219 1581 811 2004 
Q 403 2428 403 3163 
Q 403 3881 828 4315 
Q 1253 4750 1959 4750 
Q 2769 4750 3195 4129 
Q 3622 3509 3622 2328 
Q 3622 1225 3098 567 
Q 2575 -91 1691 -91 
Q 1453 -91 1209 -44 
Q 966 3 703 97 
z
M 1959 2075 
Q 2384 2075 2632 2365 
Q 2881 2656 2881 3163 
Q 2881 3666 2632 3958 
Q 2384 4250 1959 4250 
Q 1534 4250 1286 3958 
Q 1038 3666 1038 3163 
Q 1038 2656 1286 2365 
Q 1534 2075 1959 2075 
z
" transform="scale(0.015625)"/>
       </defs>
       <use xlink:href="#DejaVuSans-39"/>
       <use xlink:href="#DejaVuSans-39" transform="translate(63.623047 0)"/>
       <use xlink:href="#DejaVuSans-39" transform="translate(127.246094 0)"/>
      </g>
     </g>
    </g>
   </g>
   <g id="line2d_7">
    <path d="M 37.4225 166.6575 
L 158.63697 42.31436 
L 158.697608 166.627157 
L 158.758245 166.564955 
L 279.912078 42.284017 
L 279.972715 166.596814 
L 280.033353 166.534612 
L 285.975833 160.43875 
L 285.975833 160.43875 
" clip-path="url(#p6f338d9218)" style="fill: none; stroke: #174f73; stroke-width: 2; stroke-linecap: square"/>
   </g>
   <g id="line2d_8">
    <path d="M 37.4225 42.406875 
L 285.975833 42.406875 
" clip-path="url(#p6f338d9218)" style="fill: none; stroke-dasharray: 7.5,6; stroke-dashoffset: 0; stroke: #d47b28; stroke-width: 1.5"/>
   </g>
   <g id="patch_3">
    <path d="M 37.4225 166.6575 
L 285.975833 166.6575 
" style="fill: none; stroke: #c8d8e2; stroke-width: 0.8; stroke-linejoin: miter; stroke-linecap: square"/>
   </g>
   <g id="text_8">
    <!-- ARR = 999 → 1 s -->
    <g style="fill: #174f73" transform="translate(88.829167 19.3575) scale(0.16 -0.16)">
     <defs>
      <path id="DejaVuSans-Bold-41" d="M 3419 850 
L 1538 850 
L 1241 0 
L 31 0 
L 1759 4666 
L 3194 4666 
L 4922 0 
L 3713 0 
L 3419 850 
z
M 1838 1716 
L 3116 1716 
L 2478 3572 
L 1838 1716 
z
" transform="scale(0.015625)"/>
      <path id="DejaVuSans-Bold-52" d="M 2297 2597 
Q 2675 2597 2839 2737 
Q 3003 2878 3003 3200 
Q 3003 3519 2839 3656 
Q 2675 3794 2297 3794 
L 1791 3794 
L 1791 2597 
L 2297 2597 
z
M 1791 1766 
L 1791 0 
L 588 0 
L 588 4666 
L 2425 4666 
Q 3347 4666 3776 4356 
Q 4206 4047 4206 3378 
Q 4206 2916 3982 2619 
Q 3759 2322 3309 2181 
Q 3556 2125 3751 1926 
Q 3947 1728 4147 1325 
L 4800 0 
L 3519 0 
L 2950 1159 
Q 2778 1509 2601 1637 
Q 2425 1766 2131 1766 
L 1791 1766 
z
" transform="scale(0.015625)"/>
      <path id="DejaVuSans-Bold-20" transform="scale(0.015625)"/>
      <path id="DejaVuSans-Bold-3d" d="M 678 3084 
L 4684 3084 
L 4684 2350 
L 678 2350 
L 678 3084 
z
M 678 1663 
L 4684 1663 
L 4684 922 
L 678 922 
L 678 1663 
z
" transform="scale(0.015625)"/>
      <path id="DejaVuSans-Bold-39" d="M 641 103 
L 641 966 
Q 928 831 1190 764 
Q 1453 697 1709 697 
Q 2247 697 2547 995 
Q 2847 1294 2900 1881 
Q 2688 1725 2447 1647 
Q 2206 1569 1925 1569 
Q 1209 1569 770 1986 
Q 331 2403 331 3084 
Q 331 3838 820 4291 
Q 1309 4744 2131 4744 
Q 3044 4744 3544 4128 
Q 4044 3513 4044 2388 
Q 4044 1231 3459 570 
Q 2875 -91 1856 -91 
Q 1528 -91 1228 -42 
Q 928 6 641 103 
z
M 2125 2350 
Q 2441 2350 2600 2554 
Q 2759 2759 2759 3169 
Q 2759 3575 2600 3781 
Q 2441 3988 2125 3988 
Q 1809 3988 1650 3781 
Q 1491 3575 1491 3169 
Q 1491 2759 1650 2554 
Q 1809 2350 2125 2350 
z
" transform="scale(0.015625)"/>
      <path id="DejaVuSans-Bold-2192" d="M 5050 2225 
L 5050 1788 
L 3822 559 
L 3369 1013 
L 3988 1631 
L 366 1631 
L 366 2381 
L 3988 2381 
L 3369 3000 
L 3822 3453 
L 5050 2225 
z
" transform="scale(0.015625)"/>
      <path id="DejaVuSans-Bold-31" d="M 750 831 
L 1813 831 
L 1813 3847 
L 722 3622 
L 722 4441 
L 1806 4666 
L 2950 4666 
L 2950 831 
L 4013 831 
L 4013 0 
L 750 0 
L 750 831 
z
" transform="scale(0.015625)"/>
      <path id="DejaVuSans-Bold-73" d="M 3272 3391 
L 3272 2541 
Q 2913 2691 2578 2766 
Q 2244 2841 1947 2841 
Q 1628 2841 1473 2761 
Q 1319 2681 1319 2516 
Q 1319 2381 1436 2309 
Q 1553 2238 1856 2203 
L 2053 2175 
Q 2913 2066 3209 1816 
Q 3506 1566 3506 1031 
Q 3506 472 3093 190 
Q 2681 -91 1863 -91 
Q 1516 -91 1145 -36 
Q 775 19 384 128 
L 384 978 
Q 719 816 1070 734 
Q 1422 653 1784 653 
Q 2113 653 2278 743 
Q 2444 834 2444 1013 
Q 2444 1163 2330 1236 
Q 2216 1309 1875 1350 
L 1678 1375 
Q 931 1469 631 1722 
Q 331 1975 331 2491 
Q 331 3047 712 3315 
Q 1094 3584 1881 3584 
Q 2191 3584 2531 3537 
Q 2872 3491 3272 3391 
z
" transform="scale(0.015625)"/>
     </defs>
     <use xlink:href="#DejaVuSans-Bold-41"/>
     <use xlink:href="#DejaVuSans-Bold-52" transform="translate(77.392578 0)"/>
     <use xlink:href="#DejaVuSans-Bold-52" transform="translate(154.394531 0)"/>
     <use xlink:href="#DejaVuSans-Bold-20" transform="translate(231.396484 0)"/>
     <use xlink:href="#DejaVuSans-Bold-3d" transform="translate(266.210938 0)"/>
     <use xlink:href="#DejaVuSans-Bold-20" transform="translate(350 0)"/>
     <use xlink:href="#DejaVuSans-Bold-39" transform="translate(384.814453 0)"/>
     <use xlink:href="#DejaVuSans-Bold-39" transform="translate(454.394531 0)"/>
     <use xlink:href="#DejaVuSans-Bold-39" transform="translate(523.974609 0)"/>
     <use xlink:href="#DejaVuSans-Bold-20" transform="translate(593.554688 0)"/>
     <use xlink:href="#DejaVuSans-Bold-2192" transform="translate(628.369141 0)"/>
     <use xlink:href="#DejaVuSans-Bold-20" transform="translate(712.158203 0)"/>
     <use xlink:href="#DejaVuSans-Bold-31" transform="translate(746.972656 0)"/>
     <use xlink:href="#DejaVuSans-Bold-20" transform="translate(816.552734 0)"/>
     <use xlink:href="#DejaVuSans-Bold-73" transform="translate(851.367188 0)"/>
    </g>
   </g>
  </g>
  <g id="axes_2">
   <g id="patch_4">
    <path d="M 301.230833 166.6575 
L 549.784167 166.6575 
L 549.784167 27.3575 
L 301.230833 27.3575 
L 301.230833 166.6575 
z
" style="fill: none"/>
   </g>
   <g id="matplotlib.axis_3">
    <g id="xtick_4">
     <g id="line2d_9"/>
     <g id="text_9">
      <!-- 0 -->
      <g style="fill: #5a6b76" transform="translate(296.777083 180.795312) scale(0.14 -0.14)">
       <use xlink:href="#DejaVuSans-30"/>
      </g>
     </g>
    </g>
    <g id="xtick_5">
     <g id="line2d_10"/>
     <g id="text_10">
      <!-- 1 -->
      <g style="fill: #5a6b76" transform="translate(418.022612 180.795312) scale(0.14 -0.14)">
       <use xlink:href="#DejaVuSans-31"/>
      </g>
     </g>
    </g>
    <g id="xtick_6">
     <g id="line2d_11"/>
     <g id="text_11">
      <!-- 2 -->
      <g style="fill: #5a6b76" transform="translate(539.26814 180.795312) scale(0.14 -0.14)">
       <use xlink:href="#DejaVuSans-32"/>
      </g>
     </g>
    </g>
    <g id="text_12">
     <!-- time (s) -->
     <g style="fill: #5a6b76" transform="translate(400.298672 197.584844) scale(0.13 -0.13)">
      <use xlink:href="#DejaVuSans-74"/>
      <use xlink:href="#DejaVuSans-69" transform="translate(39.208984 0)"/>
      <use xlink:href="#DejaVuSans-6d" transform="translate(66.992188 0)"/>
      <use xlink:href="#DejaVuSans-65" transform="translate(164.404297 0)"/>
      <use xlink:href="#DejaVuSans-20" transform="translate(225.927734 0)"/>
      <use xlink:href="#DejaVuSans-28" transform="translate(257.714844 0)"/>
      <use xlink:href="#DejaVuSans-73" transform="translate(296.728516 0)"/>
      <use xlink:href="#DejaVuSans-29" transform="translate(348.828125 0)"/>
     </g>
    </g>
   </g>
   <g id="matplotlib.axis_4">
    <g id="ytick_4">
     <g id="line2d_12"/>
    </g>
    <g id="ytick_5">
     <g id="line2d_13"/>
    </g>
    <g id="ytick_6">
     <g id="line2d_14"/>
    </g>
   </g>
   <g id="line2d_15">
    <path d="M 301.230833 166.6575 
L 361.80775 104.517031 
L 361.868387 166.642329 
L 361.929025 166.580126 
L 422.445304 104.50186 
L 422.505941 166.627157 
L 422.566579 166.564955 
L 483.082857 104.486689 
L 483.143495 166.611986 
L 483.204133 166.549783 
L 543.720411 104.471517 
L 543.781049 166.596814 
L 543.841686 166.534612 
L 549.784167 160.43875 
L 549.784167 160.43875 
" clip-path="url(#p76f62e8e7d)" style="fill: none; stroke: #174f73; stroke-width: 2; stroke-linecap: square"/>
   </g>
   <g id="line2d_16">
    <path d="M 301.230833 104.594375 
L 549.784167 104.594375 
" clip-path="url(#p76f62e8e7d)" style="fill: none; stroke-dasharray: 7.5,6; stroke-dashoffset: 0; stroke: #d47b28; stroke-width: 1.5"/>
   </g>
   <g id="patch_5">
    <path d="M 301.230833 166.6575 
L 549.784167 166.6575 
" style="fill: none; stroke: #c8d8e2; stroke-width: 0.8; stroke-linejoin: miter; stroke-linecap: square"/>
   </g>
   <g id="text_13">
    <!-- ARR = 499 → 500 ms -->
    <g style="fill: #174f73" transform="translate(333.16875 19.3575) scale(0.16 -0.16)">
     <defs>
      <path id="DejaVuSans-Bold-34" d="M 2356 3675 
L 1038 1722 
L 2356 1722 
L 2356 3675 
z
M 2156 4666 
L 3494 4666 
L 3494 1722 
L 4159 1722 
L 4159 850 
L 3494 850 
L 3494 0 
L 2356 0 
L 2356 850 
L 288 850 
L 288 1881 
L 2156 4666 
z
" transform="scale(0.015625)"/>
      <path id="DejaVuSans-Bold-35" d="M 678 4666 
L 3669 4666 
L 3669 3781 
L 1638 3781 
L 1638 3059 
Q 1775 3097 1914 3117 
Q 2053 3138 2203 3138 
Q 3056 3138 3531 2711 
Q 4006 2284 4006 1522 
Q 4006 766 3489 337 
Q 2972 -91 2053 -91 
Q 1656 -91 1267 -14 
Q 878 63 494 219 
L 494 1166 
Q 875 947 1217 837 
Q 1559 728 1863 728 
Q 2300 728 2551 942 
Q 2803 1156 2803 1522 
Q 2803 1891 2551 2103 
Q 2300 2316 1863 2316 
Q 1603 2316 1309 2248 
Q 1016 2181 678 2041 
L 678 4666 
z
" transform="scale(0.015625)"/>
      <path id="DejaVuSans-Bold-30" d="M 2944 2338 
Q 2944 3213 2780 3570 
Q 2616 3928 2228 3928 
Q 1841 3928 1675 3570 
Q 1509 3213 1509 2338 
Q 1509 1453 1675 1090 
Q 1841 728 2228 728 
Q 2613 728 2778 1090 
Q 2944 1453 2944 2338 
z
M 4147 2328 
Q 4147 1169 3647 539 
Q 3147 -91 2228 -91 
Q 1306 -91 806 539 
Q 306 1169 306 2328 
Q 306 3491 806 4120 
Q 1306 4750 2228 4750 
Q 3147 4750 3647 4120 
Q 4147 3491 4147 2328 
z
" transform="scale(0.015625)"/>
      <path id="DejaVuSans-Bold-6d" d="M 3781 2919 
Q 3994 3244 4286 3414 
Q 4578 3584 4928 3584 
Q 5531 3584 5847 3212 
Q 6163 2841 6163 2131 
L 6163 0 
L 5038 0 
L 5038 1825 
Q 5041 1866 5042 1909 
Q 5044 1953 5044 2034 
Q 5044 2406 4934 2573 
Q 4825 2741 4581 2741 
Q 4263 2741 4089 2478 
Q 3916 2216 3909 1719 
L 3909 0 
L 2784 0 
L 2784 1825 
Q 2784 2406 2684 2573 
Q 2584 2741 2328 2741 
Q 2006 2741 1831 2477 
Q 1656 2213 1656 1722 
L 1656 0 
L 531 0 
L 531 3500 
L 1656 3500 
L 1656 2988 
Q 1863 3284 2130 3434 
Q 2397 3584 2719 3584 
Q 3081 3584 3359 3409 
Q 3638 3234 3781 2919 
z
" transform="scale(0.015625)"/>
     </defs>
     <use xlink:href="#DejaVuSans-Bold-41"/>
     <use xlink:href="#DejaVuSans-Bold-52" transform="translate(77.392578 0)"/>
     <use xlink:href="#DejaVuSans-Bold-52" transform="translate(154.394531 0)"/>
     <use xlink:href="#DejaVuSans-Bold-20" transform="translate(231.396484 0)"/>
     <use xlink:href="#DejaVuSans-Bold-3d" transform="translate(266.210938 0)"/>
     <use xlink:href="#DejaVuSans-Bold-20" transform="translate(350 0)"/>
     <use xlink:href="#DejaVuSans-Bold-34" transform="translate(384.814453 0)"/>
     <use xlink:href="#DejaVuSans-Bold-39" transform="translate(454.394531 0)"/>
     <use xlink:href="#DejaVuSans-Bold-39" transform="translate(523.974609 0)"/>
     <use xlink:href="#DejaVuSans-Bold-20" transform="translate(593.554688 0)"/>
     <use xlink:href="#DejaVuSans-Bold-2192" transform="translate(628.369141 0)"/>
     <use xlink:href="#DejaVuSans-Bold-20" transform="translate(712.158203 0)"/>
     <use xlink:href="#DejaVuSans-Bold-35" transform="translate(746.972656 0)"/>
     <use xlink:href="#DejaVuSans-Bold-30" transform="translate(816.552734 0)"/>
     <use xlink:href="#DejaVuSans-Bold-30" transform="translate(886.132812 0)"/>
     <use xlink:href="#DejaVuSans-Bold-20" transform="translate(955.712891 0)"/>
     <use xlink:href="#DejaVuSans-Bold-6d" transform="translate(990.527344 0)"/>
     <use xlink:href="#DejaVuSans-Bold-73" transform="translate(1094.726562 0)"/>
    </g>
   </g>
  </g>
  <g id="axes_3">
   <g id="patch_6">
    <path d="M 565.039167 166.6575 
L 813.5925 166.6575 
L 813.5925 27.3575 
L 565.039167 27.3575 
L 565.039167 166.6575 
z
" style="fill: none"/>
   </g>
   <g id="matplotlib.axis_5">
    <g id="xtick_7">
     <g id="line2d_17"/>
     <g id="text_14">
      <!-- 0 -->
      <g style="fill: #5a6b76" transform="translate(560.585417 180.795312) scale(0.14 -0.14)">
       <use xlink:href="#DejaVuSans-30"/>
      </g>
     </g>
    </g>
    <g id="xtick_8">
     <g id="line2d_18"/>
     <g id="text_15">
      <!-- 1 -->
      <g style="fill: #5a6b76" transform="translate(681.830945 180.795312) scale(0.14 -0.14)">
       <use xlink:href="#DejaVuSans-31"/>
      </g>
     </g>
    </g>
    <g id="xtick_9">
     <g id="line2d_19"/>
     <g id="text_16">
      <!-- 2 -->
      <g style="fill: #5a6b76" transform="translate(803.076474 180.795312) scale(0.14 -0.14)">
       <use xlink:href="#DejaVuSans-32"/>
      </g>
     </g>
    </g>
    <g id="text_17">
     <!-- time (s) -->
     <g style="fill: #5a6b76" transform="translate(664.107005 197.584844) scale(0.13 -0.13)">
      <use xlink:href="#DejaVuSans-74"/>
      <use xlink:href="#DejaVuSans-69" transform="translate(39.208984 0)"/>
      <use xlink:href="#DejaVuSans-6d" transform="translate(66.992188 0)"/>
      <use xlink:href="#DejaVuSans-65" transform="translate(164.404297 0)"/>
      <use xlink:href="#DejaVuSans-20" transform="translate(225.927734 0)"/>
      <use xlink:href="#DejaVuSans-28" transform="translate(257.714844 0)"/>
      <use xlink:href="#DejaVuSans-73" transform="translate(296.728516 0)"/>
      <use xlink:href="#DejaVuSans-29" transform="translate(348.828125 0)"/>
     </g>
    </g>
   </g>
   <g id="matplotlib.axis_6">
    <g id="ytick_7">
     <g id="line2d_20"/>
    </g>
    <g id="ytick_8">
     <g id="line2d_21"/>
    </g>
    <g id="ytick_9">
     <g id="line2d_22"/>
    </g>
   </g>
   <g id="line2d_23">
    <path d="M 565.039167 166.6575 
L 577.10604 154.279168 
L 577.166677 166.654466 
L 577.227315 166.592263 
L 589.233551 154.276134 
L 589.294188 166.651431 
L 589.354826 166.589229 
L 601.361061 154.2731 
L 601.421699 166.648397 
L 601.482337 166.586194 
L 613.488572 154.270066 
L 613.54921 166.645363 
L 613.609847 166.58316 
L 625.616083 154.267031 
L 625.676721 166.642329 
L 625.737358 166.580126 
L 637.743594 154.263997 
L 637.804231 166.639294 
L 637.864869 166.577092 
L 649.871105 154.260963 
L 649.931742 166.63626 
L 649.99238 166.574057 
L 661.998615 154.257928 
L 662.059253 166.633226 
L 662.11989 166.571023 
L 674.126126 154.254894 
L 674.186764 166.630192 
L 674.247401 166.567989 
L 686.253637 154.25186 
L 686.314274 166.627157 
L 686.374912 166.564955 
L 698.381148 154.248826 
L 698.441785 166.624123 
L 698.502423 166.56192 
L 710.508658 154.245791 
L 710.569296 166.621089 
L 710.629934 166.558886 
L 722.636169 154.242757 
L 722.696807 166.618054 
L 722.757444 166.555852 
L 734.76368 154.239723 
L 734.824318 166.61502 
L 734.884955 166.552817 
L 746.891191 154.236689 
L 746.951828 166.611986 
L 747.012466 166.549783 
L 759.018702 154.233654 
L 759.079339 166.608952 
L 759.139977 166.546749 
L 771.146212 154.23062 
L 771.20685 166.605917 
L 771.267487 166.543715 
L 783.273723 154.227586 
L 783.334361 166.602883 
L 783.394998 166.54068 
L 795.401234 154.224551 
L 795.461871 166.599849 
L 795.522509 166.537646 
L 807.528745 154.221517 
L 807.589382 166.596814 
L 807.65002 166.534612 
L 813.5925 160.43875 
L 813.5925 160.43875 
" clip-path="url(#p6155deeae5)" style="fill: none; stroke: #174f73; stroke-width: 2; stroke-linecap: square"/>
   </g>
   <g id="line2d_24">
    <path d="M 565.039167 154.344375 
L 813.5925 154.344375 
" clip-path="url(#p6155deeae5)" style="fill: none; stroke-dasharray: 7.5,6; stroke-dashoffset: 0; stroke: #d47b28; stroke-width: 1.5"/>
   </g>
   <g id="patch_7">
    <path d="M 565.039167 166.6575 
L 813.5925 166.6575 
" style="fill: none; stroke: #c8d8e2; stroke-width: 0.8; stroke-linejoin: miter; stroke-linecap: square"/>
   </g>
   <g id="text_18">
    <!-- ARR = 99 → 100 ms -->
    <g style="fill: #174f73" transform="translate(602.543333 19.3575) scale(0.16 -0.16)">
     <use xlink:href="#DejaVuSans-Bold-41"/>
     <use xlink:href="#DejaVuSans-Bold-52" transform="translate(77.392578 0)"/>
     <use xlink:href="#DejaVuSans-Bold-52" transform="translate(154.394531 0)"/>
     <use xlink:href="#DejaVuSans-Bold-20" transform="translate(231.396484 0)"/>
     <use xlink:href="#DejaVuSans-Bold-3d" transform="translate(266.210938 0)"/>
     <use xlink:href="#DejaVuSans-Bold-20" transform="translate(350 0)"/>
     <use xlink:href="#DejaVuSans-Bold-39" transform="translate(384.814453 0)"/>
     <use xlink:href="#DejaVuSans-Bold-39" transform="translate(454.394531 0)"/>
     <use xlink:href="#DejaVuSans-Bold-20" transform="translate(523.974609 0)"/>
     <use xlink:href="#DejaVuSans-Bold-2192" transform="translate(558.789062 0)"/>
     <use xlink:href="#DejaVuSans-Bold-20" transform="translate(642.578125 0)"/>
     <use xlink:href="#DejaVuSans-Bold-31" transform="translate(677.392578 0)"/>
     <use xlink:href="#DejaVuSans-Bold-30" transform="translate(746.972656 0)"/>
     <use xlink:href="#DejaVuSans-Bold-30" transform="translate(816.552734 0)"/>
     <use xlink:href="#DejaVuSans-Bold-20" transform="translate(886.132812 0)"/>
     <use xlink:href="#DejaVuSans-Bold-6d" transform="translate(920.947266 0)"/>
     <use xlink:href="#DejaVuSans-Bold-73" transform="translate(1025.146484 0)"/>
    </g>
   </g>
  </g>
  <g id="text_19">
   <!-- same 1 kHz counting frequency — only the top value changes -->
   <g style="fill: #5a6b76" transform="translate(177.109688 220.2375) scale(0.15 -0.15)">
    <defs>
     <path id="DejaVuSans-61" d="M 2194 1759 
Q 1497 1759 1228 1600 
Q 959 1441 959 1056 
Q 959 750 1161 570 
Q 1363 391 1709 391 
Q 2188 391 2477 730 
Q 2766 1069 2766 1631 
L 2766 1759 
L 2194 1759 
z
M 3341 1997 
L 3341 0 
L 2766 0 
L 2766 531 
Q 2569 213 2275 61 
Q 1981 -91 1556 -91 
Q 1019 -91 701 211 
Q 384 513 384 1019 
Q 384 1609 779 1909 
Q 1175 2209 1959 2209 
L 2766 2209 
L 2766 2266 
Q 2766 2663 2505 2880 
Q 2244 3097 1772 3097 
Q 1472 3097 1187 3025 
Q 903 2953 641 2809 
L 641 3341 
Q 956 3463 1253 3523 
Q 1550 3584 1831 3584 
Q 2591 3584 2966 3190 
Q 3341 2797 3341 1997 
z
" transform="scale(0.015625)"/>
     <path id="DejaVuSans-6b" d="M 581 4863 
L 1159 4863 
L 1159 1991 
L 2875 3500 
L 3609 3500 
L 1753 1863 
L 3688 0 
L 2938 0 
L 1159 1709 
L 1159 0 
L 581 0 
L 581 4863 
z
" transform="scale(0.015625)"/>
     <path id="DejaVuSans-48" d="M 628 4666 
L 1259 4666 
L 1259 2753 
L 3553 2753 
L 3553 4666 
L 4184 4666 
L 4184 0 
L 3553 0 
L 3553 2222 
L 1259 2222 
L 1259 0 
L 628 0 
L 628 4666 
z
" transform="scale(0.015625)"/>
     <path id="DejaVuSans-7a" d="M 353 3500 
L 3084 3500 
L 3084 2975 
L 922 459 
L 3084 459 
L 3084 0 
L 275 0 
L 275 525 
L 2438 3041 
L 353 3041 
L 353 3500 
z
" transform="scale(0.015625)"/>
     <path id="DejaVuSans-63" d="M 3122 3366 
L 3122 2828 
Q 2878 2963 2633 3030 
Q 2388 3097 2138 3097 
Q 1578 3097 1268 2742 
Q 959 2388 959 1747 
Q 959 1106 1268 751 
Q 1578 397 2138 397 
Q 2388 397 2633 464 
Q 2878 531 3122 666 
L 3122 134 
Q 2881 22 2623 -34 
Q 2366 -91 2075 -91 
Q 1284 -91 818 406 
Q 353 903 353 1747 
Q 353 2603 823 3093 
Q 1294 3584 2113 3584 
Q 2378 3584 2631 3529 
Q 2884 3475 3122 3366 
z
" transform="scale(0.015625)"/>
     <path id="DejaVuSans-6f" d="M 1959 3097 
Q 1497 3097 1228 2736 
Q 959 2375 959 1747 
Q 959 1119 1226 758 
Q 1494 397 1959 397 
Q 2419 397 2687 759 
Q 2956 1122 2956 1747 
Q 2956 2369 2687 2733 
Q 2419 3097 1959 3097 
z
M 1959 3584 
Q 2709 3584 3137 3096 
Q 3566 2609 3566 1747 
Q 3566 888 3137 398 
Q 2709 -91 1959 -91 
Q 1206 -91 779 398 
Q 353 888 353 1747 
Q 353 2609 779 3096 
Q 1206 3584 1959 3584 
z
" transform="scale(0.015625)"/>
     <path id="DejaVuSans-75" d="M 544 1381 
L 544 3500 
L 1119 3500 
L 1119 1403 
Q 1119 906 1312 657 
Q 1506 409 1894 409 
Q 2359 409 2629 706 
Q 2900 1003 2900 1516 
L 2900 3500 
L 3475 3500 
L 3475 0 
L 2900 0 
L 2900 538 
Q 2691 219 2414 64 
Q 2138 -91 1772 -91 
Q 1169 -91 856 284 
Q 544 659 544 1381 
z
M 1991 3584 
L 1991 3584 
z
" transform="scale(0.015625)"/>
     <path id="DejaVuSans-6e" d="M 3513 2113 
L 3513 0 
L 2938 0 
L 2938 2094 
Q 2938 2591 2744 2837 
Q 2550 3084 2163 3084 
Q 1697 3084 1428 2787 
Q 1159 2491 1159 1978 
L 1159 0 
L 581 0 
L 581 3500 
L 1159 3500 
L 1159 2956 
Q 1366 3272 1645 3428 
Q 1925 3584 2291 3584 
Q 2894 3584 3203 3211 
Q 3513 2838 3513 2113 
z
" transform="scale(0.015625)"/>
     <path id="DejaVuSans-67" d="M 2906 1791 
Q 2906 2416 2648 2759 
Q 2391 3103 1925 3103 
Q 1463 3103 1205 2759 
Q 947 2416 947 1791 
Q 947 1169 1205 825 
Q 1463 481 1925 481 
Q 2391 481 2648 825 
Q 2906 1169 2906 1791 
z
M 3481 434 
Q 3481 -459 3084 -895 
Q 2688 -1331 1869 -1331 
Q 1566 -1331 1297 -1286 
Q 1028 -1241 775 -1147 
L 775 -588 
Q 1028 -725 1275 -790 
Q 1522 -856 1778 -856 
Q 2344 -856 2625 -561 
Q 2906 -266 2906 331 
L 2906 616 
Q 2728 306 2450 153 
Q 2172 0 1784 0 
Q 1141 0 747 490 
Q 353 981 353 1791 
Q 353 2603 747 3093 
Q 1141 3584 1784 3584 
Q 2172 3584 2450 3431 
Q 2728 3278 2906 2969 
L 2906 3500 
L 3481 3500 
L 3481 434 
z
" transform="scale(0.015625)"/>
     <path id="DejaVuSans-66" d="M 2375 4863 
L 2375 4384 
L 1825 4384 
Q 1516 4384 1395 4259 
Q 1275 4134 1275 3809 
L 1275 3500 
L 2222 3500 
L 2222 3053 
L 1275 3053 
L 1275 0 
L 697 0 
L 697 3053 
L 147 3053 
L 147 3500 
L 697 3500 
L 697 3744 
Q 697 4328 969 4595 
Q 1241 4863 1831 4863 
L 2375 4863 
z
" transform="scale(0.015625)"/>
     <path id="DejaVuSans-72" d="M 2631 2963 
Q 2534 3019 2420 3045 
Q 2306 3072 2169 3072 
Q 1681 3072 1420 2755 
Q 1159 2438 1159 1844 
L 1159 0 
L 581 0 
L 581 3500 
L 1159 3500 
L 1159 2956 
Q 1341 3275 1631 3429 
Q 1922 3584 2338 3584 
Q 2397 3584 2469 3576 
Q 2541 3569 2628 3553 
L 2631 2963 
z
" transform="scale(0.015625)"/>
     <path id="DejaVuSans-71" d="M 947 1747 
Q 947 1113 1208 752 
Q 1469 391 1925 391 
Q 2381 391 2643 752 
Q 2906 1113 2906 1747 
Q 2906 2381 2643 2742 
Q 2381 3103 1925 3103 
Q 1469 3103 1208 2742 
Q 947 2381 947 1747 
z
M 2906 525 
Q 2725 213 2448 61 
Q 2172 -91 1784 -91 
Q 1150 -91 751 415 
Q 353 922 353 1747 
Q 353 2572 751 3078 
Q 1150 3584 1784 3584 
Q 2172 3584 2448 3432 
Q 2725 3281 2906 2969 
L 2906 3500 
L 3481 3500 
L 3481 -1331 
L 2906 -1331 
L 2906 525 
z
" transform="scale(0.015625)"/>
     <path id="DejaVuSans-79" d="M 2059 -325 
Q 1816 -950 1584 -1140 
Q 1353 -1331 966 -1331 
L 506 -1331 
L 506 -850 
L 844 -850 
Q 1081 -850 1212 -737 
Q 1344 -625 1503 -206 
L 1606 56 
L 191 3500 
L 800 3500 
L 1894 763 
L 2988 3500 
L 3597 3500 
L 2059 -325 
z
" transform="scale(0.015625)"/>
     <path id="DejaVuSans-2014" d="M 313 1978 
L 6088 1978 
L 6088 1528 
L 313 1528 
L 313 1978 
z
" transform="scale(0.015625)"/>
     <path id="DejaVuSans-6c" d="M 603 4863 
L 1178 4863 
L 1178 0 
L 603 0 
L 603 4863 
z
" transform="scale(0.015625)"/>
     <path id="DejaVuSans-68" d="M 3513 2113 
L 3513 0 
L 2938 0 
L 2938 2094 
Q 2938 2591 2744 2837 
Q 2550 3084 2163 3084 
Q 1697 3084 1428 2787 
Q 1159 2491 1159 1978 
L 1159 0 
L 581 0 
L 581 4863 
L 1159 4863 
L 1159 2956 
Q 1366 3272 1645 3428 
Q 1925 3584 2291 3584 
Q 2894 3584 3203 3211 
Q 3513 2838 3513 2113 
z
" transform="scale(0.015625)"/>
     <path id="DejaVuSans-70" d="M 1159 525 
L 1159 -1331 
L 581 -1331 
L 581 3500 
L 1159 3500 
L 1159 2969 
Q 1341 3281 1617 3432 
Q 1894 3584 2278 3584 
Q 2916 3584 3314 3078 
Q 3713 2572 3713 1747 
Q 3713 922 3314 415 
Q 2916 -91 2278 -91 
Q 1894 -91 1617 61 
Q 1341 213 1159 525 
z
M 3116 1747 
Q 3116 2381 2855 2742 
Q 2594 3103 2138 3103 
Q 1681 3103 1420 2742 
Q 1159 2381 1159 1747 
Q 1159 1113 1420 752 
Q 1681 391 2138 391 
Q 2594 391 2855 752 
Q 3116 1113 3116 1747 
z
" transform="scale(0.015625)"/>
     <path id="DejaVuSans-76" d="M 191 3500 
L 800 3500 
L 1894 563 
L 2988 3500 
L 3597 3500 
L 2284 0 
L 1503 0 
L 191 3500 
z
" transform="scale(0.015625)"/>
    </defs>
    <use xlink:href="#DejaVuSans-73"/>
    <use xlink:href="#DejaVuSans-61" transform="translate(52.099609 0)"/>
    <use xlink:href="#DejaVuSans-6d" transform="translate(113.378906 0)"/>
    <use xlink:href="#DejaVuSans-65" transform="translate(210.791016 0)"/>
    <use xlink:href="#DejaVuSans-20" transform="translate(272.314453 0)"/>
    <use xlink:href="#DejaVuSans-31" transform="translate(304.101562 0)"/>
    <use xlink:href="#DejaVuSans-20" transform="translate(367.724609 0)"/>
    <use xlink:href="#DejaVuSans-6b" transform="translate(399.511719 0)"/>
    <use xlink:href="#DejaVuSans-48" transform="translate(457.421875 0)"/>
    <use xlink:href="#DejaVuSans-7a" transform="translate(532.617188 0)"/>
    <use xlink:href="#DejaVuSans-20" transform="translate(585.107422 0)"/>
    <use xlink:href="#DejaVuSans-63" transform="translate(616.894531 0)"/>
    <use xlink:href="#DejaVuSans-6f" transform="translate(671.875 0)"/>
    <use xlink:href="#DejaVuSans-75" transform="translate(733.056641 0)"/>
    <use xlink:href="#DejaVuSans-6e" transform="translate(796.435547 0)"/>
    <use xlink:href="#DejaVuSans-74" transform="translate(859.814453 0)"/>
    <use xlink:href="#DejaVuSans-69" transform="translate(899.023438 0)"/>
    <use xlink:href="#DejaVuSans-6e" transform="translate(926.806641 0)"/>
    <use xlink:href="#DejaVuSans-67" transform="translate(990.185547 0)"/>
    <use xlink:href="#DejaVuSans-20" transform="translate(1053.662109 0)"/>
    <use xlink:href="#DejaVuSans-66" transform="translate(1085.449219 0)"/>
    <use xlink:href="#DejaVuSans-72" transform="translate(1120.654297 0)"/>
    <use xlink:href="#DejaVuSans-65" transform="translate(1159.517578 0)"/>
    <use xlink:href="#DejaVuSans-71" transform="translate(1221.041016 0)"/>
    <use xlink:href="#DejaVuSans-75" transform="translate(1284.517578 0)"/>
    <use xlink:href="#DejaVuSans-65" transform="translate(1347.896484 0)"/>
    <use xlink:href="#DejaVuSans-6e" transform="translate(1409.419922 0)"/>
    <use xlink:href="#DejaVuSans-63" transform="translate(1472.798828 0)"/>
    <use xlink:href="#DejaVuSans-79" transform="translate(1527.779297 0)"/>
    <use xlink:href="#DejaVuSans-20" transform="translate(1586.958984 0)"/>
    <use xlink:href="#DejaVuSans-2014" transform="translate(1618.746094 0)"/>
    <use xlink:href="#DejaVuSans-20" transform="translate(1718.746094 0)"/>
    <use xlink:href="#DejaVuSans-6f" transform="translate(1750.533203 0)"/>
    <use xlink:href="#DejaVuSans-6e" transform="translate(1811.714844 0)"/>
    <use xlink:href="#DejaVuSans-6c" transform="translate(1875.09375 0)"/>
    <use xlink:href="#DejaVuSans-79" transform="translate(1902.876953 0)"/>
    <use xlink:href="#DejaVuSans-20" transform="translate(1962.056641 0)"/>
    <use xlink:href="#DejaVuSans-74" transform="translate(1993.84375 0)"/>
    <use xlink:href="#DejaVuSans-68" transform="translate(2033.052734 0)"/>
    <use xlink:href="#DejaVuSans-65" transform="translate(2096.431641 0)"/>
    <use xlink:href="#DejaVuSans-20" transform="translate(2157.955078 0)"/>
    <use xlink:href="#DejaVuSans-74" transform="translate(2189.742188 0)"/>
    <use xlink:href="#DejaVuSans-6f" transform="translate(2228.951172 0)"/>
    <use xlink:href="#DejaVuSans-70" transform="translate(2290.132812 0)"/>
    <use xlink:href="#DejaVuSans-20" transform="translate(2353.609375 0)"/>
    <use xlink:href="#DejaVuSans-76" transform="translate(2385.396484 0)"/>
    <use xlink:href="#DejaVuSans-61" transform="translate(2444.576172 0)"/>
    <use xlink:href="#DejaVuSans-6c" transform="translate(2505.855469 0)"/>
    <use xlink:href="#DejaVuSans-75" transform="translate(2533.638672 0)"/>
    <use xlink:href="#DejaVuSans-65" transform="translate(2597.017578 0)"/>
    <use xlink:href="#DejaVuSans-20" transform="translate(2658.541016 0)"/>
    <use xlink:href="#DejaVuSans-63" transform="translate(2690.328125 0)"/>
    <use xlink:href="#DejaVuSans-68" transform="translate(2745.308594 0)"/>
    <use xlink:href="#DejaVuSans-61" transform="translate(2808.6875 0)"/>
    <use xlink:href="#DejaVuSans-6e" transform="translate(2869.966797 0)"/>
    <use xlink:href="#DejaVuSans-67" transform="translate(2933.345703 0)"/>
    <use xlink:href="#DejaVuSans-65" transform="translate(2996.822266 0)"/>
    <use xlink:href="#DejaVuSans-73" transform="translate(3058.345703 0)"/>
   </g>
  </g>
 </g>
 <defs>
  <clipPath id="p6f338d9218">
   <rect x="37.4225" y="27.3575" width="248.553333" height="139.3"/>
  </clipPath>
  <clipPath id="p76f62e8e7d">
   <rect x="301.230833" y="27.3575" width="248.553333" height="139.3"/>
  </clipPath>
  <clipPath id="p6155deeae5">
   <rect x="565.039167" y="27.3575" width="248.553333" height="139.3"/>
  </clipPath>
 </defs>
</svg>
