<?xml version="1.0" encoding="utf-8" standalone="no"?>
<!DOCTYPE svg PUBLIC "-//W3C//DTD SVG 1.1//EN"
  "http://www.w3.org/Graphics/SVG/1.1/DTD/svg11.dtd">
<svg xmlns:xlink="http://www.w3.org/1999/xlink" width="803.940734pt" height="221.87737pt" viewBox="0 0 803.940734 221.87737" xmlns="http://www.w3.org/2000/svg" version="1.1">
 <metadata>
  <rdf:RDF xmlns:dc="http://purl.org/dc/elements/1.1/" xmlns:cc="http://creativecommons.org/ns#" xmlns:rdf="http://www.w3.org/1999/02/22-rdf-syntax-ns#">
   <cc:Work>
    <dc:type rdf:resource="http://purl.org/dc/dcmitype/StillImage"/>
    <dc:date>2026-07-19T11:40:55.232279</dc:date>
    <dc:format>image/svg+xml</dc:format>
    <dc:creator>
     <cc:Agent>
      <dc:title>Matplotlib v3.10.8, https://matplotlib.org/</dc:title>
     </cc:Agent>
    </dc:creator>
   </cc:Work>
  </rdf:RDF>
 </metadata>
 <defs>
  <style type="text/css">*{stroke-linejoin: round; stroke-linecap: butt}</style>
 </defs>
 <g id="figure_1">
  <g id="patch_1">
   <path d="M 0 221.87737 
L 803.940734 221.87737 
L 803.940734 0 
L 0 0 
L 0 221.87737 
z
" style="fill: none"/>
  </g>
  <g id="axes_1">
   <g id="line2d_1">
    <path d="M 186.841794 125.557098 
L 186.841794 86.809154 
" clip-path="url(#pc2a100a7f8)" style="fill: none; stroke: #d47b28; stroke-opacity: 0.4; stroke-width: 1.1; stroke-linecap: square"/>
   </g>
   <g id="line2d_2">
    <path d="M 337.900355 125.557098 
L 337.900355 86.809154 
" clip-path="url(#pc2a100a7f8)" style="fill: none; stroke: #d47b28; stroke-opacity: 0.4; stroke-width: 1.1; stroke-linecap: square"/>
   </g>
   <g id="line2d_3">
    <path d="M 488.958916 125.557098 
L 488.958916 86.809154 
" clip-path="url(#pc2a100a7f8)" style="fill: none; stroke: #d47b28; stroke-opacity: 0.4; stroke-width: 1.1; stroke-linecap: square"/>
   </g>
   <g id="line2d_4">
    <path d="M 640.017477 125.557098 
L 640.017477 86.809154 
" clip-path="url(#pc2a100a7f8)" style="fill: none; stroke: #d47b28; stroke-opacity: 0.4; stroke-width: 1.1; stroke-linecap: square"/>
   </g>
   <g id="line2d_5">
    <path d="M 791.076038 125.557098 
L 791.076038 86.809154 
" clip-path="url(#pc2a100a7f8)" style="fill: none; stroke: #d47b28; stroke-opacity: 0.4; stroke-width: 1.1; stroke-linecap: square"/>
   </g>
   <g id="line2d_6">
    <path d="M 186.841794 40.31162 
L 205.629702 40.31162 
L 205.818525 86.809154 
L 224.512022 86.809154 
L 224.700845 40.31162 
L 243.394342 40.31162 
L 243.583166 86.809154 
L 262.276663 86.809154 
L 262.465486 40.31162 
L 281.158983 40.31162 
L 281.347806 86.809154 
L 300.041303 86.809154 
L 300.230126 40.31162 
L 318.923623 40.31162 
L 319.112446 86.809154 
L 337.805943 86.809154 
L 337.994766 40.31162 
L 356.688263 40.31162 
L 356.877086 86.809154 
L 375.570583 86.809154 
L 375.759407 40.31162 
L 394.452904 40.31162 
L 394.641727 86.809154 
L 413.335224 86.809154 
L 413.524047 40.31162 
L 432.217544 40.31162 
L 432.406367 86.809154 
L 451.099864 86.809154 
L 451.288687 40.31162 
L 469.982184 40.31162 
L 470.171007 86.809154 
L 488.864504 86.809154 
L 489.053327 40.31162 
L 507.746824 40.31162 
L 507.935648 86.809154 
L 526.629145 86.809154 
L 526.817968 40.31162 
L 545.511465 40.31162 
L 545.700288 86.809154 
L 564.393785 86.809154 
L 564.582608 40.31162 
L 583.276105 40.31162 
L 583.464928 86.809154 
L 602.158425 86.809154 
L 602.347248 40.31162 
L 621.040745 40.31162 
L 621.229568 86.809154 
L 639.923065 86.809154 
L 640.111889 40.31162 
L 658.805386 40.31162 
L 658.994209 86.809154 
L 677.687706 86.809154 
L 677.876529 40.31162 
L 696.570026 40.31162 
L 696.758849 86.809154 
L 715.452346 86.809154 
L 715.641169 40.31162 
L 734.334666 40.31162 
L 734.523489 86.809154 
L 753.216986 86.809154 
L 753.405809 40.31162 
L 772.099306 40.31162 
L 772.28813 86.809154 
L 790.981627 86.809154 
L 791.076038 40.31162 
L 791.076038 40.31162 
" clip-path="url(#pc2a100a7f8)" style="fill: none; stroke: #2b789f; stroke-width: 1.7; stroke-linecap: square"/>
   </g>
   <g id="line2d_7">
    <path d="M 186.841794 125.557098 
L 262.276663 125.557098 
L 262.465486 172.054631 
L 337.805943 172.054631 
L 337.994766 125.557098 
L 413.335224 125.557098 
L 413.524047 172.054631 
L 488.864504 172.054631 
L 489.053327 125.557098 
L 564.393785 125.557098 
L 564.582608 172.054631 
L 639.923065 172.054631 
L 640.111889 125.557098 
L 715.452346 125.557098 
L 715.641169 172.054631 
L 790.981627 172.054631 
L 791.076038 125.557098 
L 791.076038 125.557098 
" clip-path="url(#pc2a100a7f8)" style="fill: none; stroke: #d47b28; stroke-width: 2.8; stroke-linejoin: miter; stroke-linecap: square"/>
   </g>
   <g id="patch_2">
    <path d="M 428.358958 109.994057 
Q 384.113802 117.606259 341.6316 124.915152 
" style="fill: none; stroke: #d47b28; stroke-width: 1.6; stroke-linecap: round"/>
    <path d="M 347.625269 126.725103 
L 341.6316 124.915152 
L 346.675762 121.206187 
z
" style="fill: #d47b28; stroke: #d47b28; stroke-width: 1.6; stroke-linecap: round"/>
   </g>
   <g id="text_1">
    <!-- CNT += 1 on each rising edge -->
    <g style="fill: #d47b28" transform="translate(364.335603 104.633208) scale(0.14 -0.14)">
     <defs>
      <path id="DejaVuSans-Bold-43" d="M 4288 256 
Q 3956 84 3597 -3 
Q 3238 -91 2847 -91 
Q 1681 -91 1000 561 
Q 319 1213 319 2328 
Q 319 3447 1000 4098 
Q 1681 4750 2847 4750 
Q 3238 4750 3597 4662 
Q 3956 4575 4288 4403 
L 4288 3438 
Q 3953 3666 3628 3772 
Q 3303 3878 2944 3878 
Q 2300 3878 1931 3465 
Q 1563 3053 1563 2328 
Q 1563 1606 1931 1193 
Q 2300 781 2944 781 
Q 3303 781 3628 887 
Q 3953 994 4288 1222 
L 4288 256 
z
" transform="scale(0.015625)"/>
      <path id="DejaVuSans-Bold-4e" d="M 588 4666 
L 1931 4666 
L 3628 1466 
L 3628 4666 
L 4769 4666 
L 4769 0 
L 3425 0 
L 1728 3200 
L 1728 0 
L 588 0 
L 588 4666 
z
" transform="scale(0.015625)"/>
      <path id="DejaVuSans-Bold-54" d="M 31 4666 
L 4331 4666 
L 4331 3756 
L 2784 3756 
L 2784 0 
L 1581 0 
L 1581 3756 
L 31 3756 
L 31 4666 
z
" transform="scale(0.015625)"/>
      <path id="DejaVuSans-Bold-20" transform="scale(0.015625)"/>
      <path id="DejaVuSans-Bold-2b" d="M 3053 4013 
L 3053 2375 
L 4684 2375 
L 4684 1638 
L 3053 1638 
L 3053 0 
L 2309 0 
L 2309 1638 
L 678 1638 
L 678 2375 
L 2309 2375 
L 2309 4013 
L 3053 4013 
z
" transform="scale(0.015625)"/>
      <path id="DejaVuSans-Bold-3d" d="M 678 3084 
L 4684 3084 
L 4684 2350 
L 678 2350 
L 678 3084 
z
M 678 1663 
L 4684 1663 
L 4684 922 
L 678 922 
L 678 1663 
z
" transform="scale(0.015625)"/>
      <path id="DejaVuSans-Bold-31" d="M 750 831 
L 1813 831 
L 1813 3847 
L 722 3622 
L 722 4441 
L 1806 4666 
L 2950 4666 
L 2950 831 
L 4013 831 
L 4013 0 
L 750 0 
L 750 831 
z
" transform="scale(0.015625)"/>
      <path id="DejaVuSans-Bold-6f" d="M 2203 2784 
Q 1831 2784 1636 2517 
Q 1441 2250 1441 1747 
Q 1441 1244 1636 976 
Q 1831 709 2203 709 
Q 2569 709 2762 976 
Q 2956 1244 2956 1747 
Q 2956 2250 2762 2517 
Q 2569 2784 2203 2784 
z
M 2203 3584 
Q 3106 3584 3614 3096 
Q 4122 2609 4122 1747 
Q 4122 884 3614 396 
Q 3106 -91 2203 -91 
Q 1297 -91 786 396 
Q 275 884 275 1747 
Q 275 2609 786 3096 
Q 1297 3584 2203 3584 
z
" transform="scale(0.015625)"/>
      <path id="DejaVuSans-Bold-6e" d="M 4056 2131 
L 4056 0 
L 2931 0 
L 2931 347 
L 2931 1631 
Q 2931 2084 2911 2256 
Q 2891 2428 2841 2509 
Q 2775 2619 2662 2680 
Q 2550 2741 2406 2741 
Q 2056 2741 1856 2470 
Q 1656 2200 1656 1722 
L 1656 0 
L 538 0 
L 538 3500 
L 1656 3500 
L 1656 2988 
Q 1909 3294 2193 3439 
Q 2478 3584 2822 3584 
Q 3428 3584 3742 3212 
Q 4056 2841 4056 2131 
z
" transform="scale(0.015625)"/>
      <path id="DejaVuSans-Bold-65" d="M 4031 1759 
L 4031 1441 
L 1416 1441 
Q 1456 1047 1700 850 
Q 1944 653 2381 653 
Q 2734 653 3104 758 
Q 3475 863 3866 1075 
L 3866 213 
Q 3469 63 3072 -14 
Q 2675 -91 2278 -91 
Q 1328 -91 801 392 
Q 275 875 275 1747 
Q 275 2603 792 3093 
Q 1309 3584 2216 3584 
Q 3041 3584 3536 3087 
Q 4031 2591 4031 1759 
z
M 2881 2131 
Q 2881 2450 2695 2645 
Q 2509 2841 2209 2841 
Q 1884 2841 1681 2658 
Q 1478 2475 1428 2131 
L 2881 2131 
z
" transform="scale(0.015625)"/>
      <path id="DejaVuSans-Bold-61" d="M 2106 1575 
Q 1756 1575 1579 1456 
Q 1403 1338 1403 1106 
Q 1403 894 1545 773 
Q 1688 653 1941 653 
Q 2256 653 2472 879 
Q 2688 1106 2688 1447 
L 2688 1575 
L 2106 1575 
z
M 3816 1997 
L 3816 0 
L 2688 0 
L 2688 519 
Q 2463 200 2181 54 
Q 1900 -91 1497 -91 
Q 953 -91 614 226 
Q 275 544 275 1050 
Q 275 1666 698 1953 
Q 1122 2241 2028 2241 
L 2688 2241 
L 2688 2328 
Q 2688 2594 2478 2717 
Q 2269 2841 1825 2841 
Q 1466 2841 1156 2769 
Q 847 2697 581 2553 
L 581 3406 
Q 941 3494 1303 3539 
Q 1666 3584 2028 3584 
Q 2975 3584 3395 3211 
Q 3816 2838 3816 1997 
z
" transform="scale(0.015625)"/>
      <path id="DejaVuSans-Bold-63" d="M 3366 3391 
L 3366 2478 
Q 3138 2634 2908 2709 
Q 2678 2784 2431 2784 
Q 1963 2784 1702 2511 
Q 1441 2238 1441 1747 
Q 1441 1256 1702 982 
Q 1963 709 2431 709 
Q 2694 709 2930 787 
Q 3166 866 3366 1019 
L 3366 103 
Q 3103 6 2833 -42 
Q 2563 -91 2291 -91 
Q 1344 -91 809 395 
Q 275 881 275 1747 
Q 275 2613 809 3098 
Q 1344 3584 2291 3584 
Q 2566 3584 2833 3536 
Q 3100 3488 3366 3391 
z
" transform="scale(0.015625)"/>
      <path id="DejaVuSans-Bold-68" d="M 4056 2131 
L 4056 0 
L 2931 0 
L 2931 347 
L 2931 1625 
Q 2931 2084 2911 2256 
Q 2891 2428 2841 2509 
Q 2775 2619 2662 2680 
Q 2550 2741 2406 2741 
Q 2056 2741 1856 2470 
Q 1656 2200 1656 1722 
L 1656 0 
L 538 0 
L 538 4863 
L 1656 4863 
L 1656 2988 
Q 1909 3294 2193 3439 
Q 2478 3584 2822 3584 
Q 3428 3584 3742 3212 
Q 4056 2841 4056 2131 
z
" transform="scale(0.015625)"/>
      <path id="DejaVuSans-Bold-72" d="M 3138 2547 
Q 2991 2616 2845 2648 
Q 2700 2681 2553 2681 
Q 2122 2681 1889 2404 
Q 1656 2128 1656 1613 
L 1656 0 
L 538 0 
L 538 3500 
L 1656 3500 
L 1656 2925 
Q 1872 3269 2151 3426 
Q 2431 3584 2822 3584 
Q 2878 3584 2943 3579 
Q 3009 3575 3134 3559 
L 3138 2547 
z
" transform="scale(0.015625)"/>
      <path id="DejaVuSans-Bold-69" d="M 538 3500 
L 1656 3500 
L 1656 0 
L 538 0 
L 538 3500 
z
M 538 4863 
L 1656 4863 
L 1656 3950 
L 538 3950 
L 538 4863 
z
" transform="scale(0.015625)"/>
      <path id="DejaVuSans-Bold-73" d="M 3272 3391 
L 3272 2541 
Q 2913 2691 2578 2766 
Q 2244 2841 1947 2841 
Q 1628 2841 1473 2761 
Q 1319 2681 1319 2516 
Q 1319 2381 1436 2309 
Q 1553 2238 1856 2203 
L 2053 2175 
Q 2913 2066 3209 1816 
Q 3506 1566 3506 1031 
Q 3506 472 3093 190 
Q 2681 -91 1863 -91 
Q 1516 -91 1145 -36 
Q 775 19 384 128 
L 384 978 
Q 719 816 1070 734 
Q 1422 653 1784 653 
Q 2113 653 2278 743 
Q 2444 834 2444 1013 
Q 2444 1163 2330 1236 
Q 2216 1309 1875 1350 
L 1678 1375 
Q 931 1469 631 1722 
Q 331 1975 331 2491 
Q 331 3047 712 3315 
Q 1094 3584 1881 3584 
Q 2191 3584 2531 3537 
Q 2872 3491 3272 3391 
z
" transform="scale(0.015625)"/>
      <path id="DejaVuSans-Bold-67" d="M 2919 594 
Q 2688 288 2409 144 
Q 2131 0 1766 0 
Q 1125 0 706 504 
Q 288 1009 288 1791 
Q 288 2575 706 3076 
Q 1125 3578 1766 3578 
Q 2131 3578 2409 3434 
Q 2688 3291 2919 2981 
L 2919 3500 
L 4044 3500 
L 4044 353 
Q 4044 -491 3511 -936 
Q 2978 -1381 1966 -1381 
Q 1638 -1381 1331 -1331 
Q 1025 -1281 716 -1178 
L 716 -306 
Q 1009 -475 1290 -558 
Q 1572 -641 1856 -641 
Q 2406 -641 2662 -400 
Q 2919 -159 2919 353 
L 2919 594 
z
M 2181 2772 
Q 1834 2772 1640 2515 
Q 1447 2259 1447 1791 
Q 1447 1309 1634 1061 
Q 1822 813 2181 813 
Q 2531 813 2725 1069 
Q 2919 1325 2919 1791 
Q 2919 2259 2725 2515 
Q 2531 2772 2181 2772 
z
" transform="scale(0.015625)"/>
      <path id="DejaVuSans-Bold-64" d="M 2919 2988 
L 2919 4863 
L 4044 4863 
L 4044 0 
L 2919 0 
L 2919 506 
Q 2688 197 2409 53 
Q 2131 -91 1766 -91 
Q 1119 -91 703 423 
Q 288 938 288 1747 
Q 288 2556 703 3070 
Q 1119 3584 1766 3584 
Q 2128 3584 2408 3439 
Q 2688 3294 2919 2988 
z
M 2181 722 
Q 2541 722 2730 984 
Q 2919 1247 2919 1747 
Q 2919 2247 2730 2509 
Q 2541 2772 2181 2772 
Q 1825 2772 1636 2509 
Q 1447 2247 1447 1747 
Q 1447 1247 1636 984 
Q 1825 722 2181 722 
z
" transform="scale(0.015625)"/>
     </defs>
     <use xlink:href="#DejaVuSans-Bold-43"/>
     <use xlink:href="#DejaVuSans-Bold-4e" transform="translate(73.388672 0)"/>
     <use xlink:href="#DejaVuSans-Bold-54" transform="translate(157.080078 0)"/>
     <use xlink:href="#DejaVuSans-Bold-20" transform="translate(225.292969 0)"/>
     <use xlink:href="#DejaVuSans-Bold-2b" transform="translate(260.107422 0)"/>
     <use xlink:href="#DejaVuSans-Bold-3d" transform="translate(343.896484 0)"/>
     <use xlink:href="#DejaVuSans-Bold-20" transform="translate(427.685547 0)"/>
     <use xlink:href="#DejaVuSans-Bold-31" transform="translate(462.5 0)"/>
     <use xlink:href="#DejaVuSans-Bold-20" transform="translate(532.080078 0)"/>
     <use xlink:href="#DejaVuSans-Bold-6f" transform="translate(566.894531 0)"/>
     <use xlink:href="#DejaVuSans-Bold-6e" transform="translate(635.595703 0)"/>
     <use xlink:href="#DejaVuSans-Bold-20" transform="translate(706.787109 0)"/>
     <use xlink:href="#DejaVuSans-Bold-65" transform="translate(741.601562 0)"/>
     <use xlink:href="#DejaVuSans-Bold-61" transform="translate(809.423828 0)"/>
     <use xlink:href="#DejaVuSans-Bold-63" transform="translate(876.904297 0)"/>
     <use xlink:href="#DejaVuSans-Bold-68" transform="translate(936.181641 0)"/>
     <use xlink:href="#DejaVuSans-Bold-20" transform="translate(1007.373047 0)"/>
     <use xlink:href="#DejaVuSans-Bold-72" transform="translate(1042.1875 0)"/>
     <use xlink:href="#DejaVuSans-Bold-69" transform="translate(1091.503906 0)"/>
     <use xlink:href="#DejaVuSans-Bold-73" transform="translate(1125.78125 0)"/>
     <use xlink:href="#DejaVuSans-Bold-69" transform="translate(1185.302734 0)"/>
     <use xlink:href="#DejaVuSans-Bold-6e" transform="translate(1219.580078 0)"/>
     <use xlink:href="#DejaVuSans-Bold-67" transform="translate(1290.771484 0)"/>
     <use xlink:href="#DejaVuSans-Bold-20" transform="translate(1362.353516 0)"/>
     <use xlink:href="#DejaVuSans-Bold-65" transform="translate(1397.167969 0)"/>
     <use xlink:href="#DejaVuSans-Bold-64" transform="translate(1464.990234 0)"/>
     <use xlink:href="#DejaVuSans-Bold-67" transform="translate(1536.572266 0)"/>
     <use xlink:href="#DejaVuSans-Bold-65" transform="translate(1608.154297 0)"/>
    </g>
   </g>
   <g id="text_2">
    <!-- timer clock -->
    <g style="fill: #174f73" transform="translate(77.79375 59.30109) scale(0.15 -0.15)">
     <defs>
      <path id="DejaVuSans-Bold-74" d="M 1759 4494 
L 1759 3500 
L 2913 3500 
L 2913 2700 
L 1759 2700 
L 1759 1216 
Q 1759 972 1856 886 
Q 1953 800 2241 800 
L 2816 800 
L 2816 0 
L 1856 0 
Q 1194 0 917 276 
Q 641 553 641 1216 
L 641 2700 
L 84 2700 
L 84 3500 
L 641 3500 
L 641 4494 
L 1759 4494 
z
" transform="scale(0.015625)"/>
      <path id="DejaVuSans-Bold-6d" d="M 3781 2919 
Q 3994 3244 4286 3414 
Q 4578 3584 4928 3584 
Q 5531 3584 5847 3212 
Q 6163 2841 6163 2131 
L 6163 0 
L 5038 0 
L 5038 1825 
Q 5041 1866 5042 1909 
Q 5044 1953 5044 2034 
Q 5044 2406 4934 2573 
Q 4825 2741 4581 2741 
Q 4263 2741 4089 2478 
Q 3916 2216 3909 1719 
L 3909 0 
L 2784 0 
L 2784 1825 
Q 2784 2406 2684 2573 
Q 2584 2741 2328 2741 
Q 2006 2741 1831 2477 
Q 1656 2213 1656 1722 
L 1656 0 
L 531 0 
L 531 3500 
L 1656 3500 
L 1656 2988 
Q 1863 3284 2130 3434 
Q 2397 3584 2719 3584 
Q 3081 3584 3359 3409 
Q 3638 3234 3781 2919 
z
" transform="scale(0.015625)"/>
      <path id="DejaVuSans-Bold-6c" d="M 538 4863 
L 1656 4863 
L 1656 0 
L 538 0 
L 538 4863 
z
" transform="scale(0.015625)"/>
      <path id="DejaVuSans-Bold-6b" d="M 538 4863 
L 1656 4863 
L 1656 2216 
L 2944 3500 
L 4244 3500 
L 2534 1894 
L 4378 0 
L 3022 0 
L 1656 1459 
L 1656 0 
L 538 0 
L 538 4863 
z
" transform="scale(0.015625)"/>
     </defs>
     <use xlink:href="#DejaVuSans-Bold-74"/>
     <use xlink:href="#DejaVuSans-Bold-69" transform="translate(47.802734 0)"/>
     <use xlink:href="#DejaVuSans-Bold-6d" transform="translate(82.080078 0)"/>
     <use xlink:href="#DejaVuSans-Bold-65" transform="translate(186.279297 0)"/>
     <use xlink:href="#DejaVuSans-Bold-72" transform="translate(254.101562 0)"/>
     <use xlink:href="#DejaVuSans-Bold-20" transform="translate(303.417969 0)"/>
     <use xlink:href="#DejaVuSans-Bold-63" transform="translate(338.232422 0)"/>
     <use xlink:href="#DejaVuSans-Bold-6c" transform="translate(397.509766 0)"/>
     <use xlink:href="#DejaVuSans-Bold-6f" transform="translate(431.787109 0)"/>
     <use xlink:href="#DejaVuSans-Bold-63" transform="translate(500.488281 0)"/>
     <use xlink:href="#DejaVuSans-Bold-6b" transform="translate(559.765625 0)"/>
    </g>
    <!-- 16 MHz -->
    <g style="fill: #174f73" transform="translate(109.429687 76.097809) scale(0.15 -0.15)">
     <defs>
      <path id="DejaVuSans-Bold-36" d="M 2316 2303 
Q 2000 2303 1842 2098 
Q 1684 1894 1684 1484 
Q 1684 1075 1842 870 
Q 2000 666 2316 666 
Q 2634 666 2792 870 
Q 2950 1075 2950 1484 
Q 2950 1894 2792 2098 
Q 2634 2303 2316 2303 
z
M 3803 4544 
L 3803 3681 
Q 3506 3822 3243 3889 
Q 2981 3956 2731 3956 
Q 2194 3956 1894 3657 
Q 1594 3359 1544 2772 
Q 1750 2925 1990 3001 
Q 2231 3078 2516 3078 
Q 3231 3078 3670 2659 
Q 4109 2241 4109 1563 
Q 4109 813 3618 361 
Q 3128 -91 2303 -91 
Q 1394 -91 895 523 
Q 397 1138 397 2266 
Q 397 3422 980 4083 
Q 1563 4744 2578 4744 
Q 2900 4744 3203 4694 
Q 3506 4644 3803 4544 
z
" transform="scale(0.015625)"/>
      <path id="DejaVuSans-Bold-4d" d="M 588 4666 
L 2119 4666 
L 3181 2169 
L 4250 4666 
L 5778 4666 
L 5778 0 
L 4641 0 
L 4641 3413 
L 3566 897 
L 2803 897 
L 1728 3413 
L 1728 0 
L 588 0 
L 588 4666 
z
" transform="scale(0.015625)"/>
      <path id="DejaVuSans-Bold-48" d="M 588 4666 
L 1791 4666 
L 1791 2888 
L 3566 2888 
L 3566 4666 
L 4769 4666 
L 4769 0 
L 3566 0 
L 3566 1978 
L 1791 1978 
L 1791 0 
L 588 0 
L 588 4666 
z
" transform="scale(0.015625)"/>
      <path id="DejaVuSans-Bold-7a" d="M 366 3500 
L 3419 3500 
L 3419 2719 
L 1575 800 
L 3419 800 
L 3419 0 
L 288 0 
L 288 781 
L 2131 2700 
L 366 2700 
L 366 3500 
z
" transform="scale(0.015625)"/>
     </defs>
     <use xlink:href="#DejaVuSans-Bold-31"/>
     <use xlink:href="#DejaVuSans-Bold-36" transform="translate(69.580078 0)"/>
     <use xlink:href="#DejaVuSans-Bold-20" transform="translate(139.160156 0)"/>
     <use xlink:href="#DejaVuSans-Bold-4d" transform="translate(173.974609 0)"/>
     <use xlink:href="#DejaVuSans-Bold-48" transform="translate(273.486328 0)"/>
     <use xlink:href="#DejaVuSans-Bold-7a" transform="translate(357.177734 0)"/>
    </g>
   </g>
   <g id="text_3">
    <!-- counting frequency -->
    <g style="fill: #174f73" transform="translate(7.2 144.487974) scale(0.15 -0.15)">
     <defs>
      <path id="DejaVuSans-Bold-75" d="M 500 1363 
L 500 3500 
L 1625 3500 
L 1625 3150 
Q 1625 2866 1622 2436 
Q 1619 2006 1619 1863 
Q 1619 1441 1641 1255 
Q 1663 1069 1716 984 
Q 1784 875 1895 815 
Q 2006 756 2150 756 
Q 2500 756 2700 1025 
Q 2900 1294 2900 1772 
L 2900 3500 
L 4019 3500 
L 4019 0 
L 2900 0 
L 2900 506 
Q 2647 200 2364 54 
Q 2081 -91 1741 -91 
Q 1134 -91 817 281 
Q 500 653 500 1363 
z
" transform="scale(0.015625)"/>
      <path id="DejaVuSans-Bold-66" d="M 2841 4863 
L 2841 4128 
L 2222 4128 
Q 1984 4128 1890 4042 
Q 1797 3956 1797 3744 
L 1797 3500 
L 2753 3500 
L 2753 2700 
L 1797 2700 
L 1797 0 
L 678 0 
L 678 2700 
L 122 2700 
L 122 3500 
L 678 3500 
L 678 3744 
Q 678 4316 997 4589 
Q 1316 4863 1984 4863 
L 2841 4863 
z
" transform="scale(0.015625)"/>
      <path id="DejaVuSans-Bold-71" d="M 2181 2772 
Q 1825 2772 1636 2509 
Q 1447 2247 1447 1747 
Q 1447 1247 1636 984 
Q 1825 722 2181 722 
Q 2541 722 2730 984 
Q 2919 1247 2919 1747 
Q 2919 2247 2730 2509 
Q 2541 2772 2181 2772 
z
M 2919 506 
Q 2688 197 2409 53 
Q 2131 -91 1766 -91 
Q 1119 -91 703 423 
Q 288 938 288 1747 
Q 288 2556 703 3067 
Q 1119 3578 1766 3578 
Q 2131 3578 2409 3434 
Q 2688 3291 2919 2981 
L 2919 3500 
L 4044 3500 
L 4044 -1331 
L 2919 -1331 
L 2919 506 
z
" transform="scale(0.015625)"/>
      <path id="DejaVuSans-Bold-79" d="M 78 3500 
L 1197 3500 
L 2138 1125 
L 2938 3500 
L 4056 3500 
L 2584 -331 
Q 2363 -916 2067 -1148 
Q 1772 -1381 1288 -1381 
L 641 -1381 
L 641 -647 
L 991 -647 
Q 1275 -647 1404 -556 
Q 1534 -466 1606 -231 
L 1638 -134 
L 78 3500 
z
" transform="scale(0.015625)"/>
     </defs>
     <use xlink:href="#DejaVuSans-Bold-63"/>
     <use xlink:href="#DejaVuSans-Bold-6f" transform="translate(59.277344 0)"/>
     <use xlink:href="#DejaVuSans-Bold-75" transform="translate(127.978516 0)"/>
     <use xlink:href="#DejaVuSans-Bold-6e" transform="translate(199.169922 0)"/>
     <use xlink:href="#DejaVuSans-Bold-74" transform="translate(270.361328 0)"/>
     <use xlink:href="#DejaVuSans-Bold-69" transform="translate(318.164062 0)"/>
     <use xlink:href="#DejaVuSans-Bold-6e" transform="translate(352.441406 0)"/>
     <use xlink:href="#DejaVuSans-Bold-67" transform="translate(423.632812 0)"/>
     <use xlink:href="#DejaVuSans-Bold-20" transform="translate(495.214844 0)"/>
     <use xlink:href="#DejaVuSans-Bold-66" transform="translate(530.029297 0)"/>
     <use xlink:href="#DejaVuSans-Bold-72" transform="translate(573.535156 0)"/>
     <use xlink:href="#DejaVuSans-Bold-65" transform="translate(622.851562 0)"/>
     <use xlink:href="#DejaVuSans-Bold-71" transform="translate(690.673828 0)"/>
     <use xlink:href="#DejaVuSans-Bold-75" transform="translate(762.255859 0)"/>
     <use xlink:href="#DejaVuSans-Bold-65" transform="translate(833.447266 0)"/>
     <use xlink:href="#DejaVuSans-Bold-6e" transform="translate(901.269531 0)"/>
     <use xlink:href="#DejaVuSans-Bold-63" transform="translate(972.460938 0)"/>
     <use xlink:href="#DejaVuSans-Bold-79" transform="translate(1031.738281 0)"/>
    </g>
    <!-- (to CNT) -->
    <g style="fill: #174f73" transform="translate(101.533594 161.40188) scale(0.15 -0.15)">
     <defs>
      <path id="DejaVuSans-Bold-28" d="M 2413 -844 
L 1484 -844 
Q 1006 -72 778 623 
Q 550 1319 550 2003 
Q 550 2688 779 3389 
Q 1009 4091 1484 4856 
L 2413 4856 
Q 2013 4116 1813 3408 
Q 1613 2700 1613 2009 
Q 1613 1319 1811 609 
Q 2009 -100 2413 -844 
z
" transform="scale(0.015625)"/>
      <path id="DejaVuSans-Bold-29" d="M 513 -844 
Q 913 -100 1113 609 
Q 1313 1319 1313 2009 
Q 1313 2700 1113 3408 
Q 913 4116 513 4856 
L 1441 4856 
Q 1916 4091 2145 3389 
Q 2375 2688 2375 2003 
Q 2375 1319 2147 623 
Q 1919 -72 1441 -844 
L 513 -844 
z
" transform="scale(0.015625)"/>
     </defs>
     <use xlink:href="#DejaVuSans-Bold-28"/>
     <use xlink:href="#DejaVuSans-Bold-74" transform="translate(45.703125 0)"/>
     <use xlink:href="#DejaVuSans-Bold-6f" transform="translate(93.505859 0)"/>
     <use xlink:href="#DejaVuSans-Bold-20" transform="translate(162.207031 0)"/>
     <use xlink:href="#DejaVuSans-Bold-43" transform="translate(197.021484 0)"/>
     <use xlink:href="#DejaVuSans-Bold-4e" transform="translate(270.410156 0)"/>
     <use xlink:href="#DejaVuSans-Bold-54" transform="translate(354.101562 0)"/>
     <use xlink:href="#DejaVuSans-Bold-29" transform="translate(422.314453 0)"/>
    </g>
   </g>
   <g id="text_4">
    <!-- PSC = 3 shown (divide by 4) — the lab uses PSC = 15 (divide by 16) -->
    <g style="fill: #d47b28" transform="translate(258.170413 17.837812) scale(0.14 -0.14)">
     <defs>
      <path id="DejaVuSans-Bold-50" d="M 588 4666 
L 2584 4666 
Q 3475 4666 3951 4270 
Q 4428 3875 4428 3144 
Q 4428 2409 3951 2014 
Q 3475 1619 2584 1619 
L 1791 1619 
L 1791 0 
L 588 0 
L 588 4666 
z
M 1791 3794 
L 1791 2491 
L 2456 2491 
Q 2806 2491 2997 2661 
Q 3188 2831 3188 3144 
Q 3188 3456 2997 3625 
Q 2806 3794 2456 3794 
L 1791 3794 
z
" transform="scale(0.015625)"/>
      <path id="DejaVuSans-Bold-53" d="M 3834 4519 
L 3834 3531 
Q 3450 3703 3084 3790 
Q 2719 3878 2394 3878 
Q 1963 3878 1756 3759 
Q 1550 3641 1550 3391 
Q 1550 3203 1689 3098 
Q 1828 2994 2194 2919 
L 2706 2816 
Q 3484 2659 3812 2340 
Q 4141 2022 4141 1434 
Q 4141 663 3683 286 
Q 3225 -91 2284 -91 
Q 1841 -91 1394 -6 
Q 947 78 500 244 
L 500 1259 
Q 947 1022 1364 901 
Q 1781 781 2169 781 
Q 2563 781 2772 912 
Q 2981 1044 2981 1288 
Q 2981 1506 2839 1625 
Q 2697 1744 2272 1838 
L 1806 1941 
Q 1106 2091 782 2419 
Q 459 2747 459 3303 
Q 459 4000 909 4375 
Q 1359 4750 2203 4750 
Q 2588 4750 2994 4692 
Q 3400 4634 3834 4519 
z
" transform="scale(0.015625)"/>
      <path id="DejaVuSans-Bold-33" d="M 2981 2516 
Q 3453 2394 3698 2092 
Q 3944 1791 3944 1325 
Q 3944 631 3412 270 
Q 2881 -91 1863 -91 
Q 1503 -91 1142 -33 
Q 781 25 428 141 
L 428 1069 
Q 766 900 1098 814 
Q 1431 728 1753 728 
Q 2231 728 2486 893 
Q 2741 1059 2741 1369 
Q 2741 1688 2480 1852 
Q 2219 2016 1709 2016 
L 1228 2016 
L 1228 2791 
L 1734 2791 
Q 2188 2791 2409 2933 
Q 2631 3075 2631 3366 
Q 2631 3634 2415 3781 
Q 2200 3928 1806 3928 
Q 1516 3928 1219 3862 
Q 922 3797 628 3669 
L 628 4550 
Q 984 4650 1334 4700 
Q 1684 4750 2022 4750 
Q 2931 4750 3382 4451 
Q 3834 4153 3834 3553 
Q 3834 3144 3618 2883 
Q 3403 2622 2981 2516 
z
" transform="scale(0.015625)"/>
      <path id="DejaVuSans-Bold-77" d="M 225 3500 
L 1313 3500 
L 1900 1088 
L 2491 3500 
L 3425 3500 
L 4013 1113 
L 4603 3500 
L 5691 3500 
L 4769 0 
L 3547 0 
L 2956 2406 
L 2369 0 
L 1147 0 
L 225 3500 
z
" transform="scale(0.015625)"/>
      <path id="DejaVuSans-Bold-76" d="M 97 3500 
L 1216 3500 
L 2088 1081 
L 2956 3500 
L 4078 3500 
L 2700 0 
L 1472 0 
L 97 3500 
z
" transform="scale(0.015625)"/>
      <path id="DejaVuSans-Bold-62" d="M 2400 722 
Q 2759 722 2948 984 
Q 3138 1247 3138 1747 
Q 3138 2247 2948 2509 
Q 2759 2772 2400 2772 
Q 2041 2772 1848 2508 
Q 1656 2244 1656 1747 
Q 1656 1250 1848 986 
Q 2041 722 2400 722 
z
M 1656 2988 
Q 1888 3294 2169 3439 
Q 2450 3584 2816 3584 
Q 3463 3584 3878 3070 
Q 4294 2556 4294 1747 
Q 4294 938 3878 423 
Q 3463 -91 2816 -91 
Q 2450 -91 2169 54 
Q 1888 200 1656 506 
L 1656 0 
L 538 0 
L 538 4863 
L 1656 4863 
L 1656 2988 
z
" transform="scale(0.015625)"/>
      <path id="DejaVuSans-Bold-34" d="M 2356 3675 
L 1038 1722 
L 2356 1722 
L 2356 3675 
z
M 2156 4666 
L 3494 4666 
L 3494 1722 
L 4159 1722 
L 4159 850 
L 3494 850 
L 3494 0 
L 2356 0 
L 2356 850 
L 288 850 
L 288 1881 
L 2156 4666 
z
" transform="scale(0.015625)"/>
      <path id="DejaVuSans-Bold-2014" d="M 344 2156 
L 6056 2156 
L 6056 1350 
L 344 1350 
L 344 2156 
z
" transform="scale(0.015625)"/>
      <path id="DejaVuSans-Bold-35" d="M 678 4666 
L 3669 4666 
L 3669 3781 
L 1638 3781 
L 1638 3059 
Q 1775 3097 1914 3117 
Q 2053 3138 2203 3138 
Q 3056 3138 3531 2711 
Q 4006 2284 4006 1522 
Q 4006 766 3489 337 
Q 2972 -91 2053 -91 
Q 1656 -91 1267 -14 
Q 878 63 494 219 
L 494 1166 
Q 875 947 1217 837 
Q 1559 728 1863 728 
Q 2300 728 2551 942 
Q 2803 1156 2803 1522 
Q 2803 1891 2551 2103 
Q 2300 2316 1863 2316 
Q 1603 2316 1309 2248 
Q 1016 2181 678 2041 
L 678 4666 
z
" transform="scale(0.015625)"/>
     </defs>
     <use xlink:href="#DejaVuSans-Bold-50"/>
     <use xlink:href="#DejaVuSans-Bold-53" transform="translate(73.291016 0)"/>
     <use xlink:href="#DejaVuSans-Bold-43" transform="translate(145.3125 0)"/>
     <use xlink:href="#DejaVuSans-Bold-20" transform="translate(218.701172 0)"/>
     <use xlink:href="#DejaVuSans-Bold-3d" transform="translate(253.515625 0)"/>
     <use xlink:href="#DejaVuSans-Bold-20" transform="translate(337.304688 0)"/>
     <use xlink:href="#DejaVuSans-Bold-33" transform="translate(372.119141 0)"/>
     <use xlink:href="#DejaVuSans-Bold-20" transform="translate(441.699219 0)"/>
     <use xlink:href="#DejaVuSans-Bold-73" transform="translate(476.513672 0)"/>
     <use xlink:href="#DejaVuSans-Bold-68" transform="translate(536.035156 0)"/>
     <use xlink:href="#DejaVuSans-Bold-6f" transform="translate(607.226562 0)"/>
     <use xlink:href="#DejaVuSans-Bold-77" transform="translate(675.927734 0)"/>
     <use xlink:href="#DejaVuSans-Bold-6e" transform="translate(768.310547 0)"/>
     <use xlink:href="#DejaVuSans-Bold-20" transform="translate(839.501953 0)"/>
     <use xlink:href="#DejaVuSans-Bold-28" transform="translate(874.316406 0)"/>
     <use xlink:href="#DejaVuSans-Bold-64" transform="translate(920.019531 0)"/>
     <use xlink:href="#DejaVuSans-Bold-69" transform="translate(991.601562 0)"/>
     <use xlink:href="#DejaVuSans-Bold-76" transform="translate(1025.878906 0)"/>
     <use xlink:href="#DejaVuSans-Bold-69" transform="translate(1091.064453 0)"/>
     <use xlink:href="#DejaVuSans-Bold-64" transform="translate(1125.341797 0)"/>
     <use xlink:href="#DejaVuSans-Bold-65" transform="translate(1196.923828 0)"/>
     <use xlink:href="#DejaVuSans-Bold-20" transform="translate(1264.746094 0)"/>
     <use xlink:href="#DejaVuSans-Bold-62" transform="translate(1299.560547 0)"/>
     <use xlink:href="#DejaVuSans-Bold-79" transform="translate(1371.142578 0)"/>
     <use xlink:href="#DejaVuSans-Bold-20" transform="translate(1436.328125 0)"/>
     <use xlink:href="#DejaVuSans-Bold-34" transform="translate(1471.142578 0)"/>
     <use xlink:href="#DejaVuSans-Bold-29" transform="translate(1540.722656 0)"/>
     <use xlink:href="#DejaVuSans-Bold-20" transform="translate(1586.425781 0)"/>
     <use xlink:href="#DejaVuSans-Bold-2014" transform="translate(1621.240234 0)"/>
     <use xlink:href="#DejaVuSans-Bold-20" transform="translate(1721.240234 0)"/>
     <use xlink:href="#DejaVuSans-Bold-74" transform="translate(1756.054688 0)"/>
     <use xlink:href="#DejaVuSans-Bold-68" transform="translate(1803.857422 0)"/>
     <use xlink:href="#DejaVuSans-Bold-65" transform="translate(1875.048828 0)"/>
     <use xlink:href="#DejaVuSans-Bold-20" transform="translate(1942.871094 0)"/>
     <use xlink:href="#DejaVuSans-Bold-6c" transform="translate(1977.685547 0)"/>
     <use xlink:href="#DejaVuSans-Bold-61" transform="translate(2011.962891 0)"/>
     <use xlink:href="#DejaVuSans-Bold-62" transform="translate(2079.443359 0)"/>
     <use xlink:href="#DejaVuSans-Bold-20" transform="translate(2151.025391 0)"/>
     <use xlink:href="#DejaVuSans-Bold-75" transform="translate(2185.839844 0)"/>
     <use xlink:href="#DejaVuSans-Bold-73" transform="translate(2257.03125 0)"/>
     <use xlink:href="#DejaVuSans-Bold-65" transform="translate(2316.552734 0)"/>
     <use xlink:href="#DejaVuSans-Bold-73" transform="translate(2384.375 0)"/>
     <use xlink:href="#DejaVuSans-Bold-20" transform="translate(2443.896484 0)"/>
     <use xlink:href="#DejaVuSans-Bold-50" transform="translate(2478.710938 0)"/>
     <use xlink:href="#DejaVuSans-Bold-53" transform="translate(2552.001953 0)"/>
     <use xlink:href="#DejaVuSans-Bold-43" transform="translate(2624.023438 0)"/>
     <use xlink:href="#DejaVuSans-Bold-20" transform="translate(2697.412109 0)"/>
     <use xlink:href="#DejaVuSans-Bold-3d" transform="translate(2732.226562 0)"/>
     <use xlink:href="#DejaVuSans-Bold-20" transform="translate(2816.015625 0)"/>
     <use xlink:href="#DejaVuSans-Bold-31" transform="translate(2850.830078 0)"/>
     <use xlink:href="#DejaVuSans-Bold-35" transform="translate(2920.410156 0)"/>
     <use xlink:href="#DejaVuSans-Bold-20" transform="translate(2989.990234 0)"/>
     <use xlink:href="#DejaVuSans-Bold-28" transform="translate(3024.804688 0)"/>
     <use xlink:href="#DejaVuSans-Bold-64" transform="translate(3070.507812 0)"/>
     <use xlink:href="#DejaVuSans-Bold-69" transform="translate(3142.089844 0)"/>
     <use xlink:href="#DejaVuSans-Bold-76" transform="translate(3176.367188 0)"/>
     <use xlink:href="#DejaVuSans-Bold-69" transform="translate(3241.552734 0)"/>
     <use xlink:href="#DejaVuSans-Bold-64" transform="translate(3275.830078 0)"/>
     <use xlink:href="#DejaVuSans-Bold-65" transform="translate(3347.412109 0)"/>
     <use xlink:href="#DejaVuSans-Bold-20" transform="translate(3415.234375 0)"/>
     <use xlink:href="#DejaVuSans-Bold-62" transform="translate(3450.048828 0)"/>
     <use xlink:href="#DejaVuSans-Bold-79" transform="translate(3521.630859 0)"/>
     <use xlink:href="#DejaVuSans-Bold-20" transform="translate(3586.816406 0)"/>
     <use xlink:href="#DejaVuSans-Bold-31" transform="translate(3621.630859 0)"/>
     <use xlink:href="#DejaVuSans-Bold-36" transform="translate(3691.210938 0)"/>
     <use xlink:href="#DejaVuSans-Bold-29" transform="translate(3760.791016 0)"/>
    </g>
   </g>
   <g id="text_5">
    <!-- one output cycle for every PSC + 1 clock cycles -->
    <g style="fill: #5a6b76" transform="translate(309.790947 203.827946) scale(0.15 -0.15)">
     <defs>
      <path id="DejaVuSans-6f" d="M 1959 3097 
Q 1497 3097 1228 2736 
Q 959 2375 959 1747 
Q 959 1119 1226 758 
Q 1494 397 1959 397 
Q 2419 397 2687 759 
Q 2956 1122 2956 1747 
Q 2956 2369 2687 2733 
Q 2419 3097 1959 3097 
z
M 1959 3584 
Q 2709 3584 3137 3096 
Q 3566 2609 3566 1747 
Q 3566 888 3137 398 
Q 2709 -91 1959 -91 
Q 1206 -91 779 398 
Q 353 888 353 1747 
Q 353 2609 779 3096 
Q 1206 3584 1959 3584 
z
" transform="scale(0.015625)"/>
      <path id="DejaVuSans-6e" d="M 3513 2113 
L 3513 0 
L 2938 0 
L 2938 2094 
Q 2938 2591 2744 2837 
Q 2550 3084 2163 3084 
Q 1697 3084 1428 2787 
Q 1159 2491 1159 1978 
L 1159 0 
L 581 0 
L 581 3500 
L 1159 3500 
L 1159 2956 
Q 1366 3272 1645 3428 
Q 1925 3584 2291 3584 
Q 2894 3584 3203 3211 
Q 3513 2838 3513 2113 
z
" transform="scale(0.015625)"/>
      <path id="DejaVuSans-65" d="M 3597 1894 
L 3597 1613 
L 953 1613 
Q 991 1019 1311 708 
Q 1631 397 2203 397 
Q 2534 397 2845 478 
Q 3156 559 3463 722 
L 3463 178 
Q 3153 47 2828 -22 
Q 2503 -91 2169 -91 
Q 1331 -91 842 396 
Q 353 884 353 1716 
Q 353 2575 817 3079 
Q 1281 3584 2069 3584 
Q 2775 3584 3186 3129 
Q 3597 2675 3597 1894 
z
M 3022 2063 
Q 3016 2534 2758 2815 
Q 2500 3097 2075 3097 
Q 1594 3097 1305 2825 
Q 1016 2553 972 2059 
L 3022 2063 
z
" transform="scale(0.015625)"/>
      <path id="DejaVuSans-20" transform="scale(0.015625)"/>
      <path id="DejaVuSans-75" d="M 544 1381 
L 544 3500 
L 1119 3500 
L 1119 1403 
Q 1119 906 1312 657 
Q 1506 409 1894 409 
Q 2359 409 2629 706 
Q 2900 1003 2900 1516 
L 2900 3500 
L 3475 3500 
L 3475 0 
L 2900 0 
L 2900 538 
Q 2691 219 2414 64 
Q 2138 -91 1772 -91 
Q 1169 -91 856 284 
Q 544 659 544 1381 
z
M 1991 3584 
L 1991 3584 
z
" transform="scale(0.015625)"/>
      <path id="DejaVuSans-74" d="M 1172 4494 
L 1172 3500 
L 2356 3500 
L 2356 3053 
L 1172 3053 
L 1172 1153 
Q 1172 725 1289 603 
Q 1406 481 1766 481 
L 2356 481 
L 2356 0 
L 1766 0 
Q 1100 0 847 248 
Q 594 497 594 1153 
L 594 3053 
L 172 3053 
L 172 3500 
L 594 3500 
L 594 4494 
L 1172 4494 
z
" transform="scale(0.015625)"/>
      <path id="DejaVuSans-70" d="M 1159 525 
L 1159 -1331 
L 581 -1331 
L 581 3500 
L 1159 3500 
L 1159 2969 
Q 1341 3281 1617 3432 
Q 1894 3584 2278 3584 
Q 2916 3584 3314 3078 
Q 3713 2572 3713 1747 
Q 3713 922 3314 415 
Q 2916 -91 2278 -91 
Q 1894 -91 1617 61 
Q 1341 213 1159 525 
z
M 3116 1747 
Q 3116 2381 2855 2742 
Q 2594 3103 2138 3103 
Q 1681 3103 1420 2742 
Q 1159 2381 1159 1747 
Q 1159 1113 1420 752 
Q 1681 391 2138 391 
Q 2594 391 2855 752 
Q 3116 1113 3116 1747 
z
" transform="scale(0.015625)"/>
      <path id="DejaVuSans-63" d="M 3122 3366 
L 3122 2828 
Q 2878 2963 2633 3030 
Q 2388 3097 2138 3097 
Q 1578 3097 1268 2742 
Q 959 2388 959 1747 
Q 959 1106 1268 751 
Q 1578 397 2138 397 
Q 2388 397 2633 464 
Q 2878 531 3122 666 
L 3122 134 
Q 2881 22 2623 -34 
Q 2366 -91 2075 -91 
Q 1284 -91 818 406 
Q 353 903 353 1747 
Q 353 2603 823 3093 
Q 1294 3584 2113 3584 
Q 2378 3584 2631 3529 
Q 2884 3475 3122 3366 
z
" transform="scale(0.015625)"/>
      <path id="DejaVuSans-79" d="M 2059 -325 
Q 1816 -950 1584 -1140 
Q 1353 -1331 966 -1331 
L 506 -1331 
L 506 -850 
L 844 -850 
Q 1081 -850 1212 -737 
Q 1344 -625 1503 -206 
L 1606 56 
L 191 3500 
L 800 3500 
L 1894 763 
L 2988 3500 
L 3597 3500 
L 2059 -325 
z
" transform="scale(0.015625)"/>
      <path id="DejaVuSans-6c" d="M 603 4863 
L 1178 4863 
L 1178 0 
L 603 0 
L 603 4863 
z
" transform="scale(0.015625)"/>
      <path id="DejaVuSans-66" d="M 2375 4863 
L 2375 4384 
L 1825 4384 
Q 1516 4384 1395 4259 
Q 1275 4134 1275 3809 
L 1275 3500 
L 2222 3500 
L 2222 3053 
L 1275 3053 
L 1275 0 
L 697 0 
L 697 3053 
L 147 3053 
L 147 3500 
L 697 3500 
L 697 3744 
Q 697 4328 969 4595 
Q 1241 4863 1831 4863 
L 2375 4863 
z
" transform="scale(0.015625)"/>
      <path id="DejaVuSans-72" d="M 2631 2963 
Q 2534 3019 2420 3045 
Q 2306 3072 2169 3072 
Q 1681 3072 1420 2755 
Q 1159 2438 1159 1844 
L 1159 0 
L 581 0 
L 581 3500 
L 1159 3500 
L 1159 2956 
Q 1341 3275 1631 3429 
Q 1922 3584 2338 3584 
Q 2397 3584 2469 3576 
Q 2541 3569 2628 3553 
L 2631 2963 
z
" transform="scale(0.015625)"/>
      <path id="DejaVuSans-76" d="M 191 3500 
L 800 3500 
L 1894 563 
L 2988 3500 
L 3597 3500 
L 2284 0 
L 1503 0 
L 191 3500 
z
" transform="scale(0.015625)"/>
      <path id="DejaVuSans-50" d="M 1259 4147 
L 1259 2394 
L 2053 2394 
Q 2494 2394 2734 2622 
Q 2975 2850 2975 3272 
Q 2975 3691 2734 3919 
Q 2494 4147 2053 4147 
L 1259 4147 
z
M 628 4666 
L 2053 4666 
Q 2838 4666 3239 4311 
Q 3641 3956 3641 3272 
Q 3641 2581 3239 2228 
Q 2838 1875 2053 1875 
L 1259 1875 
L 1259 0 
L 628 0 
L 628 4666 
z
" transform="scale(0.015625)"/>
      <path id="DejaVuSans-53" d="M 3425 4513 
L 3425 3897 
Q 3066 4069 2747 4153 
Q 2428 4238 2131 4238 
Q 1616 4238 1336 4038 
Q 1056 3838 1056 3469 
Q 1056 3159 1242 3001 
Q 1428 2844 1947 2747 
L 2328 2669 
Q 3034 2534 3370 2195 
Q 3706 1856 3706 1288 
Q 3706 609 3251 259 
Q 2797 -91 1919 -91 
Q 1588 -91 1214 -16 
Q 841 59 441 206 
L 441 856 
Q 825 641 1194 531 
Q 1563 422 1919 422 
Q 2459 422 2753 634 
Q 3047 847 3047 1241 
Q 3047 1584 2836 1778 
Q 2625 1972 2144 2069 
L 1759 2144 
Q 1053 2284 737 2584 
Q 422 2884 422 3419 
Q 422 4038 858 4394 
Q 1294 4750 2059 4750 
Q 2388 4750 2728 4690 
Q 3069 4631 3425 4513 
z
" transform="scale(0.015625)"/>
      <path id="DejaVuSans-43" d="M 4122 4306 
L 4122 3641 
Q 3803 3938 3442 4084 
Q 3081 4231 2675 4231 
Q 1875 4231 1450 3742 
Q 1025 3253 1025 2328 
Q 1025 1406 1450 917 
Q 1875 428 2675 428 
Q 3081 428 3442 575 
Q 3803 722 4122 1019 
L 4122 359 
Q 3791 134 3420 21 
Q 3050 -91 2638 -91 
Q 1578 -91 968 557 
Q 359 1206 359 2328 
Q 359 3453 968 4101 
Q 1578 4750 2638 4750 
Q 3056 4750 3426 4639 
Q 3797 4528 4122 4306 
z
" transform="scale(0.015625)"/>
      <path id="DejaVuSans-2b" d="M 2944 4013 
L 2944 2272 
L 4684 2272 
L 4684 1741 
L 2944 1741 
L 2944 0 
L 2419 0 
L 2419 1741 
L 678 1741 
L 678 2272 
L 2419 2272 
L 2419 4013 
L 2944 4013 
z
" transform="scale(0.015625)"/>
      <path id="DejaVuSans-31" d="M 794 531 
L 1825 531 
L 1825 4091 
L 703 3866 
L 703 4441 
L 1819 4666 
L 2450 4666 
L 2450 531 
L 3481 531 
L 3481 0 
L 794 0 
L 794 531 
z
" transform="scale(0.015625)"/>
      <path id="DejaVuSans-6b" d="M 581 4863 
L 1159 4863 
L 1159 1991 
L 2875 3500 
L 3609 3500 
L 1753 1863 
L 3688 0 
L 2938 0 
L 1159 1709 
L 1159 0 
L 581 0 
L 581 4863 
z
" transform="scale(0.015625)"/>
      <path id="DejaVuSans-73" d="M 2834 3397 
L 2834 2853 
Q 2591 2978 2328 3040 
Q 2066 3103 1784 3103 
Q 1356 3103 1142 2972 
Q 928 2841 928 2578 
Q 928 2378 1081 2264 
Q 1234 2150 1697 2047 
L 1894 2003 
Q 2506 1872 2764 1633 
Q 3022 1394 3022 966 
Q 3022 478 2636 193 
Q 2250 -91 1575 -91 
Q 1294 -91 989 -36 
Q 684 19 347 128 
L 347 722 
Q 666 556 975 473 
Q 1284 391 1588 391 
Q 1994 391 2212 530 
Q 2431 669 2431 922 
Q 2431 1156 2273 1281 
Q 2116 1406 1581 1522 
L 1381 1569 
Q 847 1681 609 1914 
Q 372 2147 372 2553 
Q 372 3047 722 3315 
Q 1072 3584 1716 3584 
Q 2034 3584 2315 3537 
Q 2597 3491 2834 3397 
z
" transform="scale(0.015625)"/>
     </defs>
     <use xlink:href="#DejaVuSans-6f"/>
     <use xlink:href="#DejaVuSans-6e" transform="translate(61.181641 0)"/>
     <use xlink:href="#DejaVuSans-65" transform="translate(124.560547 0)"/>
     <use xlink:href="#DejaVuSans-20" transform="translate(186.083984 0)"/>
     <use xlink:href="#DejaVuSans-6f" transform="translate(217.871094 0)"/>
     <use xlink:href="#DejaVuSans-75" transform="translate(279.052734 0)"/>
     <use xlink:href="#DejaVuSans-74" transform="translate(342.431641 0)"/>
     <use xlink:href="#DejaVuSans-70" transform="translate(381.640625 0)"/>
     <use xlink:href="#DejaVuSans-75" transform="translate(445.117188 0)"/>
     <use xlink:href="#DejaVuSans-74" transform="translate(508.496094 0)"/>
     <use xlink:href="#DejaVuSans-20" transform="translate(547.705078 0)"/>
     <use xlink:href="#DejaVuSans-63" transform="translate(579.492188 0)"/>
     <use xlink:href="#DejaVuSans-79" transform="translate(634.472656 0)"/>
     <use xlink:href="#DejaVuSans-63" transform="translate(693.652344 0)"/>
     <use xlink:href="#DejaVuSans-6c" transform="translate(748.632812 0)"/>
     <use xlink:href="#DejaVuSans-65" transform="translate(776.416016 0)"/>
     <use xlink:href="#DejaVuSans-20" transform="translate(837.939453 0)"/>
     <use xlink:href="#DejaVuSans-66" transform="translate(869.726562 0)"/>
     <use xlink:href="#DejaVuSans-6f" transform="translate(904.931641 0)"/>
     <use xlink:href="#DejaVuSans-72" transform="translate(966.113281 0)"/>
     <use xlink:href="#DejaVuSans-20" transform="translate(1007.226562 0)"/>
     <use xlink:href="#DejaVuSans-65" transform="translate(1039.013672 0)"/>
     <use xlink:href="#DejaVuSans-76" transform="translate(1100.537109 0)"/>
     <use xlink:href="#DejaVuSans-65" transform="translate(1159.716797 0)"/>
     <use xlink:href="#DejaVuSans-72" transform="translate(1221.240234 0)"/>
     <use xlink:href="#DejaVuSans-79" transform="translate(1262.353516 0)"/>
     <use xlink:href="#DejaVuSans-20" transform="translate(1321.533203 0)"/>
     <use xlink:href="#DejaVuSans-50" transform="translate(1353.320312 0)"/>
     <use xlink:href="#DejaVuSans-53" transform="translate(1413.623047 0)"/>
     <use xlink:href="#DejaVuSans-43" transform="translate(1477.099609 0)"/>
     <use xlink:href="#DejaVuSans-20" transform="translate(1546.923828 0)"/>
     <use xlink:href="#DejaVuSans-2b" transform="translate(1578.710938 0)"/>
     <use xlink:href="#DejaVuSans-20" transform="translate(1662.5 0)"/>
     <use xlink:href="#DejaVuSans-31" transform="translate(1694.287109 0)"/>
     <use xlink:href="#DejaVuSans-20" transform="translate(1757.910156 0)"/>
     <use xlink:href="#DejaVuSans-63" transform="translate(1789.697266 0)"/>
     <use xlink:href="#DejaVuSans-6c" transform="translate(1844.677734 0)"/>
     <use xlink:href="#DejaVuSans-6f" transform="translate(1872.460938 0)"/>
     <use xlink:href="#DejaVuSans-63" transform="translate(1933.642578 0)"/>
     <use xlink:href="#DejaVuSans-6b" transform="translate(1988.623047 0)"/>
     <use xlink:href="#DejaVuSans-20" transform="translate(2046.533203 0)"/>
     <use xlink:href="#DejaVuSans-63" transform="translate(2078.320312 0)"/>
     <use xlink:href="#DejaVuSans-79" transform="translate(2133.300781 0)"/>
     <use xlink:href="#DejaVuSans-63" transform="translate(2192.480469 0)"/>
     <use xlink:href="#DejaVuSans-6c" transform="translate(2247.460938 0)"/>
     <use xlink:href="#DejaVuSans-65" transform="translate(2275.244141 0)"/>
     <use xlink:href="#DejaVuSans-73" transform="translate(2336.767578 0)"/>
    </g>
   </g>
   <g id="line2d_8">
    <path d="M 186.841794 125.557098 
" clip-path="url(#pc2a100a7f8)" style="fill: none; stroke: #d47b28; stroke-width: 1.5; stroke-linecap: square"/>
    <defs>
     <path id="m4171cbea4d" d="M 0 3.5 
C 0.928211 3.5 1.81853 3.131218 2.474874 2.474874 
C 3.131218 1.81853 3.5 0.928211 3.5 0 
C 3.5 -0.928211 3.131218 -1.81853 2.474874 -2.474874 
C 1.81853 -3.131218 0.928211 -3.5 0 -3.5 
C -0.928211 -3.5 -1.81853 -3.131218 -2.474874 -2.474874 
C -3.131218 -1.81853 -3.5 -0.928211 -3.5 0 
C -3.5 0.928211 -3.131218 1.81853 -2.474874 2.474874 
C -1.81853 3.131218 -0.928211 3.5 0 3.5 
z
" style="stroke: #d47b28"/>
    </defs>
    <g clip-path="url(#pc2a100a7f8)">
     <use xlink:href="#m4171cbea4d" x="186.841794" y="125.557098" style="fill: #d47b28; stroke: #d47b28"/>
    </g>
   </g>
   <g id="line2d_9">
    <path d="M 337.900355 125.557098 
" clip-path="url(#pc2a100a7f8)" style="fill: none; stroke: #d47b28; stroke-width: 1.5; stroke-linecap: square"/>
    <g clip-path="url(#pc2a100a7f8)">
     <use xlink:href="#m4171cbea4d" x="337.900355" y="125.557098" style="fill: #d47b28; stroke: #d47b28"/>
    </g>
   </g>
   <g id="line2d_10">
    <path d="M 488.958916 125.557098 
" clip-path="url(#pc2a100a7f8)" style="fill: none; stroke: #d47b28; stroke-width: 1.5; stroke-linecap: square"/>
    <g clip-path="url(#pc2a100a7f8)">
     <use xlink:href="#m4171cbea4d" x="488.958916" y="125.557098" style="fill: #d47b28; stroke: #d47b28"/>
    </g>
   </g>
   <g id="line2d_11">
    <path d="M 640.017477 125.557098 
" clip-path="url(#pc2a100a7f8)" style="fill: none; stroke: #d47b28; stroke-width: 1.5; stroke-linecap: square"/>
    <g clip-path="url(#pc2a100a7f8)">
     <use xlink:href="#m4171cbea4d" x="640.017477" y="125.557098" style="fill: #d47b28; stroke: #d47b28"/>
    </g>
   </g>
   <g id="line2d_12">
    <path d="M 791.076038 125.557098 
" clip-path="url(#pc2a100a7f8)" style="fill: none; stroke: #d47b28; stroke-width: 1.5; stroke-linecap: square"/>
    <g clip-path="url(#pc2a100a7f8)">
     <use xlink:href="#m4171cbea4d" x="791.076038" y="125.557098" style="fill: #d47b28; stroke: #d47b28"/>
    </g>
   </g>
  </g>
 </g>
 <defs>
  <clipPath id="pc2a100a7f8">
   <rect x="50.889089" y="9.313265" width="745.851646" height="205.364106"/>
  </clipPath>
 </defs>
</svg>
