<?xml version="1.0" encoding="utf-8" standalone="no"?>
<!DOCTYPE svg PUBLIC "-//W3C//DTD SVG 1.1//EN"
  "http://www.w3.org/Graphics/SVG/1.1/DTD/svg11.dtd">
<svg xmlns:xlink="http://www.w3.org/1999/xlink" width="817.866596pt" height="201.312344pt" viewBox="0 0 817.866596 201.312344" xmlns="http://www.w3.org/2000/svg" version="1.1">
 <metadata>
  <rdf:RDF xmlns:dc="http://purl.org/dc/elements/1.1/" xmlns:cc="http://creativecommons.org/ns#" xmlns:rdf="http://www.w3.org/1999/02/22-rdf-syntax-ns#">
   <cc:Work>
    <dc:type rdf:resource="http://purl.org/dc/dcmitype/StillImage"/>
    <dc:date>2026-07-19T11:40:55.321855</dc:date>
    <dc:format>image/svg+xml</dc:format>
    <dc:creator>
     <cc:Agent>
      <dc:title>Matplotlib v3.10.8, https://matplotlib.org/</dc:title>
     </cc:Agent>
    </dc:creator>
   </cc:Work>
  </rdf:RDF>
 </metadata>
 <defs>
  <style type="text/css">*{stroke-linejoin: round; stroke-linecap: butt}</style>
 </defs>
 <g id="figure_1">
  <g id="patch_1">
   <path d="M 0 201.312344 
L 817.866596 201.312344 
L 817.866596 0 
L 0 0 
L 0 201.312344 
z
" style="fill: none"/>
  </g>
  <g id="axes_1">
   <g id="patch_2">
    <path d="M 7.2 158.145 
L 807.619483 158.145 
L 807.619483 7.2 
L 7.2 7.2 
L 7.2 158.145 
z
" style="fill: none"/>
   </g>
   <g id="matplotlib.axis_1">
    <g id="xtick_1">
     <g id="line2d_1"/>
     <g id="text_1">
      <!-- 0 -->
      <g style="fill: #5a6b76" transform="translate(197.68236 172.282812) scale(0.14 -0.14)">
       <defs>
        <path id="DejaVuSans-30" d="M 2034 4250 
Q 1547 4250 1301 3770 
Q 1056 3291 1056 2328 
Q 1056 1369 1301 889 
Q 1547 409 2034 409 
Q 2525 409 2770 889 
Q 3016 1369 3016 2328 
Q 3016 3291 2770 3770 
Q 2525 4250 2034 4250 
z
M 2034 4750 
Q 2819 4750 3233 4129 
Q 3647 3509 3647 2328 
Q 3647 1150 3233 529 
Q 2819 -91 2034 -91 
Q 1250 -91 836 529 
Q 422 1150 422 2328 
Q 422 3509 836 4129 
Q 1250 4750 2034 4750 
z
" transform="scale(0.015625)"/>
       </defs>
       <use xlink:href="#DejaVuSans-30"/>
      </g>
     </g>
    </g>
    <g id="xtick_2">
     <g id="line2d_2"/>
     <g id="text_2">
      <!-- 250 -->
      <g style="fill: #5a6b76" transform="translate(336.453732 172.282812) scale(0.14 -0.14)">
       <defs>
        <path id="DejaVuSans-32" d="M 1228 531 
L 3431 531 
L 3431 0 
L 469 0 
L 469 531 
Q 828 903 1448 1529 
Q 2069 2156 2228 2338 
Q 2531 2678 2651 2914 
Q 2772 3150 2772 3378 
Q 2772 3750 2511 3984 
Q 2250 4219 1831 4219 
Q 1534 4219 1204 4116 
Q 875 4013 500 3803 
L 500 4441 
Q 881 4594 1212 4672 
Q 1544 4750 1819 4750 
Q 2544 4750 2975 4387 
Q 3406 4025 3406 3419 
Q 3406 3131 3298 2873 
Q 3191 2616 2906 2266 
Q 2828 2175 2409 1742 
Q 1991 1309 1228 531 
z
" transform="scale(0.015625)"/>
        <path id="DejaVuSans-35" d="M 691 4666 
L 3169 4666 
L 3169 4134 
L 1269 4134 
L 1269 2991 
Q 1406 3038 1543 3061 
Q 1681 3084 1819 3084 
Q 2600 3084 3056 2656 
Q 3513 2228 3513 1497 
Q 3513 744 3044 326 
Q 2575 -91 1722 -91 
Q 1428 -91 1123 -41 
Q 819 9 494 109 
L 494 744 
Q 775 591 1075 516 
Q 1375 441 1709 441 
Q 2250 441 2565 725 
Q 2881 1009 2881 1497 
Q 2881 1984 2565 2268 
Q 2250 2553 1709 2553 
Q 1456 2553 1204 2497 
Q 953 2441 691 2322 
L 691 4666 
z
" transform="scale(0.015625)"/>
       </defs>
       <use xlink:href="#DejaVuSans-32"/>
       <use xlink:href="#DejaVuSans-35" transform="translate(63.623047 0)"/>
       <use xlink:href="#DejaVuSans-30" transform="translate(127.246094 0)"/>
      </g>
     </g>
    </g>
    <g id="xtick_3">
     <g id="line2d_3"/>
     <g id="text_3">
      <!-- 500 -->
      <g style="fill: #5a6b76" transform="translate(484.132603 172.282812) scale(0.14 -0.14)">
       <use xlink:href="#DejaVuSans-35"/>
       <use xlink:href="#DejaVuSans-30" transform="translate(63.623047 0)"/>
       <use xlink:href="#DejaVuSans-30" transform="translate(127.246094 0)"/>
      </g>
     </g>
    </g>
    <g id="xtick_4">
     <g id="line2d_4"/>
     <g id="text_4">
      <!-- 750 -->
      <g style="fill: #5a6b76" transform="translate(631.811475 172.282812) scale(0.14 -0.14)">
       <defs>
        <path id="DejaVuSans-37" d="M 525 4666 
L 3525 4666 
L 3525 4397 
L 1831 0 
L 1172 0 
L 2766 4134 
L 525 4134 
L 525 4666 
z
" transform="scale(0.015625)"/>
       </defs>
       <use xlink:href="#DejaVuSans-37"/>
       <use xlink:href="#DejaVuSans-35" transform="translate(63.623047 0)"/>
       <use xlink:href="#DejaVuSans-30" transform="translate(127.246094 0)"/>
      </g>
     </g>
    </g>
    <g id="xtick_5">
     <g id="line2d_5"/>
     <g id="text_5">
      <!-- 1000 -->
      <g style="fill: #5a6b76" transform="translate(775.036596 172.282812) scale(0.14 -0.14)">
       <defs>
        <path id="DejaVuSans-31" d="M 794 531 
L 1825 531 
L 1825 4091 
L 703 3866 
L 703 4441 
L 1819 4666 
L 2450 4666 
L 2450 531 
L 3481 531 
L 3481 0 
L 794 0 
L 794 531 
z
" transform="scale(0.015625)"/>
       </defs>
       <use xlink:href="#DejaVuSans-31"/>
       <use xlink:href="#DejaVuSans-30" transform="translate(63.623047 0)"/>
       <use xlink:href="#DejaVuSans-30" transform="translate(127.246094 0)"/>
       <use xlink:href="#DejaVuSans-30" transform="translate(190.869141 0)"/>
      </g>
     </g>
    </g>
    <g id="text_6">
     <!-- g_ms (ms) -->
     <g style="fill: #5a6b76" transform="translate(366.772632 190.575625) scale(0.15 -0.15)">
      <defs>
       <path id="DejaVuSansMono-67" d="M 2681 1778 
Q 2681 2425 2470 2761 
Q 2259 3097 1856 3097 
Q 1434 3097 1212 2761 
Q 991 2425 991 1778 
Q 991 1131 1214 792 
Q 1438 453 1863 453 
Q 2259 453 2470 793 
Q 2681 1134 2681 1778 
z
M 3256 225 
Q 3256 -563 2884 -969 
Q 2513 -1375 1791 -1375 
Q 1553 -1375 1293 -1331 
Q 1034 -1288 775 -1203 
L 775 -634 
Q 1081 -778 1331 -847 
Q 1581 -916 1791 -916 
Q 2256 -916 2468 -662 
Q 2681 -409 2681 141 
L 2681 166 
L 2681 556 
Q 2544 263 2306 119 
Q 2069 -25 1728 -25 
Q 1116 -25 750 465 
Q 384 956 384 1778 
Q 384 2603 750 3093 
Q 1116 3584 1728 3584 
Q 2066 3584 2300 3450 
Q 2534 3316 2681 3034 
L 2681 3488 
L 3256 3488 
L 3256 225 
z
" transform="scale(0.015625)"/>
       <path id="DejaVuSansMono-5f" d="M 3853 -1259 
L 3853 -1509 
L 0 -1509 
L 0 -1259 
L 3853 -1259 
z
" transform="scale(0.015625)"/>
       <path id="DejaVuSansMono-6d" d="M 2113 3144 
Q 2219 3369 2383 3476 
Q 2547 3584 2778 3584 
Q 3200 3584 3373 3257 
Q 3547 2931 3547 2028 
L 3547 0 
L 3022 0 
L 3022 2003 
Q 3022 2744 2939 2923 
Q 2856 3103 2638 3103 
Q 2388 3103 2295 2911 
Q 2203 2719 2203 2003 
L 2203 0 
L 1678 0 
L 1678 2003 
Q 1678 2753 1589 2928 
Q 1500 3103 1269 3103 
Q 1041 3103 952 2911 
Q 863 2719 863 2003 
L 863 0 
L 341 0 
L 341 3500 
L 863 3500 
L 863 3200 
Q 966 3388 1120 3486 
Q 1275 3584 1472 3584 
Q 1709 3584 1867 3475 
Q 2025 3366 2113 3144 
z
" transform="scale(0.015625)"/>
       <path id="DejaVuSansMono-73" d="M 3041 3378 
L 3041 2816 
Q 2794 2959 2544 3031 
Q 2294 3103 2034 3103 
Q 1644 3103 1451 2976 
Q 1259 2850 1259 2591 
Q 1259 2356 1403 2240 
Q 1547 2125 2119 2016 
L 2350 1972 
Q 2778 1891 2998 1647 
Q 3219 1403 3219 1013 
Q 3219 494 2850 201 
Q 2481 -91 1825 -91 
Q 1566 -91 1281 -36 
Q 997 19 666 128 
L 666 722 
Q 988 556 1281 473 
Q 1575 391 1838 391 
Q 2219 391 2428 545 
Q 2638 700 2638 978 
Q 2638 1378 1872 1531 
L 1847 1538 
L 1631 1581 
Q 1134 1678 906 1908 
Q 678 2138 678 2534 
Q 678 3038 1018 3311 
Q 1359 3584 1991 3584 
Q 2272 3584 2531 3532 
Q 2791 3481 3041 3378 
z
" transform="scale(0.015625)"/>
       <path id="DejaVuSansMono-20" transform="scale(0.015625)"/>
       <path id="DejaVuSansMono-28" d="M 2766 4856 
Q 2350 4144 2145 3436 
Q 1941 2728 1941 2009 
Q 1941 1294 2145 584 
Q 2350 -125 2766 -844 
L 2266 -844 
Q 1794 -100 1562 604 
Q 1331 1309 1331 2009 
Q 1331 2706 1562 3412 
Q 1794 4119 2266 4856 
L 2766 4856 
z
" transform="scale(0.015625)"/>
       <path id="DejaVuSansMono-29" d="M 1088 4856 
L 1588 4856 
Q 2059 4119 2290 3412 
Q 2522 2706 2522 2009 
Q 2522 1306 2290 600 
Q 2059 -106 1588 -844 
L 1088 -844 
Q 1503 -119 1708 590 
Q 1913 1300 1913 2009 
Q 1913 2722 1708 3431 
Q 1503 4141 1088 4856 
z
" transform="scale(0.015625)"/>
      </defs>
      <use xlink:href="#DejaVuSansMono-67"/>
      <use xlink:href="#DejaVuSansMono-5f" transform="translate(60.205078 0)"/>
      <use xlink:href="#DejaVuSansMono-6d" transform="translate(120.410156 0)"/>
      <use xlink:href="#DejaVuSansMono-73" transform="translate(180.615234 0)"/>
      <use xlink:href="#DejaVuSansMono-20" transform="translate(240.820312 0)"/>
      <use xlink:href="#DejaVuSansMono-28" transform="translate(301.025391 0)"/>
      <use xlink:href="#DejaVuSansMono-6d" transform="translate(361.230469 0)"/>
      <use xlink:href="#DejaVuSansMono-73" transform="translate(421.435547 0)"/>
      <use xlink:href="#DejaVuSansMono-29" transform="translate(481.640625 0)"/>
     </g>
    </g>
   </g>
   <g id="line2d_6">
    <path d="M 7.2 111.700385 
L 807.619483 111.700385 
" clip-path="url(#p9e06f2b268)" style="fill: none; stroke: #c8d8e2; stroke-width: 2; stroke-linecap: square"/>
   </g>
   <g id="line2d_7">
    <path d="M 202.13611 116.344846 
L 202.13611 107.055923 
" clip-path="url(#p9e06f2b268)" style="fill: none; stroke: #c8d8e2; stroke-width: 1.2; stroke-linecap: square"/>
   </g>
   <g id="line2d_8">
    <path d="M 231.671885 116.344846 
L 231.671885 107.055923 
" clip-path="url(#p9e06f2b268)" style="fill: none; stroke: #c8d8e2; stroke-width: 1.2; stroke-linecap: square"/>
   </g>
   <g id="line2d_9">
    <path d="M 261.207659 116.344846 
L 261.207659 107.055923 
" clip-path="url(#p9e06f2b268)" style="fill: none; stroke: #c8d8e2; stroke-width: 1.2; stroke-linecap: square"/>
   </g>
   <g id="line2d_10">
    <path d="M 290.743433 116.344846 
L 290.743433 107.055923 
" clip-path="url(#p9e06f2b268)" style="fill: none; stroke: #c8d8e2; stroke-width: 1.2; stroke-linecap: square"/>
   </g>
   <g id="line2d_11">
    <path d="M 320.279208 116.344846 
L 320.279208 107.055923 
" clip-path="url(#p9e06f2b268)" style="fill: none; stroke: #c8d8e2; stroke-width: 1.2; stroke-linecap: square"/>
   </g>
   <g id="line2d_12">
    <path d="M 349.814982 116.344846 
L 349.814982 107.055923 
" clip-path="url(#p9e06f2b268)" style="fill: none; stroke: #c8d8e2; stroke-width: 1.2; stroke-linecap: square"/>
   </g>
   <g id="line2d_13">
    <path d="M 379.350756 116.344846 
L 379.350756 107.055923 
" clip-path="url(#p9e06f2b268)" style="fill: none; stroke: #c8d8e2; stroke-width: 1.2; stroke-linecap: square"/>
   </g>
   <g id="line2d_14">
    <path d="M 408.88653 116.344846 
L 408.88653 107.055923 
" clip-path="url(#p9e06f2b268)" style="fill: none; stroke: #c8d8e2; stroke-width: 1.2; stroke-linecap: square"/>
   </g>
   <g id="line2d_15">
    <path d="M 438.422305 116.344846 
L 438.422305 107.055923 
" clip-path="url(#p9e06f2b268)" style="fill: none; stroke: #c8d8e2; stroke-width: 1.2; stroke-linecap: square"/>
   </g>
   <g id="line2d_16">
    <path d="M 467.958079 116.344846 
L 467.958079 107.055923 
" clip-path="url(#p9e06f2b268)" style="fill: none; stroke: #c8d8e2; stroke-width: 1.2; stroke-linecap: square"/>
   </g>
   <g id="line2d_17">
    <path d="M 497.493853 116.344846 
L 497.493853 107.055923 
" clip-path="url(#p9e06f2b268)" style="fill: none; stroke: #c8d8e2; stroke-width: 1.2; stroke-linecap: square"/>
   </g>
   <g id="line2d_18">
    <path d="M 527.029628 116.344846 
L 527.029628 107.055923 
" clip-path="url(#p9e06f2b268)" style="fill: none; stroke: #c8d8e2; stroke-width: 1.2; stroke-linecap: square"/>
   </g>
   <g id="line2d_19">
    <path d="M 556.565402 116.344846 
L 556.565402 107.055923 
" clip-path="url(#p9e06f2b268)" style="fill: none; stroke: #c8d8e2; stroke-width: 1.2; stroke-linecap: square"/>
   </g>
   <g id="line2d_20">
    <path d="M 586.101176 116.344846 
L 586.101176 107.055923 
" clip-path="url(#p9e06f2b268)" style="fill: none; stroke: #c8d8e2; stroke-width: 1.2; stroke-linecap: square"/>
   </g>
   <g id="line2d_21">
    <path d="M 615.63695 116.344846 
L 615.63695 107.055923 
" clip-path="url(#p9e06f2b268)" style="fill: none; stroke: #c8d8e2; stroke-width: 1.2; stroke-linecap: square"/>
   </g>
   <g id="line2d_22">
    <path d="M 645.172725 116.344846 
L 645.172725 107.055923 
" clip-path="url(#p9e06f2b268)" style="fill: none; stroke: #c8d8e2; stroke-width: 1.2; stroke-linecap: square"/>
   </g>
   <g id="line2d_23">
    <path d="M 674.708499 116.344846 
L 674.708499 107.055923 
" clip-path="url(#p9e06f2b268)" style="fill: none; stroke: #c8d8e2; stroke-width: 1.2; stroke-linecap: square"/>
   </g>
   <g id="line2d_24">
    <path d="M 704.244273 116.344846 
L 704.244273 107.055923 
" clip-path="url(#p9e06f2b268)" style="fill: none; stroke: #c8d8e2; stroke-width: 1.2; stroke-linecap: square"/>
   </g>
   <g id="line2d_25">
    <path d="M 733.780048 116.344846 
L 733.780048 107.055923 
" clip-path="url(#p9e06f2b268)" style="fill: none; stroke: #c8d8e2; stroke-width: 1.2; stroke-linecap: square"/>
   </g>
   <g id="line2d_26">
    <path d="M 763.315822 116.344846 
L 763.315822 107.055923 
" clip-path="url(#p9e06f2b268)" style="fill: none; stroke: #c8d8e2; stroke-width: 1.2; stroke-linecap: square"/>
   </g>
   <g id="line2d_27">
    <path d="M 792.851596 116.344846 
L 792.851596 107.055923 
" clip-path="url(#p9e06f2b268)" style="fill: none; stroke: #c8d8e2; stroke-width: 1.2; stroke-linecap: square"/>
   </g>
   <g id="line2d_28">
    <path d="M 202.13611 69.126154 
" clip-path="url(#p9e06f2b268)" style="fill: none; stroke: #3f7f58; stroke-width: 1.5; stroke-linecap: square"/>
    <defs>
     <path id="mf8692cd39f" d="M 0 4.5 
C 1.193414 4.5 2.338109 4.025852 3.181981 3.181981 
C 4.025852 2.338109 4.5 1.193414 4.5 0 
C 4.5 -1.193414 4.025852 -2.338109 3.181981 -3.181981 
C 2.338109 -4.025852 1.193414 -4.5 0 -4.5 
C -1.193414 -4.5 -2.338109 -4.025852 -3.181981 -3.181981 
C -4.025852 -2.338109 -4.5 -1.193414 -4.5 0 
C -4.5 1.193414 -4.025852 2.338109 -3.181981 3.181981 
C -2.338109 4.025852 -1.193414 4.5 0 4.5 
z
" style="stroke: #3f7f58"/>
    </defs>
    <g clip-path="url(#p9e06f2b268)">
     <use xlink:href="#mf8692cd39f" x="202.13611" y="69.126154" style="fill: #3f7f58; stroke: #3f7f58"/>
    </g>
   </g>
   <g id="line2d_29">
    <path d="M 202.13611 107.055923 
L 202.13611 77.641 
" clip-path="url(#p9e06f2b268)" style="fill: none; stroke: #3f7f58; stroke-opacity: 0.4; stroke-linecap: square"/>
   </g>
   <g id="line2d_30">
    <path d="M 261.207659 69.126154 
" clip-path="url(#p9e06f2b268)" style="fill: none; stroke: #3f7f58; stroke-width: 1.5; stroke-linecap: square"/>
    <g clip-path="url(#p9e06f2b268)">
     <use xlink:href="#mf8692cd39f" x="261.207659" y="69.126154" style="fill: #3f7f58; stroke: #3f7f58"/>
    </g>
   </g>
   <g id="line2d_31">
    <path d="M 261.207659 107.055923 
L 261.207659 77.641 
" clip-path="url(#p9e06f2b268)" style="fill: none; stroke: #3f7f58; stroke-opacity: 0.4; stroke-linecap: square"/>
   </g>
   <g id="line2d_32">
    <path d="M 320.279208 69.126154 
" clip-path="url(#p9e06f2b268)" style="fill: none; stroke: #3f7f58; stroke-width: 1.5; stroke-linecap: square"/>
    <g clip-path="url(#p9e06f2b268)">
     <use xlink:href="#mf8692cd39f" x="320.279208" y="69.126154" style="fill: #3f7f58; stroke: #3f7f58"/>
    </g>
   </g>
   <g id="line2d_33">
    <path d="M 320.279208 107.055923 
L 320.279208 77.641 
" clip-path="url(#p9e06f2b268)" style="fill: none; stroke: #3f7f58; stroke-opacity: 0.4; stroke-linecap: square"/>
   </g>
   <g id="line2d_34">
    <path d="M 379.350756 69.126154 
" clip-path="url(#p9e06f2b268)" style="fill: none; stroke: #3f7f58; stroke-width: 1.5; stroke-linecap: square"/>
    <g clip-path="url(#p9e06f2b268)">
     <use xlink:href="#mf8692cd39f" x="379.350756" y="69.126154" style="fill: #3f7f58; stroke: #3f7f58"/>
    </g>
   </g>
   <g id="line2d_35">
    <path d="M 379.350756 107.055923 
L 379.350756 77.641 
" clip-path="url(#p9e06f2b268)" style="fill: none; stroke: #3f7f58; stroke-opacity: 0.4; stroke-linecap: square"/>
   </g>
   <g id="line2d_36">
    <path d="M 438.422305 69.126154 
" clip-path="url(#p9e06f2b268)" style="fill: none; stroke: #3f7f58; stroke-width: 1.5; stroke-linecap: square"/>
    <g clip-path="url(#p9e06f2b268)">
     <use xlink:href="#mf8692cd39f" x="438.422305" y="69.126154" style="fill: #3f7f58; stroke: #3f7f58"/>
    </g>
   </g>
   <g id="line2d_37">
    <path d="M 438.422305 107.055923 
L 438.422305 77.641 
" clip-path="url(#p9e06f2b268)" style="fill: none; stroke: #3f7f58; stroke-opacity: 0.4; stroke-linecap: square"/>
   </g>
   <g id="line2d_38">
    <path d="M 497.493853 69.126154 
" clip-path="url(#p9e06f2b268)" style="fill: none; stroke: #3f7f58; stroke-width: 1.5; stroke-linecap: square"/>
    <g clip-path="url(#p9e06f2b268)">
     <use xlink:href="#mf8692cd39f" x="497.493853" y="69.126154" style="fill: #3f7f58; stroke: #3f7f58"/>
    </g>
   </g>
   <g id="line2d_39">
    <path d="M 497.493853 107.055923 
L 497.493853 77.641 
" clip-path="url(#p9e06f2b268)" style="fill: none; stroke: #3f7f58; stroke-opacity: 0.4; stroke-linecap: square"/>
   </g>
   <g id="line2d_40">
    <path d="M 556.565402 69.126154 
" clip-path="url(#p9e06f2b268)" style="fill: none; stroke: #3f7f58; stroke-width: 1.5; stroke-linecap: square"/>
    <g clip-path="url(#p9e06f2b268)">
     <use xlink:href="#mf8692cd39f" x="556.565402" y="69.126154" style="fill: #3f7f58; stroke: #3f7f58"/>
    </g>
   </g>
   <g id="line2d_41">
    <path d="M 556.565402 107.055923 
L 556.565402 77.641 
" clip-path="url(#p9e06f2b268)" style="fill: none; stroke: #3f7f58; stroke-opacity: 0.4; stroke-linecap: square"/>
   </g>
   <g id="line2d_42">
    <path d="M 615.63695 69.126154 
" clip-path="url(#p9e06f2b268)" style="fill: none; stroke: #3f7f58; stroke-width: 1.5; stroke-linecap: square"/>
    <g clip-path="url(#p9e06f2b268)">
     <use xlink:href="#mf8692cd39f" x="615.63695" y="69.126154" style="fill: #3f7f58; stroke: #3f7f58"/>
    </g>
   </g>
   <g id="line2d_43">
    <path d="M 615.63695 107.055923 
L 615.63695 77.641 
" clip-path="url(#p9e06f2b268)" style="fill: none; stroke: #3f7f58; stroke-opacity: 0.4; stroke-linecap: square"/>
   </g>
   <g id="line2d_44">
    <path d="M 674.708499 69.126154 
" clip-path="url(#p9e06f2b268)" style="fill: none; stroke: #3f7f58; stroke-width: 1.5; stroke-linecap: square"/>
    <g clip-path="url(#p9e06f2b268)">
     <use xlink:href="#mf8692cd39f" x="674.708499" y="69.126154" style="fill: #3f7f58; stroke: #3f7f58"/>
    </g>
   </g>
   <g id="line2d_45">
    <path d="M 674.708499 107.055923 
L 674.708499 77.641 
" clip-path="url(#p9e06f2b268)" style="fill: none; stroke: #3f7f58; stroke-opacity: 0.4; stroke-linecap: square"/>
   </g>
   <g id="line2d_46">
    <path d="M 733.780048 69.126154 
" clip-path="url(#p9e06f2b268)" style="fill: none; stroke: #3f7f58; stroke-width: 1.5; stroke-linecap: square"/>
    <g clip-path="url(#p9e06f2b268)">
     <use xlink:href="#mf8692cd39f" x="733.780048" y="69.126154" style="fill: #3f7f58; stroke: #3f7f58"/>
    </g>
   </g>
   <g id="line2d_47">
    <path d="M 733.780048 107.055923 
L 733.780048 77.641 
" clip-path="url(#p9e06f2b268)" style="fill: none; stroke: #3f7f58; stroke-opacity: 0.4; stroke-linecap: square"/>
   </g>
   <g id="line2d_48">
    <path d="M 792.851596 69.126154 
" clip-path="url(#p9e06f2b268)" style="fill: none; stroke: #3f7f58; stroke-width: 1.5; stroke-linecap: square"/>
    <g clip-path="url(#p9e06f2b268)">
     <use xlink:href="#mf8692cd39f" x="792.851596" y="69.126154" style="fill: #3f7f58; stroke: #3f7f58"/>
    </g>
   </g>
   <g id="line2d_49">
    <path d="M 792.851596 107.055923 
L 792.851596 77.641 
" clip-path="url(#p9e06f2b268)" style="fill: none; stroke: #3f7f58; stroke-opacity: 0.4; stroke-linecap: square"/>
   </g>
   <g id="line2d_50">
    <path d="M 202.13611 30.422308 
" clip-path="url(#p9e06f2b268)" style="fill: none; stroke: #174f73; stroke-width: 1.5; stroke-linecap: square"/>
    <defs>
     <path id="me2a988925a" d="M 0 -6 
L -6 6 
L 6 6 
z
" style="stroke: #174f73; stroke-linejoin: miter"/>
    </defs>
    <g clip-path="url(#p9e06f2b268)">
     <use xlink:href="#me2a988925a" x="202.13611" y="30.422308" style="fill: #174f73; stroke: #174f73; stroke-linejoin: miter"/>
    </g>
   </g>
   <g id="line2d_51">
    <path d="M 202.13611 107.055923 
L 202.13611 38.937154 
" clip-path="url(#p9e06f2b268)" style="fill: none; stroke: #174f73; stroke-opacity: 0.4; stroke-linecap: square"/>
   </g>
   <g id="line2d_52">
    <path d="M 497.493853 30.422308 
" clip-path="url(#p9e06f2b268)" style="fill: none; stroke: #174f73; stroke-width: 1.5; stroke-linecap: square"/>
    <g clip-path="url(#p9e06f2b268)">
     <use xlink:href="#me2a988925a" x="497.493853" y="30.422308" style="fill: #174f73; stroke: #174f73; stroke-linejoin: miter"/>
    </g>
   </g>
   <g id="line2d_53">
    <path d="M 497.493853 107.055923 
L 497.493853 38.937154 
" clip-path="url(#p9e06f2b268)" style="fill: none; stroke: #174f73; stroke-opacity: 0.4; stroke-linecap: square"/>
   </g>
   <g id="line2d_54">
    <path d="M 792.851596 30.422308 
" clip-path="url(#p9e06f2b268)" style="fill: none; stroke: #174f73; stroke-width: 1.5; stroke-linecap: square"/>
    <g clip-path="url(#p9e06f2b268)">
     <use xlink:href="#me2a988925a" x="792.851596" y="30.422308" style="fill: #174f73; stroke: #174f73; stroke-linejoin: miter"/>
    </g>
   </g>
   <g id="line2d_55">
    <path d="M 792.851596 107.055923 
L 792.851596 38.937154 
" clip-path="url(#p9e06f2b268)" style="fill: none; stroke: #174f73; stroke-opacity: 0.4; stroke-linecap: square"/>
   </g>
   <g id="patch_3">
    <path d="M 7.2 158.145 
L 807.619483 158.145 
" style="fill: none; stroke: #c8d8e2; stroke-width: 0.8; stroke-linejoin: miter; stroke-linecap: square"/>
   </g>
   <g id="text_7">
    <!-- LED toggle -->
    <g style="fill: #174f73" transform="translate(92.670896 26.045823) scale(0.15 -0.15)">
     <defs>
      <path id="DejaVuSans-Bold-4c" d="M 588 4666 
L 1791 4666 
L 1791 909 
L 3903 909 
L 3903 0 
L 588 0 
L 588 4666 
z
" transform="scale(0.015625)"/>
      <path id="DejaVuSans-Bold-45" d="M 588 4666 
L 3834 4666 
L 3834 3756 
L 1791 3756 
L 1791 2888 
L 3713 2888 
L 3713 1978 
L 1791 1978 
L 1791 909 
L 3903 909 
L 3903 0 
L 588 0 
L 588 4666 
z
" transform="scale(0.015625)"/>
      <path id="DejaVuSans-Bold-44" d="M 1791 3756 
L 1791 909 
L 2222 909 
Q 2959 909 3348 1275 
Q 3738 1641 3738 2338 
Q 3738 3031 3350 3393 
Q 2963 3756 2222 3756 
L 1791 3756 
z
M 588 4666 
L 1856 4666 
Q 2919 4666 3439 4514 
Q 3959 4363 4331 4000 
Q 4659 3684 4818 3271 
Q 4978 2859 4978 2338 
Q 4978 1809 4818 1395 
Q 4659 981 4331 666 
Q 3956 303 3431 151 
Q 2906 0 1856 0 
L 588 0 
L 588 4666 
z
" transform="scale(0.015625)"/>
      <path id="DejaVuSans-Bold-20" transform="scale(0.015625)"/>
      <path id="DejaVuSans-Bold-74" d="M 1759 4494 
L 1759 3500 
L 2913 3500 
L 2913 2700 
L 1759 2700 
L 1759 1216 
Q 1759 972 1856 886 
Q 1953 800 2241 800 
L 2816 800 
L 2816 0 
L 1856 0 
Q 1194 0 917 276 
Q 641 553 641 1216 
L 641 2700 
L 84 2700 
L 84 3500 
L 641 3500 
L 641 4494 
L 1759 4494 
z
" transform="scale(0.015625)"/>
      <path id="DejaVuSans-Bold-6f" d="M 2203 2784 
Q 1831 2784 1636 2517 
Q 1441 2250 1441 1747 
Q 1441 1244 1636 976 
Q 1831 709 2203 709 
Q 2569 709 2762 976 
Q 2956 1244 2956 1747 
Q 2956 2250 2762 2517 
Q 2569 2784 2203 2784 
z
M 2203 3584 
Q 3106 3584 3614 3096 
Q 4122 2609 4122 1747 
Q 4122 884 3614 396 
Q 3106 -91 2203 -91 
Q 1297 -91 786 396 
Q 275 884 275 1747 
Q 275 2609 786 3096 
Q 1297 3584 2203 3584 
z
" transform="scale(0.015625)"/>
      <path id="DejaVuSans-Bold-67" d="M 2919 594 
Q 2688 288 2409 144 
Q 2131 0 1766 0 
Q 1125 0 706 504 
Q 288 1009 288 1791 
Q 288 2575 706 3076 
Q 1125 3578 1766 3578 
Q 2131 3578 2409 3434 
Q 2688 3291 2919 2981 
L 2919 3500 
L 4044 3500 
L 4044 353 
Q 4044 -491 3511 -936 
Q 2978 -1381 1966 -1381 
Q 1638 -1381 1331 -1331 
Q 1025 -1281 716 -1178 
L 716 -306 
Q 1009 -475 1290 -558 
Q 1572 -641 1856 -641 
Q 2406 -641 2662 -400 
Q 2919 -159 2919 353 
L 2919 594 
z
M 2181 2772 
Q 1834 2772 1640 2515 
Q 1447 2259 1447 1791 
Q 1447 1309 1634 1061 
Q 1822 813 2181 813 
Q 2531 813 2725 1069 
Q 2919 1325 2919 1791 
Q 2919 2259 2725 2515 
Q 2531 2772 2181 2772 
z
" transform="scale(0.015625)"/>
      <path id="DejaVuSans-Bold-6c" d="M 538 4863 
L 1656 4863 
L 1656 0 
L 538 0 
L 538 4863 
z
" transform="scale(0.015625)"/>
      <path id="DejaVuSans-Bold-65" d="M 4031 1759 
L 4031 1441 
L 1416 1441 
Q 1456 1047 1700 850 
Q 1944 653 2381 653 
Q 2734 653 3104 758 
Q 3475 863 3866 1075 
L 3866 213 
Q 3469 63 3072 -14 
Q 2675 -91 2278 -91 
Q 1328 -91 801 392 
Q 275 875 275 1747 
Q 275 2603 792 3093 
Q 1309 3584 2216 3584 
Q 3041 3584 3536 3087 
Q 4031 2591 4031 1759 
z
M 2881 2131 
Q 2881 2450 2695 2645 
Q 2509 2841 2209 2841 
Q 1884 2841 1681 2658 
Q 1478 2475 1428 2131 
L 2881 2131 
z
" transform="scale(0.015625)"/>
     </defs>
     <use xlink:href="#DejaVuSans-Bold-4c"/>
     <use xlink:href="#DejaVuSans-Bold-45" transform="translate(63.720703 0)"/>
     <use xlink:href="#DejaVuSans-Bold-44" transform="translate(132.03125 0)"/>
     <use xlink:href="#DejaVuSans-Bold-20" transform="translate(215.039062 0)"/>
     <use xlink:href="#DejaVuSans-Bold-74" transform="translate(249.853516 0)"/>
     <use xlink:href="#DejaVuSans-Bold-6f" transform="translate(297.65625 0)"/>
     <use xlink:href="#DejaVuSans-Bold-67" transform="translate(366.357422 0)"/>
     <use xlink:href="#DejaVuSans-Bold-67" transform="translate(437.939453 0)"/>
     <use xlink:href="#DejaVuSans-Bold-6c" transform="translate(509.521484 0)"/>
     <use xlink:href="#DejaVuSans-Bold-65" transform="translate(543.798828 0)"/>
    </g>
    <!-- every 500 ms -->
    <g style="fill: #174f73" transform="translate(70.801365 42.95973) scale(0.15 -0.15)">
     <defs>
      <path id="DejaVuSans-Bold-76" d="M 97 3500 
L 1216 3500 
L 2088 1081 
L 2956 3500 
L 4078 3500 
L 2700 0 
L 1472 0 
L 97 3500 
z
" transform="scale(0.015625)"/>
      <path id="DejaVuSans-Bold-72" d="M 3138 2547 
Q 2991 2616 2845 2648 
Q 2700 2681 2553 2681 
Q 2122 2681 1889 2404 
Q 1656 2128 1656 1613 
L 1656 0 
L 538 0 
L 538 3500 
L 1656 3500 
L 1656 2925 
Q 1872 3269 2151 3426 
Q 2431 3584 2822 3584 
Q 2878 3584 2943 3579 
Q 3009 3575 3134 3559 
L 3138 2547 
z
" transform="scale(0.015625)"/>
      <path id="DejaVuSans-Bold-79" d="M 78 3500 
L 1197 3500 
L 2138 1125 
L 2938 3500 
L 4056 3500 
L 2584 -331 
Q 2363 -916 2067 -1148 
Q 1772 -1381 1288 -1381 
L 641 -1381 
L 641 -647 
L 991 -647 
Q 1275 -647 1404 -556 
Q 1534 -466 1606 -231 
L 1638 -134 
L 78 3500 
z
" transform="scale(0.015625)"/>
      <path id="DejaVuSans-Bold-35" d="M 678 4666 
L 3669 4666 
L 3669 3781 
L 1638 3781 
L 1638 3059 
Q 1775 3097 1914 3117 
Q 2053 3138 2203 3138 
Q 3056 3138 3531 2711 
Q 4006 2284 4006 1522 
Q 4006 766 3489 337 
Q 2972 -91 2053 -91 
Q 1656 -91 1267 -14 
Q 878 63 494 219 
L 494 1166 
Q 875 947 1217 837 
Q 1559 728 1863 728 
Q 2300 728 2551 942 
Q 2803 1156 2803 1522 
Q 2803 1891 2551 2103 
Q 2300 2316 1863 2316 
Q 1603 2316 1309 2248 
Q 1016 2181 678 2041 
L 678 4666 
z
" transform="scale(0.015625)"/>
      <path id="DejaVuSans-Bold-30" d="M 2944 2338 
Q 2944 3213 2780 3570 
Q 2616 3928 2228 3928 
Q 1841 3928 1675 3570 
Q 1509 3213 1509 2338 
Q 1509 1453 1675 1090 
Q 1841 728 2228 728 
Q 2613 728 2778 1090 
Q 2944 1453 2944 2338 
z
M 4147 2328 
Q 4147 1169 3647 539 
Q 3147 -91 2228 -91 
Q 1306 -91 806 539 
Q 306 1169 306 2328 
Q 306 3491 806 4120 
Q 1306 4750 2228 4750 
Q 3147 4750 3647 4120 
Q 4147 3491 4147 2328 
z
" transform="scale(0.015625)"/>
      <path id="DejaVuSans-Bold-6d" d="M 3781 2919 
Q 3994 3244 4286 3414 
Q 4578 3584 4928 3584 
Q 5531 3584 5847 3212 
Q 6163 2841 6163 2131 
L 6163 0 
L 5038 0 
L 5038 1825 
Q 5041 1866 5042 1909 
Q 5044 1953 5044 2034 
Q 5044 2406 4934 2573 
Q 4825 2741 4581 2741 
Q 4263 2741 4089 2478 
Q 3916 2216 3909 1719 
L 3909 0 
L 2784 0 
L 2784 1825 
Q 2784 2406 2684 2573 
Q 2584 2741 2328 2741 
Q 2006 2741 1831 2477 
Q 1656 2213 1656 1722 
L 1656 0 
L 531 0 
L 531 3500 
L 1656 3500 
L 1656 2988 
Q 1863 3284 2130 3434 
Q 2397 3584 2719 3584 
Q 3081 3584 3359 3409 
Q 3638 3234 3781 2919 
z
" transform="scale(0.015625)"/>
      <path id="DejaVuSans-Bold-73" d="M 3272 3391 
L 3272 2541 
Q 2913 2691 2578 2766 
Q 2244 2841 1947 2841 
Q 1628 2841 1473 2761 
Q 1319 2681 1319 2516 
Q 1319 2381 1436 2309 
Q 1553 2238 1856 2203 
L 2053 2175 
Q 2913 2066 3209 1816 
Q 3506 1566 3506 1031 
Q 3506 472 3093 190 
Q 2681 -91 1863 -91 
Q 1516 -91 1145 -36 
Q 775 19 384 128 
L 384 978 
Q 719 816 1070 734 
Q 1422 653 1784 653 
Q 2113 653 2278 743 
Q 2444 834 2444 1013 
Q 2444 1163 2330 1236 
Q 2216 1309 1875 1350 
L 1678 1375 
Q 931 1469 631 1722 
Q 331 1975 331 2491 
Q 331 3047 712 3315 
Q 1094 3584 1881 3584 
Q 2191 3584 2531 3537 
Q 2872 3491 3272 3391 
z
" transform="scale(0.015625)"/>
     </defs>
     <use xlink:href="#DejaVuSans-Bold-65"/>
     <use xlink:href="#DejaVuSans-Bold-76" transform="translate(67.822266 0)"/>
     <use xlink:href="#DejaVuSans-Bold-65" transform="translate(133.007812 0)"/>
     <use xlink:href="#DejaVuSans-Bold-72" transform="translate(200.830078 0)"/>
     <use xlink:href="#DejaVuSans-Bold-79" transform="translate(250.146484 0)"/>
     <use xlink:href="#DejaVuSans-Bold-20" transform="translate(315.332031 0)"/>
     <use xlink:href="#DejaVuSans-Bold-35" transform="translate(350.146484 0)"/>
     <use xlink:href="#DejaVuSans-Bold-30" transform="translate(419.726562 0)"/>
     <use xlink:href="#DejaVuSans-Bold-30" transform="translate(489.306641 0)"/>
     <use xlink:href="#DejaVuSans-Bold-20" transform="translate(558.886719 0)"/>
     <use xlink:href="#DejaVuSans-Bold-6d" transform="translate(593.701172 0)"/>
     <use xlink:href="#DejaVuSans-Bold-73" transform="translate(697.900391 0)"/>
    </g>
   </g>
   <g id="text_8">
    <!-- sensor read -->
    <g style="fill: #3f7f58" transform="translate(84.352927 64.808263) scale(0.15 -0.15)">
     <defs>
      <path id="DejaVuSans-Bold-6e" d="M 4056 2131 
L 4056 0 
L 2931 0 
L 2931 347 
L 2931 1631 
Q 2931 2084 2911 2256 
Q 2891 2428 2841 2509 
Q 2775 2619 2662 2680 
Q 2550 2741 2406 2741 
Q 2056 2741 1856 2470 
Q 1656 2200 1656 1722 
L 1656 0 
L 538 0 
L 538 3500 
L 1656 3500 
L 1656 2988 
Q 1909 3294 2193 3439 
Q 2478 3584 2822 3584 
Q 3428 3584 3742 3212 
Q 4056 2841 4056 2131 
z
" transform="scale(0.015625)"/>
      <path id="DejaVuSans-Bold-61" d="M 2106 1575 
Q 1756 1575 1579 1456 
Q 1403 1338 1403 1106 
Q 1403 894 1545 773 
Q 1688 653 1941 653 
Q 2256 653 2472 879 
Q 2688 1106 2688 1447 
L 2688 1575 
L 2106 1575 
z
M 3816 1997 
L 3816 0 
L 2688 0 
L 2688 519 
Q 2463 200 2181 54 
Q 1900 -91 1497 -91 
Q 953 -91 614 226 
Q 275 544 275 1050 
Q 275 1666 698 1953 
Q 1122 2241 2028 2241 
L 2688 2241 
L 2688 2328 
Q 2688 2594 2478 2717 
Q 2269 2841 1825 2841 
Q 1466 2841 1156 2769 
Q 847 2697 581 2553 
L 581 3406 
Q 941 3494 1303 3539 
Q 1666 3584 2028 3584 
Q 2975 3584 3395 3211 
Q 3816 2838 3816 1997 
z
" transform="scale(0.015625)"/>
      <path id="DejaVuSans-Bold-64" d="M 2919 2988 
L 2919 4863 
L 4044 4863 
L 4044 0 
L 2919 0 
L 2919 506 
Q 2688 197 2409 53 
Q 2131 -91 1766 -91 
Q 1119 -91 703 423 
Q 288 938 288 1747 
Q 288 2556 703 3070 
Q 1119 3584 1766 3584 
Q 2128 3584 2408 3439 
Q 2688 3294 2919 2988 
z
M 2181 722 
Q 2541 722 2730 984 
Q 2919 1247 2919 1747 
Q 2919 2247 2730 2509 
Q 2541 2772 2181 2772 
Q 1825 2772 1636 2509 
Q 1447 2247 1447 1747 
Q 1447 1247 1636 984 
Q 1825 722 2181 722 
z
" transform="scale(0.015625)"/>
     </defs>
     <use xlink:href="#DejaVuSans-Bold-73"/>
     <use xlink:href="#DejaVuSans-Bold-65" transform="translate(59.521484 0)"/>
     <use xlink:href="#DejaVuSans-Bold-6e" transform="translate(127.34375 0)"/>
     <use xlink:href="#DejaVuSans-Bold-73" transform="translate(198.535156 0)"/>
     <use xlink:href="#DejaVuSans-Bold-6f" transform="translate(258.056641 0)"/>
     <use xlink:href="#DejaVuSans-Bold-72" transform="translate(326.757812 0)"/>
     <use xlink:href="#DejaVuSans-Bold-20" transform="translate(376.074219 0)"/>
     <use xlink:href="#DejaVuSans-Bold-72" transform="translate(410.888672 0)"/>
     <use xlink:href="#DejaVuSans-Bold-65" transform="translate(460.205078 0)"/>
     <use xlink:href="#DejaVuSans-Bold-61" transform="translate(528.027344 0)"/>
     <use xlink:href="#DejaVuSans-Bold-64" transform="translate(595.507812 0)"/>
    </g>
    <!-- every 100 ms -->
    <g style="fill: #3f7f58" transform="translate(70.801365 81.604982) scale(0.15 -0.15)">
     <defs>
      <path id="DejaVuSans-Bold-31" d="M 750 831 
L 1813 831 
L 1813 3847 
L 722 3622 
L 722 4441 
L 1806 4666 
L 2950 4666 
L 2950 831 
L 4013 831 
L 4013 0 
L 750 0 
L 750 831 
z
" transform="scale(0.015625)"/>
     </defs>
     <use xlink:href="#DejaVuSans-Bold-65"/>
     <use xlink:href="#DejaVuSans-Bold-76" transform="translate(67.822266 0)"/>
     <use xlink:href="#DejaVuSans-Bold-65" transform="translate(133.007812 0)"/>
     <use xlink:href="#DejaVuSans-Bold-72" transform="translate(200.830078 0)"/>
     <use xlink:href="#DejaVuSans-Bold-79" transform="translate(250.146484 0)"/>
     <use xlink:href="#DejaVuSans-Bold-20" transform="translate(315.332031 0)"/>
     <use xlink:href="#DejaVuSans-Bold-31" transform="translate(350.146484 0)"/>
     <use xlink:href="#DejaVuSans-Bold-30" transform="translate(419.726562 0)"/>
     <use xlink:href="#DejaVuSans-Bold-30" transform="translate(489.306641 0)"/>
     <use xlink:href="#DejaVuSans-Bold-20" transform="translate(558.886719 0)"/>
     <use xlink:href="#DejaVuSans-Bold-6d" transform="translate(593.701172 0)"/>
     <use xlink:href="#DejaVuSans-Bold-73" transform="translate(697.900391 0)"/>
    </g>
   </g>
   <g id="text_9">
    <!-- one g_ms counter — every interval is a subtraction against it -->
    <g style="fill: #5a6b76" transform="translate(268.055963 144.211615) scale(0.15 -0.15)">
     <defs>
      <path id="DejaVuSans-6f" d="M 1959 3097 
Q 1497 3097 1228 2736 
Q 959 2375 959 1747 
Q 959 1119 1226 758 
Q 1494 397 1959 397 
Q 2419 397 2687 759 
Q 2956 1122 2956 1747 
Q 2956 2369 2687 2733 
Q 2419 3097 1959 3097 
z
M 1959 3584 
Q 2709 3584 3137 3096 
Q 3566 2609 3566 1747 
Q 3566 888 3137 398 
Q 2709 -91 1959 -91 
Q 1206 -91 779 398 
Q 353 888 353 1747 
Q 353 2609 779 3096 
Q 1206 3584 1959 3584 
z
" transform="scale(0.015625)"/>
      <path id="DejaVuSans-6e" d="M 3513 2113 
L 3513 0 
L 2938 0 
L 2938 2094 
Q 2938 2591 2744 2837 
Q 2550 3084 2163 3084 
Q 1697 3084 1428 2787 
Q 1159 2491 1159 1978 
L 1159 0 
L 581 0 
L 581 3500 
L 1159 3500 
L 1159 2956 
Q 1366 3272 1645 3428 
Q 1925 3584 2291 3584 
Q 2894 3584 3203 3211 
Q 3513 2838 3513 2113 
z
" transform="scale(0.015625)"/>
      <path id="DejaVuSans-65" d="M 3597 1894 
L 3597 1613 
L 953 1613 
Q 991 1019 1311 708 
Q 1631 397 2203 397 
Q 2534 397 2845 478 
Q 3156 559 3463 722 
L 3463 178 
Q 3153 47 2828 -22 
Q 2503 -91 2169 -91 
Q 1331 -91 842 396 
Q 353 884 353 1716 
Q 353 2575 817 3079 
Q 1281 3584 2069 3584 
Q 2775 3584 3186 3129 
Q 3597 2675 3597 1894 
z
M 3022 2063 
Q 3016 2534 2758 2815 
Q 2500 3097 2075 3097 
Q 1594 3097 1305 2825 
Q 1016 2553 972 2059 
L 3022 2063 
z
" transform="scale(0.015625)"/>
      <path id="DejaVuSans-20" transform="scale(0.015625)"/>
      <path id="DejaVuSans-67" d="M 2906 1791 
Q 2906 2416 2648 2759 
Q 2391 3103 1925 3103 
Q 1463 3103 1205 2759 
Q 947 2416 947 1791 
Q 947 1169 1205 825 
Q 1463 481 1925 481 
Q 2391 481 2648 825 
Q 2906 1169 2906 1791 
z
M 3481 434 
Q 3481 -459 3084 -895 
Q 2688 -1331 1869 -1331 
Q 1566 -1331 1297 -1286 
Q 1028 -1241 775 -1147 
L 775 -588 
Q 1028 -725 1275 -790 
Q 1522 -856 1778 -856 
Q 2344 -856 2625 -561 
Q 2906 -266 2906 331 
L 2906 616 
Q 2728 306 2450 153 
Q 2172 0 1784 0 
Q 1141 0 747 490 
Q 353 981 353 1791 
Q 353 2603 747 3093 
Q 1141 3584 1784 3584 
Q 2172 3584 2450 3431 
Q 2728 3278 2906 2969 
L 2906 3500 
L 3481 3500 
L 3481 434 
z
" transform="scale(0.015625)"/>
      <path id="DejaVuSans-5f" d="M 3263 -1063 
L 3263 -1509 
L -63 -1509 
L -63 -1063 
L 3263 -1063 
z
" transform="scale(0.015625)"/>
      <path id="DejaVuSans-6d" d="M 3328 2828 
Q 3544 3216 3844 3400 
Q 4144 3584 4550 3584 
Q 5097 3584 5394 3201 
Q 5691 2819 5691 2113 
L 5691 0 
L 5113 0 
L 5113 2094 
Q 5113 2597 4934 2840 
Q 4756 3084 4391 3084 
Q 3944 3084 3684 2787 
Q 3425 2491 3425 1978 
L 3425 0 
L 2847 0 
L 2847 2094 
Q 2847 2600 2669 2842 
Q 2491 3084 2119 3084 
Q 1678 3084 1418 2786 
Q 1159 2488 1159 1978 
L 1159 0 
L 581 0 
L 581 3500 
L 1159 3500 
L 1159 2956 
Q 1356 3278 1631 3431 
Q 1906 3584 2284 3584 
Q 2666 3584 2933 3390 
Q 3200 3197 3328 2828 
z
" transform="scale(0.015625)"/>
      <path id="DejaVuSans-73" d="M 2834 3397 
L 2834 2853 
Q 2591 2978 2328 3040 
Q 2066 3103 1784 3103 
Q 1356 3103 1142 2972 
Q 928 2841 928 2578 
Q 928 2378 1081 2264 
Q 1234 2150 1697 2047 
L 1894 2003 
Q 2506 1872 2764 1633 
Q 3022 1394 3022 966 
Q 3022 478 2636 193 
Q 2250 -91 1575 -91 
Q 1294 -91 989 -36 
Q 684 19 347 128 
L 347 722 
Q 666 556 975 473 
Q 1284 391 1588 391 
Q 1994 391 2212 530 
Q 2431 669 2431 922 
Q 2431 1156 2273 1281 
Q 2116 1406 1581 1522 
L 1381 1569 
Q 847 1681 609 1914 
Q 372 2147 372 2553 
Q 372 3047 722 3315 
Q 1072 3584 1716 3584 
Q 2034 3584 2315 3537 
Q 2597 3491 2834 3397 
z
" transform="scale(0.015625)"/>
      <path id="DejaVuSans-63" d="M 3122 3366 
L 3122 2828 
Q 2878 2963 2633 3030 
Q 2388 3097 2138 3097 
Q 1578 3097 1268 2742 
Q 959 2388 959 1747 
Q 959 1106 1268 751 
Q 1578 397 2138 397 
Q 2388 397 2633 464 
Q 2878 531 3122 666 
L 3122 134 
Q 2881 22 2623 -34 
Q 2366 -91 2075 -91 
Q 1284 -91 818 406 
Q 353 903 353 1747 
Q 353 2603 823 3093 
Q 1294 3584 2113 3584 
Q 2378 3584 2631 3529 
Q 2884 3475 3122 3366 
z
" transform="scale(0.015625)"/>
      <path id="DejaVuSans-75" d="M 544 1381 
L 544 3500 
L 1119 3500 
L 1119 1403 
Q 1119 906 1312 657 
Q 1506 409 1894 409 
Q 2359 409 2629 706 
Q 2900 1003 2900 1516 
L 2900 3500 
L 3475 3500 
L 3475 0 
L 2900 0 
L 2900 538 
Q 2691 219 2414 64 
Q 2138 -91 1772 -91 
Q 1169 -91 856 284 
Q 544 659 544 1381 
z
M 1991 3584 
L 1991 3584 
z
" transform="scale(0.015625)"/>
      <path id="DejaVuSans-74" d="M 1172 4494 
L 1172 3500 
L 2356 3500 
L 2356 3053 
L 1172 3053 
L 1172 1153 
Q 1172 725 1289 603 
Q 1406 481 1766 481 
L 2356 481 
L 2356 0 
L 1766 0 
Q 1100 0 847 248 
Q 594 497 594 1153 
L 594 3053 
L 172 3053 
L 172 3500 
L 594 3500 
L 594 4494 
L 1172 4494 
z
" transform="scale(0.015625)"/>
      <path id="DejaVuSans-72" d="M 2631 2963 
Q 2534 3019 2420 3045 
Q 2306 3072 2169 3072 
Q 1681 3072 1420 2755 
Q 1159 2438 1159 1844 
L 1159 0 
L 581 0 
L 581 3500 
L 1159 3500 
L 1159 2956 
Q 1341 3275 1631 3429 
Q 1922 3584 2338 3584 
Q 2397 3584 2469 3576 
Q 2541 3569 2628 3553 
L 2631 2963 
z
" transform="scale(0.015625)"/>
      <path id="DejaVuSans-2014" d="M 313 1978 
L 6088 1978 
L 6088 1528 
L 313 1528 
L 313 1978 
z
" transform="scale(0.015625)"/>
      <path id="DejaVuSans-76" d="M 191 3500 
L 800 3500 
L 1894 563 
L 2988 3500 
L 3597 3500 
L 2284 0 
L 1503 0 
L 191 3500 
z
" transform="scale(0.015625)"/>
      <path id="DejaVuSans-79" d="M 2059 -325 
Q 1816 -950 1584 -1140 
Q 1353 -1331 966 -1331 
L 506 -1331 
L 506 -850 
L 844 -850 
Q 1081 -850 1212 -737 
Q 1344 -625 1503 -206 
L 1606 56 
L 191 3500 
L 800 3500 
L 1894 763 
L 2988 3500 
L 3597 3500 
L 2059 -325 
z
" transform="scale(0.015625)"/>
      <path id="DejaVuSans-69" d="M 603 3500 
L 1178 3500 
L 1178 0 
L 603 0 
L 603 3500 
z
M 603 4863 
L 1178 4863 
L 1178 4134 
L 603 4134 
L 603 4863 
z
" transform="scale(0.015625)"/>
      <path id="DejaVuSans-61" d="M 2194 1759 
Q 1497 1759 1228 1600 
Q 959 1441 959 1056 
Q 959 750 1161 570 
Q 1363 391 1709 391 
Q 2188 391 2477 730 
Q 2766 1069 2766 1631 
L 2766 1759 
L 2194 1759 
z
M 3341 1997 
L 3341 0 
L 2766 0 
L 2766 531 
Q 2569 213 2275 61 
Q 1981 -91 1556 -91 
Q 1019 -91 701 211 
Q 384 513 384 1019 
Q 384 1609 779 1909 
Q 1175 2209 1959 2209 
L 2766 2209 
L 2766 2266 
Q 2766 2663 2505 2880 
Q 2244 3097 1772 3097 
Q 1472 3097 1187 3025 
Q 903 2953 641 2809 
L 641 3341 
Q 956 3463 1253 3523 
Q 1550 3584 1831 3584 
Q 2591 3584 2966 3190 
Q 3341 2797 3341 1997 
z
" transform="scale(0.015625)"/>
      <path id="DejaVuSans-6c" d="M 603 4863 
L 1178 4863 
L 1178 0 
L 603 0 
L 603 4863 
z
" transform="scale(0.015625)"/>
      <path id="DejaVuSans-62" d="M 3116 1747 
Q 3116 2381 2855 2742 
Q 2594 3103 2138 3103 
Q 1681 3103 1420 2742 
Q 1159 2381 1159 1747 
Q 1159 1113 1420 752 
Q 1681 391 2138 391 
Q 2594 391 2855 752 
Q 3116 1113 3116 1747 
z
M 1159 2969 
Q 1341 3281 1617 3432 
Q 1894 3584 2278 3584 
Q 2916 3584 3314 3078 
Q 3713 2572 3713 1747 
Q 3713 922 3314 415 
Q 2916 -91 2278 -91 
Q 1894 -91 1617 61 
Q 1341 213 1159 525 
L 1159 0 
L 581 0 
L 581 4863 
L 1159 4863 
L 1159 2969 
z
" transform="scale(0.015625)"/>
     </defs>
     <use xlink:href="#DejaVuSans-6f"/>
     <use xlink:href="#DejaVuSans-6e" transform="translate(61.181641 0)"/>
     <use xlink:href="#DejaVuSans-65" transform="translate(124.560547 0)"/>
     <use xlink:href="#DejaVuSans-20" transform="translate(186.083984 0)"/>
     <use xlink:href="#DejaVuSans-67" transform="translate(217.871094 0)"/>
     <use xlink:href="#DejaVuSans-5f" transform="translate(281.347656 0)"/>
     <use xlink:href="#DejaVuSans-6d" transform="translate(331.347656 0)"/>
     <use xlink:href="#DejaVuSans-73" transform="translate(428.759766 0)"/>
     <use xlink:href="#DejaVuSans-20" transform="translate(480.859375 0)"/>
     <use xlink:href="#DejaVuSans-63" transform="translate(512.646484 0)"/>
     <use xlink:href="#DejaVuSans-6f" transform="translate(567.626953 0)"/>
     <use xlink:href="#DejaVuSans-75" transform="translate(628.808594 0)"/>
     <use xlink:href="#DejaVuSans-6e" transform="translate(692.1875 0)"/>
     <use xlink:href="#DejaVuSans-74" transform="translate(755.566406 0)"/>
     <use xlink:href="#DejaVuSans-65" transform="translate(794.775391 0)"/>
     <use xlink:href="#DejaVuSans-72" transform="translate(856.298828 0)"/>
     <use xlink:href="#DejaVuSans-20" transform="translate(897.412109 0)"/>
     <use xlink:href="#DejaVuSans-2014" transform="translate(929.199219 0)"/>
     <use xlink:href="#DejaVuSans-20" transform="translate(1029.199219 0)"/>
     <use xlink:href="#DejaVuSans-65" transform="translate(1060.986328 0)"/>
     <use xlink:href="#DejaVuSans-76" transform="translate(1122.509766 0)"/>
     <use xlink:href="#DejaVuSans-65" transform="translate(1181.689453 0)"/>
     <use xlink:href="#DejaVuSans-72" transform="translate(1243.212891 0)"/>
     <use xlink:href="#DejaVuSans-79" transform="translate(1284.326172 0)"/>
     <use xlink:href="#DejaVuSans-20" transform="translate(1343.505859 0)"/>
     <use xlink:href="#DejaVuSans-69" transform="translate(1375.292969 0)"/>
     <use xlink:href="#DejaVuSans-6e" transform="translate(1403.076172 0)"/>
     <use xlink:href="#DejaVuSans-74" transform="translate(1466.455078 0)"/>
     <use xlink:href="#DejaVuSans-65" transform="translate(1505.664062 0)"/>
     <use xlink:href="#DejaVuSans-72" transform="translate(1567.1875 0)"/>
     <use xlink:href="#DejaVuSans-76" transform="translate(1608.300781 0)"/>
     <use xlink:href="#DejaVuSans-61" transform="translate(1667.480469 0)"/>
     <use xlink:href="#DejaVuSans-6c" transform="translate(1728.759766 0)"/>
     <use xlink:href="#DejaVuSans-20" transform="translate(1756.542969 0)"/>
     <use xlink:href="#DejaVuSans-69" transform="translate(1788.330078 0)"/>
     <use xlink:href="#DejaVuSans-73" transform="translate(1816.113281 0)"/>
     <use xlink:href="#DejaVuSans-20" transform="translate(1868.212891 0)"/>
     <use xlink:href="#DejaVuSans-61" transform="translate(1900 0)"/>
     <use xlink:href="#DejaVuSans-20" transform="translate(1961.279297 0)"/>
     <use xlink:href="#DejaVuSans-73" transform="translate(1993.066406 0)"/>
     <use xlink:href="#DejaVuSans-75" transform="translate(2045.166016 0)"/>
     <use xlink:href="#DejaVuSans-62" transform="translate(2108.544922 0)"/>
     <use xlink:href="#DejaVuSans-74" transform="translate(2172.021484 0)"/>
     <use xlink:href="#DejaVuSans-72" transform="translate(2211.230469 0)"/>
     <use xlink:href="#DejaVuSans-61" transform="translate(2252.34375 0)"/>
     <use xlink:href="#DejaVuSans-63" transform="translate(2313.623047 0)"/>
     <use xlink:href="#DejaVuSans-74" transform="translate(2368.603516 0)"/>
     <use xlink:href="#DejaVuSans-69" transform="translate(2407.8125 0)"/>
     <use xlink:href="#DejaVuSans-6f" transform="translate(2435.595703 0)"/>
     <use xlink:href="#DejaVuSans-6e" transform="translate(2496.777344 0)"/>
     <use xlink:href="#DejaVuSans-20" transform="translate(2560.15625 0)"/>
     <use xlink:href="#DejaVuSans-61" transform="translate(2591.943359 0)"/>
     <use xlink:href="#DejaVuSans-67" transform="translate(2653.222656 0)"/>
     <use xlink:href="#DejaVuSans-61" transform="translate(2716.699219 0)"/>
     <use xlink:href="#DejaVuSans-69" transform="translate(2777.978516 0)"/>
     <use xlink:href="#DejaVuSans-6e" transform="translate(2805.761719 0)"/>
     <use xlink:href="#DejaVuSans-73" transform="translate(2869.140625 0)"/>
     <use xlink:href="#DejaVuSans-74" transform="translate(2921.240234 0)"/>
     <use xlink:href="#DejaVuSans-20" transform="translate(2960.449219 0)"/>
     <use xlink:href="#DejaVuSans-69" transform="translate(2992.236328 0)"/>
     <use xlink:href="#DejaVuSans-74" transform="translate(3020.019531 0)"/>
    </g>
   </g>
  </g>
 </g>
 <defs>
  <clipPath id="p9e06f2b268">
   <rect x="7.2" y="7.2" width="800.419483" height="150.945"/>
  </clipPath>
 </defs>
</svg>
