<svg xmlns="http://www.w3.org/2000/svg" width="760" height="900" viewBox="0 0 760 900" role="img" aria-labelledby="title desc">
  <title id="title">STM32 Nucleo-F401RE development board</title>
  <desc id="desc">Detailed reusable top-view technical illustration of the white MB1136 Nucleo-64 board, including its ST-LINK section, breakaway line, STM32F401RE, buttons, LEDs, Arduino headers with silkscreen pin labels, and ST Morpho headers.</desc>
  <defs>
    <filter id="board-shadow" x="-15%" y="-10%" width="130%" height="125%"><feDropShadow dx="0" dy="8" stdDeviation="9" flood-color="#17384c" flood-opacity=".18"/></filter>
    <linearGradient id="metal" x1="0" y1="0" x2="0" y2="1"><stop offset="0" stop-color="#f3f5f6"/><stop offset=".55" stop-color="#cbd3d7"/><stop offset="1" stop-color="#9daab0"/></linearGradient>
    <linearGradient id="crystal-can" x1="0" y1="0" x2="0" y2="1"><stop offset="0" stop-color="#e9edef"/><stop offset=".35" stop-color="#c3ccd1"/><stop offset=".75" stop-color="#aab5bb"/><stop offset="1" stop-color="#8d9aa1"/></linearGradient>
    <linearGradient id="usb-amber" x1="0" y1="0" x2="0" y2="1"><stop offset="0" stop-color="#e8b23c"/><stop offset=".5" stop-color="#c78e1e"/><stop offset="1" stop-color="#8a5f10"/></linearGradient>
    <linearGradient id="chip-body" x1="0" y1="0" x2="1" y2="1"><stop offset="0" stop-color="#343f46"/><stop offset=".5" stop-color="#222c32"/><stop offset="1" stop-color="#161d21"/></linearGradient>
    <linearGradient id="btn-blue" x1="0" y1="0" x2="0" y2="1"><stop offset="0" stop-color="#3ba0dc"/><stop offset=".6" stop-color="#1682bd"/><stop offset="1" stop-color="#0d5c8a"/></linearGradient>
    <linearGradient id="btn-black" x1="0" y1="0" x2="0" y2="1"><stop offset="0" stop-color="#4a555c"/><stop offset=".6" stop-color="#272f33"/><stop offset="1" stop-color="#14191c"/></linearGradient>
    <style>
      .silk{font-family:Quicksand,Arial,sans-serif;fill:#1682bd;font-weight:700}
      .ref{font-family:Quicksand,Arial,sans-serif;fill:#1682bd;font-size:12px;font-weight:600}
      .pin{font-family:Quicksand,Arial,sans-serif;fill:#1682bd;font-size:13px;font-weight:700}
      .chip-label{font-family:Quicksand,Arial,sans-serif;fill:#dfe9ee;text-anchor:middle;font-weight:700}
      .passive{fill:#4a5258;stroke:#20272b;stroke-width:1}
      .passive-cap{fill:#b48a55;stroke:#7d5c33;stroke-width:1}
      .small-chip{fill:url(#chip-body);stroke:#10191e;stroke-width:1.5}
      .gold-pin{fill:#d9b25f}
      .jumper-cap{fill:#14191c;stroke:#000;stroke-width:1}
    </style>
  </defs>

  <g id="board" filter="url(#board-shadow)">
    <path id="board-outline" d="M64 20 H696 Q714 20 714 38 V854 Q714 874 694 874 H66 Q46 874 46 854 V38 Q46 20 64 20Z" fill="#fbfcfa" stroke="#b9c5ca" stroke-width="5"/>
    <!-- mounting holes -->
    <g id="mounting-holes">
      <circle cx="93" cy="327" r="15" fill="#fff" stroke="#c0c9cd" stroke-width="4"/><circle cx="93" cy="327" r="7" fill="#dfe7ea"/>
      <circle cx="667" cy="327" r="15" fill="#fff" stroke="#c0c9cd" stroke-width="4"/><circle cx="667" cy="327" r="7" fill="#dfe7ea"/>
      <circle cx="497" cy="838" r="15" fill="#fff" stroke="#c0c9cd" stroke-width="4"/><circle cx="497" cy="838" r="7" fill="#dfe7ea"/>
      <circle cx="263" cy="838" r="15" fill="#fff" stroke="#c0c9cd" stroke-width="4"/><circle cx="263" cy="838" r="7" fill="#dfe7ea"/>
    </g>

    <g id="st-link-section">
      <text x="196" y="120" class="silk" font-size="13" transform="rotate(-90 196 120)" text-anchor="end">ST-LINK</text>
      <text x="252" y="60" class="ref">NUCLEO</text>

      <!-- mini-B USB, protrudes past top edge -->
      <g id="usb-cn1">
        <rect x="452" y="6" width="96" height="86" rx="6" fill="url(#usb-amber)" stroke="#6b4c0d" stroke-width="2.5"/>
        <rect x="459" y="12" width="82" height="26" rx="3" fill="#3d2c08" opacity=".55"/>
        <rect x="446" y="66" width="108" height="30" rx="4" fill="url(#metal)" stroke="#78868d" stroke-width="2.5"/>
        <rect x="470" y="72" width="60" height="17" rx="3" fill="#2d3438"/>
        <circle cx="459" cy="81" r="4" fill="#8d9aa1"/><circle cx="541" cy="81" r="4" fill="#8d9aa1"/>
        <text x="562" y="46" class="ref">CN1</text>
        <text x="384" y="70" class="ref">USB PWR</text>
      </g>

      <!-- JP1 power jumper, top centre -->
      <g id="jp1">
        <rect x="380" y="24" width="52" height="30" rx="4" fill="#202b31"/>
        <rect x="387" y="30" width="16" height="18" class="jumper-cap"/>
        <circle cx="418" cy="39" r="6" fill="#d9b25f"/><circle cx="418" cy="39" r="2.6" fill="#3a2f18"/>
        <text x="378" y="18" class="ref">JP1</text>
      </g>

      <!-- LD1 tricolour COM LED -->
      <g id="stlink-status-leds">
        <rect x="596" y="52" width="26" height="16" rx="3" fill="#f4efd5" stroke="#aab4b8" stroke-width="2"/>
        <rect x="602" y="55" width="14" height="10" fill="#8fd8a5"/>
        <text x="592" y="88" class="ref">LD1</text>
        <text x="590" y="104" class="ref">COM</text>
      </g>

      <!-- ST-LINK MCU, LQFP48 with pins on four sides -->
      <g id="stlink-mcu-u2">
        <g stroke="#c7a052" stroke-width="3.4">
          <path d="M340 158h-16m16 15h-16m16 15h-16m16 15h-16m16 15h-16m16 15h-16m136-75h16m-16 15h16m-16 15h16m-16 15h16m-16 15h16m-16 15h16"/>
          <path d="M356 148v-16m15 16v-16m15 16v-16m15 16v-16m15 16v-16m15 16v-16m-75 106v16m15-16v16m15-16v16m15-16v16m15-16v16m15-16v16"/>
        </g>
        <rect x="341" y="149" width="134" height="104" rx="6" class="small-chip"/>
        <circle cx="356" cy="164" r="4.5" fill="#d7e0e4"/>
        <text x="408" y="192" class="chip-label" font-size="17">STM32F103</text>
        <text x="408" y="216" class="chip-label" font-size="13">ST-LINK/V2-1</text>
        <text x="330" y="142" class="ref">U2</text>
      </g>

      <!-- ST-LINK 8 MHz crystal, HC-49 can -->
      <g id="stlink-crystal-x1">
        <rect x="252" y="128" width="44" height="102" rx="20" fill="url(#crystal-can)" stroke="#78868d" stroke-width="2.5"/>
        <rect x="260" y="140" width="12" height="78" rx="6" fill="#eef2f4" opacity=".5"/>
        <text x="250" y="122" class="ref">X1</text>
        <text x="290" y="180" class="ref" transform="rotate(-90 290 180)" text-anchor="middle" font-size="10">8.000MHZ</text>
      </g>

      <!-- CN2: two jumpers select ST-LINK vs external target -->
      <g id="stlink-jumpers">
        <rect x="210" y="66" width="30" height="104" rx="4" fill="#202b31"/>
        <rect x="215" y="74" width="20" height="38" class="jumper-cap"/>
        <rect x="215" y="120" width="20" height="38" class="jumper-cap"/>
        <text x="212" y="186" class="ref">CN2</text>
        <!-- CN4 SWD header -->
        <rect x="94" y="120" width="30" height="128" rx="4" fill="#202b31"/>
        <g class="gold-pin"><circle cx="109" cy="136" r="6"/><circle cx="109" cy="157" r="6"/><circle cx="109" cy="178" r="6"/><circle cx="109" cy="199" r="6"/><circle cx="109" cy="220" r="6"/><circle cx="109" cy="238" r="6"/></g>
        <g fill="#3a2f18"><circle cx="109" cy="136" r="2.5"/><circle cx="109" cy="157" r="2.5"/><circle cx="109" cy="178" r="2.5"/><circle cx="109" cy="199" r="2.5"/><circle cx="109" cy="220" r="2.5"/><circle cx="109" cy="238" r="2.5"/></g>
        <text x="92" y="112" class="ref">CN4 SWD</text>
        <text x="130" y="262" class="ref">•TX</text>
        <text x="130" y="278" class="ref">•RX</text>
      </g>

      <g id="stlink-aux-connectors">
        <g id="cn12-ground"><rect x="58" y="42" width="28" height="60" rx="4" fill="#202b31"/><circle cx="72" cy="58" r="7" class="gold-pin"/><circle cx="72" cy="85" r="7" class="gold-pin"/><circle cx="72" cy="58" r="3" fill="#3a2f18"/><circle cx="72" cy="85" r="3" fill="#3a2f18"/><text x="56" y="34" class="ref">CN12</text><text x="60" y="118" class="ref">GND</text></g>
        <g id="cn11-ground"><rect x="672" y="42" width="28" height="60" rx="4" fill="#202b31"/><circle cx="686" cy="58" r="7" class="gold-pin"/><circle cx="686" cy="85" r="7" class="gold-pin"/><circle cx="686" cy="58" r="3" fill="#3a2f18"/><circle cx="686" cy="85" r="3" fill="#3a2f18"/><text x="662" y="34" class="ref">CN11</text><text x="668" y="118" class="ref">GND</text></g>
        <g id="jp4"><circle cx="72" cy="212" r="10" fill="#fff" stroke="#c8a052" stroke-width="4"/><circle cx="72" cy="240" r="10" fill="#fff" stroke="#c8a052" stroke-width="4"/><text x="58" y="270" class="ref">JP4</text></g>
      </g>

      <!-- T2 level shifter, SOIC-8 -->
      <g id="t2-soic8">
        <g stroke="#c7a052" stroke-width="3"><path d="M612 178h-12m12 14h-12m12 14h-12m12 14h-12m62-42h12m-12 14h12m-12 14h12m-12 14h12"/></g>
        <rect x="613" y="170" width="60" height="64" rx="4" class="small-chip"/>
        <circle cx="623" cy="182" r="3.5" fill="#d7e0e4"/>
        <text x="616" y="162" class="ref">T2</text>
        <text x="676" y="252" class="ref">SB1</text>
      </g>

      <!-- Nucleo silk mark + ESD triangle -->
      <g id="stlink-silk-marks">
        <circle cx="74" cy="152" r="14" fill="none" stroke="#1682bd" stroke-width="3"/>
        <path d="M66 152q8-10 16 0q-8 10-16 0" fill="#1682bd"/>
        <text x="52" y="184" class="ref">Nucleo</text>
        <path d="M688 132 l14 24 h-28 Z" fill="none" stroke="#1682bd" stroke-width="3"/>
        <text x="140" y="46" class="ref">IQE 94V-0</text>
      </g>

      <!-- SMD passive clusters, placed to match the photograph -->
      <g id="stlink-passives">
        <rect x="300" y="60" width="22" height="10" class="passive"/><rect x="330" y="60" width="22" height="10" class="passive"/>
        <rect x="300" y="78" width="22" height="10" class="passive"/><rect x="330" y="78" width="22" height="10" class="passive"/>
        
        <rect x="140" y="130" width="10" height="20" class="passive"/><rect x="156" y="130" width="10" height="20" class="passive"/>
        <rect x="140" y="162" width="10" height="20" class="passive"/><rect x="156" y="162" width="10" height="20" class="passive"/>
        <rect x="140" y="194" width="10" height="20" class="passive-cap"/><rect x="156" y="194" width="10" height="20" class="passive"/>
        <text x="136" y="124" class="ref" font-size="10">R1 D1</text>
        <rect x="486" y="110" width="22" height="10" class="passive"/><rect x="516" y="110" width="22" height="10" class="passive"/>
        <rect x="486" y="128" width="22" height="10" class="passive"/><rect x="516" y="128" width="22" height="10" class="passive"/>
        <text x="482" y="106" class="ref" font-size="10">R15 R17</text>
        <rect x="498" y="158" width="10" height="20" class="passive-cap"/><rect x="514" y="158" width="10" height="20" class="passive-cap"/><rect x="530" y="158" width="10" height="20" class="passive"/>
        <rect x="498" y="190" width="10" height="20" class="passive"/><rect x="514" y="190" width="10" height="20" class="passive-cap"/>
        <text x="494" y="226" class="ref" font-size="10">C4 C10 C9</text>
        <rect x="560" y="130" width="10" height="20" class="passive"/><rect x="576" y="130" width="10" height="20" class="passive"/>
        <rect x="404" y="262" width="22" height="10" class="passive-cap"/>
        <text x="430" y="272" class="ref" font-size="10">C11</text>
        <rect x="250" y="252" width="22" height="10" class="passive-cap"/><rect x="280" y="252" width="22" height="10" class="passive"/>
        <text x="246" y="274" class="ref" font-size="10">C8 C3</text>
      </g>
    </g>

    <!-- breakaway: straight routed slot with two cut-outs, as on MB1136 -->
    <g id="breakaway-zone">
      <rect x="46" y="296" width="668" height="14" fill="#e4ebee"/>
      <line x1="46" y1="296" x2="714" y2="296" stroke="#b9c5ca" stroke-width="2.5"/>
      <line x1="46" y1="310" x2="714" y2="310" stroke="#b9c5ca" stroke-width="2.5"/>
      <rect x="150" y="298" width="130" height="10" rx="5" fill="#c3ced3"/>
      <rect x="430" y="298" width="130" height="10" rx="5" fill="#c3ced3"/>
    </g>

    <g id="target-section">
      <text x="138" y="338" class="silk" font-size="15">MB1136</text>
      <text x="138" y="356" class="silk" font-size="14">rev C</text>
      <text x="120" y="866" class="silk" font-size="16">www.st.com/stm32nucleo</text>
      <text x="316" y="548" class="silk" font-size="15">NUCLEO-F401RE</text>

      <!-- USER button: black tact base, blue round cap -->
      <g id="user-button-b1">
        <rect x="240" y="330" width="66" height="66" rx="6" fill="url(#btn-black)" stroke="#525f66" stroke-width="2"/>
        <circle cx="249" cy="339" r="3.5" fill="#aab4b8"/><circle cx="297" cy="339" r="3.5" fill="#aab4b8"/>
        <circle cx="249" cy="387" r="3.5" fill="#aab4b8"/><circle cx="297" cy="387" r="3.5" fill="#aab4b8"/>
        <circle cx="273" cy="363" r="21" fill="url(#btn-blue)" stroke="#0c4c70" stroke-width="2.5"/>
        <circle cx="267" cy="356" r="7" fill="#7cc4e8" opacity=".55"/>
        <text x="212" y="324" class="silk" font-size="15">USER</text>
        <text x="214" y="352" class="ref">B1</text>
      </g>

      <!-- RESET button: black cap -->
      <g id="reset-button-b2">
        <rect x="428" y="330" width="66" height="66" rx="6" fill="url(#btn-black)" stroke="#525f66" stroke-width="2"/>
        <circle cx="437" cy="339" r="3.5" fill="#aab4b8"/><circle cx="485" cy="339" r="3.5" fill="#aab4b8"/>
        <circle cx="437" cy="387" r="3.5" fill="#aab4b8"/><circle cx="485" cy="387" r="3.5" fill="#aab4b8"/>
        <circle cx="461" cy="363" r="21" fill="url(#btn-black)" stroke="#0a0d0f" stroke-width="2.5"/>
        <circle cx="455" cy="356" r="6" fill="#6b7880" opacity=".6"/>
        <text x="504" y="324" class="silk" font-size="15">RESET</text>
        <text x="504" y="352" class="ref">B2</text>
      </g>

      <!-- JP5 power-source selector -->
      <g id="jp5-power-select">
        <rect x="440" y="408" width="34" height="64" rx="4" fill="#202b31"/>
        <rect x="446" y="414" width="22" height="34" class="jumper-cap"/>
        <circle cx="457" cy="460" r="6" class="gold-pin"/><circle cx="457" cy="460" r="2.5" fill="#3a2f18"/>
        <text x="480" y="430" class="ref">JP5</text>
      </g>

      <!-- JP6 IDD measurement jumper -->
      <g id="jp6-idd">
        <rect x="336" y="446" width="30" height="46" rx="4" fill="#202b31"/>
        <rect x="341" y="452" width="20" height="34" class="jumper-cap"/>
        <text x="330" y="510" class="ref">IDD</text>
      </g>

      <!-- power regulation: D4, C16 tantalum, U3 LD1117 -->
      <g id="target-power-regulation">
        <rect x="216" y="410" width="40" height="24" class="small-chip"/><text x="200" y="428" class="ref">D4</text>
        <rect x="226" y="446" width="34" height="24" rx="3" fill="#e8963c" stroke="#a5641d" stroke-width="1.5"/>
        <g id="u3-regulator">
          <rect x="268" y="404" width="52" height="14" fill="url(#metal)" stroke="#78868d" stroke-width="1.5"/>
          <rect x="264" y="418" width="60" height="42" rx="3" class="small-chip"/>
          <g class="gold-pin"><rect x="272" y="460" width="9" height="10"/><rect x="290" y="460" width="9" height="10"/><rect x="308" y="460" width="9" height="10"/></g>
          <text x="266" y="486" class="ref">U3</text>
        </g>
        <rect x="330" y="410" width="30" height="22" rx="3" fill="#e8963c" stroke="#a5641d" stroke-width="1.5"/><text x="364" y="426" class="ref">C17</text>
      </g>

      <!-- LD3 power LED -->
      <g id="power-led-ld3">
        <rect x="232" y="510" width="24" height="15" rx="3" fill="#f4d3cd" stroke="#b3766f" stroke-width="2"/>
        <rect x="238" y="513" width="12" height="9" fill="#e2574a"/>
        <text x="224" y="540" class="ref">LD3 •PWR</text>
      </g>

      <!-- LD2 user LED -->
      <g id="user-led-ld2">
        <rect x="428" y="472" width="26" height="16" rx="3" fill="#f4efd5" stroke="#aab4b8" stroke-width="2"/>
        <rect x="434" y="475" width="14" height="10" fill="#8fe0a2"/>
        <text x="396" y="486" class="silk" font-size="15">LD2</text>
      </g>

      <!-- target MCU: STM32F401RE LQFP64, 16 pins per side -->
      <g id="target-mcu-u5">
        <g stroke="#c8a052" stroke-width="2.6">
          <path d="M306 574h-14m14 8.6h-14m14 8.6h-14m14 8.6h-14m14 8.6h-14m14 8.6h-14m14 8.6h-14m14 8.6h-14m14 8.6h-14m14 8.6h-14m14 8.6h-14m14 8.6h-14m14 8.6h-14m14 8.6h-14m14 8.6h-14m14 8.6h-14"/>
          <path d="M464 574h14m-14 8.6h14m-14 8.6h14m-14 8.6h14m-14 8.6h14m-14 8.6h14m-14 8.6h14m-14 8.6h14m-14 8.6h14m-14 8.6h14m-14 8.6h14m-14 8.6h14m-14 8.6h14m-14 8.6h14m-14 8.6h14m-14 8.6h14"/>
          <path d="M318 568v-14m8.6 14v-14m8.6 14v-14m8.6 14v-14m8.6 14v-14m8.6 14v-14m8.6 14v-14m8.6 14v-14m8.6 14v-14m8.6 14v-14m8.6 14v-14m8.6 14v-14m8.6 14v-14m8.6 14v-14m8.6 14v-14m8.6 14v-14"/>
          <path d="M318 712v14m8.6-14v14m8.6-14v14m8.6-14v14m8.6-14v14m8.6-14v14m8.6-14v14m8.6-14v14m8.6-14v14m8.6-14v14m8.6-14v14m8.6-14v14m8.6-14v14m8.6-14v14m8.6-14v14m8.6-14v14"/>
        </g>
        <rect x="307" y="569" width="156" height="142" rx="6" class="small-chip"/>
        <path d="M307 569 L463 711" stroke="#3d4a52" stroke-width="30" opacity=".25"/>
        <circle cx="324" cy="586" r="5" fill="#d7e0e4"/>
        <text x="385" y="616" class="chip-label" font-size="17">Arm Cortex-M4</text>
        <text x="385" y="644" class="chip-label" font-size="19">STM32F401</text>
        <text x="385" y="668" class="chip-label" font-size="19">RET6</text>
        <text x="385" y="694" class="chip-label" font-size="11">84 MHz · 512 KB Flash</text>
        <text x="290" y="562" class="ref">U5</text>
      </g>

      <!-- support parts: X2 32 kHz cylinder, X3 8 MHz can, decoupling -->
      <g id="target-support-components">
        <g id="x2-32khz">
          <rect x="212" y="738" width="8" height="30" fill="#c3ccd1"/>
          <rect x="284" y="738" width="8" height="30" fill="#c3ccd1"/>
          <rect x="218" y="734" width="68" height="38" rx="4" fill="#16191c" stroke="#000" stroke-width="1.5"/>
          <text x="252" y="758" font-family="Quicksand,Arial,sans-serif" font-size="11" fill="#9aa4aa" text-anchor="middle">32C519</text>
          <rect x="206" y="728" width="92" height="50" rx="4" fill="none" stroke="#1682bd" stroke-width="2"/>
          <text x="200" y="722" class="ref">X2</text>
        </g>
        <g id="x3-8mhz">
          <rect x="306" y="732" width="100" height="44" rx="22" fill="none" stroke="#1682bd" stroke-width="3"/>
          <circle cx="336" cy="754" r="9" fill="#d9b25f" stroke="#9b7539" stroke-width="2"/><circle cx="336" cy="754" r="3.5" fill="#fbfcfa"/>
          <circle cx="376" cy="754" r="9" fill="#d9b25f" stroke="#9b7539" stroke-width="2"/><circle cx="376" cy="754" r="3.5" fill="#fbfcfa"/>
          <text x="414" y="770" class="ref">X3</text>
        </g>
        <g id="test-pads">
          <rect x="322" y="784" width="12" height="10" class="passive"/>
          <rect x="342" y="784" width="12" height="10" class="passive"/>
          <rect x="362" y="784" width="12" height="10" class="passive"/>
          <text x="322" y="810" class="ref" font-size="10">C33 C34</text>
        </g>
        <rect x="252" y="560" width="12" height="22" class="passive-cap"/><rect x="270" y="560" width="12" height="22" class="passive"/>
        
        <rect x="484" y="556" width="26" height="12" class="passive-cap"/>
        <rect x="484" y="582" width="26" height="12" class="passive-cap"/>
        <rect x="484" y="608" width="26" height="12" class="passive-cap"/>
        <rect x="484" y="660" width="26" height="12" class="passive"/>
        <rect x="270" y="716" width="12" height="20" class="passive-cap"/><rect x="288" y="716" width="12" height="20" class="passive-cap"/>
        <text x="262" y="712" class="ref" font-size="10">C29 C31</text>
        <rect x="420" y="716" width="12" height="20" class="passive"/><rect x="438" y="716" width="12" height="20" class="passive"/>
        <text x="418" y="750" class="ref" font-size="10">R34 R35</text>
        <rect x="240" y="640" width="34" height="22" rx="3" class="small-chip"/>
        <rect x="360" y="418" width="22" height="10" class="passive"/><rect x="390" y="418" width="22" height="10" class="passive"/>
        <rect x="360" y="500" width="22" height="10" class="passive"/><rect x="390" y="500" width="22" height="10" class="passive"/>
        
        <rect x="404" y="446" width="10" height="20" class="passive-cap"/><rect x="420" y="446" width="10" height="20" class="passive"/>
        <rect x="490" y="446" width="10" height="20" class="passive-cap"/><rect x="506" y="446" width="10" height="20" class="passive"/>
        
      </g>

      <!-- ST Morpho male headers, 2 x 19 -->
      <g id="morpho-headers">
        <g id="morpho-left-cn7">
          <rect x="62" y="350" width="60" height="476" rx="5" fill="#181f24"/>
          <rect x="72.0" y="362.4" width="12" height="12" fill="#d9b25f"/><rect x="74.5" y="364.9" width="7" height="7" fill="#3a2f18"/>
          <rect x="100.0" y="362.4" width="12" height="12" fill="#d9b25f"/><rect x="102.5" y="364.9" width="7" height="7" fill="#3a2f18"/>
          <rect x="72.0" y="387.1" width="12" height="12" fill="#d9b25f"/><rect x="74.5" y="389.6" width="7" height="7" fill="#3a2f18"/>
          <rect x="100.0" y="387.1" width="12" height="12" fill="#d9b25f"/><rect x="102.5" y="389.6" width="7" height="7" fill="#3a2f18"/>
          <rect x="72.0" y="411.8" width="12" height="12" fill="#d9b25f"/><rect x="74.5" y="414.2" width="7" height="7" fill="#3a2f18"/>
          <rect x="100.0" y="411.8" width="12" height="12" fill="#d9b25f"/><rect x="102.5" y="414.2" width="7" height="7" fill="#3a2f18"/>
          <rect x="72.0" y="436.5" width="12" height="12" fill="#d9b25f"/><rect x="74.5" y="439.0" width="7" height="7" fill="#3a2f18"/>
          <rect x="100.0" y="436.5" width="12" height="12" fill="#d9b25f"/><rect x="102.5" y="439.0" width="7" height="7" fill="#3a2f18"/>
          <rect x="72.0" y="461.2" width="12" height="12" fill="#d9b25f"/><rect x="74.5" y="463.7" width="7" height="7" fill="#3a2f18"/>
          <rect x="100.0" y="461.2" width="12" height="12" fill="#d9b25f"/><rect x="102.5" y="463.7" width="7" height="7" fill="#3a2f18"/>
          <rect x="72.0" y="485.9" width="12" height="12" fill="#d9b25f"/><rect x="74.5" y="488.4" width="7" height="7" fill="#3a2f18"/>
          <rect x="100.0" y="485.9" width="12" height="12" fill="#d9b25f"/><rect x="102.5" y="488.4" width="7" height="7" fill="#3a2f18"/>
          <rect x="72.0" y="510.5" width="12" height="12" fill="#d9b25f"/><rect x="74.5" y="513.0" width="7" height="7" fill="#3a2f18"/>
          <rect x="100.0" y="510.5" width="12" height="12" fill="#d9b25f"/><rect x="102.5" y="513.0" width="7" height="7" fill="#3a2f18"/>
          <rect x="72.0" y="535.2" width="12" height="12" fill="#d9b25f"/><rect x="74.5" y="537.8" width="7" height="7" fill="#3a2f18"/>
          <rect x="100.0" y="535.2" width="12" height="12" fill="#d9b25f"/><rect x="102.5" y="537.8" width="7" height="7" fill="#3a2f18"/>
          <rect x="72.0" y="560.0" width="12" height="12" fill="#d9b25f"/><rect x="74.5" y="562.5" width="7" height="7" fill="#3a2f18"/>
          <rect x="100.0" y="560.0" width="12" height="12" fill="#d9b25f"/><rect x="102.5" y="562.5" width="7" height="7" fill="#3a2f18"/>
          <rect x="72.0" y="584.6" width="12" height="12" fill="#d9b25f"/><rect x="74.5" y="587.1" width="7" height="7" fill="#3a2f18"/>
          <rect x="100.0" y="584.6" width="12" height="12" fill="#d9b25f"/><rect x="102.5" y="587.1" width="7" height="7" fill="#3a2f18"/>
          <rect x="72.0" y="609.4" width="12" height="12" fill="#d9b25f"/><rect x="74.5" y="611.9" width="7" height="7" fill="#3a2f18"/>
          <rect x="100.0" y="609.4" width="12" height="12" fill="#d9b25f"/><rect x="102.5" y="611.9" width="7" height="7" fill="#3a2f18"/>
          <rect x="72.0" y="634.0" width="12" height="12" fill="#d9b25f"/><rect x="74.5" y="636.5" width="7" height="7" fill="#3a2f18"/>
          <rect x="100.0" y="634.0" width="12" height="12" fill="#d9b25f"/><rect x="102.5" y="636.5" width="7" height="7" fill="#3a2f18"/>
          <rect x="72.0" y="658.8" width="12" height="12" fill="#d9b25f"/><rect x="74.5" y="661.2" width="7" height="7" fill="#3a2f18"/>
          <rect x="100.0" y="658.8" width="12" height="12" fill="#d9b25f"/><rect x="102.5" y="661.2" width="7" height="7" fill="#3a2f18"/>
          <rect x="72.0" y="683.5" width="12" height="12" fill="#d9b25f"/><rect x="74.5" y="686.0" width="7" height="7" fill="#3a2f18"/>
          <rect x="100.0" y="683.5" width="12" height="12" fill="#d9b25f"/><rect x="102.5" y="686.0" width="7" height="7" fill="#3a2f18"/>
          <rect x="72.0" y="708.2" width="12" height="12" fill="#d9b25f"/><rect x="74.5" y="710.7" width="7" height="7" fill="#3a2f18"/>
          <rect x="100.0" y="708.2" width="12" height="12" fill="#d9b25f"/><rect x="102.5" y="710.7" width="7" height="7" fill="#3a2f18"/>
          <rect x="72.0" y="732.9" width="12" height="12" fill="#d9b25f"/><rect x="74.5" y="735.4" width="7" height="7" fill="#3a2f18"/>
          <rect x="100.0" y="732.9" width="12" height="12" fill="#d9b25f"/><rect x="102.5" y="735.4" width="7" height="7" fill="#3a2f18"/>
          <rect x="72.0" y="757.5" width="12" height="12" fill="#d9b25f"/><rect x="74.5" y="760.0" width="7" height="7" fill="#3a2f18"/>
          <rect x="100.0" y="757.5" width="12" height="12" fill="#d9b25f"/><rect x="102.5" y="760.0" width="7" height="7" fill="#3a2f18"/>
          <rect x="72.0" y="782.2" width="12" height="12" fill="#d9b25f"/><rect x="74.5" y="784.8" width="7" height="7" fill="#3a2f18"/>
          <rect x="100.0" y="782.2" width="12" height="12" fill="#d9b25f"/><rect x="102.5" y="784.8" width="7" height="7" fill="#3a2f18"/>
          <rect x="72.0" y="807.0" width="12" height="12" fill="#d9b25f"/><rect x="74.5" y="809.5" width="7" height="7" fill="#3a2f18"/>
          <rect x="100.0" y="807.0" width="12" height="12" fill="#d9b25f"/><rect x="102.5" y="809.5" width="7" height="7" fill="#3a2f18"/>
          <text x="66" y="846" class="ref">CN7</text>
        </g>
        <g id="morpho-right-cn10">
          <rect x="638" y="350" width="60" height="476" rx="5" fill="#181f24"/>
          <rect x="648.0" y="362.4" width="12" height="12" fill="#d9b25f"/><rect x="650.5" y="364.9" width="7" height="7" fill="#3a2f18"/>
          <rect x="676.0" y="362.4" width="12" height="12" fill="#d9b25f"/><rect x="678.5" y="364.9" width="7" height="7" fill="#3a2f18"/>
          <rect x="648.0" y="387.1" width="12" height="12" fill="#d9b25f"/><rect x="650.5" y="389.6" width="7" height="7" fill="#3a2f18"/>
          <rect x="676.0" y="387.1" width="12" height="12" fill="#d9b25f"/><rect x="678.5" y="389.6" width="7" height="7" fill="#3a2f18"/>
          <rect x="648.0" y="411.8" width="12" height="12" fill="#d9b25f"/><rect x="650.5" y="414.2" width="7" height="7" fill="#3a2f18"/>
          <rect x="676.0" y="411.8" width="12" height="12" fill="#d9b25f"/><rect x="678.5" y="414.2" width="7" height="7" fill="#3a2f18"/>
          <rect x="648.0" y="436.5" width="12" height="12" fill="#d9b25f"/><rect x="650.5" y="439.0" width="7" height="7" fill="#3a2f18"/>
          <rect x="676.0" y="436.5" width="12" height="12" fill="#d9b25f"/><rect x="678.5" y="439.0" width="7" height="7" fill="#3a2f18"/>
          <rect x="648.0" y="461.2" width="12" height="12" fill="#d9b25f"/><rect x="650.5" y="463.7" width="7" height="7" fill="#3a2f18"/>
          <rect x="676.0" y="461.2" width="12" height="12" fill="#d9b25f"/><rect x="678.5" y="463.7" width="7" height="7" fill="#3a2f18"/>
          <rect x="648.0" y="485.9" width="12" height="12" fill="#d9b25f"/><rect x="650.5" y="488.4" width="7" height="7" fill="#3a2f18"/>
          <rect x="676.0" y="485.9" width="12" height="12" fill="#d9b25f"/><rect x="678.5" y="488.4" width="7" height="7" fill="#3a2f18"/>
          <rect x="648.0" y="510.5" width="12" height="12" fill="#d9b25f"/><rect x="650.5" y="513.0" width="7" height="7" fill="#3a2f18"/>
          <rect x="676.0" y="510.5" width="12" height="12" fill="#d9b25f"/><rect x="678.5" y="513.0" width="7" height="7" fill="#3a2f18"/>
          <rect x="648.0" y="535.2" width="12" height="12" fill="#d9b25f"/><rect x="650.5" y="537.8" width="7" height="7" fill="#3a2f18"/>
          <rect x="676.0" y="535.2" width="12" height="12" fill="#d9b25f"/><rect x="678.5" y="537.8" width="7" height="7" fill="#3a2f18"/>
          <rect x="648.0" y="560.0" width="12" height="12" fill="#d9b25f"/><rect x="650.5" y="562.5" width="7" height="7" fill="#3a2f18"/>
          <rect x="676.0" y="560.0" width="12" height="12" fill="#d9b25f"/><rect x="678.5" y="562.5" width="7" height="7" fill="#3a2f18"/>
          <rect x="648.0" y="584.6" width="12" height="12" fill="#d9b25f"/><rect x="650.5" y="587.1" width="7" height="7" fill="#3a2f18"/>
          <rect x="676.0" y="584.6" width="12" height="12" fill="#d9b25f"/><rect x="678.5" y="587.1" width="7" height="7" fill="#3a2f18"/>
          <rect x="648.0" y="609.4" width="12" height="12" fill="#d9b25f"/><rect x="650.5" y="611.9" width="7" height="7" fill="#3a2f18"/>
          <rect x="676.0" y="609.4" width="12" height="12" fill="#d9b25f"/><rect x="678.5" y="611.9" width="7" height="7" fill="#3a2f18"/>
          <rect x="648.0" y="634.0" width="12" height="12" fill="#d9b25f"/><rect x="650.5" y="636.5" width="7" height="7" fill="#3a2f18"/>
          <rect x="676.0" y="634.0" width="12" height="12" fill="#d9b25f"/><rect x="678.5" y="636.5" width="7" height="7" fill="#3a2f18"/>
          <rect x="648.0" y="658.8" width="12" height="12" fill="#d9b25f"/><rect x="650.5" y="661.2" width="7" height="7" fill="#3a2f18"/>
          <rect x="676.0" y="658.8" width="12" height="12" fill="#d9b25f"/><rect x="678.5" y="661.2" width="7" height="7" fill="#3a2f18"/>
          <rect x="648.0" y="683.5" width="12" height="12" fill="#d9b25f"/><rect x="650.5" y="686.0" width="7" height="7" fill="#3a2f18"/>
          <rect x="676.0" y="683.5" width="12" height="12" fill="#d9b25f"/><rect x="678.5" y="686.0" width="7" height="7" fill="#3a2f18"/>
          <rect x="648.0" y="708.2" width="12" height="12" fill="#d9b25f"/><rect x="650.5" y="710.7" width="7" height="7" fill="#3a2f18"/>
          <rect x="676.0" y="708.2" width="12" height="12" fill="#d9b25f"/><rect x="678.5" y="710.7" width="7" height="7" fill="#3a2f18"/>
          <rect x="648.0" y="732.9" width="12" height="12" fill="#d9b25f"/><rect x="650.5" y="735.4" width="7" height="7" fill="#3a2f18"/>
          <rect x="676.0" y="732.9" width="12" height="12" fill="#d9b25f"/><rect x="678.5" y="735.4" width="7" height="7" fill="#3a2f18"/>
          <rect x="648.0" y="757.5" width="12" height="12" fill="#d9b25f"/><rect x="650.5" y="760.0" width="7" height="7" fill="#3a2f18"/>
          <rect x="676.0" y="757.5" width="12" height="12" fill="#d9b25f"/><rect x="678.5" y="760.0" width="7" height="7" fill="#3a2f18"/>
          <rect x="648.0" y="782.2" width="12" height="12" fill="#d9b25f"/><rect x="650.5" y="784.8" width="7" height="7" fill="#3a2f18"/>
          <rect x="676.0" y="782.2" width="12" height="12" fill="#d9b25f"/><rect x="678.5" y="784.8" width="7" height="7" fill="#3a2f18"/>
          <rect x="648.0" y="807.0" width="12" height="12" fill="#d9b25f"/><rect x="650.5" y="809.5" width="7" height="7" fill="#3a2f18"/>
          <rect x="676.0" y="807.0" width="12" height="12" fill="#d9b25f"/><rect x="678.5" y="809.5" width="7" height="7" fill="#3a2f18"/>
          <text x="642" y="846" class="ref">CN10</text>
        </g>
        <text x="128" y="373" class="ref">E5V</text>
        <text x="128" y="398" class="ref">GND</text>
      </g>

      <!-- Arduino Uno R3 female headers -->
      <g id="arduino-headers">
        <g id="arduino-power-cn6">
          <rect x="134.0" y="405.4" width="34" height="197.6" rx="4" fill="#14191c"/>
          <rect x="144.0" y="410.8" width="14" height="14" rx="2" fill="#0c1114"/><rect x="147.5" y="414.2" width="7" height="7" fill="#8a6d33"/><rect x="149.0" y="415.8" width="4" height="4" fill="#1a140a"/>
          <rect x="144.0" y="435.5" width="14" height="14" rx="2" fill="#0c1114"/><rect x="147.5" y="439.0" width="7" height="7" fill="#8a6d33"/><rect x="149.0" y="440.5" width="4" height="4" fill="#1a140a"/>
          <rect x="144.0" y="460.2" width="14" height="14" rx="2" fill="#0c1114"/><rect x="147.5" y="463.7" width="7" height="7" fill="#8a6d33"/><rect x="149.0" y="465.2" width="4" height="4" fill="#1a140a"/>
          <rect x="144.0" y="484.9" width="14" height="14" rx="2" fill="#0c1114"/><rect x="147.5" y="488.4" width="7" height="7" fill="#8a6d33"/><rect x="149.0" y="489.9" width="4" height="4" fill="#1a140a"/>
          <rect x="144.0" y="509.5" width="14" height="14" rx="2" fill="#0c1114"/><rect x="147.5" y="513.0" width="7" height="7" fill="#8a6d33"/><rect x="149.0" y="514.5" width="4" height="4" fill="#1a140a"/>
          <rect x="144.0" y="534.2" width="14" height="14" rx="2" fill="#0c1114"/><rect x="147.5" y="537.8" width="7" height="7" fill="#8a6d33"/><rect x="149.0" y="539.2" width="4" height="4" fill="#1a140a"/>
          <rect x="144.0" y="559.0" width="14" height="14" rx="2" fill="#0c1114"/><rect x="147.5" y="562.5" width="7" height="7" fill="#8a6d33"/><rect x="149.0" y="564.0" width="4" height="4" fill="#1a140a"/>
          <rect x="144.0" y="583.6" width="14" height="14" rx="2" fill="#0c1114"/><rect x="147.5" y="587.1" width="7" height="7" fill="#8a6d33"/><rect x="149.0" y="588.6" width="4" height="4" fill="#1a140a"/>
          <text x="132" y="624" class="ref">CN6</text>
        </g>
        <g id="arduino-analog-cn8">
          <rect x="134.0" y="652.4" width="34" height="148.2" rx="4" fill="#14191c"/>
          <rect x="144.0" y="657.8" width="14" height="14" rx="2" fill="#0c1114"/><rect x="147.5" y="661.2" width="7" height="7" fill="#8a6d33"/><rect x="149.0" y="662.8" width="4" height="4" fill="#1a140a"/>
          <rect x="144.0" y="682.5" width="14" height="14" rx="2" fill="#0c1114"/><rect x="147.5" y="686.0" width="7" height="7" fill="#8a6d33"/><rect x="149.0" y="687.5" width="4" height="4" fill="#1a140a"/>
          <rect x="144.0" y="707.2" width="14" height="14" rx="2" fill="#0c1114"/><rect x="147.5" y="710.7" width="7" height="7" fill="#8a6d33"/><rect x="149.0" y="712.2" width="4" height="4" fill="#1a140a"/>
          <rect x="144.0" y="731.9" width="14" height="14" rx="2" fill="#0c1114"/><rect x="147.5" y="735.4" width="7" height="7" fill="#8a6d33"/><rect x="149.0" y="736.9" width="4" height="4" fill="#1a140a"/>
          <rect x="144.0" y="756.5" width="14" height="14" rx="2" fill="#0c1114"/><rect x="147.5" y="760.0" width="7" height="7" fill="#8a6d33"/><rect x="149.0" y="761.5" width="4" height="4" fill="#1a140a"/>
          <rect x="144.0" y="781.2" width="14" height="14" rx="2" fill="#0c1114"/><rect x="147.5" y="784.8" width="7" height="7" fill="#8a6d33"/><rect x="149.0" y="786.2" width="4" height="4" fill="#1a140a"/>
          <text x="132" y="822" class="ref">CN8</text>
        </g>
        <g id="arduino-digital-cn5">
          <rect x="592.0" y="356.0" width="34" height="247.0" rx="4" fill="#14191c"/>
          <rect x="602.0" y="361.4" width="14" height="14" rx="2" fill="#0c1114"/><rect x="605.5" y="364.9" width="7" height="7" fill="#8a6d33"/><rect x="607.0" y="366.4" width="4" height="4" fill="#1a140a"/>
          <rect x="602.0" y="386.1" width="14" height="14" rx="2" fill="#0c1114"/><rect x="605.5" y="389.6" width="7" height="7" fill="#8a6d33"/><rect x="607.0" y="391.1" width="4" height="4" fill="#1a140a"/>
          <rect x="602.0" y="410.8" width="14" height="14" rx="2" fill="#0c1114"/><rect x="605.5" y="414.2" width="7" height="7" fill="#8a6d33"/><rect x="607.0" y="415.8" width="4" height="4" fill="#1a140a"/>
          <rect x="602.0" y="435.5" width="14" height="14" rx="2" fill="#0c1114"/><rect x="605.5" y="439.0" width="7" height="7" fill="#8a6d33"/><rect x="607.0" y="440.5" width="4" height="4" fill="#1a140a"/>
          <rect x="602.0" y="460.2" width="14" height="14" rx="2" fill="#0c1114"/><rect x="605.5" y="463.7" width="7" height="7" fill="#8a6d33"/><rect x="607.0" y="465.2" width="4" height="4" fill="#1a140a"/>
          <rect x="602.0" y="484.9" width="14" height="14" rx="2" fill="#0c1114"/><rect x="605.5" y="488.4" width="7" height="7" fill="#8a6d33"/><rect x="607.0" y="489.9" width="4" height="4" fill="#1a140a"/>
          <rect x="602.0" y="509.5" width="14" height="14" rx="2" fill="#0c1114"/><rect x="605.5" y="513.0" width="7" height="7" fill="#8a6d33"/><rect x="607.0" y="514.5" width="4" height="4" fill="#1a140a"/>
          <rect x="602.0" y="534.2" width="14" height="14" rx="2" fill="#0c1114"/><rect x="605.5" y="537.8" width="7" height="7" fill="#8a6d33"/><rect x="607.0" y="539.2" width="4" height="4" fill="#1a140a"/>
          <rect x="602.0" y="559.0" width="14" height="14" rx="2" fill="#0c1114"/><rect x="605.5" y="562.5" width="7" height="7" fill="#8a6d33"/><rect x="607.0" y="564.0" width="4" height="4" fill="#1a140a"/>
          <rect x="602.0" y="583.6" width="14" height="14" rx="2" fill="#0c1114"/><rect x="605.5" y="587.1" width="7" height="7" fill="#8a6d33"/><rect x="607.0" y="588.6" width="4" height="4" fill="#1a140a"/>
          <text x="592" y="624" class="ref">CN5</text>
        </g>
        <g id="arduino-digital-cn9">
          <rect x="592.0" y="627.7" width="34" height="197.6" rx="4" fill="#14191c"/>
          <rect x="602.0" y="633.0" width="14" height="14" rx="2" fill="#0c1114"/><rect x="605.5" y="636.5" width="7" height="7" fill="#8a6d33"/><rect x="607.0" y="638.0" width="4" height="4" fill="#1a140a"/>
          <rect x="602.0" y="657.8" width="14" height="14" rx="2" fill="#0c1114"/><rect x="605.5" y="661.2" width="7" height="7" fill="#8a6d33"/><rect x="607.0" y="662.8" width="4" height="4" fill="#1a140a"/>
          <rect x="602.0" y="682.5" width="14" height="14" rx="2" fill="#0c1114"/><rect x="605.5" y="686.0" width="7" height="7" fill="#8a6d33"/><rect x="607.0" y="687.5" width="4" height="4" fill="#1a140a"/>
          <rect x="602.0" y="707.2" width="14" height="14" rx="2" fill="#0c1114"/><rect x="605.5" y="710.7" width="7" height="7" fill="#8a6d33"/><rect x="607.0" y="712.2" width="4" height="4" fill="#1a140a"/>
          <rect x="602.0" y="731.9" width="14" height="14" rx="2" fill="#0c1114"/><rect x="605.5" y="735.4" width="7" height="7" fill="#8a6d33"/><rect x="607.0" y="736.9" width="4" height="4" fill="#1a140a"/>
          <rect x="602.0" y="756.5" width="14" height="14" rx="2" fill="#0c1114"/><rect x="605.5" y="760.0" width="7" height="7" fill="#8a6d33"/><rect x="607.0" y="761.5" width="4" height="4" fill="#1a140a"/>
          <rect x="602.0" y="781.2" width="14" height="14" rx="2" fill="#0c1114"/><rect x="605.5" y="784.8" width="7" height="7" fill="#8a6d33"/><rect x="607.0" y="786.2" width="4" height="4" fill="#1a140a"/>
          <rect x="602.0" y="806.0" width="14" height="14" rx="2" fill="#0c1114"/><rect x="605.5" y="809.5" width="7" height="7" fill="#8a6d33"/><rect x="607.0" y="811.0" width="4" height="4" fill="#1a140a"/>
          <text x="592" y="846" class="ref">CN9</text>
        </g>
      </g>

      
      <!-- silkscreen pin labels, as printed on the real board -->
      <g id="arduino-pin-labels">
        <g id="labels-cn6">
          <text x="174" y="447" class="pin">IOREF</text>
          <text x="174" y="472" class="pin">NRST</text>
          <text x="174" y="497" class="pin">3V3</text>
          <text x="174" y="522" class="pin">5V</text>
          <text x="174" y="546" class="pin">GND</text>
          <text x="174" y="571" class="pin">GND</text>
          <text x="174" y="596" class="pin">VIN</text>
        </g>
        <g id="labels-cn8">
          <text x="174" y="670" class="pin">A0</text>
          <text x="174" y="694" class="pin">A1</text>
          <text x="174" y="719" class="pin">A2</text>
          <text x="174" y="744" class="pin">A3</text>
          <text x="174" y="769" class="pin">A4</text>
          <text x="174" y="793" class="pin">A5</text>
        </g>
        <g id="labels-cn5" text-anchor="end">
          <text x="586" y="373" class="pin">SCL/D15</text>
          <text x="586" y="398" class="pin">SDA/D14</text>
          <text x="586" y="423" class="pin">AVDD</text>
          <text x="586" y="447" class="pin">GND</text>
          <text x="586" y="472" class="pin">SCK/D13</text>
          <text x="586" y="497" class="pin">MISO/D12</text>
          <text x="586" y="522" class="pin">PWM/MOSI/D11</text>
          <text x="586" y="546" class="pin">PWM/CS/D10</text>
          <text x="586" y="571" class="pin">PWM/D9</text>
          <text x="586" y="596" class="pin">D8</text>
        </g>
        <g id="labels-cn9" text-anchor="end">
          <text x="586" y="645" class="pin">D7</text>
          <text x="586" y="670" class="pin">PWM/D6</text>
          <text x="586" y="694" class="pin">PWM/D5</text>
          <text x="586" y="719" class="pin">D4</text>
          <text x="586" y="744" class="pin">PWM/D3</text>
          <text x="586" y="769" class="pin">D2</text>
          <text x="586" y="793" class="pin">TX/D1</text>
          <text x="586" y="818" class="pin">RX/D0</text>
        </g>
      </g>

      
      <!-- ST mark, typographic approximation -->
      <g id="st-mark">
        <rect x="438" y="752" width="76" height="70" rx="16" fill="#1682bd"/>
        <text x="476" y="802" font-family="Quicksand,Arial,sans-serif" font-size="40" font-style="italic" font-weight="800" fill="#fff" text-anchor="middle">ST</text>
      </g>
    </g>
  </g>
</svg>
