<svg xmlns="http://www.w3.org/2000/svg" width="1500" height="510" viewBox="0 0 1500 510" role="img" aria-labelledby="title desc">
  <style>@import url("https://fonts.googleapis.com/css2?family=Quicksand:wght@400;600;700&amp;display=swap");</style>
  <title id="title">Embedded C toolchain pipeline</title>
  <desc id="desc">C source passes through compile, link, flash, run, and debug stages.</desc>
  <defs><filter id="sh" x="-20%" y="-20%" width="140%" height="140%"><feDropShadow dx="0" dy="6" stdDeviation="7" flood-opacity="0.15"/></filter><marker id="ar" markerWidth="14" markerHeight="14" refX="13" refY="7" orient="auto" markerUnits="userSpaceOnUse"><path d="M0 0 L14 7 L0 14 Z" fill="#3d7f9f"/></marker></defs>
  <rect width="1500" height="510" rx="28" fill="#f8fafc"/>
  <g stroke="#3d7f9f" stroke-width="4.5" marker-end="url(#ar)"><path d="M245 225 H285"/><path d="M480 225 H520"/><path d="M715 225 H755"/><path d="M950 225 H990"/><path d="M1185 225 H1225"/></g>
  <g filter="url(#sh)" font-family="Quicksand,Arial,sans-serif" text-anchor="middle">
    <g><rect x="35" y="125" width="210" height="200" rx="25" fill="#eef2f5" stroke="#8194a0" stroke-width="3"/><circle cx="140" cy="165" r="25" fill="#8194a0"/><text x="140" y="174" font-size="24" font-weight="700" fill="white">1</text><text x="140" y="235" font-size="32" font-weight="700" fill="#324c5b">SOURCE</text><text x="140" y="278" font-size="24" fill="#526c7c">main.c</text></g>
    <g><rect x="285" y="125" width="195" height="200" rx="25" fill="#e4f1f7" stroke="#4383a5" stroke-width="3"/><circle cx="382" cy="165" r="25" fill="#4383a5"/><text x="382" y="174" font-size="24" font-weight="700" fill="white">2</text><text x="382" y="235" font-size="30" font-weight="700" fill="#174f73">COMPILE</text><text x="382" y="278" font-size="24" fill="#526c7c">object files</text></g>
    <g><rect x="520" y="125" width="195" height="200" rx="25" fill="#d8ebf4" stroke="#2b789f" stroke-width="3"/><circle cx="617" cy="165" r="25" fill="#2b789f"/><text x="617" y="174" font-size="24" font-weight="700" fill="white">3</text><text x="617" y="235" font-size="30" font-weight="700" fill="#174f73">LINK</text><text x="617" y="278" font-size="24" fill="#526c7c">firmware .elf</text></g>
    <g><rect x="755" y="125" width="195" height="200" rx="25" fill="#174f73"/><circle cx="852" cy="165" r="25" fill="#8fc5dd"/><text x="852" y="174" font-size="24" font-weight="700" fill="#174f73">4</text><text x="852" y="235" font-size="30" font-weight="700" fill="white">FLASH</text><text x="852" y="278" font-size="24" fill="#d9edf7">MCU memory</text></g>
    <g><rect x="990" y="125" width="195" height="200" rx="25" fill="#fff0dc" stroke="#d47b28" stroke-width="3"/><circle cx="1087" cy="165" r="25" fill="#d47b28"/><text x="1087" y="174" font-size="24" font-weight="700" fill="white">5</text><text x="1087" y="235" font-size="30" font-weight="700" fill="#95511d">RUN</text><text x="1087" y="278" font-size="24" fill="#735a3d">physical behavior</text></g>
    <g><rect x="1225" y="125" width="240" height="200" rx="25" fill="#e8f4eb" stroke="#4a8b62" stroke-width="3"/><circle cx="1345" cy="165" r="25" fill="#4a8b62"/><text x="1345" y="174" font-size="24" font-weight="700" fill="white">6</text><text x="1345" y="235" font-size="30" font-weight="700" fill="#326747">DEBUG</text><text x="1345" y="278" font-size="24" fill="#456d54">state + evidence</text></g>
  </g>
  <text x="750" y="405" text-anchor="middle" font-family="Quicksand,Arial,sans-serif" font-size="29" font-weight="600" fill="#174f73">A different question - and different evidence - belongs to every stage.</text>
</svg>
