<?xml version="1.0" encoding="utf-8" standalone="no"?>
<!DOCTYPE svg PUBLIC "-//W3C//DTD SVG 1.1//EN"
  "http://www.w3.org/Graphics/SVG/1.1/DTD/svg11.dtd">
<svg xmlns:xlink="http://www.w3.org/1999/xlink" width="820.739687pt" height="237.469375pt" viewBox="0 0 820.739687 237.469375" xmlns="http://www.w3.org/2000/svg" version="1.1">
 <metadata>
  <rdf:RDF xmlns:dc="http://purl.org/dc/elements/1.1/" xmlns:cc="http://creativecommons.org/ns#" xmlns:rdf="http://www.w3.org/1999/02/22-rdf-syntax-ns#">
   <cc:Work>
    <dc:type rdf:resource="http://purl.org/dc/dcmitype/StillImage"/>
    <dc:date>2026-07-19T18:02:26.992613</dc:date>
    <dc:format>image/svg+xml</dc:format>
    <dc:creator>
     <cc:Agent>
      <dc:title>Matplotlib v3.10.8, https://matplotlib.org/</dc:title>
     </cc:Agent>
    </dc:creator>
   </cc:Work>
  </rdf:RDF>
 </metadata>
 <defs>
  <style type="text/css">*{stroke-linejoin: round; stroke-linecap: butt}</style>
 </defs>
 <g id="figure_1">
  <g id="patch_1">
   <path d="M 0 237.469375 
L 820.739687 237.469375 
L 820.739687 0 
L 0 0 
L 0 237.469375 
z
" style="fill: none"/>
  </g>
  <g id="axes_1">
   <g id="patch_2">
    <path d="M 52.669688 212.72 
L 813.539687 212.72 
L 813.539687 7.2 
L 52.669688 7.2 
L 52.669688 212.72 
z
" style="fill: none"/>
   </g>
   <g id="matplotlib.axis_1">
    <g id="text_1">
     <!-- time  →  (one conversion per tick) -->
     <g style="fill: #5a6b76" transform="translate(314.935937 227.357813) scale(0.14 -0.14)">
      <defs>
       <path id="DejaVuSans-74" d="M 1172 4494 
L 1172 3500 
L 2356 3500 
L 2356 3053 
L 1172 3053 
L 1172 1153 
Q 1172 725 1289 603 
Q 1406 481 1766 481 
L 2356 481 
L 2356 0 
L 1766 0 
Q 1100 0 847 248 
Q 594 497 594 1153 
L 594 3053 
L 172 3053 
L 172 3500 
L 594 3500 
L 594 4494 
L 1172 4494 
z
" transform="scale(0.015625)"/>
       <path id="DejaVuSans-69" d="M 603 3500 
L 1178 3500 
L 1178 0 
L 603 0 
L 603 3500 
z
M 603 4863 
L 1178 4863 
L 1178 4134 
L 603 4134 
L 603 4863 
z
" transform="scale(0.015625)"/>
       <path id="DejaVuSans-6d" d="M 3328 2828 
Q 3544 3216 3844 3400 
Q 4144 3584 4550 3584 
Q 5097 3584 5394 3201 
Q 5691 2819 5691 2113 
L 5691 0 
L 5113 0 
L 5113 2094 
Q 5113 2597 4934 2840 
Q 4756 3084 4391 3084 
Q 3944 3084 3684 2787 
Q 3425 2491 3425 1978 
L 3425 0 
L 2847 0 
L 2847 2094 
Q 2847 2600 2669 2842 
Q 2491 3084 2119 3084 
Q 1678 3084 1418 2786 
Q 1159 2488 1159 1978 
L 1159 0 
L 581 0 
L 581 3500 
L 1159 3500 
L 1159 2956 
Q 1356 3278 1631 3431 
Q 1906 3584 2284 3584 
Q 2666 3584 2933 3390 
Q 3200 3197 3328 2828 
z
" transform="scale(0.015625)"/>
       <path id="DejaVuSans-65" d="M 3597 1894 
L 3597 1613 
L 953 1613 
Q 991 1019 1311 708 
Q 1631 397 2203 397 
Q 2534 397 2845 478 
Q 3156 559 3463 722 
L 3463 178 
Q 3153 47 2828 -22 
Q 2503 -91 2169 -91 
Q 1331 -91 842 396 
Q 353 884 353 1716 
Q 353 2575 817 3079 
Q 1281 3584 2069 3584 
Q 2775 3584 3186 3129 
Q 3597 2675 3597 1894 
z
M 3022 2063 
Q 3016 2534 2758 2815 
Q 2500 3097 2075 3097 
Q 1594 3097 1305 2825 
Q 1016 2553 972 2059 
L 3022 2063 
z
" transform="scale(0.015625)"/>
       <path id="DejaVuSans-20" transform="scale(0.015625)"/>
       <path id="DejaVuSans-2192" d="M 5050 2147 
L 5050 1866 
L 3822 638 
L 3447 1013 
L 4175 1741 
L 366 1741 
L 366 2272 
L 4175 2272 
L 3447 3000 
L 3822 3375 
L 5050 2147 
z
" transform="scale(0.015625)"/>
       <path id="DejaVuSans-28" d="M 1984 4856 
Q 1566 4138 1362 3434 
Q 1159 2731 1159 2009 
Q 1159 1288 1364 580 
Q 1569 -128 1984 -844 
L 1484 -844 
Q 1016 -109 783 600 
Q 550 1309 550 2009 
Q 550 2706 781 3412 
Q 1013 4119 1484 4856 
L 1984 4856 
z
" transform="scale(0.015625)"/>
       <path id="DejaVuSans-6f" d="M 1959 3097 
Q 1497 3097 1228 2736 
Q 959 2375 959 1747 
Q 959 1119 1226 758 
Q 1494 397 1959 397 
Q 2419 397 2687 759 
Q 2956 1122 2956 1747 
Q 2956 2369 2687 2733 
Q 2419 3097 1959 3097 
z
M 1959 3584 
Q 2709 3584 3137 3096 
Q 3566 2609 3566 1747 
Q 3566 888 3137 398 
Q 2709 -91 1959 -91 
Q 1206 -91 779 398 
Q 353 888 353 1747 
Q 353 2609 779 3096 
Q 1206 3584 1959 3584 
z
" transform="scale(0.015625)"/>
       <path id="DejaVuSans-6e" d="M 3513 2113 
L 3513 0 
L 2938 0 
L 2938 2094 
Q 2938 2591 2744 2837 
Q 2550 3084 2163 3084 
Q 1697 3084 1428 2787 
Q 1159 2491 1159 1978 
L 1159 0 
L 581 0 
L 581 3500 
L 1159 3500 
L 1159 2956 
Q 1366 3272 1645 3428 
Q 1925 3584 2291 3584 
Q 2894 3584 3203 3211 
Q 3513 2838 3513 2113 
z
" transform="scale(0.015625)"/>
       <path id="DejaVuSans-63" d="M 3122 3366 
L 3122 2828 
Q 2878 2963 2633 3030 
Q 2388 3097 2138 3097 
Q 1578 3097 1268 2742 
Q 959 2388 959 1747 
Q 959 1106 1268 751 
Q 1578 397 2138 397 
Q 2388 397 2633 464 
Q 2878 531 3122 666 
L 3122 134 
Q 2881 22 2623 -34 
Q 2366 -91 2075 -91 
Q 1284 -91 818 406 
Q 353 903 353 1747 
Q 353 2603 823 3093 
Q 1294 3584 2113 3584 
Q 2378 3584 2631 3529 
Q 2884 3475 3122 3366 
z
" transform="scale(0.015625)"/>
       <path id="DejaVuSans-76" d="M 191 3500 
L 800 3500 
L 1894 563 
L 2988 3500 
L 3597 3500 
L 2284 0 
L 1503 0 
L 191 3500 
z
" transform="scale(0.015625)"/>
       <path id="DejaVuSans-72" d="M 2631 2963 
Q 2534 3019 2420 3045 
Q 2306 3072 2169 3072 
Q 1681 3072 1420 2755 
Q 1159 2438 1159 1844 
L 1159 0 
L 581 0 
L 581 3500 
L 1159 3500 
L 1159 2956 
Q 1341 3275 1631 3429 
Q 1922 3584 2338 3584 
Q 2397 3584 2469 3576 
Q 2541 3569 2628 3553 
L 2631 2963 
z
" transform="scale(0.015625)"/>
       <path id="DejaVuSans-73" d="M 2834 3397 
L 2834 2853 
Q 2591 2978 2328 3040 
Q 2066 3103 1784 3103 
Q 1356 3103 1142 2972 
Q 928 2841 928 2578 
Q 928 2378 1081 2264 
Q 1234 2150 1697 2047 
L 1894 2003 
Q 2506 1872 2764 1633 
Q 3022 1394 3022 966 
Q 3022 478 2636 193 
Q 2250 -91 1575 -91 
Q 1294 -91 989 -36 
Q 684 19 347 128 
L 347 722 
Q 666 556 975 473 
Q 1284 391 1588 391 
Q 1994 391 2212 530 
Q 2431 669 2431 922 
Q 2431 1156 2273 1281 
Q 2116 1406 1581 1522 
L 1381 1569 
Q 847 1681 609 1914 
Q 372 2147 372 2553 
Q 372 3047 722 3315 
Q 1072 3584 1716 3584 
Q 2034 3584 2315 3537 
Q 2597 3491 2834 3397 
z
" transform="scale(0.015625)"/>
       <path id="DejaVuSans-70" d="M 1159 525 
L 1159 -1331 
L 581 -1331 
L 581 3500 
L 1159 3500 
L 1159 2969 
Q 1341 3281 1617 3432 
Q 1894 3584 2278 3584 
Q 2916 3584 3314 3078 
Q 3713 2572 3713 1747 
Q 3713 922 3314 415 
Q 2916 -91 2278 -91 
Q 1894 -91 1617 61 
Q 1341 213 1159 525 
z
M 3116 1747 
Q 3116 2381 2855 2742 
Q 2594 3103 2138 3103 
Q 1681 3103 1420 2742 
Q 1159 2381 1159 1747 
Q 1159 1113 1420 752 
Q 1681 391 2138 391 
Q 2594 391 2855 752 
Q 3116 1113 3116 1747 
z
" transform="scale(0.015625)"/>
       <path id="DejaVuSans-6b" d="M 581 4863 
L 1159 4863 
L 1159 1991 
L 2875 3500 
L 3609 3500 
L 1753 1863 
L 3688 0 
L 2938 0 
L 1159 1709 
L 1159 0 
L 581 0 
L 581 4863 
z
" transform="scale(0.015625)"/>
       <path id="DejaVuSans-29" d="M 513 4856 
L 1013 4856 
Q 1481 4119 1714 3412 
Q 1947 2706 1947 2009 
Q 1947 1309 1714 600 
Q 1481 -109 1013 -844 
L 513 -844 
Q 928 -128 1133 580 
Q 1338 1288 1338 2009 
Q 1338 2731 1133 3434 
Q 928 4138 513 4856 
z
" transform="scale(0.015625)"/>
      </defs>
      <use xlink:href="#DejaVuSans-74"/>
      <use xlink:href="#DejaVuSans-69" transform="translate(39.208984 0)"/>
      <use xlink:href="#DejaVuSans-6d" transform="translate(66.992188 0)"/>
      <use xlink:href="#DejaVuSans-65" transform="translate(164.404297 0)"/>
      <use xlink:href="#DejaVuSans-20" transform="translate(225.927734 0)"/>
      <use xlink:href="#DejaVuSans-20" transform="translate(257.714844 0)"/>
      <use xlink:href="#DejaVuSans-2192" transform="translate(289.501953 0)"/>
      <use xlink:href="#DejaVuSans-20" transform="translate(373.291016 0)"/>
      <use xlink:href="#DejaVuSans-20" transform="translate(405.078125 0)"/>
      <use xlink:href="#DejaVuSans-28" transform="translate(436.865234 0)"/>
      <use xlink:href="#DejaVuSans-6f" transform="translate(475.878906 0)"/>
      <use xlink:href="#DejaVuSans-6e" transform="translate(537.060547 0)"/>
      <use xlink:href="#DejaVuSans-65" transform="translate(600.439453 0)"/>
      <use xlink:href="#DejaVuSans-20" transform="translate(661.962891 0)"/>
      <use xlink:href="#DejaVuSans-63" transform="translate(693.75 0)"/>
      <use xlink:href="#DejaVuSans-6f" transform="translate(748.730469 0)"/>
      <use xlink:href="#DejaVuSans-6e" transform="translate(809.912109 0)"/>
      <use xlink:href="#DejaVuSans-76" transform="translate(873.291016 0)"/>
      <use xlink:href="#DejaVuSans-65" transform="translate(932.470703 0)"/>
      <use xlink:href="#DejaVuSans-72" transform="translate(993.994141 0)"/>
      <use xlink:href="#DejaVuSans-73" transform="translate(1035.107422 0)"/>
      <use xlink:href="#DejaVuSans-69" transform="translate(1087.207031 0)"/>
      <use xlink:href="#DejaVuSans-6f" transform="translate(1114.990234 0)"/>
      <use xlink:href="#DejaVuSans-6e" transform="translate(1176.171875 0)"/>
      <use xlink:href="#DejaVuSans-20" transform="translate(1239.550781 0)"/>
      <use xlink:href="#DejaVuSans-70" transform="translate(1271.337891 0)"/>
      <use xlink:href="#DejaVuSans-65" transform="translate(1334.814453 0)"/>
      <use xlink:href="#DejaVuSans-72" transform="translate(1396.337891 0)"/>
      <use xlink:href="#DejaVuSans-20" transform="translate(1437.451172 0)"/>
      <use xlink:href="#DejaVuSans-74" transform="translate(1469.238281 0)"/>
      <use xlink:href="#DejaVuSans-69" transform="translate(1508.447266 0)"/>
      <use xlink:href="#DejaVuSans-63" transform="translate(1536.230469 0)"/>
      <use xlink:href="#DejaVuSans-6b" transform="translate(1591.210938 0)"/>
      <use xlink:href="#DejaVuSans-29" transform="translate(1649.121094 0)"/>
     </g>
    </g>
   </g>
   <g id="matplotlib.axis_2">
    <g id="ytick_1">
     <g id="line2d_1"/>
     <g id="text_2">
      <!-- 0 V -->
      <g style="fill: #5a6b76" transform="translate(27.874063 186.201842) scale(0.13 -0.13)">
       <defs>
        <path id="DejaVuSans-30" d="M 2034 4250 
Q 1547 4250 1301 3770 
Q 1056 3291 1056 2328 
Q 1056 1369 1301 889 
Q 1547 409 2034 409 
Q 2525 409 2770 889 
Q 3016 1369 3016 2328 
Q 3016 3291 2770 3770 
Q 2525 4250 2034 4250 
z
M 2034 4750 
Q 2819 4750 3233 4129 
Q 3647 3509 3647 2328 
Q 3647 1150 3233 529 
Q 2819 -91 2034 -91 
Q 1250 -91 836 529 
Q 422 1150 422 2328 
Q 422 3509 836 4129 
Q 1250 4750 2034 4750 
z
" transform="scale(0.015625)"/>
        <path id="DejaVuSans-56" d="M 1831 0 
L 50 4666 
L 709 4666 
L 2188 738 
L 3669 4666 
L 4325 4666 
L 2547 0 
L 1831 0 
z
" transform="scale(0.015625)"/>
       </defs>
       <use xlink:href="#DejaVuSans-30"/>
       <use xlink:href="#DejaVuSans-20" transform="translate(63.623047 0)"/>
       <use xlink:href="#DejaVuSans-56" transform="translate(95.410156 0)"/>
      </g>
     </g>
    </g>
    <g id="ytick_2">
     <g id="line2d_2"/>
     <g id="text_3">
      <!-- 1.65 V -->
      <g style="fill: #5a6b76" transform="translate(7.2 116.996127) scale(0.13 -0.13)">
       <defs>
        <path id="DejaVuSans-31" d="M 794 531 
L 1825 531 
L 1825 4091 
L 703 3866 
L 703 4441 
L 1819 4666 
L 2450 4666 
L 2450 531 
L 3481 531 
L 3481 0 
L 794 0 
L 794 531 
z
" transform="scale(0.015625)"/>
        <path id="DejaVuSans-2e" d="M 684 794 
L 1344 794 
L 1344 0 
L 684 0 
L 684 794 
z
" transform="scale(0.015625)"/>
        <path id="DejaVuSans-36" d="M 2113 2584 
Q 1688 2584 1439 2293 
Q 1191 2003 1191 1497 
Q 1191 994 1439 701 
Q 1688 409 2113 409 
Q 2538 409 2786 701 
Q 3034 994 3034 1497 
Q 3034 2003 2786 2293 
Q 2538 2584 2113 2584 
z
M 3366 4563 
L 3366 3988 
Q 3128 4100 2886 4159 
Q 2644 4219 2406 4219 
Q 1781 4219 1451 3797 
Q 1122 3375 1075 2522 
Q 1259 2794 1537 2939 
Q 1816 3084 2150 3084 
Q 2853 3084 3261 2657 
Q 3669 2231 3669 1497 
Q 3669 778 3244 343 
Q 2819 -91 2113 -91 
Q 1303 -91 875 529 
Q 447 1150 447 2328 
Q 447 3434 972 4092 
Q 1497 4750 2381 4750 
Q 2619 4750 2861 4703 
Q 3103 4656 3366 4563 
z
" transform="scale(0.015625)"/>
        <path id="DejaVuSans-35" d="M 691 4666 
L 3169 4666 
L 3169 4134 
L 1269 4134 
L 1269 2991 
Q 1406 3038 1543 3061 
Q 1681 3084 1819 3084 
Q 2600 3084 3056 2656 
Q 3513 2228 3513 1497 
Q 3513 744 3044 326 
Q 2575 -91 1722 -91 
Q 1428 -91 1123 -41 
Q 819 9 494 109 
L 494 744 
Q 775 591 1075 516 
Q 1375 441 1709 441 
Q 2250 441 2565 725 
Q 2881 1009 2881 1497 
Q 2881 1984 2565 2268 
Q 2250 2553 1709 2553 
Q 1456 2553 1204 2497 
Q 953 2441 691 2322 
L 691 4666 
z
" transform="scale(0.015625)"/>
       </defs>
       <use xlink:href="#DejaVuSans-31"/>
       <use xlink:href="#DejaVuSans-2e" transform="translate(63.623047 0)"/>
       <use xlink:href="#DejaVuSans-36" transform="translate(95.410156 0)"/>
       <use xlink:href="#DejaVuSans-35" transform="translate(159.033203 0)"/>
       <use xlink:href="#DejaVuSans-20" transform="translate(222.65625 0)"/>
       <use xlink:href="#DejaVuSans-56" transform="translate(254.443359 0)"/>
      </g>
     </g>
    </g>
    <g id="ytick_3">
     <g id="line2d_3"/>
     <g id="text_4">
      <!-- 3.3 V -->
      <g style="fill: #5a6b76" transform="translate(15.47125 47.790413) scale(0.13 -0.13)">
       <defs>
        <path id="DejaVuSans-33" d="M 2597 2516 
Q 3050 2419 3304 2112 
Q 3559 1806 3559 1356 
Q 3559 666 3084 287 
Q 2609 -91 1734 -91 
Q 1441 -91 1130 -33 
Q 819 25 488 141 
L 488 750 
Q 750 597 1062 519 
Q 1375 441 1716 441 
Q 2309 441 2620 675 
Q 2931 909 2931 1356 
Q 2931 1769 2642 2001 
Q 2353 2234 1838 2234 
L 1294 2234 
L 1294 2753 
L 1863 2753 
Q 2328 2753 2575 2939 
Q 2822 3125 2822 3475 
Q 2822 3834 2567 4026 
Q 2313 4219 1838 4219 
Q 1578 4219 1281 4162 
Q 984 4106 628 3988 
L 628 4550 
Q 988 4650 1302 4700 
Q 1616 4750 1894 4750 
Q 2613 4750 3031 4423 
Q 3450 4097 3450 3541 
Q 3450 3153 3228 2886 
Q 3006 2619 2597 2516 
z
" transform="scale(0.015625)"/>
       </defs>
       <use xlink:href="#DejaVuSans-33"/>
       <use xlink:href="#DejaVuSans-2e" transform="translate(63.623047 0)"/>
       <use xlink:href="#DejaVuSans-33" transform="translate(95.410156 0)"/>
       <use xlink:href="#DejaVuSans-20" transform="translate(159.033203 0)"/>
       <use xlink:href="#DejaVuSans-56" transform="translate(190.820312 0)"/>
      </g>
     </g>
    </g>
   </g>
   <g id="line2d_4">
    <path d="M 87.254687 144.028813 
L 92.464084 139.175949 
L 98.161861 133.556248 
L 104.836401 126.647874 
L 113.627257 117.199033 
L 133.650875 95.563321 
L 140.325414 88.740528 
L 146.023191 83.217789 
L 151.232588 78.471804 
L 155.953603 74.462615 
L 160.349032 71.009727 
L 164.581666 67.963554 
L 168.651507 65.311727 
L 172.558555 63.037061 
L 176.302808 61.118524 
L 179.884268 59.532154 
L 183.302935 58.251879 
L 186.721601 57.205823 
L 190.140268 56.39854 
L 193.396141 55.854914 
L 196.652013 55.533204 
L 199.907886 55.434679 
L 203.163759 55.55973 
L 206.419632 55.907861 
L 209.675504 56.477698 
L 212.931377 57.266992 
L 216.350044 58.328519 
L 219.76871 59.623931 
L 223.35017 61.225729 
L 226.93163 63.070369 
L 230.675884 65.248925 
L 234.582931 67.782582 
L 238.652772 70.689233 
L 242.885407 73.982568 
L 247.443629 77.812642 
L 252.327438 82.209468 
L 257.699628 87.350548 
L 263.722993 93.427677 
L 271.048707 101.14955 
L 282.444261 113.5359 
L 294.653784 126.712099 
L 301.816704 134.110349 
L 307.677275 139.85651 
L 312.886672 144.668051 
L 317.770481 148.880521 
L 322.328703 152.517833 
L 326.561338 155.615609 
L 330.631179 158.320424 
L 334.538226 160.648763 
L 338.28248 162.621025 
L 341.86394 164.260619 
L 345.4454 165.650817 
L 348.864066 166.739061 
L 352.282733 167.58927 
L 355.538606 168.174292 
L 358.794478 168.537735 
L 362.050351 168.678163 
L 365.306224 168.595022 
L 368.562097 168.288641 
L 371.817969 167.760228 
L 375.073842 167.011871 
L 378.492509 165.992626 
L 381.911175 164.738594 
L 385.492635 163.178985 
L 389.074095 161.375148 
L 392.818349 159.237553 
L 396.725396 156.744562 
L 400.795237 153.877774 
L 405.027872 150.622931 
L 409.586094 146.830637 
L 414.469903 142.469742 
L 419.842093 137.36238 
L 425.865458 131.315392 
L 433.028378 123.79283 
L 443.609965 112.313039 
L 457.28463 97.531128 
L 464.44755 90.126908 
L 470.308121 84.37411 
L 475.680312 79.40988 
L 480.564121 75.199984 
L 485.122343 71.565347 
L 489.354977 68.470269 
L 493.424818 65.768228 
L 497.331866 63.442702 
L 501.076119 61.473256 
L 504.657579 59.836455 
L 508.239039 58.449131 
L 511.657706 57.363694 
L 515.076372 56.516344 
L 518.332245 55.934079 
L 521.588118 55.573417 
L 524.843991 55.435782 
L 528.099863 55.521717 
L 531.355736 55.830883 
L 534.611609 56.36206 
L 537.867482 57.113149 
L 541.286148 58.135218 
L 544.704815 59.392014 
L 548.286275 60.954442 
L 551.867735 62.761008 
L 555.611989 64.901342 
L 559.519036 67.397055 
L 563.588877 70.266513 
L 567.821512 73.523936 
L 572.379733 77.318766 
L 577.263543 81.682075 
L 582.635733 86.791707 
L 588.659097 92.84073 
L 595.822018 100.364977 
L 606.403604 111.845729 
L 619.915476 126.454136 
L 627.078396 133.864284 
L 633.101761 139.778971 
L 638.311157 144.595282 
L 643.194967 148.812893 
L 647.753189 152.455545 
L 651.985823 155.558714 
L 656.055664 158.269072 
L 659.962712 160.60303 
L 663.706965 162.580922 
L 667.288425 164.226097 
L 670.869885 165.622042 
L 674.288552 166.7159 
L 677.707218 167.571824 
L 680.963091 168.16236 
L 684.218964 168.531363 
L 687.474837 168.677377 
L 690.730709 168.599825 
L 693.986582 168.299013 
L 697.242455 167.77613 
L 700.498328 167.033239 
L 703.916994 166.019641 
L 707.335661 164.771141 
L 710.917121 163.217173 
L 714.498581 161.418795 
L 718.242835 159.286685 
L 722.149882 156.799142 
L 726.219723 153.9377 
L 730.452358 150.688023 
L 735.010579 146.900806 
L 738.266452 144.028813 
L 738.266452 144.028813 
" clip-path="url(#pc22e665fbe)" style="fill: none; stroke: #174f73; stroke-width: 2.6; stroke-linecap: square"/>
   </g>
   <g id="LineCollection_1">
    <path d="M 87.254687 181.262857 
L 87.254687 144.028813 
" clip-path="url(#pc22e665fbe)" style="fill: none; stroke-dasharray: 3.3,3.3; stroke-dashoffset: 0; stroke: #d47b28; stroke-opacity: 0.65; stroke-width: 1.1"/>
    <path d="M 127.942923 181.262857 
L 127.942923 101.619405 
" clip-path="url(#pc22e665fbe)" style="fill: none; stroke-dasharray: 3.3,3.3; stroke-dashoffset: 0; stroke: #d47b28; stroke-opacity: 0.65; stroke-width: 1.1"/>
    <path d="M 168.631158 181.262857 
L 168.631158 65.324282 
" clip-path="url(#pc22e665fbe)" style="fill: none; stroke-dasharray: 3.3,3.3; stroke-dashoffset: 0; stroke: #d47b28; stroke-opacity: 0.65; stroke-width: 1.1"/>
    <path d="M 209.319393 181.262857 
L 209.319393 56.404635 
" clip-path="url(#pc22e665fbe)" style="fill: none; stroke-dasharray: 3.3,3.3; stroke-dashoffset: 0; stroke: #d47b28; stroke-opacity: 0.65; stroke-width: 1.1"/>
    <path d="M 250.007629 181.262857 
L 250.007629 80.085473 
" clip-path="url(#pc22e665fbe)" style="fill: none; stroke-dasharray: 3.3,3.3; stroke-dashoffset: 0; stroke: #d47b28; stroke-opacity: 0.65; stroke-width: 1.1"/>
    <path d="M 290.695864 181.262857 
L 290.695864 122.494881 
" clip-path="url(#pc22e665fbe)" style="fill: none; stroke-dasharray: 3.3,3.3; stroke-dashoffset: 0; stroke: #d47b28; stroke-opacity: 0.65; stroke-width: 1.1"/>
    <path d="M 331.384099 181.262857 
L 331.384099 158.790003 
" clip-path="url(#pc22e665fbe)" style="fill: none; stroke-dasharray: 3.3,3.3; stroke-dashoffset: 0; stroke: #d47b28; stroke-opacity: 0.65; stroke-width: 1.1"/>
    <path d="M 372.072335 181.262857 
L 372.072335 167.70965 
" clip-path="url(#pc22e665fbe)" style="fill: none; stroke-dasharray: 3.3,3.3; stroke-dashoffset: 0; stroke: #d47b28; stroke-opacity: 0.65; stroke-width: 1.1"/>
    <path d="M 412.76057 181.262857 
L 412.76057 144.028813 
" clip-path="url(#pc22e665fbe)" style="fill: none; stroke-dasharray: 3.3,3.3; stroke-dashoffset: 0; stroke: #d47b28; stroke-opacity: 0.65; stroke-width: 1.1"/>
    <path d="M 453.448805 181.262857 
L 453.448805 101.619405 
" clip-path="url(#pc22e665fbe)" style="fill: none; stroke-dasharray: 3.3,3.3; stroke-dashoffset: 0; stroke: #d47b28; stroke-opacity: 0.65; stroke-width: 1.1"/>
    <path d="M 494.13704 181.262857 
L 494.13704 65.324282 
" clip-path="url(#pc22e665fbe)" style="fill: none; stroke-dasharray: 3.3,3.3; stroke-dashoffset: 0; stroke: #d47b28; stroke-opacity: 0.65; stroke-width: 1.1"/>
    <path d="M 534.825276 181.262857 
L 534.825276 56.404635 
" clip-path="url(#pc22e665fbe)" style="fill: none; stroke-dasharray: 3.3,3.3; stroke-dashoffset: 0; stroke: #d47b28; stroke-opacity: 0.65; stroke-width: 1.1"/>
    <path d="M 575.513511 181.262857 
L 575.513511 80.085473 
" clip-path="url(#pc22e665fbe)" style="fill: none; stroke-dasharray: 3.3,3.3; stroke-dashoffset: 0; stroke: #d47b28; stroke-opacity: 0.65; stroke-width: 1.1"/>
    <path d="M 616.201746 181.262857 
L 616.201746 122.494881 
" clip-path="url(#pc22e665fbe)" style="fill: none; stroke-dasharray: 3.3,3.3; stroke-dashoffset: 0; stroke: #d47b28; stroke-opacity: 0.65; stroke-width: 1.1"/>
    <path d="M 656.889982 181.262857 
L 656.889982 158.790003 
" clip-path="url(#pc22e665fbe)" style="fill: none; stroke-dasharray: 3.3,3.3; stroke-dashoffset: 0; stroke: #d47b28; stroke-opacity: 0.65; stroke-width: 1.1"/>
    <path d="M 697.578217 181.262857 
L 697.578217 167.70965 
" clip-path="url(#pc22e665fbe)" style="fill: none; stroke-dasharray: 3.3,3.3; stroke-dashoffset: 0; stroke: #d47b28; stroke-opacity: 0.65; stroke-width: 1.1"/>
    <path d="M 738.266452 181.262857 
L 738.266452 144.028813 
" clip-path="url(#pc22e665fbe)" style="fill: none; stroke-dasharray: 3.3,3.3; stroke-dashoffset: 0; stroke: #d47b28; stroke-opacity: 0.65; stroke-width: 1.1"/>
   </g>
   <g id="line2d_5">
    <path d="M 87.254687 146.66 
L 127.942923 146.66 
L 127.942923 103.406429 
L 168.631158 103.406429 
L 168.631158 68.803571 
L 209.319393 68.803571 
L 209.319393 60.152857 
L 250.007629 60.152857 
L 250.007629 86.105 
L 290.695864 86.105 
L 290.695864 129.358571 
L 331.384099 129.358571 
L 331.384099 163.961429 
L 372.072335 163.961429 
L 372.072335 172.612143 
L 412.76057 172.612143 
L 412.76057 146.66 
L 453.448805 146.66 
L 453.448805 103.406429 
L 494.13704 103.406429 
L 494.13704 68.803571 
L 534.825276 68.803571 
L 534.825276 60.152857 
L 575.513511 60.152857 
L 575.513511 86.105 
L 616.201746 86.105 
L 616.201746 129.358571 
L 656.889982 129.358571 
L 656.889982 163.961429 
L 697.578217 163.961429 
L 697.578217 172.612143 
L 738.266452 172.612143 
L 738.266452 146.66 
L 778.954687 146.66 
L 778.954687 146.66 
" clip-path="url(#pc22e665fbe)" style="fill: none; stroke: #3f7f58; stroke-opacity: 0.95; stroke-width: 2.2; stroke-linecap: square"/>
   </g>
   <g id="patch_3">
    <path d="M 52.669687 212.72 
L 813.539687 212.72 
" style="fill: none; stroke: #c8d8e2; stroke-width: 0.8; stroke-linejoin: miter; stroke-linecap: square"/>
   </g>
   <g id="patch_4">
    <path d="M 493.252163 35.657815 
Q 413.114678 96.617981 334.400933 156.495114 
" style="fill: none; stroke: #d47b28; stroke-width: 1.6; stroke-linecap: round"/>
    <path d="M 340.772886 155.291696 
L 334.400933 156.495114 
L 337.261371 150.675501 
z
" style="fill: #d47b28; stroke: #d47b28; stroke-width: 1.6; stroke-linecap: round"/>
   </g>
   <g id="text_5">
    <!-- sample: 0.54 V → code 2  (4-bit) -->
    <g style="fill: #d47b28" transform="translate(376.954923 29.429714) scale(0.145 -0.145)">
     <defs>
      <path id="DejaVuSans-Bold-73" d="M 3272 3391 
L 3272 2541 
Q 2913 2691 2578 2766 
Q 2244 2841 1947 2841 
Q 1628 2841 1473 2761 
Q 1319 2681 1319 2516 
Q 1319 2381 1436 2309 
Q 1553 2238 1856 2203 
L 2053 2175 
Q 2913 2066 3209 1816 
Q 3506 1566 3506 1031 
Q 3506 472 3093 190 
Q 2681 -91 1863 -91 
Q 1516 -91 1145 -36 
Q 775 19 384 128 
L 384 978 
Q 719 816 1070 734 
Q 1422 653 1784 653 
Q 2113 653 2278 743 
Q 2444 834 2444 1013 
Q 2444 1163 2330 1236 
Q 2216 1309 1875 1350 
L 1678 1375 
Q 931 1469 631 1722 
Q 331 1975 331 2491 
Q 331 3047 712 3315 
Q 1094 3584 1881 3584 
Q 2191 3584 2531 3537 
Q 2872 3491 3272 3391 
z
" transform="scale(0.015625)"/>
      <path id="DejaVuSans-Bold-61" d="M 2106 1575 
Q 1756 1575 1579 1456 
Q 1403 1338 1403 1106 
Q 1403 894 1545 773 
Q 1688 653 1941 653 
Q 2256 653 2472 879 
Q 2688 1106 2688 1447 
L 2688 1575 
L 2106 1575 
z
M 3816 1997 
L 3816 0 
L 2688 0 
L 2688 519 
Q 2463 200 2181 54 
Q 1900 -91 1497 -91 
Q 953 -91 614 226 
Q 275 544 275 1050 
Q 275 1666 698 1953 
Q 1122 2241 2028 2241 
L 2688 2241 
L 2688 2328 
Q 2688 2594 2478 2717 
Q 2269 2841 1825 2841 
Q 1466 2841 1156 2769 
Q 847 2697 581 2553 
L 581 3406 
Q 941 3494 1303 3539 
Q 1666 3584 2028 3584 
Q 2975 3584 3395 3211 
Q 3816 2838 3816 1997 
z
" transform="scale(0.015625)"/>
      <path id="DejaVuSans-Bold-6d" d="M 3781 2919 
Q 3994 3244 4286 3414 
Q 4578 3584 4928 3584 
Q 5531 3584 5847 3212 
Q 6163 2841 6163 2131 
L 6163 0 
L 5038 0 
L 5038 1825 
Q 5041 1866 5042 1909 
Q 5044 1953 5044 2034 
Q 5044 2406 4934 2573 
Q 4825 2741 4581 2741 
Q 4263 2741 4089 2478 
Q 3916 2216 3909 1719 
L 3909 0 
L 2784 0 
L 2784 1825 
Q 2784 2406 2684 2573 
Q 2584 2741 2328 2741 
Q 2006 2741 1831 2477 
Q 1656 2213 1656 1722 
L 1656 0 
L 531 0 
L 531 3500 
L 1656 3500 
L 1656 2988 
Q 1863 3284 2130 3434 
Q 2397 3584 2719 3584 
Q 3081 3584 3359 3409 
Q 3638 3234 3781 2919 
z
" transform="scale(0.015625)"/>
      <path id="DejaVuSans-Bold-70" d="M 1656 506 
L 1656 -1331 
L 538 -1331 
L 538 3500 
L 1656 3500 
L 1656 2988 
Q 1888 3294 2169 3439 
Q 2450 3584 2816 3584 
Q 3463 3584 3878 3070 
Q 4294 2556 4294 1747 
Q 4294 938 3878 423 
Q 3463 -91 2816 -91 
Q 2450 -91 2169 54 
Q 1888 200 1656 506 
z
M 2400 2772 
Q 2041 2772 1848 2508 
Q 1656 2244 1656 1747 
Q 1656 1250 1848 986 
Q 2041 722 2400 722 
Q 2759 722 2948 984 
Q 3138 1247 3138 1747 
Q 3138 2247 2948 2509 
Q 2759 2772 2400 2772 
z
" transform="scale(0.015625)"/>
      <path id="DejaVuSans-Bold-6c" d="M 538 4863 
L 1656 4863 
L 1656 0 
L 538 0 
L 538 4863 
z
" transform="scale(0.015625)"/>
      <path id="DejaVuSans-Bold-65" d="M 4031 1759 
L 4031 1441 
L 1416 1441 
Q 1456 1047 1700 850 
Q 1944 653 2381 653 
Q 2734 653 3104 758 
Q 3475 863 3866 1075 
L 3866 213 
Q 3469 63 3072 -14 
Q 2675 -91 2278 -91 
Q 1328 -91 801 392 
Q 275 875 275 1747 
Q 275 2603 792 3093 
Q 1309 3584 2216 3584 
Q 3041 3584 3536 3087 
Q 4031 2591 4031 1759 
z
M 2881 2131 
Q 2881 2450 2695 2645 
Q 2509 2841 2209 2841 
Q 1884 2841 1681 2658 
Q 1478 2475 1428 2131 
L 2881 2131 
z
" transform="scale(0.015625)"/>
      <path id="DejaVuSans-Bold-3a" d="M 716 3500 
L 1844 3500 
L 1844 2291 
L 716 2291 
L 716 3500 
z
M 716 1209 
L 1844 1209 
L 1844 0 
L 716 0 
L 716 1209 
z
" transform="scale(0.015625)"/>
      <path id="DejaVuSans-Bold-20" transform="scale(0.015625)"/>
      <path id="DejaVuSans-Bold-30" d="M 2944 2338 
Q 2944 3213 2780 3570 
Q 2616 3928 2228 3928 
Q 1841 3928 1675 3570 
Q 1509 3213 1509 2338 
Q 1509 1453 1675 1090 
Q 1841 728 2228 728 
Q 2613 728 2778 1090 
Q 2944 1453 2944 2338 
z
M 4147 2328 
Q 4147 1169 3647 539 
Q 3147 -91 2228 -91 
Q 1306 -91 806 539 
Q 306 1169 306 2328 
Q 306 3491 806 4120 
Q 1306 4750 2228 4750 
Q 3147 4750 3647 4120 
Q 4147 3491 4147 2328 
z
" transform="scale(0.015625)"/>
      <path id="DejaVuSans-Bold-2e" d="M 653 1209 
L 1778 1209 
L 1778 0 
L 653 0 
L 653 1209 
z
" transform="scale(0.015625)"/>
      <path id="DejaVuSans-Bold-35" d="M 678 4666 
L 3669 4666 
L 3669 3781 
L 1638 3781 
L 1638 3059 
Q 1775 3097 1914 3117 
Q 2053 3138 2203 3138 
Q 3056 3138 3531 2711 
Q 4006 2284 4006 1522 
Q 4006 766 3489 337 
Q 2972 -91 2053 -91 
Q 1656 -91 1267 -14 
Q 878 63 494 219 
L 494 1166 
Q 875 947 1217 837 
Q 1559 728 1863 728 
Q 2300 728 2551 942 
Q 2803 1156 2803 1522 
Q 2803 1891 2551 2103 
Q 2300 2316 1863 2316 
Q 1603 2316 1309 2248 
Q 1016 2181 678 2041 
L 678 4666 
z
" transform="scale(0.015625)"/>
      <path id="DejaVuSans-Bold-34" d="M 2356 3675 
L 1038 1722 
L 2356 1722 
L 2356 3675 
z
M 2156 4666 
L 3494 4666 
L 3494 1722 
L 4159 1722 
L 4159 850 
L 3494 850 
L 3494 0 
L 2356 0 
L 2356 850 
L 288 850 
L 288 1881 
L 2156 4666 
z
" transform="scale(0.015625)"/>
      <path id="DejaVuSans-Bold-56" d="M 31 4666 
L 1241 4666 
L 2478 1222 
L 3713 4666 
L 4922 4666 
L 3194 0 
L 1759 0 
L 31 4666 
z
" transform="scale(0.015625)"/>
      <path id="DejaVuSans-Bold-2192" d="M 5050 2225 
L 5050 1788 
L 3822 559 
L 3369 1013 
L 3988 1631 
L 366 1631 
L 366 2381 
L 3988 2381 
L 3369 3000 
L 3822 3453 
L 5050 2225 
z
" transform="scale(0.015625)"/>
      <path id="DejaVuSans-Bold-63" d="M 3366 3391 
L 3366 2478 
Q 3138 2634 2908 2709 
Q 2678 2784 2431 2784 
Q 1963 2784 1702 2511 
Q 1441 2238 1441 1747 
Q 1441 1256 1702 982 
Q 1963 709 2431 709 
Q 2694 709 2930 787 
Q 3166 866 3366 1019 
L 3366 103 
Q 3103 6 2833 -42 
Q 2563 -91 2291 -91 
Q 1344 -91 809 395 
Q 275 881 275 1747 
Q 275 2613 809 3098 
Q 1344 3584 2291 3584 
Q 2566 3584 2833 3536 
Q 3100 3488 3366 3391 
z
" transform="scale(0.015625)"/>
      <path id="DejaVuSans-Bold-6f" d="M 2203 2784 
Q 1831 2784 1636 2517 
Q 1441 2250 1441 1747 
Q 1441 1244 1636 976 
Q 1831 709 2203 709 
Q 2569 709 2762 976 
Q 2956 1244 2956 1747 
Q 2956 2250 2762 2517 
Q 2569 2784 2203 2784 
z
M 2203 3584 
Q 3106 3584 3614 3096 
Q 4122 2609 4122 1747 
Q 4122 884 3614 396 
Q 3106 -91 2203 -91 
Q 1297 -91 786 396 
Q 275 884 275 1747 
Q 275 2609 786 3096 
Q 1297 3584 2203 3584 
z
" transform="scale(0.015625)"/>
      <path id="DejaVuSans-Bold-64" d="M 2919 2988 
L 2919 4863 
L 4044 4863 
L 4044 0 
L 2919 0 
L 2919 506 
Q 2688 197 2409 53 
Q 2131 -91 1766 -91 
Q 1119 -91 703 423 
Q 288 938 288 1747 
Q 288 2556 703 3070 
Q 1119 3584 1766 3584 
Q 2128 3584 2408 3439 
Q 2688 3294 2919 2988 
z
M 2181 722 
Q 2541 722 2730 984 
Q 2919 1247 2919 1747 
Q 2919 2247 2730 2509 
Q 2541 2772 2181 2772 
Q 1825 2772 1636 2509 
Q 1447 2247 1447 1747 
Q 1447 1247 1636 984 
Q 1825 722 2181 722 
z
" transform="scale(0.015625)"/>
      <path id="DejaVuSans-Bold-32" d="M 1844 884 
L 3897 884 
L 3897 0 
L 506 0 
L 506 884 
L 2209 2388 
Q 2438 2594 2547 2791 
Q 2656 2988 2656 3200 
Q 2656 3528 2436 3728 
Q 2216 3928 1850 3928 
Q 1569 3928 1234 3808 
Q 900 3688 519 3450 
L 519 4475 
Q 925 4609 1322 4679 
Q 1719 4750 2100 4750 
Q 2938 4750 3402 4381 
Q 3866 4013 3866 3353 
Q 3866 2972 3669 2642 
Q 3472 2313 2841 1759 
L 1844 884 
z
" transform="scale(0.015625)"/>
      <path id="DejaVuSans-Bold-28" d="M 2413 -844 
L 1484 -844 
Q 1006 -72 778 623 
Q 550 1319 550 2003 
Q 550 2688 779 3389 
Q 1009 4091 1484 4856 
L 2413 4856 
Q 2013 4116 1813 3408 
Q 1613 2700 1613 2009 
Q 1613 1319 1811 609 
Q 2009 -100 2413 -844 
z
" transform="scale(0.015625)"/>
      <path id="DejaVuSans-Bold-2d" d="M 347 2297 
L 2309 2297 
L 2309 1388 
L 347 1388 
L 347 2297 
z
" transform="scale(0.015625)"/>
      <path id="DejaVuSans-Bold-62" d="M 2400 722 
Q 2759 722 2948 984 
Q 3138 1247 3138 1747 
Q 3138 2247 2948 2509 
Q 2759 2772 2400 2772 
Q 2041 2772 1848 2508 
Q 1656 2244 1656 1747 
Q 1656 1250 1848 986 
Q 2041 722 2400 722 
z
M 1656 2988 
Q 1888 3294 2169 3439 
Q 2450 3584 2816 3584 
Q 3463 3584 3878 3070 
Q 4294 2556 4294 1747 
Q 4294 938 3878 423 
Q 3463 -91 2816 -91 
Q 2450 -91 2169 54 
Q 1888 200 1656 506 
L 1656 0 
L 538 0 
L 538 4863 
L 1656 4863 
L 1656 2988 
z
" transform="scale(0.015625)"/>
      <path id="DejaVuSans-Bold-69" d="M 538 3500 
L 1656 3500 
L 1656 0 
L 538 0 
L 538 3500 
z
M 538 4863 
L 1656 4863 
L 1656 3950 
L 538 3950 
L 538 4863 
z
" transform="scale(0.015625)"/>
      <path id="DejaVuSans-Bold-74" d="M 1759 4494 
L 1759 3500 
L 2913 3500 
L 2913 2700 
L 1759 2700 
L 1759 1216 
Q 1759 972 1856 886 
Q 1953 800 2241 800 
L 2816 800 
L 2816 0 
L 1856 0 
Q 1194 0 917 276 
Q 641 553 641 1216 
L 641 2700 
L 84 2700 
L 84 3500 
L 641 3500 
L 641 4494 
L 1759 4494 
z
" transform="scale(0.015625)"/>
      <path id="DejaVuSans-Bold-29" d="M 513 -844 
Q 913 -100 1113 609 
Q 1313 1319 1313 2009 
Q 1313 2700 1113 3408 
Q 913 4116 513 4856 
L 1441 4856 
Q 1916 4091 2145 3389 
Q 2375 2688 2375 2003 
Q 2375 1319 2147 623 
Q 1919 -72 1441 -844 
L 513 -844 
z
" transform="scale(0.015625)"/>
     </defs>
     <use xlink:href="#DejaVuSans-Bold-73"/>
     <use xlink:href="#DejaVuSans-Bold-61" transform="translate(59.521484 0)"/>
     <use xlink:href="#DejaVuSans-Bold-6d" transform="translate(127.001953 0)"/>
     <use xlink:href="#DejaVuSans-Bold-70" transform="translate(231.201172 0)"/>
     <use xlink:href="#DejaVuSans-Bold-6c" transform="translate(302.783203 0)"/>
     <use xlink:href="#DejaVuSans-Bold-65" transform="translate(337.060547 0)"/>
     <use xlink:href="#DejaVuSans-Bold-3a" transform="translate(404.882812 0)"/>
     <use xlink:href="#DejaVuSans-Bold-20" transform="translate(444.873047 0)"/>
     <use xlink:href="#DejaVuSans-Bold-30" transform="translate(479.6875 0)"/>
     <use xlink:href="#DejaVuSans-Bold-2e" transform="translate(549.267578 0)"/>
     <use xlink:href="#DejaVuSans-Bold-35" transform="translate(587.255859 0)"/>
     <use xlink:href="#DejaVuSans-Bold-34" transform="translate(656.835938 0)"/>
     <use xlink:href="#DejaVuSans-Bold-20" transform="translate(726.416016 0)"/>
     <use xlink:href="#DejaVuSans-Bold-56" transform="translate(761.230469 0)"/>
     <use xlink:href="#DejaVuSans-Bold-20" transform="translate(838.623047 0)"/>
     <use xlink:href="#DejaVuSans-Bold-2192" transform="translate(873.4375 0)"/>
     <use xlink:href="#DejaVuSans-Bold-20" transform="translate(957.226562 0)"/>
     <use xlink:href="#DejaVuSans-Bold-63" transform="translate(992.041016 0)"/>
     <use xlink:href="#DejaVuSans-Bold-6f" transform="translate(1051.318359 0)"/>
     <use xlink:href="#DejaVuSans-Bold-64" transform="translate(1120.019531 0)"/>
     <use xlink:href="#DejaVuSans-Bold-65" transform="translate(1191.601562 0)"/>
     <use xlink:href="#DejaVuSans-Bold-20" transform="translate(1259.423828 0)"/>
     <use xlink:href="#DejaVuSans-Bold-32" transform="translate(1294.238281 0)"/>
     <use xlink:href="#DejaVuSans-Bold-20" transform="translate(1363.818359 0)"/>
     <use xlink:href="#DejaVuSans-Bold-20" transform="translate(1398.632812 0)"/>
     <use xlink:href="#DejaVuSans-Bold-28" transform="translate(1433.447266 0)"/>
     <use xlink:href="#DejaVuSans-Bold-34" transform="translate(1479.150391 0)"/>
     <use xlink:href="#DejaVuSans-Bold-2d" transform="translate(1548.730469 0)"/>
     <use xlink:href="#DejaVuSans-Bold-62" transform="translate(1590.234375 0)"/>
     <use xlink:href="#DejaVuSans-Bold-69" transform="translate(1661.816406 0)"/>
     <use xlink:href="#DejaVuSans-Bold-74" transform="translate(1696.09375 0)"/>
     <use xlink:href="#DejaVuSans-Bold-29" transform="translate(1743.896484 0)"/>
    </g>
   </g>
   <g id="text_6">
    <!-- analog: every value exists -->
    <g style="fill: #174f73" transform="translate(93.764805 29.429714) scale(0.145 -0.145)">
     <defs>
      <path id="DejaVuSans-Bold-6e" d="M 4056 2131 
L 4056 0 
L 2931 0 
L 2931 347 
L 2931 1631 
Q 2931 2084 2911 2256 
Q 2891 2428 2841 2509 
Q 2775 2619 2662 2680 
Q 2550 2741 2406 2741 
Q 2056 2741 1856 2470 
Q 1656 2200 1656 1722 
L 1656 0 
L 538 0 
L 538 3500 
L 1656 3500 
L 1656 2988 
Q 1909 3294 2193 3439 
Q 2478 3584 2822 3584 
Q 3428 3584 3742 3212 
Q 4056 2841 4056 2131 
z
" transform="scale(0.015625)"/>
      <path id="DejaVuSans-Bold-67" d="M 2919 594 
Q 2688 288 2409 144 
Q 2131 0 1766 0 
Q 1125 0 706 504 
Q 288 1009 288 1791 
Q 288 2575 706 3076 
Q 1125 3578 1766 3578 
Q 2131 3578 2409 3434 
Q 2688 3291 2919 2981 
L 2919 3500 
L 4044 3500 
L 4044 353 
Q 4044 -491 3511 -936 
Q 2978 -1381 1966 -1381 
Q 1638 -1381 1331 -1331 
Q 1025 -1281 716 -1178 
L 716 -306 
Q 1009 -475 1290 -558 
Q 1572 -641 1856 -641 
Q 2406 -641 2662 -400 
Q 2919 -159 2919 353 
L 2919 594 
z
M 2181 2772 
Q 1834 2772 1640 2515 
Q 1447 2259 1447 1791 
Q 1447 1309 1634 1061 
Q 1822 813 2181 813 
Q 2531 813 2725 1069 
Q 2919 1325 2919 1791 
Q 2919 2259 2725 2515 
Q 2531 2772 2181 2772 
z
" transform="scale(0.015625)"/>
      <path id="DejaVuSans-Bold-76" d="M 97 3500 
L 1216 3500 
L 2088 1081 
L 2956 3500 
L 4078 3500 
L 2700 0 
L 1472 0 
L 97 3500 
z
" transform="scale(0.015625)"/>
      <path id="DejaVuSans-Bold-72" d="M 3138 2547 
Q 2991 2616 2845 2648 
Q 2700 2681 2553 2681 
Q 2122 2681 1889 2404 
Q 1656 2128 1656 1613 
L 1656 0 
L 538 0 
L 538 3500 
L 1656 3500 
L 1656 2925 
Q 1872 3269 2151 3426 
Q 2431 3584 2822 3584 
Q 2878 3584 2943 3579 
Q 3009 3575 3134 3559 
L 3138 2547 
z
" transform="scale(0.015625)"/>
      <path id="DejaVuSans-Bold-79" d="M 78 3500 
L 1197 3500 
L 2138 1125 
L 2938 3500 
L 4056 3500 
L 2584 -331 
Q 2363 -916 2067 -1148 
Q 1772 -1381 1288 -1381 
L 641 -1381 
L 641 -647 
L 991 -647 
Q 1275 -647 1404 -556 
Q 1534 -466 1606 -231 
L 1638 -134 
L 78 3500 
z
" transform="scale(0.015625)"/>
      <path id="DejaVuSans-Bold-75" d="M 500 1363 
L 500 3500 
L 1625 3500 
L 1625 3150 
Q 1625 2866 1622 2436 
Q 1619 2006 1619 1863 
Q 1619 1441 1641 1255 
Q 1663 1069 1716 984 
Q 1784 875 1895 815 
Q 2006 756 2150 756 
Q 2500 756 2700 1025 
Q 2900 1294 2900 1772 
L 2900 3500 
L 4019 3500 
L 4019 0 
L 2900 0 
L 2900 506 
Q 2647 200 2364 54 
Q 2081 -91 1741 -91 
Q 1134 -91 817 281 
Q 500 653 500 1363 
z
" transform="scale(0.015625)"/>
      <path id="DejaVuSans-Bold-78" d="M 1422 1791 
L 159 3500 
L 1344 3500 
L 2059 2463 
L 2784 3500 
L 3969 3500 
L 2706 1797 
L 4031 0 
L 2847 0 
L 2059 1106 
L 1281 0 
L 97 0 
L 1422 1791 
z
" transform="scale(0.015625)"/>
     </defs>
     <use xlink:href="#DejaVuSans-Bold-61"/>
     <use xlink:href="#DejaVuSans-Bold-6e" transform="translate(67.480469 0)"/>
     <use xlink:href="#DejaVuSans-Bold-61" transform="translate(138.671875 0)"/>
     <use xlink:href="#DejaVuSans-Bold-6c" transform="translate(206.152344 0)"/>
     <use xlink:href="#DejaVuSans-Bold-6f" transform="translate(240.429688 0)"/>
     <use xlink:href="#DejaVuSans-Bold-67" transform="translate(309.130859 0)"/>
     <use xlink:href="#DejaVuSans-Bold-3a" transform="translate(380.712891 0)"/>
     <use xlink:href="#DejaVuSans-Bold-20" transform="translate(420.703125 0)"/>
     <use xlink:href="#DejaVuSans-Bold-65" transform="translate(455.517578 0)"/>
     <use xlink:href="#DejaVuSans-Bold-76" transform="translate(523.339844 0)"/>
     <use xlink:href="#DejaVuSans-Bold-65" transform="translate(588.525391 0)"/>
     <use xlink:href="#DejaVuSans-Bold-72" transform="translate(656.347656 0)"/>
     <use xlink:href="#DejaVuSans-Bold-79" transform="translate(705.664062 0)"/>
     <use xlink:href="#DejaVuSans-Bold-20" transform="translate(770.849609 0)"/>
     <use xlink:href="#DejaVuSans-Bold-76" transform="translate(805.664062 0)"/>
     <use xlink:href="#DejaVuSans-Bold-61" transform="translate(870.849609 0)"/>
     <use xlink:href="#DejaVuSans-Bold-6c" transform="translate(938.330078 0)"/>
     <use xlink:href="#DejaVuSans-Bold-75" transform="translate(972.607422 0)"/>
     <use xlink:href="#DejaVuSans-Bold-65" transform="translate(1043.798828 0)"/>
     <use xlink:href="#DejaVuSans-Bold-20" transform="translate(1111.621094 0)"/>
     <use xlink:href="#DejaVuSans-Bold-65" transform="translate(1146.435547 0)"/>
     <use xlink:href="#DejaVuSans-Bold-78" transform="translate(1214.257812 0)"/>
     <use xlink:href="#DejaVuSans-Bold-69" transform="translate(1278.759766 0)"/>
     <use xlink:href="#DejaVuSans-Bold-73" transform="translate(1313.037109 0)"/>
     <use xlink:href="#DejaVuSans-Bold-74" transform="translate(1372.558594 0)"/>
     <use xlink:href="#DejaVuSans-Bold-73" transform="translate(1420.361328 0)"/>
    </g>
   </g>
   <g id="text_7">
    <!-- digital: one number per tick, one of 16 levels -->
    <g style="fill: #3f7f58" transform="translate(367.564079 207.267429) scale(0.145 -0.145)">
     <defs>
      <path id="DejaVuSans-Bold-6b" d="M 538 4863 
L 1656 4863 
L 1656 2216 
L 2944 3500 
L 4244 3500 
L 2534 1894 
L 4378 0 
L 3022 0 
L 1656 1459 
L 1656 0 
L 538 0 
L 538 4863 
z
" transform="scale(0.015625)"/>
      <path id="DejaVuSans-Bold-2c" d="M 653 1209 
L 1778 1209 
L 1778 256 
L 1006 -909 
L 341 -909 
L 653 256 
L 653 1209 
z
" transform="scale(0.015625)"/>
      <path id="DejaVuSans-Bold-66" d="M 2841 4863 
L 2841 4128 
L 2222 4128 
Q 1984 4128 1890 4042 
Q 1797 3956 1797 3744 
L 1797 3500 
L 2753 3500 
L 2753 2700 
L 1797 2700 
L 1797 0 
L 678 0 
L 678 2700 
L 122 2700 
L 122 3500 
L 678 3500 
L 678 3744 
Q 678 4316 997 4589 
Q 1316 4863 1984 4863 
L 2841 4863 
z
" transform="scale(0.015625)"/>
      <path id="DejaVuSans-Bold-31" d="M 750 831 
L 1813 831 
L 1813 3847 
L 722 3622 
L 722 4441 
L 1806 4666 
L 2950 4666 
L 2950 831 
L 4013 831 
L 4013 0 
L 750 0 
L 750 831 
z
" transform="scale(0.015625)"/>
      <path id="DejaVuSans-Bold-36" d="M 2316 2303 
Q 2000 2303 1842 2098 
Q 1684 1894 1684 1484 
Q 1684 1075 1842 870 
Q 2000 666 2316 666 
Q 2634 666 2792 870 
Q 2950 1075 2950 1484 
Q 2950 1894 2792 2098 
Q 2634 2303 2316 2303 
z
M 3803 4544 
L 3803 3681 
Q 3506 3822 3243 3889 
Q 2981 3956 2731 3956 
Q 2194 3956 1894 3657 
Q 1594 3359 1544 2772 
Q 1750 2925 1990 3001 
Q 2231 3078 2516 3078 
Q 3231 3078 3670 2659 
Q 4109 2241 4109 1563 
Q 4109 813 3618 361 
Q 3128 -91 2303 -91 
Q 1394 -91 895 523 
Q 397 1138 397 2266 
Q 397 3422 980 4083 
Q 1563 4744 2578 4744 
Q 2900 4744 3203 4694 
Q 3506 4644 3803 4544 
z
" transform="scale(0.015625)"/>
     </defs>
     <use xlink:href="#DejaVuSans-Bold-64"/>
     <use xlink:href="#DejaVuSans-Bold-69" transform="translate(71.582031 0)"/>
     <use xlink:href="#DejaVuSans-Bold-67" transform="translate(105.859375 0)"/>
     <use xlink:href="#DejaVuSans-Bold-69" transform="translate(177.441406 0)"/>
     <use xlink:href="#DejaVuSans-Bold-74" transform="translate(211.71875 0)"/>
     <use xlink:href="#DejaVuSans-Bold-61" transform="translate(259.521484 0)"/>
     <use xlink:href="#DejaVuSans-Bold-6c" transform="translate(327.001953 0)"/>
     <use xlink:href="#DejaVuSans-Bold-3a" transform="translate(361.279297 0)"/>
     <use xlink:href="#DejaVuSans-Bold-20" transform="translate(401.269531 0)"/>
     <use xlink:href="#DejaVuSans-Bold-6f" transform="translate(436.083984 0)"/>
     <use xlink:href="#DejaVuSans-Bold-6e" transform="translate(504.785156 0)"/>
     <use xlink:href="#DejaVuSans-Bold-65" transform="translate(575.976562 0)"/>
     <use xlink:href="#DejaVuSans-Bold-20" transform="translate(643.798828 0)"/>
     <use xlink:href="#DejaVuSans-Bold-6e" transform="translate(678.613281 0)"/>
     <use xlink:href="#DejaVuSans-Bold-75" transform="translate(749.804688 0)"/>
     <use xlink:href="#DejaVuSans-Bold-6d" transform="translate(820.996094 0)"/>
     <use xlink:href="#DejaVuSans-Bold-62" transform="translate(925.195312 0)"/>
     <use xlink:href="#DejaVuSans-Bold-65" transform="translate(996.777344 0)"/>
     <use xlink:href="#DejaVuSans-Bold-72" transform="translate(1064.599609 0)"/>
     <use xlink:href="#DejaVuSans-Bold-20" transform="translate(1113.916016 0)"/>
     <use xlink:href="#DejaVuSans-Bold-70" transform="translate(1148.730469 0)"/>
     <use xlink:href="#DejaVuSans-Bold-65" transform="translate(1220.3125 0)"/>
     <use xlink:href="#DejaVuSans-Bold-72" transform="translate(1288.134766 0)"/>
     <use xlink:href="#DejaVuSans-Bold-20" transform="translate(1337.451172 0)"/>
     <use xlink:href="#DejaVuSans-Bold-74" transform="translate(1372.265625 0)"/>
     <use xlink:href="#DejaVuSans-Bold-69" transform="translate(1420.068359 0)"/>
     <use xlink:href="#DejaVuSans-Bold-63" transform="translate(1454.345703 0)"/>
     <use xlink:href="#DejaVuSans-Bold-6b" transform="translate(1513.623047 0)"/>
     <use xlink:href="#DejaVuSans-Bold-2c" transform="translate(1580.126953 0)"/>
     <use xlink:href="#DejaVuSans-Bold-20" transform="translate(1618.115234 0)"/>
     <use xlink:href="#DejaVuSans-Bold-6f" transform="translate(1652.929688 0)"/>
     <use xlink:href="#DejaVuSans-Bold-6e" transform="translate(1721.630859 0)"/>
     <use xlink:href="#DejaVuSans-Bold-65" transform="translate(1792.822266 0)"/>
     <use xlink:href="#DejaVuSans-Bold-20" transform="translate(1860.644531 0)"/>
     <use xlink:href="#DejaVuSans-Bold-6f" transform="translate(1895.458984 0)"/>
     <use xlink:href="#DejaVuSans-Bold-66" transform="translate(1964.160156 0)"/>
     <use xlink:href="#DejaVuSans-Bold-20" transform="translate(2007.666016 0)"/>
     <use xlink:href="#DejaVuSans-Bold-31" transform="translate(2042.480469 0)"/>
     <use xlink:href="#DejaVuSans-Bold-36" transform="translate(2112.060547 0)"/>
     <use xlink:href="#DejaVuSans-Bold-20" transform="translate(2181.640625 0)"/>
     <use xlink:href="#DejaVuSans-Bold-6c" transform="translate(2216.455078 0)"/>
     <use xlink:href="#DejaVuSans-Bold-65" transform="translate(2250.732422 0)"/>
     <use xlink:href="#DejaVuSans-Bold-76" transform="translate(2318.554688 0)"/>
     <use xlink:href="#DejaVuSans-Bold-65" transform="translate(2383.740234 0)"/>
     <use xlink:href="#DejaVuSans-Bold-6c" transform="translate(2451.5625 0)"/>
     <use xlink:href="#DejaVuSans-Bold-73" transform="translate(2485.839844 0)"/>
    </g>
   </g>
   <g id="line2d_6">
    <defs>
     <path id="mc103967eec" d="M 0 3.5 
C 0.928211 3.5 1.81853 3.131218 2.474874 2.474874 
C 3.131218 1.81853 3.5 0.928211 3.5 0 
C 3.5 -0.928211 3.131218 -1.81853 2.474874 -2.474874 
C 1.81853 -3.131218 0.928211 -3.5 0 -3.5 
C -0.928211 -3.5 -1.81853 -3.131218 -2.474874 -2.474874 
C -3.131218 -1.81853 -3.5 -0.928211 -3.5 0 
C -3.5 0.928211 -3.131218 1.81853 -2.474874 2.474874 
C -1.81853 3.131218 -0.928211 3.5 0 3.5 
z
" style="stroke: #d47b28"/>
    </defs>
    <g clip-path="url(#pc22e665fbe)">
     <use xlink:href="#mc103967eec" x="87.254687" y="144.028813" style="fill: #d47b28; stroke: #d47b28"/>
     <use xlink:href="#mc103967eec" x="127.942923" y="101.619405" style="fill: #d47b28; stroke: #d47b28"/>
     <use xlink:href="#mc103967eec" x="168.631158" y="65.324282" style="fill: #d47b28; stroke: #d47b28"/>
     <use xlink:href="#mc103967eec" x="209.319393" y="56.404635" style="fill: #d47b28; stroke: #d47b28"/>
     <use xlink:href="#mc103967eec" x="250.007629" y="80.085473" style="fill: #d47b28; stroke: #d47b28"/>
     <use xlink:href="#mc103967eec" x="290.695864" y="122.494881" style="fill: #d47b28; stroke: #d47b28"/>
     <use xlink:href="#mc103967eec" x="331.384099" y="158.790003" style="fill: #d47b28; stroke: #d47b28"/>
     <use xlink:href="#mc103967eec" x="372.072335" y="167.70965" style="fill: #d47b28; stroke: #d47b28"/>
     <use xlink:href="#mc103967eec" x="412.76057" y="144.028813" style="fill: #d47b28; stroke: #d47b28"/>
     <use xlink:href="#mc103967eec" x="453.448805" y="101.619405" style="fill: #d47b28; stroke: #d47b28"/>
     <use xlink:href="#mc103967eec" x="494.13704" y="65.324282" style="fill: #d47b28; stroke: #d47b28"/>
     <use xlink:href="#mc103967eec" x="534.825276" y="56.404635" style="fill: #d47b28; stroke: #d47b28"/>
     <use xlink:href="#mc103967eec" x="575.513511" y="80.085473" style="fill: #d47b28; stroke: #d47b28"/>
     <use xlink:href="#mc103967eec" x="616.201746" y="122.494881" style="fill: #d47b28; stroke: #d47b28"/>
     <use xlink:href="#mc103967eec" x="656.889982" y="158.790003" style="fill: #d47b28; stroke: #d47b28"/>
     <use xlink:href="#mc103967eec" x="697.578217" y="167.70965" style="fill: #d47b28; stroke: #d47b28"/>
     <use xlink:href="#mc103967eec" x="738.266452" y="144.028813" style="fill: #d47b28; stroke: #d47b28"/>
    </g>
   </g>
  </g>
 </g>
 <defs>
  <clipPath id="pc22e665fbe">
   <rect x="52.669688" y="7.2" width="760.87" height="205.52"/>
  </clipPath>
 </defs>
</svg>
