<?xml version="1.0" encoding="utf-8" standalone="no"?>
<!DOCTYPE svg PUBLIC "-//W3C//DTD SVG 1.1//EN"
  "http://www.w3.org/Graphics/SVG/1.1/DTD/svg11.dtd">
<svg xmlns:xlink="http://www.w3.org/1999/xlink" width="820.8pt" height="208.53875pt" viewBox="0 0 820.8 208.53875" xmlns="http://www.w3.org/2000/svg" version="1.1">
 <metadata>
  <rdf:RDF xmlns:dc="http://purl.org/dc/elements/1.1/" xmlns:cc="http://creativecommons.org/ns#" xmlns:rdf="http://www.w3.org/1999/02/22-rdf-syntax-ns#">
   <cc:Work>
    <dc:type rdf:resource="http://purl.org/dc/dcmitype/StillImage"/>
    <dc:date>2026-07-19T18:02:27.070903</dc:date>
    <dc:format>image/svg+xml</dc:format>
    <dc:creator>
     <cc:Agent>
      <dc:title>Matplotlib v3.10.8, https://matplotlib.org/</dc:title>
     </cc:Agent>
    </dc:creator>
   </cc:Work>
  </rdf:RDF>
 </metadata>
 <defs>
  <style type="text/css">*{stroke-linejoin: round; stroke-linecap: butt}</style>
 </defs>
 <g id="figure_1">
  <g id="patch_1">
   <path d="M 0 208.53875 
L 820.8 208.53875 
L 820.8 0 
L 0 0 
L 0 208.53875 
z
" style="fill: none"/>
  </g>
  <g id="axes_1">
   <g id="patch_2">
    <path d="M 7.2 166.74 
L 813.6 166.74 
L 813.6 7.2 
L 7.2 7.2 
L 7.2 166.74 
z
" style="fill: none"/>
   </g>
   <g id="matplotlib.axis_1">
    <g id="xtick_1">
     <g id="line2d_1"/>
     <g id="text_1">
      <!-- 0 -->
      <g style="fill: #5a6b76" transform="translate(39.400795 180.877812) scale(0.14 -0.14)">
       <defs>
        <path id="DejaVuSans-30" d="M 2034 4250 
Q 1547 4250 1301 3770 
Q 1056 3291 1056 2328 
Q 1056 1369 1301 889 
Q 1547 409 2034 409 
Q 2525 409 2770 889 
Q 3016 1369 3016 2328 
Q 3016 3291 2770 3770 
Q 2525 4250 2034 4250 
z
M 2034 4750 
Q 2819 4750 3233 4129 
Q 3647 3509 3647 2328 
Q 3647 1150 3233 529 
Q 2819 -91 2034 -91 
Q 1250 -91 836 529 
Q 422 1150 422 2328 
Q 422 3509 836 4129 
Q 1250 4750 2034 4750 
z
" transform="scale(0.015625)"/>
       </defs>
       <use xlink:href="#DejaVuSans-30"/>
      </g>
     </g>
    </g>
    <g id="xtick_2">
     <g id="line2d_2"/>
     <g id="text_2">
      <!-- 0.5 s -->
      <g style="fill: #5a6b76" transform="translate(393.396562 180.877812) scale(0.14 -0.14)">
       <defs>
        <path id="DejaVuSans-2e" d="M 684 794 
L 1344 794 
L 1344 0 
L 684 0 
L 684 794 
z
" transform="scale(0.015625)"/>
        <path id="DejaVuSans-35" d="M 691 4666 
L 3169 4666 
L 3169 4134 
L 1269 4134 
L 1269 2991 
Q 1406 3038 1543 3061 
Q 1681 3084 1819 3084 
Q 2600 3084 3056 2656 
Q 3513 2228 3513 1497 
Q 3513 744 3044 326 
Q 2575 -91 1722 -91 
Q 1428 -91 1123 -41 
Q 819 9 494 109 
L 494 744 
Q 775 591 1075 516 
Q 1375 441 1709 441 
Q 2250 441 2565 725 
Q 2881 1009 2881 1497 
Q 2881 1984 2565 2268 
Q 2250 2553 1709 2553 
Q 1456 2553 1204 2497 
Q 953 2441 691 2322 
L 691 4666 
z
" transform="scale(0.015625)"/>
        <path id="DejaVuSans-20" transform="scale(0.015625)"/>
        <path id="DejaVuSans-73" d="M 2834 3397 
L 2834 2853 
Q 2591 2978 2328 3040 
Q 2066 3103 1784 3103 
Q 1356 3103 1142 2972 
Q 928 2841 928 2578 
Q 928 2378 1081 2264 
Q 1234 2150 1697 2047 
L 1894 2003 
Q 2506 1872 2764 1633 
Q 3022 1394 3022 966 
Q 3022 478 2636 193 
Q 2250 -91 1575 -91 
Q 1294 -91 989 -36 
Q 684 19 347 128 
L 347 722 
Q 666 556 975 473 
Q 1284 391 1588 391 
Q 1994 391 2212 530 
Q 2431 669 2431 922 
Q 2431 1156 2273 1281 
Q 2116 1406 1581 1522 
L 1381 1569 
Q 847 1681 609 1914 
Q 372 2147 372 2553 
Q 372 3047 722 3315 
Q 1072 3584 1716 3584 
Q 2034 3584 2315 3537 
Q 2597 3491 2834 3397 
z
" transform="scale(0.015625)"/>
       </defs>
       <use xlink:href="#DejaVuSans-30"/>
       <use xlink:href="#DejaVuSans-2e" transform="translate(63.623047 0)"/>
       <use xlink:href="#DejaVuSans-35" transform="translate(95.410156 0)"/>
       <use xlink:href="#DejaVuSans-20" transform="translate(159.033203 0)"/>
       <use xlink:href="#DejaVuSans-73" transform="translate(190.820312 0)"/>
      </g>
     </g>
    </g>
    <g id="xtick_3">
     <g id="line2d_3"/>
     <g id="text_3">
      <!-- 1 s -->
      <g style="fill: #5a6b76" transform="translate(766.620455 180.877812) scale(0.14 -0.14)">
       <defs>
        <path id="DejaVuSans-31" d="M 794 531 
L 1825 531 
L 1825 4091 
L 703 3866 
L 703 4441 
L 1819 4666 
L 2450 4666 
L 2450 531 
L 3481 531 
L 3481 0 
L 794 0 
L 794 531 
z
" transform="scale(0.015625)"/>
       </defs>
       <use xlink:href="#DejaVuSans-31"/>
       <use xlink:href="#DejaVuSans-20" transform="translate(63.623047 0)"/>
       <use xlink:href="#DejaVuSans-73" transform="translate(95.410156 0)"/>
      </g>
     </g>
    </g>
    <g id="text_4">
     <!-- time -->
     <g style="fill: #5a6b76" transform="translate(394.585469 198.427187) scale(0.14 -0.14)">
      <defs>
       <path id="DejaVuSans-74" d="M 1172 4494 
L 1172 3500 
L 2356 3500 
L 2356 3053 
L 1172 3053 
L 1172 1153 
Q 1172 725 1289 603 
Q 1406 481 1766 481 
L 2356 481 
L 2356 0 
L 1766 0 
Q 1100 0 847 248 
Q 594 497 594 1153 
L 594 3053 
L 172 3053 
L 172 3500 
L 594 3500 
L 594 4494 
L 1172 4494 
z
" transform="scale(0.015625)"/>
       <path id="DejaVuSans-69" d="M 603 3500 
L 1178 3500 
L 1178 0 
L 603 0 
L 603 3500 
z
M 603 4863 
L 1178 4863 
L 1178 4134 
L 603 4134 
L 603 4863 
z
" transform="scale(0.015625)"/>
       <path id="DejaVuSans-6d" d="M 3328 2828 
Q 3544 3216 3844 3400 
Q 4144 3584 4550 3584 
Q 5097 3584 5394 3201 
Q 5691 2819 5691 2113 
L 5691 0 
L 5113 0 
L 5113 2094 
Q 5113 2597 4934 2840 
Q 4756 3084 4391 3084 
Q 3944 3084 3684 2787 
Q 3425 2491 3425 1978 
L 3425 0 
L 2847 0 
L 2847 2094 
Q 2847 2600 2669 2842 
Q 2491 3084 2119 3084 
Q 1678 3084 1418 2786 
Q 1159 2488 1159 1978 
L 1159 0 
L 581 0 
L 581 3500 
L 1159 3500 
L 1159 2956 
Q 1356 3278 1631 3431 
Q 1906 3584 2284 3584 
Q 2666 3584 2933 3390 
Q 3200 3197 3328 2828 
z
" transform="scale(0.015625)"/>
       <path id="DejaVuSans-65" d="M 3597 1894 
L 3597 1613 
L 953 1613 
Q 991 1019 1311 708 
Q 1631 397 2203 397 
Q 2534 397 2845 478 
Q 3156 559 3463 722 
L 3463 178 
Q 3153 47 2828 -22 
Q 2503 -91 2169 -91 
Q 1331 -91 842 396 
Q 353 884 353 1716 
Q 353 2575 817 3079 
Q 1281 3584 2069 3584 
Q 2775 3584 3186 3129 
Q 3597 2675 3597 1894 
z
M 3022 2063 
Q 3016 2534 2758 2815 
Q 2500 3097 2075 3097 
Q 1594 3097 1305 2825 
Q 1016 2553 972 2059 
L 3022 2063 
z
" transform="scale(0.015625)"/>
      </defs>
      <use xlink:href="#DejaVuSans-74"/>
      <use xlink:href="#DejaVuSans-69" transform="translate(39.208984 0)"/>
      <use xlink:href="#DejaVuSans-6d" transform="translate(66.992188 0)"/>
      <use xlink:href="#DejaVuSans-65" transform="translate(164.404297 0)"/>
     </g>
    </g>
   </g>
   <g id="matplotlib.axis_2"/>
   <g id="line2d_4">
    <path d="M 43.854545 86.008916 
L 51.308879 73.936043 
L 55.341551 67.83969 
L 58.64101 63.24666 
L 61.573862 59.542715 
L 64.140108 56.642425 
L 66.584152 54.209641 
L 68.783791 52.317434 
L 70.861228 50.804777 
L 72.816463 49.635628 
L 74.771698 48.721696 
L 76.604731 48.102403 
L 78.437764 47.716894 
L 80.270797 47.567547 
L 82.103829 47.655282 
L 83.936862 47.979559 
L 85.769895 48.538378 
L 87.602928 49.328292 
L 89.558163 50.42007 
L 91.6356 51.853491 
L 93.713037 53.557439 
L 95.912676 55.641454 
L 98.35672 58.272378 
L 101.045168 61.516289 
L 103.978021 65.423867 
L 107.27748 70.204789 
L 111.310152 76.466378 
L 117.420261 86.431685 
L 124.63019 98.1009 
L 128.662862 104.19588 
L 131.962321 108.787392 
L 134.895173 112.489715 
L 137.461419 115.388395 
L 139.905463 117.8195 
L 142.105102 119.710089 
L 144.18254 121.221138 
L 146.137774 122.388716 
L 148.093009 123.30103 
L 149.926042 123.918776 
L 151.759075 124.302717 
L 153.592108 124.450485 
L 155.425141 124.361169 
L 157.258173 124.03532 
L 159.091206 123.474948 
L 160.924239 122.683508 
L 162.879474 121.590143 
L 164.956911 120.155096 
L 167.034348 118.449594 
L 169.233987 116.364028 
L 171.678031 113.73151 
L 174.366479 110.486022 
L 177.299332 106.576959 
L 180.598791 101.794688 
L 184.631463 95.53195 
L 190.741572 85.566016 
L 197.951501 73.897822 
L 201.861971 67.981784 
L 205.16143 63.376651 
L 208.094282 59.65976 
L 210.660528 56.746621 
L 213.104572 54.300426 
L 215.304211 52.395294 
L 217.381648 50.869794 
L 219.459086 49.622613 
L 221.414321 48.711916 
L 223.247353 48.095718 
L 225.080386 47.713346 
L 226.913419 47.567157 
L 228.746452 47.658053 
L 230.579484 47.985473 
L 232.412517 48.547399 
L 234.24555 49.340365 
L 236.200785 50.435316 
L 238.278222 51.871989 
L 240.355659 53.579044 
L 242.677501 55.790194 
L 245.121544 58.440205 
L 247.809993 61.70298 
L 250.742845 65.628306 
L 254.042304 70.425328 
L 258.074976 76.700591 
L 264.307288 86.87453 
L 271.272812 98.139114 
L 275.183282 104.053826 
L 278.482741 108.657451 
L 281.415594 112.372727 
L 283.981839 115.284263 
L 286.425883 117.728784 
L 288.625522 119.632302 
L 290.70296 121.156198 
L 292.780397 122.40171 
L 294.735632 123.31079 
L 296.568664 123.92544 
L 298.401697 124.306244 
L 300.23473 124.450854 
L 302.067763 124.358378 
L 303.900796 124.029385 
L 305.733828 123.465906 
L 307.566861 122.671415 
L 309.522096 121.574878 
L 311.599533 120.136579 
L 313.67697 118.427972 
L 315.998812 116.215188 
L 318.442856 113.563592 
L 321.131304 110.29925 
L 324.064156 106.372452 
L 327.363615 101.574098 
L 331.396287 95.297706 
L 337.628599 85.123175 
L 344.594123 73.859615 
L 348.504593 67.946231 
L 351.804052 63.344116 
L 354.736905 59.630455 
L 357.303151 56.720523 
L 359.747194 54.277677 
L 361.946834 52.375774 
L 364.024271 50.853482 
L 366.101708 49.609639 
L 368.056943 48.702177 
L 369.889976 48.089075 
L 371.723008 47.709839 
L 373.556041 47.566809 
L 375.389074 47.660865 
L 377.222107 47.991429 
L 379.055139 48.556462 
L 380.888172 49.352478 
L 382.843407 50.4506 
L 384.920844 51.890525 
L 386.998282 53.600684 
L 389.320123 55.815101 
L 391.764167 58.468282 
L 394.452615 61.734189 
L 397.385467 65.662458 
L 400.684926 70.462144 
L 404.717598 76.739663 
L 410.94991 86.914783 
L 417.915434 98.177315 
L 421.825904 104.089369 
L 425.125363 108.689974 
L 428.058216 112.402018 
L 430.624462 115.310344 
L 433.068505 117.751515 
L 435.268145 119.651804 
L 437.345582 121.172491 
L 439.423019 122.414665 
L 441.378254 123.320508 
L 443.211287 123.932062 
L 445.04432 124.309729 
L 446.877352 124.451181 
L 448.710385 124.355544 
L 450.543418 124.023408 
L 452.376451 123.456823 
L 454.209483 122.659282 
L 456.164718 121.559575 
L 458.242156 120.118025 
L 460.319593 118.406313 
L 462.641434 116.190265 
L 465.085478 113.535499 
L 467.773926 110.268028 
L 470.706778 106.338289 
L 474.006237 101.537273 
L 478.03891 95.258629 
L 484.393423 84.881671 
L 491.236746 73.82142 
L 495.147215 67.910698 
L 498.446674 63.311605 
L 501.379527 59.601179 
L 503.945773 56.694458 
L 506.389816 54.254964 
L 508.589456 52.35629 
L 510.666893 50.837208 
L 512.74433 49.596704 
L 514.699565 48.692479 
L 516.532598 48.082474 
L 518.365631 47.706375 
L 520.198663 47.566503 
L 522.031696 47.66372 
L 523.864729 47.997427 
L 525.697762 48.565565 
L 527.530795 49.364631 
L 529.486029 50.465923 
L 531.563467 51.909098 
L 533.640904 53.62236 
L 535.962745 55.84004 
L 538.406789 58.49639 
L 541.095237 61.765424 
L 544.02809 65.696632 
L 547.327549 70.498978 
L 551.360221 76.778744 
L 557.714734 87.156284 
L 564.558057 98.215503 
L 568.468527 104.124893 
L 571.767986 108.722472 
L 574.700838 112.431279 
L 577.267084 115.336393 
L 579.711128 117.774211 
L 581.910767 119.671269 
L 583.988204 121.188746 
L 586.065641 122.42758 
L 588.020876 123.330186 
L 589.853909 123.938643 
L 591.686942 124.313173 
L 593.519975 124.451465 
L 595.353007 124.352668 
L 597.18604 124.01739 
L 599.019073 123.447699 
L 600.852106 122.647108 
L 602.807341 121.544232 
L 604.884778 120.099433 
L 606.962215 118.38462 
L 609.284056 116.165309 
L 611.7281 113.507377 
L 614.416548 110.23678 
L 617.349401 106.304104 
L 620.64886 101.50043 
L 624.681532 95.219542 
L 631.036045 84.841424 
L 637.879368 73.78324 
L 641.789838 67.875184 
L 645.089297 63.27912 
L 648.022149 59.571933 
L 650.588395 56.668426 
L 653.032439 54.232285 
L 655.232078 52.336843 
L 657.309515 50.820973 
L 659.386952 49.583809 
L 661.342187 48.682822 
L 663.17522 48.075914 
L 665.008253 47.702953 
L 666.841286 47.566239 
L 668.674318 47.666617 
L 670.507351 48.003466 
L 672.340384 48.57471 
L 674.173417 49.376825 
L 676.128652 50.481286 
L 678.206089 51.927708 
L 680.283526 53.644072 
L 682.605368 55.865012 
L 685.049411 58.524527 
L 687.737859 61.796686 
L 690.670712 65.730828 
L 693.970171 70.535828 
L 698.002843 76.817836 
L 704.357357 87.19653 
L 711.200679 98.253677 
L 715.111149 104.160396 
L 718.410608 108.754944 
L 721.34346 112.460511 
L 723.909706 115.36241 
L 726.35375 117.796873 
L 728.553389 119.690697 
L 730.630826 121.204961 
L 732.708263 122.440455 
L 734.663498 123.339823 
L 736.496531 123.945182 
L 738.329564 124.316574 
L 740.162597 124.451708 
L 741.99563 124.34975 
L 743.828662 124.01133 
L 745.661695 123.438534 
L 747.494728 122.634895 
L 749.449963 121.52885 
L 751.5274 120.080804 
L 753.604837 118.362891 
L 755.926679 116.14032 
L 758.370722 113.479224 
L 761.05917 110.205504 
L 763.992023 106.269897 
L 767.291482 101.463571 
L 771.324154 95.180445 
L 776.945455 86.008916 
L 776.945455 86.008916 
" clip-path="url(#p5332c6eb5a)" style="fill: none; stroke: #174f73; stroke-opacity: 0.85; stroke-width: 2; stroke-linecap: square"/>
   </g>
   <g id="line2d_5">
    <path d="M 43.854545 86.008916 
L 74.527294 95.9993 
L 91.024589 101.131081 
L 104.833436 105.198629 
L 117.298059 108.641181 
L 128.785064 111.586097 
L 139.661059 114.146501 
L 150.048244 116.364028 
L 160.068824 118.27562 
L 169.722796 119.892459 
L 179.132364 121.245332 
L 188.419731 122.356055 
L 197.584894 123.226531 
L 206.627856 123.860454 
L 215.548616 124.263144 
L 224.469375 124.442315 
L 233.390135 124.396919 
L 242.310894 124.127222 
L 251.231654 123.634799 
L 260.274615 122.911263 
L 269.439779 121.951897 
L 278.727145 120.753644 
L 288.136714 119.315267 
L 297.790686 117.614607 
L 307.811266 115.620802 
L 318.198451 113.323846 
L 329.074446 110.687267 
L 340.561451 107.670383 
L 352.903872 104.19588 
L 366.590517 100.10694 
L 382.599003 95.082659 
L 404.350992 88.001117 
L 442.355871 75.610892 
L 458.48656 70.60958 
L 472.173205 66.592867 
L 484.515625 63.198016 
L 496.002631 60.266831 
L 506.878625 57.720901 
L 517.265811 55.51842 
L 527.164188 53.644072 
L 536.818161 52.040156 
L 546.227729 50.700442 
L 555.515095 49.603166 
L 564.558057 48.756248 
L 573.601018 48.132999 
L 582.521778 47.740982 
L 591.442537 47.572565 
L 600.363297 47.628731 
L 609.284056 47.909153 
L 618.204816 48.412192 
L 627.247778 49.146317 
L 636.412942 50.11617 
L 645.700308 51.324734 
L 655.109876 52.773166 
L 664.763849 54.483664 
L 674.784428 56.487098 
L 685.171613 58.793334 
L 696.047608 61.438786 
L 707.534613 64.464018 
L 719.999236 67.981784 
L 733.808083 72.11715 
L 749.938772 77.189705 
L 772.179569 84.439036 
L 776.945455 86.008916 
L 776.945455 86.008916 
" clip-path="url(#p5332c6eb5a)" style="fill: none; stroke-dasharray: 13,7.8; stroke-dashoffset: 0; stroke: #d47b28; stroke-width: 2.6"/>
   </g>
   <g id="patch_3">
    <path d="M 7.2 166.74 
L 813.6 166.74 
" style="fill: none; stroke: #c8d8e2; stroke-width: 0.8; stroke-linejoin: miter; stroke-linecap: square"/>
   </g>
   <g id="text_5">
    <!-- true signal: 5 Hz -->
    <g style="fill: #174f73" transform="translate(638.380156 23.730651) scale(0.145 -0.145)">
     <defs>
      <path id="DejaVuSans-Bold-74" d="M 1759 4494 
L 1759 3500 
L 2913 3500 
L 2913 2700 
L 1759 2700 
L 1759 1216 
Q 1759 972 1856 886 
Q 1953 800 2241 800 
L 2816 800 
L 2816 0 
L 1856 0 
Q 1194 0 917 276 
Q 641 553 641 1216 
L 641 2700 
L 84 2700 
L 84 3500 
L 641 3500 
L 641 4494 
L 1759 4494 
z
" transform="scale(0.015625)"/>
      <path id="DejaVuSans-Bold-72" d="M 3138 2547 
Q 2991 2616 2845 2648 
Q 2700 2681 2553 2681 
Q 2122 2681 1889 2404 
Q 1656 2128 1656 1613 
L 1656 0 
L 538 0 
L 538 3500 
L 1656 3500 
L 1656 2925 
Q 1872 3269 2151 3426 
Q 2431 3584 2822 3584 
Q 2878 3584 2943 3579 
Q 3009 3575 3134 3559 
L 3138 2547 
z
" transform="scale(0.015625)"/>
      <path id="DejaVuSans-Bold-75" d="M 500 1363 
L 500 3500 
L 1625 3500 
L 1625 3150 
Q 1625 2866 1622 2436 
Q 1619 2006 1619 1863 
Q 1619 1441 1641 1255 
Q 1663 1069 1716 984 
Q 1784 875 1895 815 
Q 2006 756 2150 756 
Q 2500 756 2700 1025 
Q 2900 1294 2900 1772 
L 2900 3500 
L 4019 3500 
L 4019 0 
L 2900 0 
L 2900 506 
Q 2647 200 2364 54 
Q 2081 -91 1741 -91 
Q 1134 -91 817 281 
Q 500 653 500 1363 
z
" transform="scale(0.015625)"/>
      <path id="DejaVuSans-Bold-65" d="M 4031 1759 
L 4031 1441 
L 1416 1441 
Q 1456 1047 1700 850 
Q 1944 653 2381 653 
Q 2734 653 3104 758 
Q 3475 863 3866 1075 
L 3866 213 
Q 3469 63 3072 -14 
Q 2675 -91 2278 -91 
Q 1328 -91 801 392 
Q 275 875 275 1747 
Q 275 2603 792 3093 
Q 1309 3584 2216 3584 
Q 3041 3584 3536 3087 
Q 4031 2591 4031 1759 
z
M 2881 2131 
Q 2881 2450 2695 2645 
Q 2509 2841 2209 2841 
Q 1884 2841 1681 2658 
Q 1478 2475 1428 2131 
L 2881 2131 
z
" transform="scale(0.015625)"/>
      <path id="DejaVuSans-Bold-20" transform="scale(0.015625)"/>
      <path id="DejaVuSans-Bold-73" d="M 3272 3391 
L 3272 2541 
Q 2913 2691 2578 2766 
Q 2244 2841 1947 2841 
Q 1628 2841 1473 2761 
Q 1319 2681 1319 2516 
Q 1319 2381 1436 2309 
Q 1553 2238 1856 2203 
L 2053 2175 
Q 2913 2066 3209 1816 
Q 3506 1566 3506 1031 
Q 3506 472 3093 190 
Q 2681 -91 1863 -91 
Q 1516 -91 1145 -36 
Q 775 19 384 128 
L 384 978 
Q 719 816 1070 734 
Q 1422 653 1784 653 
Q 2113 653 2278 743 
Q 2444 834 2444 1013 
Q 2444 1163 2330 1236 
Q 2216 1309 1875 1350 
L 1678 1375 
Q 931 1469 631 1722 
Q 331 1975 331 2491 
Q 331 3047 712 3315 
Q 1094 3584 1881 3584 
Q 2191 3584 2531 3537 
Q 2872 3491 3272 3391 
z
" transform="scale(0.015625)"/>
      <path id="DejaVuSans-Bold-69" d="M 538 3500 
L 1656 3500 
L 1656 0 
L 538 0 
L 538 3500 
z
M 538 4863 
L 1656 4863 
L 1656 3950 
L 538 3950 
L 538 4863 
z
" transform="scale(0.015625)"/>
      <path id="DejaVuSans-Bold-67" d="M 2919 594 
Q 2688 288 2409 144 
Q 2131 0 1766 0 
Q 1125 0 706 504 
Q 288 1009 288 1791 
Q 288 2575 706 3076 
Q 1125 3578 1766 3578 
Q 2131 3578 2409 3434 
Q 2688 3291 2919 2981 
L 2919 3500 
L 4044 3500 
L 4044 353 
Q 4044 -491 3511 -936 
Q 2978 -1381 1966 -1381 
Q 1638 -1381 1331 -1331 
Q 1025 -1281 716 -1178 
L 716 -306 
Q 1009 -475 1290 -558 
Q 1572 -641 1856 -641 
Q 2406 -641 2662 -400 
Q 2919 -159 2919 353 
L 2919 594 
z
M 2181 2772 
Q 1834 2772 1640 2515 
Q 1447 2259 1447 1791 
Q 1447 1309 1634 1061 
Q 1822 813 2181 813 
Q 2531 813 2725 1069 
Q 2919 1325 2919 1791 
Q 2919 2259 2725 2515 
Q 2531 2772 2181 2772 
z
" transform="scale(0.015625)"/>
      <path id="DejaVuSans-Bold-6e" d="M 4056 2131 
L 4056 0 
L 2931 0 
L 2931 347 
L 2931 1631 
Q 2931 2084 2911 2256 
Q 2891 2428 2841 2509 
Q 2775 2619 2662 2680 
Q 2550 2741 2406 2741 
Q 2056 2741 1856 2470 
Q 1656 2200 1656 1722 
L 1656 0 
L 538 0 
L 538 3500 
L 1656 3500 
L 1656 2988 
Q 1909 3294 2193 3439 
Q 2478 3584 2822 3584 
Q 3428 3584 3742 3212 
Q 4056 2841 4056 2131 
z
" transform="scale(0.015625)"/>
      <path id="DejaVuSans-Bold-61" d="M 2106 1575 
Q 1756 1575 1579 1456 
Q 1403 1338 1403 1106 
Q 1403 894 1545 773 
Q 1688 653 1941 653 
Q 2256 653 2472 879 
Q 2688 1106 2688 1447 
L 2688 1575 
L 2106 1575 
z
M 3816 1997 
L 3816 0 
L 2688 0 
L 2688 519 
Q 2463 200 2181 54 
Q 1900 -91 1497 -91 
Q 953 -91 614 226 
Q 275 544 275 1050 
Q 275 1666 698 1953 
Q 1122 2241 2028 2241 
L 2688 2241 
L 2688 2328 
Q 2688 2594 2478 2717 
Q 2269 2841 1825 2841 
Q 1466 2841 1156 2769 
Q 847 2697 581 2553 
L 581 3406 
Q 941 3494 1303 3539 
Q 1666 3584 2028 3584 
Q 2975 3584 3395 3211 
Q 3816 2838 3816 1997 
z
" transform="scale(0.015625)"/>
      <path id="DejaVuSans-Bold-6c" d="M 538 4863 
L 1656 4863 
L 1656 0 
L 538 0 
L 538 4863 
z
" transform="scale(0.015625)"/>
      <path id="DejaVuSans-Bold-3a" d="M 716 3500 
L 1844 3500 
L 1844 2291 
L 716 2291 
L 716 3500 
z
M 716 1209 
L 1844 1209 
L 1844 0 
L 716 0 
L 716 1209 
z
" transform="scale(0.015625)"/>
      <path id="DejaVuSans-Bold-35" d="M 678 4666 
L 3669 4666 
L 3669 3781 
L 1638 3781 
L 1638 3059 
Q 1775 3097 1914 3117 
Q 2053 3138 2203 3138 
Q 3056 3138 3531 2711 
Q 4006 2284 4006 1522 
Q 4006 766 3489 337 
Q 2972 -91 2053 -91 
Q 1656 -91 1267 -14 
Q 878 63 494 219 
L 494 1166 
Q 875 947 1217 837 
Q 1559 728 1863 728 
Q 2300 728 2551 942 
Q 2803 1156 2803 1522 
Q 2803 1891 2551 2103 
Q 2300 2316 1863 2316 
Q 1603 2316 1309 2248 
Q 1016 2181 678 2041 
L 678 4666 
z
" transform="scale(0.015625)"/>
      <path id="DejaVuSans-Bold-48" d="M 588 4666 
L 1791 4666 
L 1791 2888 
L 3566 2888 
L 3566 4666 
L 4769 4666 
L 4769 0 
L 3566 0 
L 3566 1978 
L 1791 1978 
L 1791 0 
L 588 0 
L 588 4666 
z
" transform="scale(0.015625)"/>
      <path id="DejaVuSans-Bold-7a" d="M 366 3500 
L 3419 3500 
L 3419 2719 
L 1575 800 
L 3419 800 
L 3419 0 
L 288 0 
L 288 781 
L 2131 2700 
L 366 2700 
L 366 3500 
z
" transform="scale(0.015625)"/>
     </defs>
     <use xlink:href="#DejaVuSans-Bold-74"/>
     <use xlink:href="#DejaVuSans-Bold-72" transform="translate(47.802734 0)"/>
     <use xlink:href="#DejaVuSans-Bold-75" transform="translate(97.119141 0)"/>
     <use xlink:href="#DejaVuSans-Bold-65" transform="translate(168.310547 0)"/>
     <use xlink:href="#DejaVuSans-Bold-20" transform="translate(236.132812 0)"/>
     <use xlink:href="#DejaVuSans-Bold-73" transform="translate(270.947266 0)"/>
     <use xlink:href="#DejaVuSans-Bold-69" transform="translate(330.46875 0)"/>
     <use xlink:href="#DejaVuSans-Bold-67" transform="translate(364.746094 0)"/>
     <use xlink:href="#DejaVuSans-Bold-6e" transform="translate(436.328125 0)"/>
     <use xlink:href="#DejaVuSans-Bold-61" transform="translate(507.519531 0)"/>
     <use xlink:href="#DejaVuSans-Bold-6c" transform="translate(575 0)"/>
     <use xlink:href="#DejaVuSans-Bold-3a" transform="translate(609.277344 0)"/>
     <use xlink:href="#DejaVuSans-Bold-20" transform="translate(649.267578 0)"/>
     <use xlink:href="#DejaVuSans-Bold-35" transform="translate(684.082031 0)"/>
     <use xlink:href="#DejaVuSans-Bold-20" transform="translate(753.662109 0)"/>
     <use xlink:href="#DejaVuSans-Bold-48" transform="translate(788.476562 0)"/>
     <use xlink:href="#DejaVuSans-Bold-7a" transform="translate(872.167969 0)"/>
    </g>
   </g>
   <g id="text_6">
    <!-- the samples sketch a 1 Hz signal that was never there -->
    <g style="fill: #d47b28" transform="translate(328.845937 157.129157) scale(0.145 -0.145)">
     <defs>
      <path id="DejaVuSans-Bold-68" d="M 4056 2131 
L 4056 0 
L 2931 0 
L 2931 347 
L 2931 1625 
Q 2931 2084 2911 2256 
Q 2891 2428 2841 2509 
Q 2775 2619 2662 2680 
Q 2550 2741 2406 2741 
Q 2056 2741 1856 2470 
Q 1656 2200 1656 1722 
L 1656 0 
L 538 0 
L 538 4863 
L 1656 4863 
L 1656 2988 
Q 1909 3294 2193 3439 
Q 2478 3584 2822 3584 
Q 3428 3584 3742 3212 
Q 4056 2841 4056 2131 
z
" transform="scale(0.015625)"/>
      <path id="DejaVuSans-Bold-6d" d="M 3781 2919 
Q 3994 3244 4286 3414 
Q 4578 3584 4928 3584 
Q 5531 3584 5847 3212 
Q 6163 2841 6163 2131 
L 6163 0 
L 5038 0 
L 5038 1825 
Q 5041 1866 5042 1909 
Q 5044 1953 5044 2034 
Q 5044 2406 4934 2573 
Q 4825 2741 4581 2741 
Q 4263 2741 4089 2478 
Q 3916 2216 3909 1719 
L 3909 0 
L 2784 0 
L 2784 1825 
Q 2784 2406 2684 2573 
Q 2584 2741 2328 2741 
Q 2006 2741 1831 2477 
Q 1656 2213 1656 1722 
L 1656 0 
L 531 0 
L 531 3500 
L 1656 3500 
L 1656 2988 
Q 1863 3284 2130 3434 
Q 2397 3584 2719 3584 
Q 3081 3584 3359 3409 
Q 3638 3234 3781 2919 
z
" transform="scale(0.015625)"/>
      <path id="DejaVuSans-Bold-70" d="M 1656 506 
L 1656 -1331 
L 538 -1331 
L 538 3500 
L 1656 3500 
L 1656 2988 
Q 1888 3294 2169 3439 
Q 2450 3584 2816 3584 
Q 3463 3584 3878 3070 
Q 4294 2556 4294 1747 
Q 4294 938 3878 423 
Q 3463 -91 2816 -91 
Q 2450 -91 2169 54 
Q 1888 200 1656 506 
z
M 2400 2772 
Q 2041 2772 1848 2508 
Q 1656 2244 1656 1747 
Q 1656 1250 1848 986 
Q 2041 722 2400 722 
Q 2759 722 2948 984 
Q 3138 1247 3138 1747 
Q 3138 2247 2948 2509 
Q 2759 2772 2400 2772 
z
" transform="scale(0.015625)"/>
      <path id="DejaVuSans-Bold-6b" d="M 538 4863 
L 1656 4863 
L 1656 2216 
L 2944 3500 
L 4244 3500 
L 2534 1894 
L 4378 0 
L 3022 0 
L 1656 1459 
L 1656 0 
L 538 0 
L 538 4863 
z
" transform="scale(0.015625)"/>
      <path id="DejaVuSans-Bold-63" d="M 3366 3391 
L 3366 2478 
Q 3138 2634 2908 2709 
Q 2678 2784 2431 2784 
Q 1963 2784 1702 2511 
Q 1441 2238 1441 1747 
Q 1441 1256 1702 982 
Q 1963 709 2431 709 
Q 2694 709 2930 787 
Q 3166 866 3366 1019 
L 3366 103 
Q 3103 6 2833 -42 
Q 2563 -91 2291 -91 
Q 1344 -91 809 395 
Q 275 881 275 1747 
Q 275 2613 809 3098 
Q 1344 3584 2291 3584 
Q 2566 3584 2833 3536 
Q 3100 3488 3366 3391 
z
" transform="scale(0.015625)"/>
      <path id="DejaVuSans-Bold-31" d="M 750 831 
L 1813 831 
L 1813 3847 
L 722 3622 
L 722 4441 
L 1806 4666 
L 2950 4666 
L 2950 831 
L 4013 831 
L 4013 0 
L 750 0 
L 750 831 
z
" transform="scale(0.015625)"/>
      <path id="DejaVuSans-Bold-77" d="M 225 3500 
L 1313 3500 
L 1900 1088 
L 2491 3500 
L 3425 3500 
L 4013 1113 
L 4603 3500 
L 5691 3500 
L 4769 0 
L 3547 0 
L 2956 2406 
L 2369 0 
L 1147 0 
L 225 3500 
z
" transform="scale(0.015625)"/>
      <path id="DejaVuSans-Bold-76" d="M 97 3500 
L 1216 3500 
L 2088 1081 
L 2956 3500 
L 4078 3500 
L 2700 0 
L 1472 0 
L 97 3500 
z
" transform="scale(0.015625)"/>
     </defs>
     <use xlink:href="#DejaVuSans-Bold-74"/>
     <use xlink:href="#DejaVuSans-Bold-68" transform="translate(47.802734 0)"/>
     <use xlink:href="#DejaVuSans-Bold-65" transform="translate(118.994141 0)"/>
     <use xlink:href="#DejaVuSans-Bold-20" transform="translate(186.816406 0)"/>
     <use xlink:href="#DejaVuSans-Bold-73" transform="translate(221.630859 0)"/>
     <use xlink:href="#DejaVuSans-Bold-61" transform="translate(281.152344 0)"/>
     <use xlink:href="#DejaVuSans-Bold-6d" transform="translate(348.632812 0)"/>
     <use xlink:href="#DejaVuSans-Bold-70" transform="translate(452.832031 0)"/>
     <use xlink:href="#DejaVuSans-Bold-6c" transform="translate(524.414062 0)"/>
     <use xlink:href="#DejaVuSans-Bold-65" transform="translate(558.691406 0)"/>
     <use xlink:href="#DejaVuSans-Bold-73" transform="translate(626.513672 0)"/>
     <use xlink:href="#DejaVuSans-Bold-20" transform="translate(686.035156 0)"/>
     <use xlink:href="#DejaVuSans-Bold-73" transform="translate(720.849609 0)"/>
     <use xlink:href="#DejaVuSans-Bold-6b" transform="translate(780.371094 0)"/>
     <use xlink:href="#DejaVuSans-Bold-65" transform="translate(844.25 0)"/>
     <use xlink:href="#DejaVuSans-Bold-74" transform="translate(912.072266 0)"/>
     <use xlink:href="#DejaVuSans-Bold-63" transform="translate(959.875 0)"/>
     <use xlink:href="#DejaVuSans-Bold-68" transform="translate(1019.152344 0)"/>
     <use xlink:href="#DejaVuSans-Bold-20" transform="translate(1090.34375 0)"/>
     <use xlink:href="#DejaVuSans-Bold-61" transform="translate(1125.158203 0)"/>
     <use xlink:href="#DejaVuSans-Bold-20" transform="translate(1192.638672 0)"/>
     <use xlink:href="#DejaVuSans-Bold-31" transform="translate(1227.453125 0)"/>
     <use xlink:href="#DejaVuSans-Bold-20" transform="translate(1297.033203 0)"/>
     <use xlink:href="#DejaVuSans-Bold-48" transform="translate(1331.847656 0)"/>
     <use xlink:href="#DejaVuSans-Bold-7a" transform="translate(1415.539062 0)"/>
     <use xlink:href="#DejaVuSans-Bold-20" transform="translate(1473.742188 0)"/>
     <use xlink:href="#DejaVuSans-Bold-73" transform="translate(1508.556641 0)"/>
     <use xlink:href="#DejaVuSans-Bold-69" transform="translate(1568.078125 0)"/>
     <use xlink:href="#DejaVuSans-Bold-67" transform="translate(1602.355469 0)"/>
     <use xlink:href="#DejaVuSans-Bold-6e" transform="translate(1673.9375 0)"/>
     <use xlink:href="#DejaVuSans-Bold-61" transform="translate(1745.128906 0)"/>
     <use xlink:href="#DejaVuSans-Bold-6c" transform="translate(1812.609375 0)"/>
     <use xlink:href="#DejaVuSans-Bold-20" transform="translate(1846.886719 0)"/>
     <use xlink:href="#DejaVuSans-Bold-74" transform="translate(1881.701172 0)"/>
     <use xlink:href="#DejaVuSans-Bold-68" transform="translate(1929.503906 0)"/>
     <use xlink:href="#DejaVuSans-Bold-61" transform="translate(2000.695312 0)"/>
     <use xlink:href="#DejaVuSans-Bold-74" transform="translate(2068.175781 0)"/>
     <use xlink:href="#DejaVuSans-Bold-20" transform="translate(2115.978516 0)"/>
     <use xlink:href="#DejaVuSans-Bold-77" transform="translate(2150.792969 0)"/>
     <use xlink:href="#DejaVuSans-Bold-61" transform="translate(2243.175781 0)"/>
     <use xlink:href="#DejaVuSans-Bold-73" transform="translate(2310.65625 0)"/>
     <use xlink:href="#DejaVuSans-Bold-20" transform="translate(2370.177734 0)"/>
     <use xlink:href="#DejaVuSans-Bold-6e" transform="translate(2404.992188 0)"/>
     <use xlink:href="#DejaVuSans-Bold-65" transform="translate(2476.183594 0)"/>
     <use xlink:href="#DejaVuSans-Bold-76" transform="translate(2544.005859 0)"/>
     <use xlink:href="#DejaVuSans-Bold-65" transform="translate(2609.191406 0)"/>
     <use xlink:href="#DejaVuSans-Bold-72" transform="translate(2677.013672 0)"/>
     <use xlink:href="#DejaVuSans-Bold-20" transform="translate(2726.330078 0)"/>
     <use xlink:href="#DejaVuSans-Bold-74" transform="translate(2761.144531 0)"/>
     <use xlink:href="#DejaVuSans-Bold-68" transform="translate(2808.947266 0)"/>
     <use xlink:href="#DejaVuSans-Bold-65" transform="translate(2880.138672 0)"/>
     <use xlink:href="#DejaVuSans-Bold-72" transform="translate(2947.960938 0)"/>
     <use xlink:href="#DejaVuSans-Bold-65" transform="translate(2997.277344 0)"/>
    </g>
   </g>
   <g id="text_7">
    <!-- sampled at 6 Hz  (&lt; 2 × 5 Hz) -->
    <g style="fill: #5a6b76" transform="translate(47.52 23.730651) scale(0.145 -0.145)">
     <defs>
      <path id="DejaVuSans-Bold-64" d="M 2919 2988 
L 2919 4863 
L 4044 4863 
L 4044 0 
L 2919 0 
L 2919 506 
Q 2688 197 2409 53 
Q 2131 -91 1766 -91 
Q 1119 -91 703 423 
Q 288 938 288 1747 
Q 288 2556 703 3070 
Q 1119 3584 1766 3584 
Q 2128 3584 2408 3439 
Q 2688 3294 2919 2988 
z
M 2181 722 
Q 2541 722 2730 984 
Q 2919 1247 2919 1747 
Q 2919 2247 2730 2509 
Q 2541 2772 2181 2772 
Q 1825 2772 1636 2509 
Q 1447 2247 1447 1747 
Q 1447 1247 1636 984 
Q 1825 722 2181 722 
z
" transform="scale(0.015625)"/>
      <path id="DejaVuSans-Bold-36" d="M 2316 2303 
Q 2000 2303 1842 2098 
Q 1684 1894 1684 1484 
Q 1684 1075 1842 870 
Q 2000 666 2316 666 
Q 2634 666 2792 870 
Q 2950 1075 2950 1484 
Q 2950 1894 2792 2098 
Q 2634 2303 2316 2303 
z
M 3803 4544 
L 3803 3681 
Q 3506 3822 3243 3889 
Q 2981 3956 2731 3956 
Q 2194 3956 1894 3657 
Q 1594 3359 1544 2772 
Q 1750 2925 1990 3001 
Q 2231 3078 2516 3078 
Q 3231 3078 3670 2659 
Q 4109 2241 4109 1563 
Q 4109 813 3618 361 
Q 3128 -91 2303 -91 
Q 1394 -91 895 523 
Q 397 1138 397 2266 
Q 397 3422 980 4083 
Q 1563 4744 2578 4744 
Q 2900 4744 3203 4694 
Q 3506 4644 3803 4544 
z
" transform="scale(0.015625)"/>
      <path id="DejaVuSans-Bold-28" d="M 2413 -844 
L 1484 -844 
Q 1006 -72 778 623 
Q 550 1319 550 2003 
Q 550 2688 779 3389 
Q 1009 4091 1484 4856 
L 2413 4856 
Q 2013 4116 1813 3408 
Q 1613 2700 1613 2009 
Q 1613 1319 1811 609 
Q 2009 -100 2413 -844 
z
" transform="scale(0.015625)"/>
      <path id="DejaVuSans-Bold-3c" d="M 4684 3041 
L 1672 2003 
L 4684 972 
L 4684 191 
L 678 1638 
L 678 2375 
L 4684 3822 
L 4684 3041 
z
" transform="scale(0.015625)"/>
      <path id="DejaVuSans-Bold-32" d="M 1844 884 
L 3897 884 
L 3897 0 
L 506 0 
L 506 884 
L 2209 2388 
Q 2438 2594 2547 2791 
Q 2656 2988 2656 3200 
Q 2656 3528 2436 3728 
Q 2216 3928 1850 3928 
Q 1569 3928 1234 3808 
Q 900 3688 519 3450 
L 519 4475 
Q 925 4609 1322 4679 
Q 1719 4750 2100 4750 
Q 2938 4750 3402 4381 
Q 3866 4013 3866 3353 
Q 3866 2972 3669 2642 
Q 3472 2313 2841 1759 
L 1844 884 
z
" transform="scale(0.015625)"/>
      <path id="DejaVuSans-Bold-d7" d="M 4563 3359 
L 3206 2003 
L 4563 653 
L 4038 128 
L 2681 1478 
L 1325 128 
L 800 653 
L 2156 2003 
L 800 3359 
L 1325 3884 
L 2681 2528 
L 4038 3884 
L 4563 3359 
z
" transform="scale(0.015625)"/>
      <path id="DejaVuSans-Bold-29" d="M 513 -844 
Q 913 -100 1113 609 
Q 1313 1319 1313 2009 
Q 1313 2700 1113 3408 
Q 913 4116 513 4856 
L 1441 4856 
Q 1916 4091 2145 3389 
Q 2375 2688 2375 2003 
Q 2375 1319 2147 623 
Q 1919 -72 1441 -844 
L 513 -844 
z
" transform="scale(0.015625)"/>
     </defs>
     <use xlink:href="#DejaVuSans-Bold-73"/>
     <use xlink:href="#DejaVuSans-Bold-61" transform="translate(59.521484 0)"/>
     <use xlink:href="#DejaVuSans-Bold-6d" transform="translate(127.001953 0)"/>
     <use xlink:href="#DejaVuSans-Bold-70" transform="translate(231.201172 0)"/>
     <use xlink:href="#DejaVuSans-Bold-6c" transform="translate(302.783203 0)"/>
     <use xlink:href="#DejaVuSans-Bold-65" transform="translate(337.060547 0)"/>
     <use xlink:href="#DejaVuSans-Bold-64" transform="translate(404.882812 0)"/>
     <use xlink:href="#DejaVuSans-Bold-20" transform="translate(476.464844 0)"/>
     <use xlink:href="#DejaVuSans-Bold-61" transform="translate(511.279297 0)"/>
     <use xlink:href="#DejaVuSans-Bold-74" transform="translate(578.759766 0)"/>
     <use xlink:href="#DejaVuSans-Bold-20" transform="translate(626.5625 0)"/>
     <use xlink:href="#DejaVuSans-Bold-36" transform="translate(661.376953 0)"/>
     <use xlink:href="#DejaVuSans-Bold-20" transform="translate(730.957031 0)"/>
     <use xlink:href="#DejaVuSans-Bold-48" transform="translate(765.771484 0)"/>
     <use xlink:href="#DejaVuSans-Bold-7a" transform="translate(849.462891 0)"/>
     <use xlink:href="#DejaVuSans-Bold-20" transform="translate(907.666016 0)"/>
     <use xlink:href="#DejaVuSans-Bold-20" transform="translate(942.480469 0)"/>
     <use xlink:href="#DejaVuSans-Bold-28" transform="translate(977.294922 0)"/>
     <use xlink:href="#DejaVuSans-Bold-3c" transform="translate(1022.998047 0)"/>
     <use xlink:href="#DejaVuSans-Bold-20" transform="translate(1106.787109 0)"/>
     <use xlink:href="#DejaVuSans-Bold-32" transform="translate(1141.601562 0)"/>
     <use xlink:href="#DejaVuSans-Bold-20" transform="translate(1211.181641 0)"/>
     <use xlink:href="#DejaVuSans-Bold-d7" transform="translate(1245.996094 0)"/>
     <use xlink:href="#DejaVuSans-Bold-20" transform="translate(1329.785156 0)"/>
     <use xlink:href="#DejaVuSans-Bold-35" transform="translate(1364.599609 0)"/>
     <use xlink:href="#DejaVuSans-Bold-20" transform="translate(1434.179688 0)"/>
     <use xlink:href="#DejaVuSans-Bold-48" transform="translate(1468.994141 0)"/>
     <use xlink:href="#DejaVuSans-Bold-7a" transform="translate(1552.685547 0)"/>
     <use xlink:href="#DejaVuSans-Bold-29" transform="translate(1610.888672 0)"/>
    </g>
   </g>
   <g id="line2d_6">
    <defs>
     <path id="m42e5049572" d="M 0 4.5 
C 1.193414 4.5 2.338109 4.025852 3.181981 3.181981 
C 4.025852 2.338109 4.5 1.193414 4.5 0 
C 4.5 -1.193414 4.025852 -2.338109 3.181981 -3.181981 
C 2.338109 -4.025852 1.193414 -4.5 0 -4.5 
C -1.193414 -4.5 -2.338109 -4.025852 -3.181981 -3.181981 
C -4.025852 -2.338109 -4.5 -1.193414 -4.5 0 
C -4.5 1.193414 -4.025852 2.338109 -3.181981 3.181981 
C -2.338109 4.025852 -1.193414 4.5 0 4.5 
z
" style="stroke: #ffffff; stroke-width: 1.2"/>
    </defs>
    <g clip-path="url(#p5332c6eb5a)">
     <use xlink:href="#m42e5049572" x="43.854545" y="86.008916" style="fill: #d47b28; stroke: #ffffff; stroke-width: 1.2"/>
     <use xlink:href="#m42e5049572" x="166.036364" y="119.301854" style="fill: #d47b28; stroke: #ffffff; stroke-width: 1.2"/>
     <use xlink:href="#m42e5049572" x="288.218182" y="119.301854" style="fill: #d47b28; stroke: #ffffff; stroke-width: 1.2"/>
     <use xlink:href="#m42e5049572" x="410.4" y="86.008916" style="fill: #d47b28; stroke: #ffffff; stroke-width: 1.2"/>
     <use xlink:href="#m42e5049572" x="532.581818" y="52.715978" style="fill: #d47b28; stroke: #ffffff; stroke-width: 1.2"/>
     <use xlink:href="#m42e5049572" x="654.763636" y="52.715978" style="fill: #d47b28; stroke: #ffffff; stroke-width: 1.2"/>
     <use xlink:href="#m42e5049572" x="776.945455" y="86.008916" style="fill: #d47b28; stroke: #ffffff; stroke-width: 1.2"/>
    </g>
   </g>
  </g>
 </g>
 <defs>
  <clipPath id="p5332c6eb5a">
   <rect x="7.2" y="7.2" width="806.4" height="159.54"/>
  </clipPath>
 </defs>
</svg>
