<?xml version="1.0" encoding="utf-8" standalone="no"?>
<!DOCTYPE svg PUBLIC "-//W3C//DTD SVG 1.1//EN"
  "http://www.w3.org/Graphics/SVG/1.1/DTD/svg11.dtd">
<svg xmlns:xlink="http://www.w3.org/1999/xlink" width="820.748437pt" height="215.613334pt" viewBox="0 0 820.748437 215.613334" xmlns="http://www.w3.org/2000/svg" version="1.1">
 <metadata>
  <rdf:RDF xmlns:dc="http://purl.org/dc/elements/1.1/" xmlns:cc="http://creativecommons.org/ns#" xmlns:rdf="http://www.w3.org/1999/02/22-rdf-syntax-ns#">
   <cc:Work>
    <dc:type rdf:resource="http://purl.org/dc/dcmitype/StillImage"/>
    <dc:date>2026-07-19T18:02:27.021174</dc:date>
    <dc:format>image/svg+xml</dc:format>
    <dc:creator>
     <cc:Agent>
      <dc:title>Matplotlib v3.10.8, https://matplotlib.org/</dc:title>
     </cc:Agent>
    </dc:creator>
   </cc:Work>
  </rdf:RDF>
 </metadata>
 <defs>
  <style type="text/css">*{stroke-linejoin: round; stroke-linecap: butt}</style>
 </defs>
 <g id="figure_1">
  <g id="patch_1">
   <path d="M 0 215.613334 
L 820.748437 215.613334 
L 820.748437 0 
L 0 0 
L 0 215.613334 
z
" style="fill: none"/>
  </g>
  <g id="axes_1">
   <g id="patch_2">
    <path d="M 44.398438 208.012138 
L 420.770235 208.012138 
L 420.770235 26.977578 
L 44.398438 26.977578 
L 44.398438 208.012138 
z
" style="fill: none"/>
   </g>
   <g id="matplotlib.axis_1"/>
   <g id="matplotlib.axis_2">
    <g id="ytick_1">
     <g id="line2d_1"/>
     <g id="text_1">
      <!-- 0 V -->
      <g style="fill: #5a6b76" transform="translate(19.602813 205.70974) scale(0.13 -0.13)">
       <defs>
        <path id="DejaVuSans-30" d="M 2034 4250 
Q 1547 4250 1301 3770 
Q 1056 3291 1056 2328 
Q 1056 1369 1301 889 
Q 1547 409 2034 409 
Q 2525 409 2770 889 
Q 3016 1369 3016 2328 
Q 3016 3291 2770 3770 
Q 2525 4250 2034 4250 
z
M 2034 4750 
Q 2819 4750 3233 4129 
Q 3647 3509 3647 2328 
Q 3647 1150 3233 529 
Q 2819 -91 2034 -91 
Q 1250 -91 836 529 
Q 422 1150 422 2328 
Q 422 3509 836 4129 
Q 1250 4750 2034 4750 
z
" transform="scale(0.015625)"/>
        <path id="DejaVuSans-20" transform="scale(0.015625)"/>
        <path id="DejaVuSans-56" d="M 1831 0 
L 50 4666 
L 709 4666 
L 2188 738 
L 3669 4666 
L 4325 4666 
L 2547 0 
L 1831 0 
z
" transform="scale(0.015625)"/>
       </defs>
       <use xlink:href="#DejaVuSans-30"/>
       <use xlink:href="#DejaVuSans-20" transform="translate(63.623047 0)"/>
       <use xlink:href="#DejaVuSans-56" transform="translate(95.410156 0)"/>
      </g>
     </g>
    </g>
    <g id="ytick_2">
     <g id="line2d_2"/>
     <g id="text_2">
      <!-- 3.3 V -->
      <g style="fill: #5a6b76" transform="translate(7.2 46.399327) scale(0.13 -0.13)">
       <defs>
        <path id="DejaVuSans-33" d="M 2597 2516 
Q 3050 2419 3304 2112 
Q 3559 1806 3559 1356 
Q 3559 666 3084 287 
Q 2609 -91 1734 -91 
Q 1441 -91 1130 -33 
Q 819 25 488 141 
L 488 750 
Q 750 597 1062 519 
Q 1375 441 1716 441 
Q 2309 441 2620 675 
Q 2931 909 2931 1356 
Q 2931 1769 2642 2001 
Q 2353 2234 1838 2234 
L 1294 2234 
L 1294 2753 
L 1863 2753 
Q 2328 2753 2575 2939 
Q 2822 3125 2822 3475 
Q 2822 3834 2567 4026 
Q 2313 4219 1838 4219 
Q 1578 4219 1281 4162 
Q 984 4106 628 3988 
L 628 4550 
Q 988 4650 1302 4700 
Q 1616 4750 1894 4750 
Q 2613 4750 3031 4423 
Q 3450 4097 3450 3541 
Q 3450 3153 3228 2886 
Q 3006 2619 2597 2516 
z
" transform="scale(0.015625)"/>
        <path id="DejaVuSans-2e" d="M 684 794 
L 1344 794 
L 1344 0 
L 684 0 
L 684 794 
z
" transform="scale(0.015625)"/>
       </defs>
       <use xlink:href="#DejaVuSans-33"/>
       <use xlink:href="#DejaVuSans-2e" transform="translate(63.623047 0)"/>
       <use xlink:href="#DejaVuSans-33" transform="translate(95.410156 0)"/>
       <use xlink:href="#DejaVuSans-20" transform="translate(159.033203 0)"/>
       <use xlink:href="#DejaVuSans-56" transform="translate(190.820312 0)"/>
      </g>
     </g>
    </g>
   </g>
   <g id="line2d_3">
    <path d="M 61.506246 186.358313 
L 64.814859 184.697754 
L 68.237562 182.733098 
L 71.774355 180.447413 
L 75.425237 177.82569 
L 79.304301 174.76121 
L 83.297454 171.322554 
L 87.518787 167.394396 
L 92.082391 162.835821 
L 96.988264 157.60969 
L 102.350499 151.56041 
L 108.397273 144.388144 
L 115.584949 135.497206 
L 125.853057 122.401188 
L 140.456589 103.810513 
L 147.644264 95.034424 
L 153.691039 87.996725 
L 159.053273 82.094393 
L 163.959147 77.02419 
L 168.522751 72.627958 
L 172.744084 68.863797 
L 176.737237 65.591594 
L 180.6163 62.698486 
L 184.267183 60.245979 
L 187.803976 58.130818 
L 191.226679 56.336683 
L 194.535291 54.84546 
L 197.843904 53.598797 
L 201.038426 52.631502 
L 204.232949 51.899813 
L 207.313381 51.419754 
L 210.393814 51.162654 
L 213.474246 51.129335 
L 216.554679 51.319905 
L 219.635111 51.733753 
L 222.715543 52.369555 
L 225.910066 53.261162 
L 229.104589 54.386209 
L 232.413201 55.793395 
L 235.721814 57.441643 
L 239.144516 59.39392 
L 242.681309 61.667246 
L 246.332192 64.276727 
L 250.211255 67.328835 
L 254.204408 70.755502 
L 258.425742 74.671882 
L 262.989345 79.21884 
L 267.895219 84.433865 
L 273.257453 90.47275 
L 279.190138 97.49749 
L 286.263724 106.231935 
L 296.303651 119.023539 
L 311.705814 138.633657 
L 318.893489 147.400691 
L 324.826174 154.298958 
L 330.188408 160.197563 
L 335.094282 165.263839 
L 339.657886 169.656002 
L 343.879219 173.416068 
L 347.872372 176.684128 
L 351.751435 179.572982 
L 355.402318 182.021297 
L 358.939111 184.132242 
L 362.361814 185.922168 
L 365.670426 187.40922 
L 368.979039 188.651623 
L 372.173561 189.614738 
L 375.368084 190.342194 
L 378.448516 190.818136 
L 381.528949 191.071097 
L 384.609381 191.100268 
L 387.689813 190.905556 
L 390.770246 190.487584 
L 393.850678 189.847688 
L 397.045201 188.951884 
L 400.239723 187.822701 
L 403.548336 186.411312 
L 403.662426 186.358313 
L 403.662426 186.358313 
" clip-path="url(#pcb273ea59d)" style="fill: none; stroke: #c8d8e2; stroke-width: 2; stroke-linecap: square"/>
   </g>
   <g id="line2d_4">
    <path d="M 61.506246 200.770756 
L 71.089814 200.770756 
L 71.203904 180.856954 
L 93.793742 180.856954 
L 93.907832 160.943153 
L 111.135436 160.943153 
L 111.249526 141.029351 
L 126.765778 141.029351 
L 126.879868 121.115549 
L 142.51021 121.115549 
L 142.6243 101.201748 
L 159.737814 101.201748 
L 159.851904 81.287946 
L 182.441742 81.287946 
L 182.555832 61.374145 
L 242.224949 61.374145 
L 242.339039 81.287946 
L 264.928877 81.287946 
L 265.042967 101.201748 
L 282.15648 101.201748 
L 282.27057 121.115549 
L 297.900913 121.115549 
L 298.015003 141.029351 
L 313.531255 141.029351 
L 313.645345 160.943153 
L 330.872949 160.943153 
L 330.987039 180.856954 
L 353.576877 180.856954 
L 353.690967 200.770756 
L 403.662426 200.770756 
L 403.662426 200.770756 
" clip-path="url(#pcb273ea59d)" style="fill: none; stroke: #174f73; stroke-width: 2.2; stroke-linecap: square"/>
   </g>
   <g id="patch_3">
    <path d="M 44.398438 208.012138 
L 420.770235 208.012138 
" style="fill: none; stroke: #c8d8e2; stroke-width: 0.8; stroke-linejoin: miter; stroke-linecap: square"/>
   </g>
   <g id="patch_4">
    <path d="M 261.667612 137.018703 
Q 261.667612 131.0728 261.667612 125.126896 
" style="fill: none; stroke: #d47b28; stroke-width: 1.8; stroke-linecap: round"/>
    <path d="M 263.667612 133.018703 
L 261.667612 137.018703 
L 259.667612 133.018703 
" style="fill: none; stroke: #d47b28; stroke-width: 1.8; stroke-linecap: round"/>
    <path d="M 259.667612 129.126896 
L 261.667612 125.126896 
L 263.667612 129.126896 
" style="fill: none; stroke: #d47b28; stroke-width: 1.8; stroke-linecap: round"/>
   </g>
   <g id="text_3">
    <g id="patch_5">
     <path d="M 276.815421 139.807138 
L 396.751671 139.807138 
L 396.751671 122.337763 
L 276.815421 122.337763 
z
" style="fill: #ffffff; opacity: 0.85"/>
    </g>
    <!-- 1 LSB = 0.41 V -->
    <g style="fill: #d47b28" transform="translate(278.775421 134.935575) scale(0.14 -0.14)">
     <defs>
      <path id="DejaVuSans-Bold-31" d="M 750 831 
L 1813 831 
L 1813 3847 
L 722 3622 
L 722 4441 
L 1806 4666 
L 2950 4666 
L 2950 831 
L 4013 831 
L 4013 0 
L 750 0 
L 750 831 
z
" transform="scale(0.015625)"/>
      <path id="DejaVuSans-Bold-20" transform="scale(0.015625)"/>
      <path id="DejaVuSans-Bold-4c" d="M 588 4666 
L 1791 4666 
L 1791 909 
L 3903 909 
L 3903 0 
L 588 0 
L 588 4666 
z
" transform="scale(0.015625)"/>
      <path id="DejaVuSans-Bold-53" d="M 3834 4519 
L 3834 3531 
Q 3450 3703 3084 3790 
Q 2719 3878 2394 3878 
Q 1963 3878 1756 3759 
Q 1550 3641 1550 3391 
Q 1550 3203 1689 3098 
Q 1828 2994 2194 2919 
L 2706 2816 
Q 3484 2659 3812 2340 
Q 4141 2022 4141 1434 
Q 4141 663 3683 286 
Q 3225 -91 2284 -91 
Q 1841 -91 1394 -6 
Q 947 78 500 244 
L 500 1259 
Q 947 1022 1364 901 
Q 1781 781 2169 781 
Q 2563 781 2772 912 
Q 2981 1044 2981 1288 
Q 2981 1506 2839 1625 
Q 2697 1744 2272 1838 
L 1806 1941 
Q 1106 2091 782 2419 
Q 459 2747 459 3303 
Q 459 4000 909 4375 
Q 1359 4750 2203 4750 
Q 2588 4750 2994 4692 
Q 3400 4634 3834 4519 
z
" transform="scale(0.015625)"/>
      <path id="DejaVuSans-Bold-42" d="M 2456 2859 
Q 2741 2859 2887 2984 
Q 3034 3109 3034 3353 
Q 3034 3594 2887 3720 
Q 2741 3847 2456 3847 
L 1791 3847 
L 1791 2859 
L 2456 2859 
z
M 2497 819 
Q 2859 819 3042 972 
Q 3225 1125 3225 1434 
Q 3225 1738 3044 1889 
Q 2863 2041 2497 2041 
L 1791 2041 
L 1791 819 
L 2497 819 
z
M 3616 2497 
Q 4003 2384 4215 2081 
Q 4428 1778 4428 1338 
Q 4428 663 3972 331 
Q 3516 0 2584 0 
L 588 0 
L 588 4666 
L 2394 4666 
Q 3366 4666 3802 4372 
Q 4238 4078 4238 3431 
Q 4238 3091 4078 2852 
Q 3919 2613 3616 2497 
z
" transform="scale(0.015625)"/>
      <path id="DejaVuSans-Bold-3d" d="M 678 3084 
L 4684 3084 
L 4684 2350 
L 678 2350 
L 678 3084 
z
M 678 1663 
L 4684 1663 
L 4684 922 
L 678 922 
L 678 1663 
z
" transform="scale(0.015625)"/>
      <path id="DejaVuSans-Bold-30" d="M 2944 2338 
Q 2944 3213 2780 3570 
Q 2616 3928 2228 3928 
Q 1841 3928 1675 3570 
Q 1509 3213 1509 2338 
Q 1509 1453 1675 1090 
Q 1841 728 2228 728 
Q 2613 728 2778 1090 
Q 2944 1453 2944 2338 
z
M 4147 2328 
Q 4147 1169 3647 539 
Q 3147 -91 2228 -91 
Q 1306 -91 806 539 
Q 306 1169 306 2328 
Q 306 3491 806 4120 
Q 1306 4750 2228 4750 
Q 3147 4750 3647 4120 
Q 4147 3491 4147 2328 
z
" transform="scale(0.015625)"/>
      <path id="DejaVuSans-Bold-2e" d="M 653 1209 
L 1778 1209 
L 1778 0 
L 653 0 
L 653 1209 
z
" transform="scale(0.015625)"/>
      <path id="DejaVuSans-Bold-34" d="M 2356 3675 
L 1038 1722 
L 2356 1722 
L 2356 3675 
z
M 2156 4666 
L 3494 4666 
L 3494 1722 
L 4159 1722 
L 4159 850 
L 3494 850 
L 3494 0 
L 2356 0 
L 2356 850 
L 288 850 
L 288 1881 
L 2156 4666 
z
" transform="scale(0.015625)"/>
      <path id="DejaVuSans-Bold-56" d="M 31 4666 
L 1241 4666 
L 2478 1222 
L 3713 4666 
L 4922 4666 
L 3194 0 
L 1759 0 
L 31 4666 
z
" transform="scale(0.015625)"/>
     </defs>
     <use xlink:href="#DejaVuSans-Bold-31"/>
     <use xlink:href="#DejaVuSans-Bold-20" transform="translate(69.580078 0)"/>
     <use xlink:href="#DejaVuSans-Bold-4c" transform="translate(104.394531 0)"/>
     <use xlink:href="#DejaVuSans-Bold-53" transform="translate(168.115234 0)"/>
     <use xlink:href="#DejaVuSans-Bold-42" transform="translate(240.136719 0)"/>
     <use xlink:href="#DejaVuSans-Bold-20" transform="translate(316.357422 0)"/>
     <use xlink:href="#DejaVuSans-Bold-3d" transform="translate(351.171875 0)"/>
     <use xlink:href="#DejaVuSans-Bold-20" transform="translate(434.960938 0)"/>
     <use xlink:href="#DejaVuSans-Bold-30" transform="translate(469.775391 0)"/>
     <use xlink:href="#DejaVuSans-Bold-2e" transform="translate(539.355469 0)"/>
     <use xlink:href="#DejaVuSans-Bold-34" transform="translate(577.34375 0)"/>
     <use xlink:href="#DejaVuSans-Bold-31" transform="translate(646.923828 0)"/>
     <use xlink:href="#DejaVuSans-Bold-20" transform="translate(716.503906 0)"/>
     <use xlink:href="#DejaVuSans-Bold-56" transform="translate(751.318359 0)"/>
    </g>
   </g>
   <g id="text_4">
    <!-- 3 bits — 8 levels -->
    <g style="fill: #174f73" transform="translate(161.245586 18.977578) scale(0.155 -0.155)">
     <defs>
      <path id="DejaVuSans-Bold-33" d="M 2981 2516 
Q 3453 2394 3698 2092 
Q 3944 1791 3944 1325 
Q 3944 631 3412 270 
Q 2881 -91 1863 -91 
Q 1503 -91 1142 -33 
Q 781 25 428 141 
L 428 1069 
Q 766 900 1098 814 
Q 1431 728 1753 728 
Q 2231 728 2486 893 
Q 2741 1059 2741 1369 
Q 2741 1688 2480 1852 
Q 2219 2016 1709 2016 
L 1228 2016 
L 1228 2791 
L 1734 2791 
Q 2188 2791 2409 2933 
Q 2631 3075 2631 3366 
Q 2631 3634 2415 3781 
Q 2200 3928 1806 3928 
Q 1516 3928 1219 3862 
Q 922 3797 628 3669 
L 628 4550 
Q 984 4650 1334 4700 
Q 1684 4750 2022 4750 
Q 2931 4750 3382 4451 
Q 3834 4153 3834 3553 
Q 3834 3144 3618 2883 
Q 3403 2622 2981 2516 
z
" transform="scale(0.015625)"/>
      <path id="DejaVuSans-Bold-62" d="M 2400 722 
Q 2759 722 2948 984 
Q 3138 1247 3138 1747 
Q 3138 2247 2948 2509 
Q 2759 2772 2400 2772 
Q 2041 2772 1848 2508 
Q 1656 2244 1656 1747 
Q 1656 1250 1848 986 
Q 2041 722 2400 722 
z
M 1656 2988 
Q 1888 3294 2169 3439 
Q 2450 3584 2816 3584 
Q 3463 3584 3878 3070 
Q 4294 2556 4294 1747 
Q 4294 938 3878 423 
Q 3463 -91 2816 -91 
Q 2450 -91 2169 54 
Q 1888 200 1656 506 
L 1656 0 
L 538 0 
L 538 4863 
L 1656 4863 
L 1656 2988 
z
" transform="scale(0.015625)"/>
      <path id="DejaVuSans-Bold-69" d="M 538 3500 
L 1656 3500 
L 1656 0 
L 538 0 
L 538 3500 
z
M 538 4863 
L 1656 4863 
L 1656 3950 
L 538 3950 
L 538 4863 
z
" transform="scale(0.015625)"/>
      <path id="DejaVuSans-Bold-74" d="M 1759 4494 
L 1759 3500 
L 2913 3500 
L 2913 2700 
L 1759 2700 
L 1759 1216 
Q 1759 972 1856 886 
Q 1953 800 2241 800 
L 2816 800 
L 2816 0 
L 1856 0 
Q 1194 0 917 276 
Q 641 553 641 1216 
L 641 2700 
L 84 2700 
L 84 3500 
L 641 3500 
L 641 4494 
L 1759 4494 
z
" transform="scale(0.015625)"/>
      <path id="DejaVuSans-Bold-73" d="M 3272 3391 
L 3272 2541 
Q 2913 2691 2578 2766 
Q 2244 2841 1947 2841 
Q 1628 2841 1473 2761 
Q 1319 2681 1319 2516 
Q 1319 2381 1436 2309 
Q 1553 2238 1856 2203 
L 2053 2175 
Q 2913 2066 3209 1816 
Q 3506 1566 3506 1031 
Q 3506 472 3093 190 
Q 2681 -91 1863 -91 
Q 1516 -91 1145 -36 
Q 775 19 384 128 
L 384 978 
Q 719 816 1070 734 
Q 1422 653 1784 653 
Q 2113 653 2278 743 
Q 2444 834 2444 1013 
Q 2444 1163 2330 1236 
Q 2216 1309 1875 1350 
L 1678 1375 
Q 931 1469 631 1722 
Q 331 1975 331 2491 
Q 331 3047 712 3315 
Q 1094 3584 1881 3584 
Q 2191 3584 2531 3537 
Q 2872 3491 3272 3391 
z
" transform="scale(0.015625)"/>
      <path id="DejaVuSans-Bold-2014" d="M 344 2156 
L 6056 2156 
L 6056 1350 
L 344 1350 
L 344 2156 
z
" transform="scale(0.015625)"/>
      <path id="DejaVuSans-Bold-38" d="M 2228 2088 
Q 1891 2088 1709 1903 
Q 1528 1719 1528 1375 
Q 1528 1031 1709 848 
Q 1891 666 2228 666 
Q 2563 666 2741 848 
Q 2919 1031 2919 1375 
Q 2919 1722 2741 1905 
Q 2563 2088 2228 2088 
z
M 1350 2484 
Q 925 2613 709 2878 
Q 494 3144 494 3541 
Q 494 4131 934 4440 
Q 1375 4750 2228 4750 
Q 3075 4750 3515 4442 
Q 3956 4134 3956 3541 
Q 3956 3144 3739 2878 
Q 3522 2613 3097 2484 
Q 3572 2353 3814 2058 
Q 4056 1763 4056 1313 
Q 4056 619 3595 264 
Q 3134 -91 2228 -91 
Q 1319 -91 855 264 
Q 391 619 391 1313 
Q 391 1763 633 2058 
Q 875 2353 1350 2484 
z
M 1631 3419 
Q 1631 3141 1786 2991 
Q 1941 2841 2228 2841 
Q 2509 2841 2662 2991 
Q 2816 3141 2816 3419 
Q 2816 3697 2662 3845 
Q 2509 3994 2228 3994 
Q 1941 3994 1786 3844 
Q 1631 3694 1631 3419 
z
" transform="scale(0.015625)"/>
      <path id="DejaVuSans-Bold-6c" d="M 538 4863 
L 1656 4863 
L 1656 0 
L 538 0 
L 538 4863 
z
" transform="scale(0.015625)"/>
      <path id="DejaVuSans-Bold-65" d="M 4031 1759 
L 4031 1441 
L 1416 1441 
Q 1456 1047 1700 850 
Q 1944 653 2381 653 
Q 2734 653 3104 758 
Q 3475 863 3866 1075 
L 3866 213 
Q 3469 63 3072 -14 
Q 2675 -91 2278 -91 
Q 1328 -91 801 392 
Q 275 875 275 1747 
Q 275 2603 792 3093 
Q 1309 3584 2216 3584 
Q 3041 3584 3536 3087 
Q 4031 2591 4031 1759 
z
M 2881 2131 
Q 2881 2450 2695 2645 
Q 2509 2841 2209 2841 
Q 1884 2841 1681 2658 
Q 1478 2475 1428 2131 
L 2881 2131 
z
" transform="scale(0.015625)"/>
      <path id="DejaVuSans-Bold-76" d="M 97 3500 
L 1216 3500 
L 2088 1081 
L 2956 3500 
L 4078 3500 
L 2700 0 
L 1472 0 
L 97 3500 
z
" transform="scale(0.015625)"/>
     </defs>
     <use xlink:href="#DejaVuSans-Bold-33"/>
     <use xlink:href="#DejaVuSans-Bold-20" transform="translate(69.580078 0)"/>
     <use xlink:href="#DejaVuSans-Bold-62" transform="translate(104.394531 0)"/>
     <use xlink:href="#DejaVuSans-Bold-69" transform="translate(175.976562 0)"/>
     <use xlink:href="#DejaVuSans-Bold-74" transform="translate(210.253906 0)"/>
     <use xlink:href="#DejaVuSans-Bold-73" transform="translate(258.056641 0)"/>
     <use xlink:href="#DejaVuSans-Bold-20" transform="translate(317.578125 0)"/>
     <use xlink:href="#DejaVuSans-Bold-2014" transform="translate(352.392578 0)"/>
     <use xlink:href="#DejaVuSans-Bold-20" transform="translate(452.392578 0)"/>
     <use xlink:href="#DejaVuSans-Bold-38" transform="translate(487.207031 0)"/>
     <use xlink:href="#DejaVuSans-Bold-20" transform="translate(556.787109 0)"/>
     <use xlink:href="#DejaVuSans-Bold-6c" transform="translate(591.601562 0)"/>
     <use xlink:href="#DejaVuSans-Bold-65" transform="translate(625.878906 0)"/>
     <use xlink:href="#DejaVuSans-Bold-76" transform="translate(693.701172 0)"/>
     <use xlink:href="#DejaVuSans-Bold-65" transform="translate(758.886719 0)"/>
     <use xlink:href="#DejaVuSans-Bold-6c" transform="translate(826.708984 0)"/>
     <use xlink:href="#DejaVuSans-Bold-73" transform="translate(860.986328 0)"/>
    </g>
   </g>
  </g>
  <g id="axes_2">
   <g id="patch_6">
    <path d="M 437.17664 208.012138 
L 813.548437 208.012138 
L 813.548437 26.977578 
L 437.17664 26.977578 
L 437.17664 208.012138 
z
" style="fill: none"/>
   </g>
   <g id="matplotlib.axis_3"/>
   <g id="matplotlib.axis_4">
    <g id="ytick_3">
     <g id="line2d_5"/>
    </g>
    <g id="ytick_4">
     <g id="line2d_6"/>
    </g>
   </g>
   <g id="line2d_7">
    <path d="M 454.284449 186.358313 
L 457.593062 184.697754 
L 461.015764 182.733098 
L 464.552557 180.447413 
L 468.20344 177.82569 
L 472.082503 174.76121 
L 476.075656 171.322554 
L 480.296989 167.394396 
L 484.860593 162.835821 
L 489.766467 157.60969 
L 495.128701 151.56041 
L 501.175476 144.388144 
L 508.363152 135.497206 
L 518.63126 122.401188 
L 533.234791 103.810513 
L 540.422467 95.034424 
L 546.469242 87.996725 
L 551.831476 82.094393 
L 556.73735 77.02419 
L 561.300953 72.627958 
L 565.522287 68.863797 
L 569.51544 65.591594 
L 573.394503 62.698486 
L 577.045386 60.245979 
L 580.582178 58.130818 
L 584.004881 56.336683 
L 587.313494 54.84546 
L 590.622106 53.598797 
L 593.816629 52.631502 
L 597.011151 51.899813 
L 600.091584 51.419754 
L 603.172016 51.162654 
L 606.252449 51.129335 
L 609.332881 51.319905 
L 612.413314 51.733753 
L 615.493746 52.369555 
L 618.688268 53.261162 
L 621.882791 54.386209 
L 625.191404 55.793395 
L 628.500016 57.441643 
L 631.922719 59.39392 
L 635.459512 61.667246 
L 639.110395 64.276727 
L 642.989458 67.328835 
L 646.982611 70.755502 
L 651.203944 74.671882 
L 655.767548 79.21884 
L 660.673422 84.433865 
L 666.035656 90.47275 
L 671.96834 97.49749 
L 679.041926 106.231935 
L 689.081854 119.023539 
L 704.484016 138.633657 
L 711.671692 147.400691 
L 717.604376 154.298958 
L 722.966611 160.197563 
L 727.872485 165.263839 
L 732.436088 169.656002 
L 736.657421 173.416068 
L 740.650575 176.684128 
L 744.529638 179.572982 
L 748.180521 182.021297 
L 751.717313 184.132242 
L 755.140016 185.922168 
L 758.448629 187.40922 
L 761.757241 188.651623 
L 764.951764 189.614738 
L 768.146286 190.342194 
L 771.226719 190.818136 
L 774.307151 191.071097 
L 777.387584 191.100268 
L 780.468016 190.905556 
L 783.548448 190.487584 
L 786.628881 189.847688 
L 789.823403 188.951884 
L 793.017926 187.822701 
L 796.326538 186.411312 
L 796.440629 186.358313 
L 796.440629 186.358313 
" clip-path="url(#p9a277c417a)" style="fill: none; stroke: #c8d8e2; stroke-width: 2; stroke-linecap: square"/>
   </g>
   <g id="line2d_8">
    <path d="M 454.284449 186.379923 
L 455.19717 185.952087 
L 455.88171 185.60204 
L 456.680341 185.213098 
L 457.593062 184.707474 
L 458.277602 184.357427 
L 459.532593 183.618438 
L 460.103044 183.307285 
L 462.156665 182.023778 
L 462.613026 181.751519 
L 468.6598 177.512058 
L 469.344341 176.96754 
L 470.599332 175.995186 
L 471.397962 175.333986 
L 472.310683 174.594997 
L 473.223404 173.817114 
L 474.022035 173.155914 
L 475.162935 172.144666 
L 475.847476 171.561254 
L 477.444737 170.083276 
L 478.015188 169.577652 
L 480.296989 167.39958 
L 480.75335 166.971745 
L 490.336917 157.014844 
L 491.021458 156.236961 
L 492.732809 154.331148 
L 493.53144 153.397689 
L 495.014611 151.72524 
L 495.927332 150.636204 
L 497.182323 149.197121 
L 498.209134 147.952509 
L 499.235944 146.74679 
L 500.262755 145.502177 
L 501.175476 144.413141 
L 502.316377 143.012952 
L 503.115007 142.040599 
L 504.369998 140.484833 
L 505.168629 139.512479 
L 506.6518 137.64556 
L 507.450431 136.673207 
L 509.161782 134.495135 
L 509.846323 133.639464 
L 511.557674 131.461392 
L 512.242215 130.60572 
L 514.181746 128.116495 
L 514.866287 127.260824 
L 517.033998 124.460446 
L 517.718539 123.604775 
L 520.000341 120.64882 
L 520.684881 119.793148 
L 522.966683 116.837194 
L 523.651224 115.981522 
L 525.818935 113.181144 
L 526.503476 112.325473 
L 528.328917 109.991824 
L 529.013458 109.136153 
L 530.724809 106.958081 
L 531.52344 105.985727 
L 533.120701 103.963232 
L 533.919332 102.990878 
L 535.288413 101.279536 
L 536.087043 100.307182 
L 537.342034 98.751417 
L 538.254755 97.662381 
L 539.281566 96.417768 
L 540.194287 95.328732 
L 541.107007 94.239696 
L 542.133818 93.033978 
L 543.046539 91.944942 
L 544.30153 90.505858 
L 545.100161 89.572399 
L 546.583332 87.899951 
L 547.267872 87.122068 
L 549.093314 85.099572 
L 549.777854 84.321689 
L 554.113278 79.73218 
L 554.683728 79.109874 
L 559.703692 74.131424 
L 560.274142 73.6258 
L 562.213674 71.797775 
L 562.784124 71.292151 
L 564.039115 70.164221 
L 564.723656 69.580809 
L 565.750467 68.686244 
L 566.549097 68.025043 
L 567.461818 67.24716 
L 568.602719 66.352595 
L 569.40135 65.691394 
L 570.998611 64.485676 
L 571.683151 63.941158 
L 579.213097 58.923813 
L 579.783548 58.61266 
L 580.924449 57.95146 
L 581.608989 57.601413 
L 582.52171 57.095789 
L 583.320341 56.706847 
L 584.004881 56.3568 
L 584.917602 55.928964 
L 585.488052 55.656705 
L 586.857133 55.073293 
L 587.427584 54.801034 
L 594.95753 52.350703 
L 595.41389 52.272915 
L 596.554791 52.000656 
L 597.011151 51.922868 
L 597.809782 51.767291 
L 598.380232 51.689503 
L 599.064773 51.57282 
L 599.749314 51.495032 
L 600.319764 51.417244 
L 601.118395 51.339455 
L 601.688845 51.261667 
L 603.514287 51.183879 
L 603.970647 51.144985 
L 608.07789 51.222773 
L 608.53425 51.261667 
L 609.446971 51.339455 
L 610.017422 51.417244 
L 610.816052 51.495032 
L 611.500593 51.611714 
L 612.071043 51.689503 
L 612.869674 51.845079 
L 613.440124 51.922868 
L 614.581025 52.195127 
L 615.037386 52.272915 
L 616.520557 52.661856 
L 616.862827 52.739645 
L 624.278683 55.384446 
L 624.849133 55.656705 
L 625.875944 56.123435 
L 626.560485 56.473482 
L 627.359115 56.862424 
L 628.157746 57.290259 
L 628.842286 57.640307 
L 629.869097 58.223719 
L 630.439548 58.534872 
L 631.922719 59.429437 
L 632.379079 59.701696 
L 640.593566 65.419135 
L 641.278106 65.963653 
L 642.304917 66.780431 
L 643.103548 67.441631 
L 643.902178 68.102831 
L 644.814899 68.880714 
L 645.49944 69.464126 
L 646.640341 70.475374 
L 647.210791 70.980998 
L 648.693962 72.342293 
L 649.264413 72.847917 
L 651.774395 75.259354 
L 652.230755 75.687189 
L 661.243872 85.060678 
L 661.928413 85.838561 
L 663.639764 87.744374 
L 664.438395 88.677833 
L 665.921566 90.350282 
L 666.720196 91.283741 
L 667.861097 92.606142 
L 668.773818 93.695178 
L 669.800629 94.900896 
L 670.82744 96.145509 
L 671.74016 97.234545 
L 672.881061 98.634734 
L 673.793782 99.72377 
L 675.162863 101.435113 
L 675.961494 102.407466 
L 677.330575 104.118809 
L 678.129205 105.091162 
L 679.840557 107.269234 
L 680.525097 108.124905 
L 682.236449 110.302977 
L 682.920989 111.158649 
L 684.860521 113.647874 
L 685.545061 114.503545 
L 687.712773 117.303923 
L 688.397313 118.159594 
L 690.565025 120.959973 
L 691.249566 121.815644 
L 693.531367 124.771599 
L 694.215908 125.62727 
L 696.38362 128.427648 
L 697.06816 129.28332 
L 699.007692 131.772545 
L 699.692232 132.628216 
L 701.403584 134.806288 
L 702.088124 135.661959 
L 703.571295 137.528878 
L 704.369926 138.501232 
L 705.853097 140.36815 
L 706.651728 141.340504 
L 707.792629 142.740693 
L 708.705349 143.829729 
L 709.96034 145.385495 
L 710.987151 146.591213 
L 712.013962 147.835826 
L 713.154863 149.158227 
L 714.067584 150.247263 
L 715.208485 151.569664 
L 716.007115 152.503123 
L 717.490286 154.175572 
L 718.288917 155.109031 
L 720.456629 157.481574 
L 721.141169 158.259457 
L 732.778358 170.005488 
L 733.348809 170.511112 
L 734.71789 171.755724 
L 735.40243 172.339137 
L 736.543331 173.350384 
L 737.341962 174.011585 
L 738.254683 174.789468 
L 739.281493 175.606245 
L 740.080124 176.267445 
L 741.563295 177.395375 
L 742.247836 177.939893 
L 750.690502 183.579544 
L 751.260953 183.890697 
L 752.287764 184.474109 
L 752.972304 184.824157 
L 753.885025 185.329781 
L 754.797746 185.757616 
L 755.482286 186.107664 
L 756.509097 186.574393 
L 757.079548 186.846652 
L 758.676809 187.507853 
L 759.133169 187.702323 
L 765.864484 189.880395 
L 766.320845 189.958184 
L 767.461746 190.230443 
L 767.918106 190.308231 
L 768.830827 190.502702 
L 769.401277 190.58049 
L 770.085818 190.697172 
L 770.770358 190.774961 
L 771.340809 190.852749 
L 772.253529 190.930537 
L 772.82398 191.008326 
L 774.649421 191.086114 
L 775.105782 191.125008 
L 779.213025 191.04722 
L 779.783475 190.969431 
L 780.924376 190.891643 
L 781.494827 190.813855 
L 782.179367 190.736067 
L 782.863908 190.619384 
L 783.434358 190.541596 
L 784.347079 190.347125 
L 784.917529 190.269337 
L 786.17252 189.958184 
L 786.628881 189.880395 
L 788.568412 189.335877 
L 788.910683 189.258089 
L 794.729277 187.157805 
L 795.299728 186.885546 
L 796.440629 186.379923 
L 796.440629 186.379923 
" clip-path="url(#p9a277c417a)" style="fill: none; stroke: #174f73; stroke-width: 2.2; stroke-linecap: square"/>
   </g>
   <g id="patch_7">
    <path d="M 437.17664 208.012138 
L 813.548438 208.012138 
" style="fill: none; stroke: #c8d8e2; stroke-width: 0.8; stroke-linejoin: miter; stroke-linecap: square"/>
   </g>
   <g id="text_5">
    <!-- 1 LSB = 3.3 V / 4096 ≈ 0.8 mV -->
    <g style="fill: #d47b28" transform="translate(507.024257 187.253509) scale(0.14 -0.14)">
     <defs>
      <path id="DejaVuSans-Bold-2f" d="M 1644 4666 
L 2338 4666 
L 691 -594 
L 0 -594 
L 1644 4666 
z
" transform="scale(0.015625)"/>
      <path id="DejaVuSans-Bold-39" d="M 641 103 
L 641 966 
Q 928 831 1190 764 
Q 1453 697 1709 697 
Q 2247 697 2547 995 
Q 2847 1294 2900 1881 
Q 2688 1725 2447 1647 
Q 2206 1569 1925 1569 
Q 1209 1569 770 1986 
Q 331 2403 331 3084 
Q 331 3838 820 4291 
Q 1309 4744 2131 4744 
Q 3044 4744 3544 4128 
Q 4044 3513 4044 2388 
Q 4044 1231 3459 570 
Q 2875 -91 1856 -91 
Q 1528 -91 1228 -42 
Q 928 6 641 103 
z
M 2125 2350 
Q 2441 2350 2600 2554 
Q 2759 2759 2759 3169 
Q 2759 3575 2600 3781 
Q 2441 3988 2125 3988 
Q 1809 3988 1650 3781 
Q 1491 3575 1491 3169 
Q 1491 2759 1650 2554 
Q 1809 2350 2125 2350 
z
" transform="scale(0.015625)"/>
      <path id="DejaVuSans-Bold-36" d="M 2316 2303 
Q 2000 2303 1842 2098 
Q 1684 1894 1684 1484 
Q 1684 1075 1842 870 
Q 2000 666 2316 666 
Q 2634 666 2792 870 
Q 2950 1075 2950 1484 
Q 2950 1894 2792 2098 
Q 2634 2303 2316 2303 
z
M 3803 4544 
L 3803 3681 
Q 3506 3822 3243 3889 
Q 2981 3956 2731 3956 
Q 2194 3956 1894 3657 
Q 1594 3359 1544 2772 
Q 1750 2925 1990 3001 
Q 2231 3078 2516 3078 
Q 3231 3078 3670 2659 
Q 4109 2241 4109 1563 
Q 4109 813 3618 361 
Q 3128 -91 2303 -91 
Q 1394 -91 895 523 
Q 397 1138 397 2266 
Q 397 3422 980 4083 
Q 1563 4744 2578 4744 
Q 2900 4744 3203 4694 
Q 3506 4644 3803 4544 
z
" transform="scale(0.015625)"/>
      <path id="DejaVuSans-Bold-2248" d="M 4684 3309 
L 4684 2547 
Q 4353 2297 4073 2189 
Q 3794 2081 3494 2081 
Q 3159 2081 2713 2263 
Q 2669 2281 2644 2291 
Q 2622 2300 2575 2319 
Q 2091 2509 1797 2509 
Q 1522 2509 1253 2389 
Q 984 2269 678 2009 
L 678 2772 
Q 1006 3016 1286 3123 
Q 1566 3231 1869 3231 
Q 2213 3231 2672 3047 
Q 2703 3034 2719 3028 
Q 2744 3019 2788 3000 
Q 3272 2809 3566 2809 
Q 3834 2809 4098 2926 
Q 4363 3044 4684 3309 
z
M 4684 2003 
L 4684 1241 
Q 4353 991 4073 883 
Q 3794 775 3494 775 
Q 3159 775 2713 956 
Q 2669 975 2641 988 
Q 2622 994 2575 1013 
Q 2091 1203 1797 1203 
Q 1522 1203 1253 1084 
Q 984 966 678 703 
L 678 1466 
Q 1013 1716 1291 1823 
Q 1569 1931 1869 1931 
Q 2203 1931 2650 1750 
Q 2697 1731 2719 1722 
Q 2744 1713 2788 1697 
Q 3272 1503 3566 1503 
Q 3834 1503 4098 1620 
Q 4363 1738 4684 2003 
z
" transform="scale(0.015625)"/>
      <path id="DejaVuSans-Bold-6d" d="M 3781 2919 
Q 3994 3244 4286 3414 
Q 4578 3584 4928 3584 
Q 5531 3584 5847 3212 
Q 6163 2841 6163 2131 
L 6163 0 
L 5038 0 
L 5038 1825 
Q 5041 1866 5042 1909 
Q 5044 1953 5044 2034 
Q 5044 2406 4934 2573 
Q 4825 2741 4581 2741 
Q 4263 2741 4089 2478 
Q 3916 2216 3909 1719 
L 3909 0 
L 2784 0 
L 2784 1825 
Q 2784 2406 2684 2573 
Q 2584 2741 2328 2741 
Q 2006 2741 1831 2477 
Q 1656 2213 1656 1722 
L 1656 0 
L 531 0 
L 531 3500 
L 1656 3500 
L 1656 2988 
Q 1863 3284 2130 3434 
Q 2397 3584 2719 3584 
Q 3081 3584 3359 3409 
Q 3638 3234 3781 2919 
z
" transform="scale(0.015625)"/>
     </defs>
     <use xlink:href="#DejaVuSans-Bold-31"/>
     <use xlink:href="#DejaVuSans-Bold-20" transform="translate(69.580078 0)"/>
     <use xlink:href="#DejaVuSans-Bold-4c" transform="translate(104.394531 0)"/>
     <use xlink:href="#DejaVuSans-Bold-53" transform="translate(168.115234 0)"/>
     <use xlink:href="#DejaVuSans-Bold-42" transform="translate(240.136719 0)"/>
     <use xlink:href="#DejaVuSans-Bold-20" transform="translate(316.357422 0)"/>
     <use xlink:href="#DejaVuSans-Bold-3d" transform="translate(351.171875 0)"/>
     <use xlink:href="#DejaVuSans-Bold-20" transform="translate(434.960938 0)"/>
     <use xlink:href="#DejaVuSans-Bold-33" transform="translate(469.775391 0)"/>
     <use xlink:href="#DejaVuSans-Bold-2e" transform="translate(539.355469 0)"/>
     <use xlink:href="#DejaVuSans-Bold-33" transform="translate(577.34375 0)"/>
     <use xlink:href="#DejaVuSans-Bold-20" transform="translate(646.923828 0)"/>
     <use xlink:href="#DejaVuSans-Bold-56" transform="translate(681.738281 0)"/>
     <use xlink:href="#DejaVuSans-Bold-20" transform="translate(759.130859 0)"/>
     <use xlink:href="#DejaVuSans-Bold-2f" transform="translate(793.945312 0)"/>
     <use xlink:href="#DejaVuSans-Bold-20" transform="translate(830.46875 0)"/>
     <use xlink:href="#DejaVuSans-Bold-34" transform="translate(865.283203 0)"/>
     <use xlink:href="#DejaVuSans-Bold-30" transform="translate(934.863281 0)"/>
     <use xlink:href="#DejaVuSans-Bold-39" transform="translate(1004.443359 0)"/>
     <use xlink:href="#DejaVuSans-Bold-36" transform="translate(1074.023438 0)"/>
     <use xlink:href="#DejaVuSans-Bold-20" transform="translate(1143.603516 0)"/>
     <use xlink:href="#DejaVuSans-Bold-2248" transform="translate(1178.417969 0)"/>
     <use xlink:href="#DejaVuSans-Bold-20" transform="translate(1262.207031 0)"/>
     <use xlink:href="#DejaVuSans-Bold-30" transform="translate(1297.021484 0)"/>
     <use xlink:href="#DejaVuSans-Bold-2e" transform="translate(1366.601562 0)"/>
     <use xlink:href="#DejaVuSans-Bold-38" transform="translate(1404.589844 0)"/>
     <use xlink:href="#DejaVuSans-Bold-20" transform="translate(1474.169922 0)"/>
     <use xlink:href="#DejaVuSans-Bold-6d" transform="translate(1508.984375 0)"/>
     <use xlink:href="#DejaVuSans-Bold-56" transform="translate(1613.183594 0)"/>
    </g>
   </g>
   <g id="text_6">
    <!-- 12 bits — 4096 levels -->
    <g style="fill: #174f73" transform="translate(532.45457 18.977578) scale(0.155 -0.155)">
     <defs>
      <path id="DejaVuSans-Bold-32" d="M 1844 884 
L 3897 884 
L 3897 0 
L 506 0 
L 506 884 
L 2209 2388 
Q 2438 2594 2547 2791 
Q 2656 2988 2656 3200 
Q 2656 3528 2436 3728 
Q 2216 3928 1850 3928 
Q 1569 3928 1234 3808 
Q 900 3688 519 3450 
L 519 4475 
Q 925 4609 1322 4679 
Q 1719 4750 2100 4750 
Q 2938 4750 3402 4381 
Q 3866 4013 3866 3353 
Q 3866 2972 3669 2642 
Q 3472 2313 2841 1759 
L 1844 884 
z
" transform="scale(0.015625)"/>
     </defs>
     <use xlink:href="#DejaVuSans-Bold-31"/>
     <use xlink:href="#DejaVuSans-Bold-32" transform="translate(69.580078 0)"/>
     <use xlink:href="#DejaVuSans-Bold-20" transform="translate(139.160156 0)"/>
     <use xlink:href="#DejaVuSans-Bold-62" transform="translate(173.974609 0)"/>
     <use xlink:href="#DejaVuSans-Bold-69" transform="translate(245.556641 0)"/>
     <use xlink:href="#DejaVuSans-Bold-74" transform="translate(279.833984 0)"/>
     <use xlink:href="#DejaVuSans-Bold-73" transform="translate(327.636719 0)"/>
     <use xlink:href="#DejaVuSans-Bold-20" transform="translate(387.158203 0)"/>
     <use xlink:href="#DejaVuSans-Bold-2014" transform="translate(421.972656 0)"/>
     <use xlink:href="#DejaVuSans-Bold-20" transform="translate(521.972656 0)"/>
     <use xlink:href="#DejaVuSans-Bold-34" transform="translate(556.787109 0)"/>
     <use xlink:href="#DejaVuSans-Bold-30" transform="translate(626.367188 0)"/>
     <use xlink:href="#DejaVuSans-Bold-39" transform="translate(695.947266 0)"/>
     <use xlink:href="#DejaVuSans-Bold-36" transform="translate(765.527344 0)"/>
     <use xlink:href="#DejaVuSans-Bold-20" transform="translate(835.107422 0)"/>
     <use xlink:href="#DejaVuSans-Bold-6c" transform="translate(869.921875 0)"/>
     <use xlink:href="#DejaVuSans-Bold-65" transform="translate(904.199219 0)"/>
     <use xlink:href="#DejaVuSans-Bold-76" transform="translate(972.021484 0)"/>
     <use xlink:href="#DejaVuSans-Bold-65" transform="translate(1037.207031 0)"/>
     <use xlink:href="#DejaVuSans-Bold-6c" transform="translate(1105.029297 0)"/>
     <use xlink:href="#DejaVuSans-Bold-73" transform="translate(1139.306641 0)"/>
    </g>
   </g>
  </g>
 </g>
 <defs>
  <clipPath id="pcb273ea59d">
   <rect x="44.398438" y="26.977578" width="376.371798" height="181.03456"/>
  </clipPath>
  <clipPath id="p9a277c417a">
   <rect x="437.17664" y="26.977578" width="376.371798" height="181.03456"/>
  </clipPath>
 </defs>
</svg>
