<?xml version="1.0" encoding="utf-8" standalone="no"?>
<!DOCTYPE svg PUBLIC "-//W3C//DTD SVG 1.1//EN"
  "http://www.w3.org/Graphics/SVG/1.1/DTD/svg11.dtd">
<svg xmlns:xlink="http://www.w3.org/1999/xlink" width="806.190778pt" height="230.269375pt" viewBox="0 0 806.190778 230.269375" xmlns="http://www.w3.org/2000/svg" version="1.1">
 <metadata>
  <rdf:RDF xmlns:dc="http://purl.org/dc/elements/1.1/" xmlns:cc="http://creativecommons.org/ns#" xmlns:rdf="http://www.w3.org/1999/02/22-rdf-syntax-ns#">
   <cc:Work>
    <dc:type rdf:resource="http://purl.org/dc/dcmitype/StillImage"/>
    <dc:date>2026-07-19T18:02:27.093339</dc:date>
    <dc:format>image/svg+xml</dc:format>
    <dc:creator>
     <cc:Agent>
      <dc:title>Matplotlib v3.10.8, https://matplotlib.org/</dc:title>
     </cc:Agent>
    </dc:creator>
   </cc:Work>
  </rdf:RDF>
 </metadata>
 <defs>
  <style type="text/css">*{stroke-linejoin: round; stroke-linecap: butt}</style>
 </defs>
 <g id="figure_1">
  <g id="patch_1">
   <path d="M 0 230.269375 
L 806.190778 230.269375 
L 806.190778 0 
L 0 0 
L 0 230.269375 
z
" style="fill: none"/>
  </g>
  <g id="axes_1">
   <g id="patch_2">
    <path d="M 52.669688 205.52 
L 798.990778 205.52 
L 798.990778 7.2 
L 52.669688 7.2 
L 52.669688 205.52 
z
" style="fill: none"/>
   </g>
   <g id="matplotlib.axis_1">
    <g id="text_1">
     <!-- one comparator decision per bit, MSB first  (4-bit example) -->
     <g style="fill: #5a6b76" transform="translate(219.513983 220.157812) scale(0.14 -0.14)">
      <defs>
       <path id="DejaVuSans-6f" d="M 1959 3097 
Q 1497 3097 1228 2736 
Q 959 2375 959 1747 
Q 959 1119 1226 758 
Q 1494 397 1959 397 
Q 2419 397 2687 759 
Q 2956 1122 2956 1747 
Q 2956 2369 2687 2733 
Q 2419 3097 1959 3097 
z
M 1959 3584 
Q 2709 3584 3137 3096 
Q 3566 2609 3566 1747 
Q 3566 888 3137 398 
Q 2709 -91 1959 -91 
Q 1206 -91 779 398 
Q 353 888 353 1747 
Q 353 2609 779 3096 
Q 1206 3584 1959 3584 
z
" transform="scale(0.015625)"/>
       <path id="DejaVuSans-6e" d="M 3513 2113 
L 3513 0 
L 2938 0 
L 2938 2094 
Q 2938 2591 2744 2837 
Q 2550 3084 2163 3084 
Q 1697 3084 1428 2787 
Q 1159 2491 1159 1978 
L 1159 0 
L 581 0 
L 581 3500 
L 1159 3500 
L 1159 2956 
Q 1366 3272 1645 3428 
Q 1925 3584 2291 3584 
Q 2894 3584 3203 3211 
Q 3513 2838 3513 2113 
z
" transform="scale(0.015625)"/>
       <path id="DejaVuSans-65" d="M 3597 1894 
L 3597 1613 
L 953 1613 
Q 991 1019 1311 708 
Q 1631 397 2203 397 
Q 2534 397 2845 478 
Q 3156 559 3463 722 
L 3463 178 
Q 3153 47 2828 -22 
Q 2503 -91 2169 -91 
Q 1331 -91 842 396 
Q 353 884 353 1716 
Q 353 2575 817 3079 
Q 1281 3584 2069 3584 
Q 2775 3584 3186 3129 
Q 3597 2675 3597 1894 
z
M 3022 2063 
Q 3016 2534 2758 2815 
Q 2500 3097 2075 3097 
Q 1594 3097 1305 2825 
Q 1016 2553 972 2059 
L 3022 2063 
z
" transform="scale(0.015625)"/>
       <path id="DejaVuSans-20" transform="scale(0.015625)"/>
       <path id="DejaVuSans-63" d="M 3122 3366 
L 3122 2828 
Q 2878 2963 2633 3030 
Q 2388 3097 2138 3097 
Q 1578 3097 1268 2742 
Q 959 2388 959 1747 
Q 959 1106 1268 751 
Q 1578 397 2138 397 
Q 2388 397 2633 464 
Q 2878 531 3122 666 
L 3122 134 
Q 2881 22 2623 -34 
Q 2366 -91 2075 -91 
Q 1284 -91 818 406 
Q 353 903 353 1747 
Q 353 2603 823 3093 
Q 1294 3584 2113 3584 
Q 2378 3584 2631 3529 
Q 2884 3475 3122 3366 
z
" transform="scale(0.015625)"/>
       <path id="DejaVuSans-6d" d="M 3328 2828 
Q 3544 3216 3844 3400 
Q 4144 3584 4550 3584 
Q 5097 3584 5394 3201 
Q 5691 2819 5691 2113 
L 5691 0 
L 5113 0 
L 5113 2094 
Q 5113 2597 4934 2840 
Q 4756 3084 4391 3084 
Q 3944 3084 3684 2787 
Q 3425 2491 3425 1978 
L 3425 0 
L 2847 0 
L 2847 2094 
Q 2847 2600 2669 2842 
Q 2491 3084 2119 3084 
Q 1678 3084 1418 2786 
Q 1159 2488 1159 1978 
L 1159 0 
L 581 0 
L 581 3500 
L 1159 3500 
L 1159 2956 
Q 1356 3278 1631 3431 
Q 1906 3584 2284 3584 
Q 2666 3584 2933 3390 
Q 3200 3197 3328 2828 
z
" transform="scale(0.015625)"/>
       <path id="DejaVuSans-70" d="M 1159 525 
L 1159 -1331 
L 581 -1331 
L 581 3500 
L 1159 3500 
L 1159 2969 
Q 1341 3281 1617 3432 
Q 1894 3584 2278 3584 
Q 2916 3584 3314 3078 
Q 3713 2572 3713 1747 
Q 3713 922 3314 415 
Q 2916 -91 2278 -91 
Q 1894 -91 1617 61 
Q 1341 213 1159 525 
z
M 3116 1747 
Q 3116 2381 2855 2742 
Q 2594 3103 2138 3103 
Q 1681 3103 1420 2742 
Q 1159 2381 1159 1747 
Q 1159 1113 1420 752 
Q 1681 391 2138 391 
Q 2594 391 2855 752 
Q 3116 1113 3116 1747 
z
" transform="scale(0.015625)"/>
       <path id="DejaVuSans-61" d="M 2194 1759 
Q 1497 1759 1228 1600 
Q 959 1441 959 1056 
Q 959 750 1161 570 
Q 1363 391 1709 391 
Q 2188 391 2477 730 
Q 2766 1069 2766 1631 
L 2766 1759 
L 2194 1759 
z
M 3341 1997 
L 3341 0 
L 2766 0 
L 2766 531 
Q 2569 213 2275 61 
Q 1981 -91 1556 -91 
Q 1019 -91 701 211 
Q 384 513 384 1019 
Q 384 1609 779 1909 
Q 1175 2209 1959 2209 
L 2766 2209 
L 2766 2266 
Q 2766 2663 2505 2880 
Q 2244 3097 1772 3097 
Q 1472 3097 1187 3025 
Q 903 2953 641 2809 
L 641 3341 
Q 956 3463 1253 3523 
Q 1550 3584 1831 3584 
Q 2591 3584 2966 3190 
Q 3341 2797 3341 1997 
z
" transform="scale(0.015625)"/>
       <path id="DejaVuSans-72" d="M 2631 2963 
Q 2534 3019 2420 3045 
Q 2306 3072 2169 3072 
Q 1681 3072 1420 2755 
Q 1159 2438 1159 1844 
L 1159 0 
L 581 0 
L 581 3500 
L 1159 3500 
L 1159 2956 
Q 1341 3275 1631 3429 
Q 1922 3584 2338 3584 
Q 2397 3584 2469 3576 
Q 2541 3569 2628 3553 
L 2631 2963 
z
" transform="scale(0.015625)"/>
       <path id="DejaVuSans-74" d="M 1172 4494 
L 1172 3500 
L 2356 3500 
L 2356 3053 
L 1172 3053 
L 1172 1153 
Q 1172 725 1289 603 
Q 1406 481 1766 481 
L 2356 481 
L 2356 0 
L 1766 0 
Q 1100 0 847 248 
Q 594 497 594 1153 
L 594 3053 
L 172 3053 
L 172 3500 
L 594 3500 
L 594 4494 
L 1172 4494 
z
" transform="scale(0.015625)"/>
       <path id="DejaVuSans-64" d="M 2906 2969 
L 2906 4863 
L 3481 4863 
L 3481 0 
L 2906 0 
L 2906 525 
Q 2725 213 2448 61 
Q 2172 -91 1784 -91 
Q 1150 -91 751 415 
Q 353 922 353 1747 
Q 353 2572 751 3078 
Q 1150 3584 1784 3584 
Q 2172 3584 2448 3432 
Q 2725 3281 2906 2969 
z
M 947 1747 
Q 947 1113 1208 752 
Q 1469 391 1925 391 
Q 2381 391 2643 752 
Q 2906 1113 2906 1747 
Q 2906 2381 2643 2742 
Q 2381 3103 1925 3103 
Q 1469 3103 1208 2742 
Q 947 2381 947 1747 
z
" transform="scale(0.015625)"/>
       <path id="DejaVuSans-69" d="M 603 3500 
L 1178 3500 
L 1178 0 
L 603 0 
L 603 3500 
z
M 603 4863 
L 1178 4863 
L 1178 4134 
L 603 4134 
L 603 4863 
z
" transform="scale(0.015625)"/>
       <path id="DejaVuSans-73" d="M 2834 3397 
L 2834 2853 
Q 2591 2978 2328 3040 
Q 2066 3103 1784 3103 
Q 1356 3103 1142 2972 
Q 928 2841 928 2578 
Q 928 2378 1081 2264 
Q 1234 2150 1697 2047 
L 1894 2003 
Q 2506 1872 2764 1633 
Q 3022 1394 3022 966 
Q 3022 478 2636 193 
Q 2250 -91 1575 -91 
Q 1294 -91 989 -36 
Q 684 19 347 128 
L 347 722 
Q 666 556 975 473 
Q 1284 391 1588 391 
Q 1994 391 2212 530 
Q 2431 669 2431 922 
Q 2431 1156 2273 1281 
Q 2116 1406 1581 1522 
L 1381 1569 
Q 847 1681 609 1914 
Q 372 2147 372 2553 
Q 372 3047 722 3315 
Q 1072 3584 1716 3584 
Q 2034 3584 2315 3537 
Q 2597 3491 2834 3397 
z
" transform="scale(0.015625)"/>
       <path id="DejaVuSans-62" d="M 3116 1747 
Q 3116 2381 2855 2742 
Q 2594 3103 2138 3103 
Q 1681 3103 1420 2742 
Q 1159 2381 1159 1747 
Q 1159 1113 1420 752 
Q 1681 391 2138 391 
Q 2594 391 2855 752 
Q 3116 1113 3116 1747 
z
M 1159 2969 
Q 1341 3281 1617 3432 
Q 1894 3584 2278 3584 
Q 2916 3584 3314 3078 
Q 3713 2572 3713 1747 
Q 3713 922 3314 415 
Q 2916 -91 2278 -91 
Q 1894 -91 1617 61 
Q 1341 213 1159 525 
L 1159 0 
L 581 0 
L 581 4863 
L 1159 4863 
L 1159 2969 
z
" transform="scale(0.015625)"/>
       <path id="DejaVuSans-2c" d="M 750 794 
L 1409 794 
L 1409 256 
L 897 -744 
L 494 -744 
L 750 256 
L 750 794 
z
" transform="scale(0.015625)"/>
       <path id="DejaVuSans-4d" d="M 628 4666 
L 1569 4666 
L 2759 1491 
L 3956 4666 
L 4897 4666 
L 4897 0 
L 4281 0 
L 4281 4097 
L 3078 897 
L 2444 897 
L 1241 4097 
L 1241 0 
L 628 0 
L 628 4666 
z
" transform="scale(0.015625)"/>
       <path id="DejaVuSans-53" d="M 3425 4513 
L 3425 3897 
Q 3066 4069 2747 4153 
Q 2428 4238 2131 4238 
Q 1616 4238 1336 4038 
Q 1056 3838 1056 3469 
Q 1056 3159 1242 3001 
Q 1428 2844 1947 2747 
L 2328 2669 
Q 3034 2534 3370 2195 
Q 3706 1856 3706 1288 
Q 3706 609 3251 259 
Q 2797 -91 1919 -91 
Q 1588 -91 1214 -16 
Q 841 59 441 206 
L 441 856 
Q 825 641 1194 531 
Q 1563 422 1919 422 
Q 2459 422 2753 634 
Q 3047 847 3047 1241 
Q 3047 1584 2836 1778 
Q 2625 1972 2144 2069 
L 1759 2144 
Q 1053 2284 737 2584 
Q 422 2884 422 3419 
Q 422 4038 858 4394 
Q 1294 4750 2059 4750 
Q 2388 4750 2728 4690 
Q 3069 4631 3425 4513 
z
" transform="scale(0.015625)"/>
       <path id="DejaVuSans-42" d="M 1259 2228 
L 1259 519 
L 2272 519 
Q 2781 519 3026 730 
Q 3272 941 3272 1375 
Q 3272 1813 3026 2020 
Q 2781 2228 2272 2228 
L 1259 2228 
z
M 1259 4147 
L 1259 2741 
L 2194 2741 
Q 2656 2741 2882 2914 
Q 3109 3088 3109 3444 
Q 3109 3797 2882 3972 
Q 2656 4147 2194 4147 
L 1259 4147 
z
M 628 4666 
L 2241 4666 
Q 2963 4666 3353 4366 
Q 3744 4066 3744 3513 
Q 3744 3084 3544 2831 
Q 3344 2578 2956 2516 
Q 3422 2416 3680 2098 
Q 3938 1781 3938 1306 
Q 3938 681 3513 340 
Q 3088 0 2303 0 
L 628 0 
L 628 4666 
z
" transform="scale(0.015625)"/>
       <path id="DejaVuSans-66" d="M 2375 4863 
L 2375 4384 
L 1825 4384 
Q 1516 4384 1395 4259 
Q 1275 4134 1275 3809 
L 1275 3500 
L 2222 3500 
L 2222 3053 
L 1275 3053 
L 1275 0 
L 697 0 
L 697 3053 
L 147 3053 
L 147 3500 
L 697 3500 
L 697 3744 
Q 697 4328 969 4595 
Q 1241 4863 1831 4863 
L 2375 4863 
z
" transform="scale(0.015625)"/>
       <path id="DejaVuSans-28" d="M 1984 4856 
Q 1566 4138 1362 3434 
Q 1159 2731 1159 2009 
Q 1159 1288 1364 580 
Q 1569 -128 1984 -844 
L 1484 -844 
Q 1016 -109 783 600 
Q 550 1309 550 2009 
Q 550 2706 781 3412 
Q 1013 4119 1484 4856 
L 1984 4856 
z
" transform="scale(0.015625)"/>
       <path id="DejaVuSans-34" d="M 2419 4116 
L 825 1625 
L 2419 1625 
L 2419 4116 
z
M 2253 4666 
L 3047 4666 
L 3047 1625 
L 3713 1625 
L 3713 1100 
L 3047 1100 
L 3047 0 
L 2419 0 
L 2419 1100 
L 313 1100 
L 313 1709 
L 2253 4666 
z
" transform="scale(0.015625)"/>
       <path id="DejaVuSans-2d" d="M 313 2009 
L 1997 2009 
L 1997 1497 
L 313 1497 
L 313 2009 
z
" transform="scale(0.015625)"/>
       <path id="DejaVuSans-78" d="M 3513 3500 
L 2247 1797 
L 3578 0 
L 2900 0 
L 1881 1375 
L 863 0 
L 184 0 
L 1544 1831 
L 300 3500 
L 978 3500 
L 1906 2253 
L 2834 3500 
L 3513 3500 
z
" transform="scale(0.015625)"/>
       <path id="DejaVuSans-6c" d="M 603 4863 
L 1178 4863 
L 1178 0 
L 603 0 
L 603 4863 
z
" transform="scale(0.015625)"/>
       <path id="DejaVuSans-29" d="M 513 4856 
L 1013 4856 
Q 1481 4119 1714 3412 
Q 1947 2706 1947 2009 
Q 1947 1309 1714 600 
Q 1481 -109 1013 -844 
L 513 -844 
Q 928 -128 1133 580 
Q 1338 1288 1338 2009 
Q 1338 2731 1133 3434 
Q 928 4138 513 4856 
z
" transform="scale(0.015625)"/>
      </defs>
      <use xlink:href="#DejaVuSans-6f"/>
      <use xlink:href="#DejaVuSans-6e" transform="translate(61.181641 0)"/>
      <use xlink:href="#DejaVuSans-65" transform="translate(124.560547 0)"/>
      <use xlink:href="#DejaVuSans-20" transform="translate(186.083984 0)"/>
      <use xlink:href="#DejaVuSans-63" transform="translate(217.871094 0)"/>
      <use xlink:href="#DejaVuSans-6f" transform="translate(272.851562 0)"/>
      <use xlink:href="#DejaVuSans-6d" transform="translate(334.033203 0)"/>
      <use xlink:href="#DejaVuSans-70" transform="translate(431.445312 0)"/>
      <use xlink:href="#DejaVuSans-61" transform="translate(494.921875 0)"/>
      <use xlink:href="#DejaVuSans-72" transform="translate(556.201172 0)"/>
      <use xlink:href="#DejaVuSans-61" transform="translate(597.314453 0)"/>
      <use xlink:href="#DejaVuSans-74" transform="translate(658.59375 0)"/>
      <use xlink:href="#DejaVuSans-6f" transform="translate(697.802734 0)"/>
      <use xlink:href="#DejaVuSans-72" transform="translate(758.984375 0)"/>
      <use xlink:href="#DejaVuSans-20" transform="translate(800.097656 0)"/>
      <use xlink:href="#DejaVuSans-64" transform="translate(831.884766 0)"/>
      <use xlink:href="#DejaVuSans-65" transform="translate(895.361328 0)"/>
      <use xlink:href="#DejaVuSans-63" transform="translate(956.884766 0)"/>
      <use xlink:href="#DejaVuSans-69" transform="translate(1011.865234 0)"/>
      <use xlink:href="#DejaVuSans-73" transform="translate(1039.648438 0)"/>
      <use xlink:href="#DejaVuSans-69" transform="translate(1091.748047 0)"/>
      <use xlink:href="#DejaVuSans-6f" transform="translate(1119.53125 0)"/>
      <use xlink:href="#DejaVuSans-6e" transform="translate(1180.712891 0)"/>
      <use xlink:href="#DejaVuSans-20" transform="translate(1244.091797 0)"/>
      <use xlink:href="#DejaVuSans-70" transform="translate(1275.878906 0)"/>
      <use xlink:href="#DejaVuSans-65" transform="translate(1339.355469 0)"/>
      <use xlink:href="#DejaVuSans-72" transform="translate(1400.878906 0)"/>
      <use xlink:href="#DejaVuSans-20" transform="translate(1441.992188 0)"/>
      <use xlink:href="#DejaVuSans-62" transform="translate(1473.779297 0)"/>
      <use xlink:href="#DejaVuSans-69" transform="translate(1537.255859 0)"/>
      <use xlink:href="#DejaVuSans-74" transform="translate(1565.039062 0)"/>
      <use xlink:href="#DejaVuSans-2c" transform="translate(1604.248047 0)"/>
      <use xlink:href="#DejaVuSans-20" transform="translate(1636.035156 0)"/>
      <use xlink:href="#DejaVuSans-4d" transform="translate(1667.822266 0)"/>
      <use xlink:href="#DejaVuSans-53" transform="translate(1754.101562 0)"/>
      <use xlink:href="#DejaVuSans-42" transform="translate(1817.578125 0)"/>
      <use xlink:href="#DejaVuSans-20" transform="translate(1886.181641 0)"/>
      <use xlink:href="#DejaVuSans-66" transform="translate(1917.96875 0)"/>
      <use xlink:href="#DejaVuSans-69" transform="translate(1953.173828 0)"/>
      <use xlink:href="#DejaVuSans-72" transform="translate(1980.957031 0)"/>
      <use xlink:href="#DejaVuSans-73" transform="translate(2022.070312 0)"/>
      <use xlink:href="#DejaVuSans-74" transform="translate(2074.169922 0)"/>
      <use xlink:href="#DejaVuSans-20" transform="translate(2113.378906 0)"/>
      <use xlink:href="#DejaVuSans-20" transform="translate(2145.166016 0)"/>
      <use xlink:href="#DejaVuSans-28" transform="translate(2176.953125 0)"/>
      <use xlink:href="#DejaVuSans-34" transform="translate(2215.966797 0)"/>
      <use xlink:href="#DejaVuSans-2d" transform="translate(2279.589844 0)"/>
      <use xlink:href="#DejaVuSans-62" transform="translate(2315.673828 0)"/>
      <use xlink:href="#DejaVuSans-69" transform="translate(2379.150391 0)"/>
      <use xlink:href="#DejaVuSans-74" transform="translate(2406.933594 0)"/>
      <use xlink:href="#DejaVuSans-20" transform="translate(2446.142578 0)"/>
      <use xlink:href="#DejaVuSans-65" transform="translate(2477.929688 0)"/>
      <use xlink:href="#DejaVuSans-78" transform="translate(2537.703125 0)"/>
      <use xlink:href="#DejaVuSans-61" transform="translate(2596.882812 0)"/>
      <use xlink:href="#DejaVuSans-6d" transform="translate(2658.162109 0)"/>
      <use xlink:href="#DejaVuSans-70" transform="translate(2755.574219 0)"/>
      <use xlink:href="#DejaVuSans-6c" transform="translate(2819.050781 0)"/>
      <use xlink:href="#DejaVuSans-65" transform="translate(2846.833984 0)"/>
      <use xlink:href="#DejaVuSans-29" transform="translate(2908.357422 0)"/>
     </g>
    </g>
   </g>
   <g id="matplotlib.axis_2">
    <g id="ytick_1">
     <g id="line2d_1"/>
     <g id="text_2">
      <!-- 0 V -->
      <g style="fill: #5a6b76" transform="translate(27.874063 178.174333) scale(0.13 -0.13)">
       <defs>
        <path id="DejaVuSans-30" d="M 2034 4250 
Q 1547 4250 1301 3770 
Q 1056 3291 1056 2328 
Q 1056 1369 1301 889 
Q 1547 409 2034 409 
Q 2525 409 2770 889 
Q 3016 1369 3016 2328 
Q 3016 3291 2770 3770 
Q 2525 4250 2034 4250 
z
M 2034 4750 
Q 2819 4750 3233 4129 
Q 3647 3509 3647 2328 
Q 3647 1150 3233 529 
Q 2819 -91 2034 -91 
Q 1250 -91 836 529 
Q 422 1150 422 2328 
Q 422 3509 836 4129 
Q 1250 4750 2034 4750 
z
" transform="scale(0.015625)"/>
        <path id="DejaVuSans-56" d="M 1831 0 
L 50 4666 
L 709 4666 
L 2188 738 
L 3669 4666 
L 4325 4666 
L 2547 0 
L 1831 0 
z
" transform="scale(0.015625)"/>
       </defs>
       <use xlink:href="#DejaVuSans-30"/>
       <use xlink:href="#DejaVuSans-20" transform="translate(63.623047 0)"/>
       <use xlink:href="#DejaVuSans-56" transform="translate(95.410156 0)"/>
      </g>
     </g>
    </g>
    <g id="ytick_2">
     <g id="line2d_2"/>
     <g id="text_3">
      <!-- 1.65 V -->
      <g style="fill: #5a6b76" transform="translate(7.2 102.074798) scale(0.13 -0.13)">
       <defs>
        <path id="DejaVuSans-31" d="M 794 531 
L 1825 531 
L 1825 4091 
L 703 3866 
L 703 4441 
L 1819 4666 
L 2450 4666 
L 2450 531 
L 3481 531 
L 3481 0 
L 794 0 
L 794 531 
z
" transform="scale(0.015625)"/>
        <path id="DejaVuSans-2e" d="M 684 794 
L 1344 794 
L 1344 0 
L 684 0 
L 684 794 
z
" transform="scale(0.015625)"/>
        <path id="DejaVuSans-36" d="M 2113 2584 
Q 1688 2584 1439 2293 
Q 1191 2003 1191 1497 
Q 1191 994 1439 701 
Q 1688 409 2113 409 
Q 2538 409 2786 701 
Q 3034 994 3034 1497 
Q 3034 2003 2786 2293 
Q 2538 2584 2113 2584 
z
M 3366 4563 
L 3366 3988 
Q 3128 4100 2886 4159 
Q 2644 4219 2406 4219 
Q 1781 4219 1451 3797 
Q 1122 3375 1075 2522 
Q 1259 2794 1537 2939 
Q 1816 3084 2150 3084 
Q 2853 3084 3261 2657 
Q 3669 2231 3669 1497 
Q 3669 778 3244 343 
Q 2819 -91 2113 -91 
Q 1303 -91 875 529 
Q 447 1150 447 2328 
Q 447 3434 972 4092 
Q 1497 4750 2381 4750 
Q 2619 4750 2861 4703 
Q 3103 4656 3366 4563 
z
" transform="scale(0.015625)"/>
        <path id="DejaVuSans-35" d="M 691 4666 
L 3169 4666 
L 3169 4134 
L 1269 4134 
L 1269 2991 
Q 1406 3038 1543 3061 
Q 1681 3084 1819 3084 
Q 2600 3084 3056 2656 
Q 3513 2228 3513 1497 
Q 3513 744 3044 326 
Q 2575 -91 1722 -91 
Q 1428 -91 1123 -41 
Q 819 9 494 109 
L 494 744 
Q 775 591 1075 516 
Q 1375 441 1709 441 
Q 2250 441 2565 725 
Q 2881 1009 2881 1497 
Q 2881 1984 2565 2268 
Q 2250 2553 1709 2553 
Q 1456 2553 1204 2497 
Q 953 2441 691 2322 
L 691 4666 
z
" transform="scale(0.015625)"/>
       </defs>
       <use xlink:href="#DejaVuSans-31"/>
       <use xlink:href="#DejaVuSans-2e" transform="translate(63.623047 0)"/>
       <use xlink:href="#DejaVuSans-36" transform="translate(95.410156 0)"/>
       <use xlink:href="#DejaVuSans-35" transform="translate(159.033203 0)"/>
       <use xlink:href="#DejaVuSans-20" transform="translate(222.65625 0)"/>
       <use xlink:href="#DejaVuSans-56" transform="translate(254.443359 0)"/>
      </g>
     </g>
    </g>
    <g id="ytick_3">
     <g id="line2d_3"/>
     <g id="text_4">
      <!-- 3.3 V -->
      <g style="fill: #5a6b76" transform="translate(15.47125 25.975263) scale(0.13 -0.13)">
       <defs>
        <path id="DejaVuSans-33" d="M 2597 2516 
Q 3050 2419 3304 2112 
Q 3559 1806 3559 1356 
Q 3559 666 3084 287 
Q 2609 -91 1734 -91 
Q 1441 -91 1130 -33 
Q 819 25 488 141 
L 488 750 
Q 750 597 1062 519 
Q 1375 441 1716 441 
Q 2309 441 2620 675 
Q 2931 909 2931 1356 
Q 2931 1769 2642 2001 
Q 2353 2234 1838 2234 
L 1294 2234 
L 1294 2753 
L 1863 2753 
Q 2328 2753 2575 2939 
Q 2822 3125 2822 3475 
Q 2822 3834 2567 4026 
Q 2313 4219 1838 4219 
Q 1578 4219 1281 4162 
Q 984 4106 628 3988 
L 628 4550 
Q 988 4650 1302 4700 
Q 1616 4750 1894 4750 
Q 2613 4750 3031 4423 
Q 3450 4097 3450 3541 
Q 3450 3153 3228 2886 
Q 3006 2619 2597 2516 
z
" transform="scale(0.015625)"/>
       </defs>
       <use xlink:href="#DejaVuSans-33"/>
       <use xlink:href="#DejaVuSans-2e" transform="translate(63.623047 0)"/>
       <use xlink:href="#DejaVuSans-33" transform="translate(95.410156 0)"/>
       <use xlink:href="#DejaVuSans-20" transform="translate(159.033203 0)"/>
       <use xlink:href="#DejaVuSans-56" transform="translate(190.820312 0)"/>
      </g>
     </g>
    </g>
   </g>
   <g id="line2d_4">
    <path d="M 52.669688 66.696 
L 798.990778 66.696 
" clip-path="url(#p550bace6f2)" style="fill: none; stroke-dasharray: 11,6.6; stroke-dashoffset: 0; stroke: #d47b28; stroke-width: 2.2"/>
   </g>
   <g id="line2d_5">
    <path d="M 90.664216 97.135814 
L 177.508852 97.135814 
" clip-path="url(#p550bace6f2)" style="fill: none; stroke: #2b789f; stroke-width: 3.2; stroke-linecap: square"/>
   </g>
   <g id="line2d_6">
    <path d="M 226.35896 59.086047 
L 313.203596 59.086047 
" clip-path="url(#p550bace6f2)" style="fill: none; stroke: #2b789f; stroke-width: 3.2; stroke-linecap: square"/>
   </g>
   <g id="line2d_7">
    <path d="M 362.053703 78.11093 
L 448.898339 78.11093 
" clip-path="url(#p550bace6f2)" style="fill: none; stroke: #2b789f; stroke-width: 3.2; stroke-linecap: square"/>
   </g>
   <g id="line2d_8">
    <path d="M 497.748447 68.598488 
L 584.593083 68.598488 
" clip-path="url(#p550bace6f2)" style="fill: none; stroke: #2b789f; stroke-width: 3.2; stroke-linecap: square"/>
   </g>
   <g id="patch_3">
    <path d="M 52.669687 205.52 
L 798.990778 205.52 
" style="fill: none; stroke: #c8d8e2; stroke-width: 0.8; stroke-linejoin: miter; stroke-linecap: square"/>
   </g>
   <g id="text_5">
    <!-- V_in = 2.31 V -->
    <g style="fill: #d47b28" transform="translate(625.301506 62.083907) scale(0.15 -0.15)">
     <defs>
      <path id="DejaVuSans-Bold-56" d="M 31 4666 
L 1241 4666 
L 2478 1222 
L 3713 4666 
L 4922 4666 
L 3194 0 
L 1759 0 
L 31 4666 
z
" transform="scale(0.015625)"/>
      <path id="DejaVuSans-Bold-5f" d="M 3200 -916 
L 3200 -1509 
L 0 -1509 
L 0 -916 
L 3200 -916 
z
" transform="scale(0.015625)"/>
      <path id="DejaVuSans-Bold-69" d="M 538 3500 
L 1656 3500 
L 1656 0 
L 538 0 
L 538 3500 
z
M 538 4863 
L 1656 4863 
L 1656 3950 
L 538 3950 
L 538 4863 
z
" transform="scale(0.015625)"/>
      <path id="DejaVuSans-Bold-6e" d="M 4056 2131 
L 4056 0 
L 2931 0 
L 2931 347 
L 2931 1631 
Q 2931 2084 2911 2256 
Q 2891 2428 2841 2509 
Q 2775 2619 2662 2680 
Q 2550 2741 2406 2741 
Q 2056 2741 1856 2470 
Q 1656 2200 1656 1722 
L 1656 0 
L 538 0 
L 538 3500 
L 1656 3500 
L 1656 2988 
Q 1909 3294 2193 3439 
Q 2478 3584 2822 3584 
Q 3428 3584 3742 3212 
Q 4056 2841 4056 2131 
z
" transform="scale(0.015625)"/>
      <path id="DejaVuSans-Bold-20" transform="scale(0.015625)"/>
      <path id="DejaVuSans-Bold-3d" d="M 678 3084 
L 4684 3084 
L 4684 2350 
L 678 2350 
L 678 3084 
z
M 678 1663 
L 4684 1663 
L 4684 922 
L 678 922 
L 678 1663 
z
" transform="scale(0.015625)"/>
      <path id="DejaVuSans-Bold-32" d="M 1844 884 
L 3897 884 
L 3897 0 
L 506 0 
L 506 884 
L 2209 2388 
Q 2438 2594 2547 2791 
Q 2656 2988 2656 3200 
Q 2656 3528 2436 3728 
Q 2216 3928 1850 3928 
Q 1569 3928 1234 3808 
Q 900 3688 519 3450 
L 519 4475 
Q 925 4609 1322 4679 
Q 1719 4750 2100 4750 
Q 2938 4750 3402 4381 
Q 3866 4013 3866 3353 
Q 3866 2972 3669 2642 
Q 3472 2313 2841 1759 
L 1844 884 
z
" transform="scale(0.015625)"/>
      <path id="DejaVuSans-Bold-2e" d="M 653 1209 
L 1778 1209 
L 1778 0 
L 653 0 
L 653 1209 
z
" transform="scale(0.015625)"/>
      <path id="DejaVuSans-Bold-33" d="M 2981 2516 
Q 3453 2394 3698 2092 
Q 3944 1791 3944 1325 
Q 3944 631 3412 270 
Q 2881 -91 1863 -91 
Q 1503 -91 1142 -33 
Q 781 25 428 141 
L 428 1069 
Q 766 900 1098 814 
Q 1431 728 1753 728 
Q 2231 728 2486 893 
Q 2741 1059 2741 1369 
Q 2741 1688 2480 1852 
Q 2219 2016 1709 2016 
L 1228 2016 
L 1228 2791 
L 1734 2791 
Q 2188 2791 2409 2933 
Q 2631 3075 2631 3366 
Q 2631 3634 2415 3781 
Q 2200 3928 1806 3928 
Q 1516 3928 1219 3862 
Q 922 3797 628 3669 
L 628 4550 
Q 984 4650 1334 4700 
Q 1684 4750 2022 4750 
Q 2931 4750 3382 4451 
Q 3834 4153 3834 3553 
Q 3834 3144 3618 2883 
Q 3403 2622 2981 2516 
z
" transform="scale(0.015625)"/>
      <path id="DejaVuSans-Bold-31" d="M 750 831 
L 1813 831 
L 1813 3847 
L 722 3622 
L 722 4441 
L 1806 4666 
L 2950 4666 
L 2950 831 
L 4013 831 
L 4013 0 
L 750 0 
L 750 831 
z
" transform="scale(0.015625)"/>
     </defs>
     <use xlink:href="#DejaVuSans-Bold-56"/>
     <use xlink:href="#DejaVuSans-Bold-5f" transform="translate(77.392578 0)"/>
     <use xlink:href="#DejaVuSans-Bold-69" transform="translate(127.392578 0)"/>
     <use xlink:href="#DejaVuSans-Bold-6e" transform="translate(161.669922 0)"/>
     <use xlink:href="#DejaVuSans-Bold-20" transform="translate(232.861328 0)"/>
     <use xlink:href="#DejaVuSans-Bold-3d" transform="translate(267.675781 0)"/>
     <use xlink:href="#DejaVuSans-Bold-20" transform="translate(351.464844 0)"/>
     <use xlink:href="#DejaVuSans-Bold-32" transform="translate(386.279297 0)"/>
     <use xlink:href="#DejaVuSans-Bold-2e" transform="translate(455.859375 0)"/>
     <use xlink:href="#DejaVuSans-Bold-33" transform="translate(493.847656 0)"/>
     <use xlink:href="#DejaVuSans-Bold-31" transform="translate(563.427734 0)"/>
     <use xlink:href="#DejaVuSans-Bold-20" transform="translate(633.007812 0)"/>
     <use xlink:href="#DejaVuSans-Bold-56" transform="translate(667.822266 0)"/>
    </g>
   </g>
   <g id="text_6">
    <g id="patch_4">
     <path d="M 107.834307 94.589043 
L 160.33876 94.589043 
L 160.33876 77.473574 
L 107.834307 77.473574 
z
" style="fill: #ffffff; opacity: 0.88"/>
    </g>
    <!-- 1.65 V -->
    <g style="fill: #2b789f" transform="translate(109.859307 89.756465) scale(0.135 -0.135)">
     <defs>
      <path id="DejaVuSans-Bold-36" d="M 2316 2303 
Q 2000 2303 1842 2098 
Q 1684 1894 1684 1484 
Q 1684 1075 1842 870 
Q 2000 666 2316 666 
Q 2634 666 2792 870 
Q 2950 1075 2950 1484 
Q 2950 1894 2792 2098 
Q 2634 2303 2316 2303 
z
M 3803 4544 
L 3803 3681 
Q 3506 3822 3243 3889 
Q 2981 3956 2731 3956 
Q 2194 3956 1894 3657 
Q 1594 3359 1544 2772 
Q 1750 2925 1990 3001 
Q 2231 3078 2516 3078 
Q 3231 3078 3670 2659 
Q 4109 2241 4109 1563 
Q 4109 813 3618 361 
Q 3128 -91 2303 -91 
Q 1394 -91 895 523 
Q 397 1138 397 2266 
Q 397 3422 980 4083 
Q 1563 4744 2578 4744 
Q 2900 4744 3203 4694 
Q 3506 4644 3803 4544 
z
" transform="scale(0.015625)"/>
      <path id="DejaVuSans-Bold-35" d="M 678 4666 
L 3669 4666 
L 3669 3781 
L 1638 3781 
L 1638 3059 
Q 1775 3097 1914 3117 
Q 2053 3138 2203 3138 
Q 3056 3138 3531 2711 
Q 4006 2284 4006 1522 
Q 4006 766 3489 337 
Q 2972 -91 2053 -91 
Q 1656 -91 1267 -14 
Q 878 63 494 219 
L 494 1166 
Q 875 947 1217 837 
Q 1559 728 1863 728 
Q 2300 728 2551 942 
Q 2803 1156 2803 1522 
Q 2803 1891 2551 2103 
Q 2300 2316 1863 2316 
Q 1603 2316 1309 2248 
Q 1016 2181 678 2041 
L 678 4666 
z
" transform="scale(0.015625)"/>
     </defs>
     <use xlink:href="#DejaVuSans-Bold-31"/>
     <use xlink:href="#DejaVuSans-Bold-2e" transform="translate(69.580078 0)"/>
     <use xlink:href="#DejaVuSans-Bold-36" transform="translate(107.568359 0)"/>
     <use xlink:href="#DejaVuSans-Bold-35" transform="translate(177.148438 0)"/>
     <use xlink:href="#DejaVuSans-Bold-20" transform="translate(246.728516 0)"/>
     <use xlink:href="#DejaVuSans-Bold-56" transform="translate(281.542969 0)"/>
    </g>
   </g>
   <g id="text_7">
    <g id="patch_5">
     <path d="M 74.911143 117.832086 
L 193.261924 117.832086 
L 193.261924 100.988961 
L 74.911143 100.988961 
z
" style="fill: #ffffff; opacity: 0.88"/>
    </g>
    <!-- ≤ V_in → keep 1 -->
    <g style="fill: #3f7f58" transform="translate(76.861143 112.81693) scale(0.13 -0.13)">
     <defs>
      <path id="DejaVuSans-Bold-2264" d="M 4684 744 
L 4684 0 
L 678 0 
L 678 744 
L 4684 744 
z
M 4684 2963 
L 1881 2309 
L 4684 1656 
L 4684 897 
L 678 1947 
L 678 2681 
L 4684 3725 
L 4684 2963 
z
" transform="scale(0.015625)"/>
      <path id="DejaVuSans-Bold-2192" d="M 5050 2225 
L 5050 1788 
L 3822 559 
L 3369 1013 
L 3988 1631 
L 366 1631 
L 366 2381 
L 3988 2381 
L 3369 3000 
L 3822 3453 
L 5050 2225 
z
" transform="scale(0.015625)"/>
      <path id="DejaVuSans-Bold-6b" d="M 538 4863 
L 1656 4863 
L 1656 2216 
L 2944 3500 
L 4244 3500 
L 2534 1894 
L 4378 0 
L 3022 0 
L 1656 1459 
L 1656 0 
L 538 0 
L 538 4863 
z
" transform="scale(0.015625)"/>
      <path id="DejaVuSans-Bold-65" d="M 4031 1759 
L 4031 1441 
L 1416 1441 
Q 1456 1047 1700 850 
Q 1944 653 2381 653 
Q 2734 653 3104 758 
Q 3475 863 3866 1075 
L 3866 213 
Q 3469 63 3072 -14 
Q 2675 -91 2278 -91 
Q 1328 -91 801 392 
Q 275 875 275 1747 
Q 275 2603 792 3093 
Q 1309 3584 2216 3584 
Q 3041 3584 3536 3087 
Q 4031 2591 4031 1759 
z
M 2881 2131 
Q 2881 2450 2695 2645 
Q 2509 2841 2209 2841 
Q 1884 2841 1681 2658 
Q 1478 2475 1428 2131 
L 2881 2131 
z
" transform="scale(0.015625)"/>
      <path id="DejaVuSans-Bold-70" d="M 1656 506 
L 1656 -1331 
L 538 -1331 
L 538 3500 
L 1656 3500 
L 1656 2988 
Q 1888 3294 2169 3439 
Q 2450 3584 2816 3584 
Q 3463 3584 3878 3070 
Q 4294 2556 4294 1747 
Q 4294 938 3878 423 
Q 3463 -91 2816 -91 
Q 2450 -91 2169 54 
Q 1888 200 1656 506 
z
M 2400 2772 
Q 2041 2772 1848 2508 
Q 1656 2244 1656 1747 
Q 1656 1250 1848 986 
Q 2041 722 2400 722 
Q 2759 722 2948 984 
Q 3138 1247 3138 1747 
Q 3138 2247 2948 2509 
Q 2759 2772 2400 2772 
z
" transform="scale(0.015625)"/>
     </defs>
     <use xlink:href="#DejaVuSans-Bold-2264"/>
     <use xlink:href="#DejaVuSans-Bold-20" transform="translate(83.789062 0)"/>
     <use xlink:href="#DejaVuSans-Bold-56" transform="translate(118.603516 0)"/>
     <use xlink:href="#DejaVuSans-Bold-5f" transform="translate(195.996094 0)"/>
     <use xlink:href="#DejaVuSans-Bold-69" transform="translate(245.996094 0)"/>
     <use xlink:href="#DejaVuSans-Bold-6e" transform="translate(280.273438 0)"/>
     <use xlink:href="#DejaVuSans-Bold-20" transform="translate(351.464844 0)"/>
     <use xlink:href="#DejaVuSans-Bold-2192" transform="translate(386.279297 0)"/>
     <use xlink:href="#DejaVuSans-Bold-20" transform="translate(470.068359 0)"/>
     <use xlink:href="#DejaVuSans-Bold-6b" transform="translate(504.882812 0)"/>
     <use xlink:href="#DejaVuSans-Bold-65" transform="translate(568.761719 0)"/>
     <use xlink:href="#DejaVuSans-Bold-65" transform="translate(636.583984 0)"/>
     <use xlink:href="#DejaVuSans-Bold-70" transform="translate(704.40625 0)"/>
     <use xlink:href="#DejaVuSans-Bold-20" transform="translate(775.988281 0)"/>
     <use xlink:href="#DejaVuSans-Bold-31" transform="translate(810.802734 0)"/>
    </g>
   </g>
   <g id="text_8">
    <!-- bit 3 -->
    <g style="fill: #5a6b76" transform="translate(119.404659 192.60614) scale(0.13 -0.13)">
     <use xlink:href="#DejaVuSans-62"/>
     <use xlink:href="#DejaVuSans-69" transform="translate(63.476562 0)"/>
     <use xlink:href="#DejaVuSans-74" transform="translate(91.259766 0)"/>
     <use xlink:href="#DejaVuSans-20" transform="translate(130.46875 0)"/>
     <use xlink:href="#DejaVuSans-33" transform="translate(162.255859 0)"/>
    </g>
   </g>
   <g id="text_9">
    <g id="patch_6">
     <path d="M 243.529051 56.539276 
L 296.033504 56.539276 
L 296.033504 39.423807 
L 243.529051 39.423807 
z
" style="fill: #ffffff; opacity: 0.88"/>
    </g>
    <!-- 2.47 V -->
    <g style="fill: #2b789f" transform="translate(245.554051 51.706698) scale(0.135 -0.135)">
     <defs>
      <path id="DejaVuSans-Bold-34" d="M 2356 3675 
L 1038 1722 
L 2356 1722 
L 2356 3675 
z
M 2156 4666 
L 3494 4666 
L 3494 1722 
L 4159 1722 
L 4159 850 
L 3494 850 
L 3494 0 
L 2356 0 
L 2356 850 
L 288 850 
L 288 1881 
L 2156 4666 
z
" transform="scale(0.015625)"/>
      <path id="DejaVuSans-Bold-37" d="M 428 4666 
L 3944 4666 
L 3944 3988 
L 2125 0 
L 953 0 
L 2675 3781 
L 428 3781 
L 428 4666 
z
" transform="scale(0.015625)"/>
     </defs>
     <use xlink:href="#DejaVuSans-Bold-32"/>
     <use xlink:href="#DejaVuSans-Bold-2e" transform="translate(69.580078 0)"/>
     <use xlink:href="#DejaVuSans-Bold-34" transform="translate(107.568359 0)"/>
     <use xlink:href="#DejaVuSans-Bold-37" transform="translate(177.148438 0)"/>
     <use xlink:href="#DejaVuSans-Bold-20" transform="translate(246.728516 0)"/>
     <use xlink:href="#DejaVuSans-Bold-56" transform="translate(281.542969 0)"/>
    </g>
   </g>
   <g id="text_10">
    <g id="patch_7">
     <path d="M 210.530731 79.782319 
L 329.031824 79.782319 
L 329.031824 62.939194 
L 210.530731 62.939194 
z
" style="fill: #ffffff; opacity: 0.88"/>
    </g>
    <!-- &gt; V_in → bit = 0 -->
    <g style="fill: #5a6b76" transform="translate(212.480731 74.767163) scale(0.13 -0.13)">
     <defs>
      <path id="DejaVuSans-Bold-3e" d="M 678 3041 
L 678 3822 
L 4684 2375 
L 4684 1638 
L 678 191 
L 678 972 
L 3694 2003 
L 678 3041 
z
" transform="scale(0.015625)"/>
      <path id="DejaVuSans-Bold-62" d="M 2400 722 
Q 2759 722 2948 984 
Q 3138 1247 3138 1747 
Q 3138 2247 2948 2509 
Q 2759 2772 2400 2772 
Q 2041 2772 1848 2508 
Q 1656 2244 1656 1747 
Q 1656 1250 1848 986 
Q 2041 722 2400 722 
z
M 1656 2988 
Q 1888 3294 2169 3439 
Q 2450 3584 2816 3584 
Q 3463 3584 3878 3070 
Q 4294 2556 4294 1747 
Q 4294 938 3878 423 
Q 3463 -91 2816 -91 
Q 2450 -91 2169 54 
Q 1888 200 1656 506 
L 1656 0 
L 538 0 
L 538 4863 
L 1656 4863 
L 1656 2988 
z
" transform="scale(0.015625)"/>
      <path id="DejaVuSans-Bold-74" d="M 1759 4494 
L 1759 3500 
L 2913 3500 
L 2913 2700 
L 1759 2700 
L 1759 1216 
Q 1759 972 1856 886 
Q 1953 800 2241 800 
L 2816 800 
L 2816 0 
L 1856 0 
Q 1194 0 917 276 
Q 641 553 641 1216 
L 641 2700 
L 84 2700 
L 84 3500 
L 641 3500 
L 641 4494 
L 1759 4494 
z
" transform="scale(0.015625)"/>
      <path id="DejaVuSans-Bold-30" d="M 2944 2338 
Q 2944 3213 2780 3570 
Q 2616 3928 2228 3928 
Q 1841 3928 1675 3570 
Q 1509 3213 1509 2338 
Q 1509 1453 1675 1090 
Q 1841 728 2228 728 
Q 2613 728 2778 1090 
Q 2944 1453 2944 2338 
z
M 4147 2328 
Q 4147 1169 3647 539 
Q 3147 -91 2228 -91 
Q 1306 -91 806 539 
Q 306 1169 306 2328 
Q 306 3491 806 4120 
Q 1306 4750 2228 4750 
Q 3147 4750 3647 4120 
Q 4147 3491 4147 2328 
z
" transform="scale(0.015625)"/>
     </defs>
     <use xlink:href="#DejaVuSans-Bold-3e"/>
     <use xlink:href="#DejaVuSans-Bold-20" transform="translate(83.789062 0)"/>
     <use xlink:href="#DejaVuSans-Bold-56" transform="translate(118.603516 0)"/>
     <use xlink:href="#DejaVuSans-Bold-5f" transform="translate(195.996094 0)"/>
     <use xlink:href="#DejaVuSans-Bold-69" transform="translate(245.996094 0)"/>
     <use xlink:href="#DejaVuSans-Bold-6e" transform="translate(280.273438 0)"/>
     <use xlink:href="#DejaVuSans-Bold-20" transform="translate(351.464844 0)"/>
     <use xlink:href="#DejaVuSans-Bold-2192" transform="translate(386.279297 0)"/>
     <use xlink:href="#DejaVuSans-Bold-20" transform="translate(470.068359 0)"/>
     <use xlink:href="#DejaVuSans-Bold-62" transform="translate(504.882812 0)"/>
     <use xlink:href="#DejaVuSans-Bold-69" transform="translate(576.464844 0)"/>
     <use xlink:href="#DejaVuSans-Bold-74" transform="translate(610.742188 0)"/>
     <use xlink:href="#DejaVuSans-Bold-20" transform="translate(658.544922 0)"/>
     <use xlink:href="#DejaVuSans-Bold-3d" transform="translate(693.359375 0)"/>
     <use xlink:href="#DejaVuSans-Bold-20" transform="translate(777.148438 0)"/>
     <use xlink:href="#DejaVuSans-Bold-30" transform="translate(811.962891 0)"/>
    </g>
   </g>
   <g id="text_11">
    <!-- bit 2 -->
    <g style="fill: #5a6b76" transform="translate(255.099403 192.60614) scale(0.13 -0.13)">
     <defs>
      <path id="DejaVuSans-32" d="M 1228 531 
L 3431 531 
L 3431 0 
L 469 0 
L 469 531 
Q 828 903 1448 1529 
Q 2069 2156 2228 2338 
Q 2531 2678 2651 2914 
Q 2772 3150 2772 3378 
Q 2772 3750 2511 3984 
Q 2250 4219 1831 4219 
Q 1534 4219 1204 4116 
Q 875 4013 500 3803 
L 500 4441 
Q 881 4594 1212 4672 
Q 1544 4750 1819 4750 
Q 2544 4750 2975 4387 
Q 3406 4025 3406 3419 
Q 3406 3131 3298 2873 
Q 3191 2616 2906 2266 
Q 2828 2175 2409 1742 
Q 1991 1309 1228 531 
z
" transform="scale(0.015625)"/>
     </defs>
     <use xlink:href="#DejaVuSans-62"/>
     <use xlink:href="#DejaVuSans-69" transform="translate(63.476562 0)"/>
     <use xlink:href="#DejaVuSans-74" transform="translate(91.259766 0)"/>
     <use xlink:href="#DejaVuSans-20" transform="translate(130.46875 0)"/>
     <use xlink:href="#DejaVuSans-32" transform="translate(162.255859 0)"/>
    </g>
   </g>
   <g id="text_12">
    <g id="patch_8">
     <path d="M 379.223795 75.56416 
L 431.728248 75.56416 
L 431.728248 58.448691 
L 379.223795 58.448691 
z
" style="fill: #ffffff; opacity: 0.88"/>
    </g>
    <!-- 2.06 V -->
    <g style="fill: #2b789f" transform="translate(381.248795 70.731581) scale(0.135 -0.135)">
     <use xlink:href="#DejaVuSans-Bold-32"/>
     <use xlink:href="#DejaVuSans-Bold-2e" transform="translate(69.580078 0)"/>
     <use xlink:href="#DejaVuSans-Bold-30" transform="translate(107.568359 0)"/>
     <use xlink:href="#DejaVuSans-Bold-36" transform="translate(177.148438 0)"/>
     <use xlink:href="#DejaVuSans-Bold-20" transform="translate(246.728516 0)"/>
     <use xlink:href="#DejaVuSans-Bold-56" transform="translate(281.542969 0)"/>
    </g>
   </g>
   <g id="text_13">
    <g id="patch_9">
     <path d="M 346.300631 98.807203 
L 464.651412 98.807203 
L 464.651412 81.964078 
L 346.300631 81.964078 
z
" style="fill: #ffffff; opacity: 0.88"/>
    </g>
    <!-- ≤ V_in → keep 1 -->
    <g style="fill: #3f7f58" transform="translate(348.250631 93.792047) scale(0.13 -0.13)">
     <use xlink:href="#DejaVuSans-Bold-2264"/>
     <use xlink:href="#DejaVuSans-Bold-20" transform="translate(83.789062 0)"/>
     <use xlink:href="#DejaVuSans-Bold-56" transform="translate(118.603516 0)"/>
     <use xlink:href="#DejaVuSans-Bold-5f" transform="translate(195.996094 0)"/>
     <use xlink:href="#DejaVuSans-Bold-69" transform="translate(245.996094 0)"/>
     <use xlink:href="#DejaVuSans-Bold-6e" transform="translate(280.273438 0)"/>
     <use xlink:href="#DejaVuSans-Bold-20" transform="translate(351.464844 0)"/>
     <use xlink:href="#DejaVuSans-Bold-2192" transform="translate(386.279297 0)"/>
     <use xlink:href="#DejaVuSans-Bold-20" transform="translate(470.068359 0)"/>
     <use xlink:href="#DejaVuSans-Bold-6b" transform="translate(504.882812 0)"/>
     <use xlink:href="#DejaVuSans-Bold-65" transform="translate(568.761719 0)"/>
     <use xlink:href="#DejaVuSans-Bold-65" transform="translate(636.583984 0)"/>
     <use xlink:href="#DejaVuSans-Bold-70" transform="translate(704.40625 0)"/>
     <use xlink:href="#DejaVuSans-Bold-20" transform="translate(775.988281 0)"/>
     <use xlink:href="#DejaVuSans-Bold-31" transform="translate(810.802734 0)"/>
    </g>
   </g>
   <g id="text_14">
    <!-- bit 1 -->
    <g style="fill: #5a6b76" transform="translate(390.794146 192.60614) scale(0.13 -0.13)">
     <use xlink:href="#DejaVuSans-62"/>
     <use xlink:href="#DejaVuSans-69" transform="translate(63.476562 0)"/>
     <use xlink:href="#DejaVuSans-74" transform="translate(91.259766 0)"/>
     <use xlink:href="#DejaVuSans-20" transform="translate(130.46875 0)"/>
     <use xlink:href="#DejaVuSans-31" transform="translate(162.255859 0)"/>
    </g>
   </g>
   <g id="text_15">
    <g id="patch_10">
     <path d="M 514.918539 66.051718 
L 567.422992 66.051718 
L 567.422992 48.936249 
L 514.918539 48.936249 
z
" style="fill: #ffffff; opacity: 0.88"/>
    </g>
    <!-- 2.27 V -->
    <g style="fill: #2b789f" transform="translate(516.943539 61.21914) scale(0.135 -0.135)">
     <use xlink:href="#DejaVuSans-Bold-32"/>
     <use xlink:href="#DejaVuSans-Bold-2e" transform="translate(69.580078 0)"/>
     <use xlink:href="#DejaVuSans-Bold-32" transform="translate(107.568359 0)"/>
     <use xlink:href="#DejaVuSans-Bold-37" transform="translate(177.148438 0)"/>
     <use xlink:href="#DejaVuSans-Bold-20" transform="translate(246.728516 0)"/>
     <use xlink:href="#DejaVuSans-Bold-56" transform="translate(281.542969 0)"/>
    </g>
   </g>
   <g id="text_16">
    <g id="patch_11">
     <path d="M 481.995375 89.294761 
L 600.346156 89.294761 
L 600.346156 72.451636 
L 481.995375 72.451636 
z
" style="fill: #ffffff; opacity: 0.88"/>
    </g>
    <!-- ≤ V_in → keep 1 -->
    <g style="fill: #3f7f58" transform="translate(483.945375 84.279605) scale(0.13 -0.13)">
     <use xlink:href="#DejaVuSans-Bold-2264"/>
     <use xlink:href="#DejaVuSans-Bold-20" transform="translate(83.789062 0)"/>
     <use xlink:href="#DejaVuSans-Bold-56" transform="translate(118.603516 0)"/>
     <use xlink:href="#DejaVuSans-Bold-5f" transform="translate(195.996094 0)"/>
     <use xlink:href="#DejaVuSans-Bold-69" transform="translate(245.996094 0)"/>
     <use xlink:href="#DejaVuSans-Bold-6e" transform="translate(280.273438 0)"/>
     <use xlink:href="#DejaVuSans-Bold-20" transform="translate(351.464844 0)"/>
     <use xlink:href="#DejaVuSans-Bold-2192" transform="translate(386.279297 0)"/>
     <use xlink:href="#DejaVuSans-Bold-20" transform="translate(470.068359 0)"/>
     <use xlink:href="#DejaVuSans-Bold-6b" transform="translate(504.882812 0)"/>
     <use xlink:href="#DejaVuSans-Bold-65" transform="translate(568.761719 0)"/>
     <use xlink:href="#DejaVuSans-Bold-65" transform="translate(636.583984 0)"/>
     <use xlink:href="#DejaVuSans-Bold-70" transform="translate(704.40625 0)"/>
     <use xlink:href="#DejaVuSans-Bold-20" transform="translate(775.988281 0)"/>
     <use xlink:href="#DejaVuSans-Bold-31" transform="translate(810.802734 0)"/>
    </g>
   </g>
   <g id="text_17">
    <!-- bit 0 -->
    <g style="fill: #5a6b76" transform="translate(526.48889 192.60614) scale(0.13 -0.13)">
     <use xlink:href="#DejaVuSans-62"/>
     <use xlink:href="#DejaVuSans-69" transform="translate(63.476562 0)"/>
     <use xlink:href="#DejaVuSans-74" transform="translate(91.259766 0)"/>
     <use xlink:href="#DejaVuSans-20" transform="translate(130.46875 0)"/>
     <use xlink:href="#DejaVuSans-30" transform="translate(162.255859 0)"/>
    </g>
   </g>
   <g id="text_18">
    <!-- code = 1011 → 11 -->
    <g style="fill: #174f73" transform="translate(625.301506 120.634411) scale(0.145 -0.145)">
     <defs>
      <path id="DejaVuSans-Bold-63" d="M 3366 3391 
L 3366 2478 
Q 3138 2634 2908 2709 
Q 2678 2784 2431 2784 
Q 1963 2784 1702 2511 
Q 1441 2238 1441 1747 
Q 1441 1256 1702 982 
Q 1963 709 2431 709 
Q 2694 709 2930 787 
Q 3166 866 3366 1019 
L 3366 103 
Q 3103 6 2833 -42 
Q 2563 -91 2291 -91 
Q 1344 -91 809 395 
Q 275 881 275 1747 
Q 275 2613 809 3098 
Q 1344 3584 2291 3584 
Q 2566 3584 2833 3536 
Q 3100 3488 3366 3391 
z
" transform="scale(0.015625)"/>
      <path id="DejaVuSans-Bold-6f" d="M 2203 2784 
Q 1831 2784 1636 2517 
Q 1441 2250 1441 1747 
Q 1441 1244 1636 976 
Q 1831 709 2203 709 
Q 2569 709 2762 976 
Q 2956 1244 2956 1747 
Q 2956 2250 2762 2517 
Q 2569 2784 2203 2784 
z
M 2203 3584 
Q 3106 3584 3614 3096 
Q 4122 2609 4122 1747 
Q 4122 884 3614 396 
Q 3106 -91 2203 -91 
Q 1297 -91 786 396 
Q 275 884 275 1747 
Q 275 2609 786 3096 
Q 1297 3584 2203 3584 
z
" transform="scale(0.015625)"/>
      <path id="DejaVuSans-Bold-64" d="M 2919 2988 
L 2919 4863 
L 4044 4863 
L 4044 0 
L 2919 0 
L 2919 506 
Q 2688 197 2409 53 
Q 2131 -91 1766 -91 
Q 1119 -91 703 423 
Q 288 938 288 1747 
Q 288 2556 703 3070 
Q 1119 3584 1766 3584 
Q 2128 3584 2408 3439 
Q 2688 3294 2919 2988 
z
M 2181 722 
Q 2541 722 2730 984 
Q 2919 1247 2919 1747 
Q 2919 2247 2730 2509 
Q 2541 2772 2181 2772 
Q 1825 2772 1636 2509 
Q 1447 2247 1447 1747 
Q 1447 1247 1636 984 
Q 1825 722 2181 722 
z
" transform="scale(0.015625)"/>
     </defs>
     <use xlink:href="#DejaVuSans-Bold-63"/>
     <use xlink:href="#DejaVuSans-Bold-6f" transform="translate(59.277344 0)"/>
     <use xlink:href="#DejaVuSans-Bold-64" transform="translate(127.978516 0)"/>
     <use xlink:href="#DejaVuSans-Bold-65" transform="translate(199.560547 0)"/>
     <use xlink:href="#DejaVuSans-Bold-20" transform="translate(267.382812 0)"/>
     <use xlink:href="#DejaVuSans-Bold-3d" transform="translate(302.197266 0)"/>
     <use xlink:href="#DejaVuSans-Bold-20" transform="translate(385.986328 0)"/>
     <use xlink:href="#DejaVuSans-Bold-31" transform="translate(420.800781 0)"/>
     <use xlink:href="#DejaVuSans-Bold-30" transform="translate(490.380859 0)"/>
     <use xlink:href="#DejaVuSans-Bold-31" transform="translate(559.960938 0)"/>
     <use xlink:href="#DejaVuSans-Bold-31" transform="translate(629.541016 0)"/>
     <use xlink:href="#DejaVuSans-Bold-20" transform="translate(699.121094 0)"/>
     <use xlink:href="#DejaVuSans-Bold-2192" transform="translate(733.935547 0)"/>
     <use xlink:href="#DejaVuSans-Bold-20" transform="translate(817.724609 0)"/>
     <use xlink:href="#DejaVuSans-Bold-31" transform="translate(852.539062 0)"/>
     <use xlink:href="#DejaVuSans-Bold-31" transform="translate(922.119141 0)"/>
    </g>
    <!-- ready in 4 decisions -->
    <g style="fill: #174f73" transform="translate(625.301506 136.871239) scale(0.145 -0.145)">
     <defs>
      <path id="DejaVuSans-Bold-72" d="M 3138 2547 
Q 2991 2616 2845 2648 
Q 2700 2681 2553 2681 
Q 2122 2681 1889 2404 
Q 1656 2128 1656 1613 
L 1656 0 
L 538 0 
L 538 3500 
L 1656 3500 
L 1656 2925 
Q 1872 3269 2151 3426 
Q 2431 3584 2822 3584 
Q 2878 3584 2943 3579 
Q 3009 3575 3134 3559 
L 3138 2547 
z
" transform="scale(0.015625)"/>
      <path id="DejaVuSans-Bold-61" d="M 2106 1575 
Q 1756 1575 1579 1456 
Q 1403 1338 1403 1106 
Q 1403 894 1545 773 
Q 1688 653 1941 653 
Q 2256 653 2472 879 
Q 2688 1106 2688 1447 
L 2688 1575 
L 2106 1575 
z
M 3816 1997 
L 3816 0 
L 2688 0 
L 2688 519 
Q 2463 200 2181 54 
Q 1900 -91 1497 -91 
Q 953 -91 614 226 
Q 275 544 275 1050 
Q 275 1666 698 1953 
Q 1122 2241 2028 2241 
L 2688 2241 
L 2688 2328 
Q 2688 2594 2478 2717 
Q 2269 2841 1825 2841 
Q 1466 2841 1156 2769 
Q 847 2697 581 2553 
L 581 3406 
Q 941 3494 1303 3539 
Q 1666 3584 2028 3584 
Q 2975 3584 3395 3211 
Q 3816 2838 3816 1997 
z
" transform="scale(0.015625)"/>
      <path id="DejaVuSans-Bold-79" d="M 78 3500 
L 1197 3500 
L 2138 1125 
L 2938 3500 
L 4056 3500 
L 2584 -331 
Q 2363 -916 2067 -1148 
Q 1772 -1381 1288 -1381 
L 641 -1381 
L 641 -647 
L 991 -647 
Q 1275 -647 1404 -556 
Q 1534 -466 1606 -231 
L 1638 -134 
L 78 3500 
z
" transform="scale(0.015625)"/>
      <path id="DejaVuSans-Bold-73" d="M 3272 3391 
L 3272 2541 
Q 2913 2691 2578 2766 
Q 2244 2841 1947 2841 
Q 1628 2841 1473 2761 
Q 1319 2681 1319 2516 
Q 1319 2381 1436 2309 
Q 1553 2238 1856 2203 
L 2053 2175 
Q 2913 2066 3209 1816 
Q 3506 1566 3506 1031 
Q 3506 472 3093 190 
Q 2681 -91 1863 -91 
Q 1516 -91 1145 -36 
Q 775 19 384 128 
L 384 978 
Q 719 816 1070 734 
Q 1422 653 1784 653 
Q 2113 653 2278 743 
Q 2444 834 2444 1013 
Q 2444 1163 2330 1236 
Q 2216 1309 1875 1350 
L 1678 1375 
Q 931 1469 631 1722 
Q 331 1975 331 2491 
Q 331 3047 712 3315 
Q 1094 3584 1881 3584 
Q 2191 3584 2531 3537 
Q 2872 3491 3272 3391 
z
" transform="scale(0.015625)"/>
     </defs>
     <use xlink:href="#DejaVuSans-Bold-72"/>
     <use xlink:href="#DejaVuSans-Bold-65" transform="translate(49.316406 0)"/>
     <use xlink:href="#DejaVuSans-Bold-61" transform="translate(117.138672 0)"/>
     <use xlink:href="#DejaVuSans-Bold-64" transform="translate(184.619141 0)"/>
     <use xlink:href="#DejaVuSans-Bold-79" transform="translate(256.201172 0)"/>
     <use xlink:href="#DejaVuSans-Bold-20" transform="translate(321.386719 0)"/>
     <use xlink:href="#DejaVuSans-Bold-69" transform="translate(356.201172 0)"/>
     <use xlink:href="#DejaVuSans-Bold-6e" transform="translate(390.478516 0)"/>
     <use xlink:href="#DejaVuSans-Bold-20" transform="translate(461.669922 0)"/>
     <use xlink:href="#DejaVuSans-Bold-34" transform="translate(496.484375 0)"/>
     <use xlink:href="#DejaVuSans-Bold-20" transform="translate(566.064453 0)"/>
     <use xlink:href="#DejaVuSans-Bold-64" transform="translate(600.878906 0)"/>
     <use xlink:href="#DejaVuSans-Bold-65" transform="translate(672.460938 0)"/>
     <use xlink:href="#DejaVuSans-Bold-63" transform="translate(740.283203 0)"/>
     <use xlink:href="#DejaVuSans-Bold-69" transform="translate(799.560547 0)"/>
     <use xlink:href="#DejaVuSans-Bold-73" transform="translate(833.837891 0)"/>
     <use xlink:href="#DejaVuSans-Bold-69" transform="translate(893.359375 0)"/>
     <use xlink:href="#DejaVuSans-Bold-6f" transform="translate(927.636719 0)"/>
     <use xlink:href="#DejaVuSans-Bold-6e" transform="translate(996.337891 0)"/>
     <use xlink:href="#DejaVuSans-Bold-73" transform="translate(1067.529297 0)"/>
    </g>
   </g>
  </g>
 </g>
 <defs>
  <clipPath id="p550bace6f2">
   <rect x="52.669688" y="7.2" width="746.321091" height="198.32"/>
  </clipPath>
 </defs>
</svg>
